<svg width="24" height="24" viewBox="0 0 24 24" fill="none" xmlns="http://www.w3.org/2000/svg">
<path d="M21.1667 4H2.83333C2.33333 4 2 4.32 2 4.8V19.2C2 19.68 2.33333 20 2.83333 20H21.1667C21.6667 20 22 19.68 22 19.2V4.8C22 4.32 21.6667 4 21.1667 4ZM19.25 7.84L12.5833 13.44C12.4167 13.52 12.1667 13.6 12 13.6C11.8333 13.6 11.5833 13.52 11.4167 13.44L4.75 7.84C4.41667 7.52 4.33333 7.04 4.66667 6.72C5 6.4 5.5 6.32 5.83333 6.64L11.9167 11.76L18 6.64C18.3333 6.32 18.8333 6.4 19.1667 6.72C19.5833 7.04 19.5833 7.52 19.25 7.84Z" fill="#1999F9"/>
</svg>
