<svg width="32" height="32" viewBox="0 0 32 32" fill="none" xmlns="http://www.w3.org/2000/svg">
<rect width="32" height="32" rx="16" fill="#FB0234"/>
<path d="M14.86 10.5735L9.21335 20.0001C9.09693 20.2018 9.03533 20.4303 9.03467 20.6631C9.03402 20.896 9.09434 21.1249 9.20963 21.3272C9.32492 21.5294 9.49116 21.698 9.69182 21.816C9.89247 21.9341 10.1205 21.9976 10.3533 22.0001H21.6467C21.8795 21.9976 22.1076 21.9341 22.3082 21.816C22.5089 21.698 22.6751 21.5294 22.7904 21.3272C22.9057 21.1249 22.966 20.896 22.9654 20.6631C22.9647 20.4303 22.9031 20.2018 22.7867 20.0001L17.14 10.5735C17.0212 10.3775 16.8538 10.2155 16.6541 10.1031C16.4545 9.9907 16.2292 9.93164 16 9.93164C15.7709 9.93164 15.5456 9.9907 15.3459 10.1031C15.1462 10.2155 14.9789 10.3775 14.86 10.5735V10.5735Z" stroke="white" stroke-width="2" stroke-linecap="round" stroke-linejoin="round"/>
<path d="M16 14V16.6667" stroke="white" stroke-width="2" stroke-linecap="round" stroke-linejoin="round"/>
<path d="M16 19.334H16.0067" stroke="white" stroke-width="2" stroke-linecap="round" stroke-linejoin="round"/>
</svg>
