<svg width="52" height="52" viewBox="0 0 52 52" fill="none" xmlns="http://www.w3.org/2000/svg">
<path d="M42.12 19.5637L33.3883 10.832H23.8333V15.1654H31.6117L35.945 19.4987H10.8333C4.76667 19.4987 0 24.2654 0 30.332C0 36.3987 4.76667 41.1654 10.8333 41.1654C16.1633 41.1654 20.475 37.5037 21.45 32.4987H25.025L31.0267 26.497C30.5717 27.667 30.3333 28.967 30.3333 30.332C30.3333 36.3987 35.1 41.1654 41.1667 41.1654C47.2333 41.1654 52 36.3987 52 30.332C52 24.5904 47.7317 19.997 42.12 19.5637V19.5637ZM16.9433 32.4987C16.0333 34.9904 13.6067 36.832 10.8333 36.832C7.30167 36.832 4.33333 33.8637 4.33333 30.332C4.33333 26.8004 7.30167 23.832 10.8333 23.832C13.6067 23.832 16.0333 25.6737 16.9433 28.1654H10.8333V32.4987H16.9433ZM41.1667 36.832C37.57 36.832 34.6667 33.9287 34.6667 30.332C34.6667 26.7354 37.57 23.832 41.1667 23.832C44.7633 23.832 47.6667 26.7354 47.6667 30.332C47.6667 33.9287 44.7633 36.832 41.1667 36.832Z" fill="#1999F9"/>
<path fill-rule="evenodd" clip-rule="evenodd" d="M12 1.875C6.40811 1.875 1.875 6.40811 1.875 12C1.875 17.5919 6.40811 22.125 12 22.125C17.5919 22.125 22.125 17.5919 22.125 12C22.125 6.40811 17.5919 1.875 12 1.875Z" fill="#00BF91"/>
<path fill-rule="evenodd" clip-rule="evenodd" d="M10.3685 15.4409L9.72925 14.8016L15.9236 8.58466C16.1354 8.37282 16.4788 8.37282 16.6907 8.58466L16.9464 8.84034C17.1582 9.05217 17.1582 9.39561 16.9464 9.60744L11.1356 15.4409C10.9237 15.6527 10.5803 15.6527 10.3685 15.4409Z" fill="#F4FAFF"/>
<path fill-rule="evenodd" clip-rule="evenodd" d="M11.7737 14.7987L11.1344 15.438C10.9226 15.6498 10.5792 15.6498 10.3674 15.438L7.82196 12.8926C7.61013 12.6808 7.61013 12.3373 7.82196 12.1255L8.07764 11.8698C8.28947 11.658 8.63291 11.658 8.84474 11.8698L11.7737 14.7987Z" fill="#F4FAFF"/>
</svg>
