<svg width="180" height="180" viewBox="0 0 180 180" fill="none" xmlns="http://www.w3.org/2000/svg">
<path d="M34.1227 158.747L39.1792 163.889L44.2997 158.747L49.3562 163.889L54.4767 158.747L59.5331 163.889L64.6502 158.747L69.7067 163.889L74.8272 158.747L79.8837 163.889L85.0025 158.747L90.0589 163.889L95.1777 158.747L100.234 163.889L105.355 158.747L110.409 163.889L115.53 158.747L120.586 163.889L125.705 158.747L130.762 163.889L135.882 158.747L140.946 163.891L146.057 158.747L150.996 163.771V19.2753C150.996 16.9789 149.134 15.1172 146.837 15.1172H33.1627C30.8659 15.1172 29.0039 16.9789 29.0039 19.2753V164.707V163.891L34.1227 158.747Z" fill="#72C2FF"/>
<path d="M127.314 65.0391H52.6864C51.8392 65.0391 51.1523 65.7259 51.1523 66.5732V69.13C51.1523 69.9772 51.8392 70.6641 52.6864 70.6641H127.314C128.161 70.6641 128.848 69.9772 128.848 69.13V66.5732C128.848 65.7259 128.161 65.0391 127.314 65.0391Z" fill="#F4FAFF"/>
<path d="M33.1627 15.1172H146.837C149.134 15.1172 150.996 17.006 150.996 19.3359V20.7422H29.0039V19.3359C29.0039 17.006 30.8659 15.1172 33.1627 15.1172Z" fill="#2480FF"/>
<path d="M127.314 76.6406H52.6864C51.8392 76.6406 51.1523 77.3275 51.1523 78.1747V80.7315C51.1523 81.5788 51.8392 82.2656 52.6864 82.2656H127.314C128.161 82.2656 128.848 81.5788 128.848 80.7315V78.1747C128.848 77.3275 128.161 76.6406 127.314 76.6406Z" fill="#F4FAFF"/>
<path d="M127.314 88.2422H52.6864C51.8392 88.2422 51.1523 88.929 51.1523 89.7763V92.3331C51.1523 93.1804 51.8392 93.8672 52.6864 93.8672H127.314C128.161 93.8672 128.848 93.1804 128.848 92.3331V89.7763C128.848 88.929 128.161 88.2422 127.314 88.2422Z" fill="#F4FAFF"/>
<path d="M53.1738 116.234V140.055C53.1738 140.71 52.6432 141.24 51.9887 141.24H51.898C51.2435 141.24 50.7129 140.71 50.7129 140.055V116.234C50.7129 115.579 51.2435 115.049 51.898 115.049H51.9887C52.6432 115.049 53.1738 115.579 53.1738 116.234Z" fill="#2480FF"/>
<path d="M58.8867 116.498V140.319C58.8867 140.973 58.3561 141.504 57.7016 141.504H56.3804C55.7259 141.504 55.1953 140.973 55.1953 140.319V116.498C55.1953 115.843 55.7259 115.312 56.3804 115.312H57.7016C58.3561 115.312 58.8867 115.843 58.8867 116.498Z" fill="#2480FF"/>
<path d="M84.1992 116.498V140.319C84.1992 140.973 83.6686 141.504 83.0141 141.504H81.6929C81.0384 141.504 80.5078 140.973 80.5078 140.319V116.498C80.5078 115.843 81.0384 115.312 81.6929 115.312H83.0141C83.6686 115.312 84.1992 115.843 84.1992 116.498Z" fill="#2480FF"/>
<path d="M74.0039 116.498V140.319C74.0039 140.973 73.4733 141.504 72.8188 141.504H71.4976C70.8431 141.504 70.3125 140.973 70.3125 140.319V116.498C70.3125 115.843 70.8431 115.312 71.4976 115.312H72.8188C73.4733 115.312 74.0039 115.843 74.0039 116.498Z" fill="#2480FF"/>
<path d="M62.9297 116.279V140.537C62.9297 141.071 62.4968 141.504 61.9629 141.504C61.4289 141.504 60.9961 141.071 60.9961 140.537V116.279C60.9961 115.745 61.4289 115.312 61.9629 115.312C62.4968 115.312 62.9297 115.745 62.9297 116.279Z" fill="#2480FF"/>
<path d="M68.0273 140.537V116.279C68.0273 115.745 67.5945 115.312 67.0605 115.312C66.5266 115.312 66.0938 115.745 66.0938 116.279V140.537C66.0938 141.071 66.5266 141.504 67.0605 141.504C67.5945 141.504 68.0273 141.071 68.0273 140.537Z" fill="#2480FF"/>
<path d="M78.2227 116.279V140.537C78.2227 141.071 77.7898 141.504 77.2559 141.504C76.7219 141.504 76.2891 141.071 76.2891 140.537V116.279C76.2891 115.745 76.7219 115.312 77.2559 115.312C77.7898 115.312 78.2227 115.745 78.2227 116.279Z" fill="#2480FF"/>
<path d="M87.8906 115.752V141.064C87.8906 141.307 87.6939 141.504 87.4512 141.504C87.2085 141.504 87.0117 141.307 87.0117 141.064V115.752C87.0117 115.509 87.2085 115.312 87.4512 115.312C87.6939 115.312 87.8906 115.509 87.8906 115.752Z" fill="#2480FF"/>
<path d="M93.6035 116.234V140.055C93.6035 140.71 93.0729 141.24 92.4184 141.24H92.3277C91.6732 141.24 91.1426 140.71 91.1426 140.055V116.234C91.1426 115.579 91.6732 115.049 92.3277 115.049H92.4184C93.0729 115.049 93.6035 115.579 93.6035 116.234Z" fill="#2480FF"/>
<path d="M99.3164 116.498V140.319C99.3164 140.973 98.7858 141.504 98.1313 141.504H96.8101C96.1556 141.504 95.625 140.973 95.625 140.319V116.498C95.625 115.843 96.1556 115.312 96.8101 115.312H98.1313C98.7858 115.312 99.3164 115.843 99.3164 116.498Z" fill="#2480FF"/>
<path d="M124.629 116.498V140.319C124.629 140.973 124.098 141.504 123.444 141.504H122.123C121.468 141.504 120.938 140.973 120.938 140.319V116.498C120.938 115.843 121.468 115.312 122.123 115.312H123.444C124.098 115.312 124.629 115.843 124.629 116.498Z" fill="#2480FF"/>
<path d="M114.609 116.498V140.319C114.609 140.973 114.079 141.504 113.424 141.504H112.103C111.449 141.504 110.918 140.973 110.918 140.319V116.498C110.918 115.843 111.449 115.312 112.103 115.312H113.424C114.079 115.312 114.609 115.843 114.609 116.498Z" fill="#2480FF"/>
<path d="M103.535 116.279V140.537C103.535 141.071 103.102 141.504 102.568 141.504C102.034 141.504 101.602 141.071 101.602 140.537V116.279C101.602 115.745 102.034 115.312 102.568 115.312C103.102 115.312 103.535 115.745 103.535 116.279Z" fill="#2480FF"/>
<path d="M108.633 116.279V140.537C108.633 141.071 108.2 141.504 107.666 141.504C107.132 141.504 106.699 141.071 106.699 140.537V116.279C106.699 115.745 107.132 115.312 107.666 115.312C108.2 115.312 108.633 115.745 108.633 116.279Z" fill="#2480FF"/>
<path d="M118.828 116.279V140.537C118.828 141.071 118.395 141.504 117.861 141.504C117.327 141.504 116.895 141.071 116.895 140.537V116.279C116.895 115.745 117.327 115.312 117.861 115.312C118.395 115.312 118.828 115.745 118.828 116.279Z" fill="#2480FF"/>
<path d="M128.32 115.752V141.064C128.32 141.307 128.124 141.504 127.881 141.504C127.638 141.504 127.441 141.307 127.441 141.064V115.752C127.441 115.509 127.638 115.312 127.881 115.312C128.124 115.312 128.32 115.509 128.32 115.752Z" fill="#2480FF"/>
<path d="M87.2586 47.2837C86.8383 46.9742 86.4667 46.6038 86.1562 46.1847C85.7395 45.6317 85.4617 44.7251 85.2881 43.7267C84.4738 43.6279 83.8419 42.834 83.8419 41.8685C83.8419 41.0399 84.3071 40.3378 84.953 40.0934C84.9287 39.1695 84.953 38.5333 84.953 38.5333C84.9635 36.9471 85.7582 35.4685 87.0763 34.5829C87.0763 34.5829 88.4461 33.0471 92.698 33.0471V34.3385C94.2294 35.1817 95.1863 36.7839 95.2015 38.5299C95.2015 38.5299 95.2224 39.2024 95.2015 40.1628C95.8103 40.5125 96.1776 41.1675 96.1581 41.8685C96.1581 42.7681 95.6078 43.5204 94.8751 43.6972C94.6928 44.7078 94.415 45.6265 93.9949 46.1847C93.6482 46.6589 93.2217 47.0695 92.7344 47.3981V49.3898C93.8919 49.7963 95.0257 50.2674 96.1304 50.8008C100.637 48.0577 102.765 42.6562 101.338 37.583C99.911 32.5098 95.2777 29.0039 90 29.0039C84.7223 29.0039 80.089 32.5098 78.6622 37.583C77.2354 42.6562 79.3634 48.0577 83.8696 50.8008C84.9743 50.2674 86.1081 49.7963 87.2656 49.3898L87.2586 47.2837Z" fill="#F4FAFF"/>
<path d="M96.124 50.8383C95.0207 50.3037 93.8884 49.8315 92.7324 49.4239V47.4274C93.2191 47.098 93.645 46.6864 93.9912 46.2111C94.4108 45.6515 94.6848 44.7306 94.8703 43.7176C95.6021 43.5438 96.1517 42.7862 96.1517 41.8844C96.1694 41.1863 95.8058 40.5341 95.2033 40.1833C95.231 39.2206 95.2033 38.5464 95.2033 38.5464C95.1872 36.7927 94.227 35.1846 92.6925 34.3414V33.0469C88.4461 33.0469 87.078 34.5864 87.078 34.5864C85.7616 35.4742 84.9678 36.9564 84.9574 38.5464C84.9574 38.5464 84.9366 39.1876 84.9574 40.1103C84.3124 40.3553 83.8477 41.059 83.8477 41.8896C83.8477 42.8575 84.4788 43.6533 85.292 43.7523C85.4741 44.7532 85.7498 45.6637 86.159 46.2163C86.4692 46.6364 86.8403 47.0077 87.2601 47.3179V49.4222C86.104 49.8297 84.9717 50.3019 83.8685 50.8366C87.6287 53.1326 92.3534 53.1326 96.1136 50.8366L96.124 50.8383Z" fill="#2480FF"/>
</svg>
