<svg width="52" height="52" viewBox="0 0 52 52" fill="none" xmlns="http://www.w3.org/2000/svg">
<path d="M43.3334 8.66797H8.66671C6.26171 8.66797 4.35504 10.5963 4.35504 13.0013L4.33337 39.0013C4.33337 41.4063 6.26171 43.3346 8.66671 43.3346H43.3334C45.7384 43.3346 47.6667 41.4063 47.6667 39.0013V13.0013C47.6667 10.5963 45.7384 8.66797 43.3334 8.66797ZM43.3334 39.0013H8.66671V26.0013H43.3334V39.0013ZM43.3334 17.3346H8.66671V13.0013H43.3334V17.3346Z" fill="#1999F9"/>
<path fill-rule="evenodd" clip-rule="evenodd" d="M12 1.875C6.40811 1.875 1.875 6.40811 1.875 12C1.875 17.5919 6.40811 22.125 12 22.125C17.5919 22.125 22.125 17.5919 22.125 12C22.125 6.40811 17.5919 1.875 12 1.875Z" fill="#E72222"/>
<path fill-rule="evenodd" clip-rule="evenodd" d="M15.3239 15.0669L15.0682 15.3225C14.8564 15.5344 14.513 15.5344 14.3011 15.3225L8.67584 9.69727C8.46401 9.48545 8.46401 9.14202 8.67584 8.93018L8.93152 8.67448C9.14336 8.46267 9.48679 8.46267 9.6986 8.67448L15.3239 14.2998C15.5357 14.5116 15.5357 14.855 15.3239 15.0669Z" fill="#F4FAFF"/>
<path fill-rule="evenodd" clip-rule="evenodd" d="M8.67633 15.0669L8.93204 15.3225C9.14385 15.5344 9.48729 15.5344 9.69912 15.3225L15.3244 9.69727C15.5363 9.48545 15.5363 9.14202 15.3244 8.93018L15.0687 8.67448C14.8569 8.46267 14.5135 8.46267 14.3017 8.67448L8.67633 14.2998C8.4645 14.5116 8.4645 14.855 8.67633 15.0669Z" fill="#F4FAFF"/>
</svg>
