<svg width="52" height="52" viewBox="0 0 52 52" fill="none" xmlns="http://www.w3.org/2000/svg">
<path d="M43.3334 8.66797H8.66671C6.26171 8.66797 4.35504 10.5963 4.35504 13.0013L4.33337 39.0013C4.33337 41.4063 6.26171 43.3346 8.66671 43.3346H43.3334C45.7384 43.3346 47.6667 41.4063 47.6667 39.0013V13.0013C47.6667 10.5963 45.7384 8.66797 43.3334 8.66797ZM43.3334 39.0013H8.66671V26.0013H43.3334V39.0013ZM43.3334 17.3346H8.66671V13.0013H43.3334V17.3346Z" fill="#1999F9"/>
<path fill-rule="evenodd" clip-rule="evenodd" d="M12 1.875C6.40811 1.875 1.875 6.40811 1.875 12C1.875 17.5919 6.40811 22.125 12 22.125C17.5919 22.125 22.125 17.5919 22.125 12C22.125 6.40811 17.5919 1.875 12 1.875Z" fill="#00BF91"/>
<path fill-rule="evenodd" clip-rule="evenodd" d="M10.3685 15.4409L9.72925 14.8016L15.9236 8.58466C16.1354 8.37282 16.4788 8.37282 16.6907 8.58466L16.9464 8.84034C17.1582 9.05217 17.1582 9.39561 16.9464 9.60744L11.1356 15.4409C10.9237 15.6527 10.5803 15.6527 10.3685 15.4409Z" fill="#F4FAFF"/>
<path fill-rule="evenodd" clip-rule="evenodd" d="M11.7737 14.7987L11.1344 15.438C10.9226 15.6498 10.5792 15.6498 10.3674 15.438L7.82196 12.8926C7.61013 12.6808 7.61013 12.3373 7.82196 12.1255L8.07764 11.8698C8.28947 11.658 8.63291 11.658 8.84474 11.8698L11.7737 14.7987Z" fill="#F4FAFF"/>
</svg>
