<svg width="52" height="52" viewBox="0 0 52 52" fill="none" xmlns="http://www.w3.org/2000/svg">
<path d="M10.5632 11.3763H49.2923L44.959 34.1263H14.6257L9.20898 3.79297H2.70898" stroke="#1999F9" stroke-width="4" stroke-miterlimit="10" stroke-linecap="round" stroke-linejoin="round"/>
<path d="M16.7923 49.2917C19.1856 49.2917 21.1257 47.3516 21.1257 44.9583C21.1257 42.5651 19.1856 40.625 16.7923 40.625C14.3991 40.625 12.459 42.5651 12.459 44.9583C12.459 47.3516 14.3991 49.2917 16.7923 49.2917Z" stroke="#1999F9" stroke-width="4" stroke-miterlimit="10" stroke-linecap="round" stroke-linejoin="round"/>
<path d="M42.7923 49.2917C45.1856 49.2917 47.1257 47.3516 47.1257 44.9583C47.1257 42.5651 45.1856 40.625 42.7923 40.625C40.3991 40.625 38.459 42.5651 38.459 44.9583C38.459 47.3516 40.3991 49.2917 42.7923 49.2917Z" stroke="#1999F9" stroke-width="4" stroke-miterlimit="10" stroke-linecap="round" stroke-linejoin="round"/>
<path fill-rule="evenodd" clip-rule="evenodd" d="M12 1.875C6.40811 1.875 1.875 6.40811 1.875 12C1.875 17.5919 6.40811 22.125 12 22.125C17.5919 22.125 22.125 17.5919 22.125 12C22.125 6.40811 17.5919 1.875 12 1.875Z" fill="#00BF91"/>
<path fill-rule="evenodd" clip-rule="evenodd" d="M10.3685 15.4409L9.72925 14.8016L15.9236 8.58466C16.1354 8.37282 16.4788 8.37282 16.6907 8.58466L16.9464 8.84034C17.1582 9.05217 17.1582 9.39561 16.9464 9.60744L11.1356 15.4409C10.9237 15.6527 10.5803 15.6527 10.3685 15.4409Z" fill="#F4FAFF"/>
<path fill-rule="evenodd" clip-rule="evenodd" d="M11.7737 14.7987L11.1344 15.438C10.9226 15.6498 10.5792 15.6498 10.3674 15.438L7.82196 12.8926C7.61013 12.6808 7.61013 12.3373 7.82196 12.1255L8.07764 11.8698C8.28947 11.658 8.63291 11.658 8.84474 11.8698L11.7737 14.7987Z" fill="#F4FAFF"/>
</svg>
