<svg width="356" height="356" viewBox="0 0 356 356" fill="none" xmlns="http://www.w3.org/2000/svg">
<path d="M67.4872 313.966L77.4877 324.137L87.615 313.966L97.6155 324.137L107.743 313.966L117.743 324.137L127.864 313.966L137.864 324.137L147.992 313.966L157.992 324.137L168.116 313.966L178.117 324.137L188.24 313.966L198.241 324.137L208.368 313.966L218.365 324.137L228.493 313.966L238.493 324.137L248.617 313.966L258.618 324.137L268.745 313.966L278.759 324.14L288.869 313.966L298.637 323.904V38.1224C298.637 33.5804 294.954 29.8984 290.411 29.8984H65.5885C61.0458 29.8984 57.3633 33.5804 57.3633 38.1224V325.754V324.14L67.4872 313.966Z" fill="#72C2FF"/>
<path d="M251.798 128.633H104.202C102.526 128.633 101.168 129.991 101.168 131.667V136.724C101.168 138.399 102.526 139.758 104.202 139.758H251.798C253.474 139.758 254.832 138.399 254.832 136.724V131.667C254.832 129.991 253.474 128.633 251.798 128.633Z" fill="#F4FAFF"/>
<path d="M65.5885 29.8984H290.411C294.954 29.8984 298.637 33.6341 298.637 38.2422V41.0234H57.3633V38.2422C57.3633 33.6341 61.0458 29.8984 65.5885 29.8984Z" fill="#2480FF"/>
<path d="M251.798 151.578H104.202C102.526 151.578 101.168 152.937 101.168 154.612V159.669C101.168 161.345 102.526 162.703 104.202 162.703H251.798C253.474 162.703 254.832 161.345 254.832 159.669V154.612C254.832 152.937 253.474 151.578 251.798 151.578Z" fill="#F4FAFF"/>
<path d="M251.798 174.523H104.202C102.526 174.523 101.168 175.882 101.168 177.558V182.614C101.168 184.29 102.526 185.648 104.202 185.648H251.798C253.474 185.648 254.832 184.29 254.832 182.614V177.558C254.832 175.882 253.474 174.523 251.798 174.523Z" fill="#F4FAFF"/>
<path d="M105.166 229.883V276.996C105.166 278.29 104.117 279.34 102.822 279.34H102.643C101.348 279.34 100.299 278.29 100.299 276.996V229.883C100.299 228.588 101.348 227.539 102.643 227.539H102.822C104.117 227.539 105.166 228.588 105.166 229.883Z" fill="#2480FF"/>
<path d="M116.465 230.406V277.519C116.465 278.814 115.415 279.863 114.121 279.863H111.508C110.213 279.863 109.164 278.814 109.164 277.519V230.406C109.164 229.112 110.213 228.062 111.508 228.062H114.121C115.415 228.062 116.465 229.112 116.465 230.406Z" fill="#2480FF"/>
<path d="M166.527 230.406V277.519C166.527 278.814 165.478 279.863 164.184 279.863H161.57C160.276 279.863 159.227 278.814 159.227 277.519V230.406C159.227 229.112 160.276 228.062 161.57 228.062H164.184C165.478 228.062 166.527 229.112 166.527 230.406Z" fill="#2480FF"/>
<path d="M146.363 230.406V277.519C146.363 278.814 145.314 279.863 144.019 279.863H141.406C140.112 279.863 139.062 278.814 139.062 277.519V230.406C139.062 229.112 140.112 228.062 141.406 228.062H144.019C145.314 228.062 146.363 229.112 146.363 230.406Z" fill="#2480FF"/>
<path d="M124.461 229.975V277.951C124.461 279.007 123.605 279.863 122.549 279.863C121.493 279.863 120.637 279.007 120.637 277.951V229.975C120.637 228.919 121.493 228.062 122.549 228.062C123.605 228.062 124.461 228.919 124.461 229.975Z" fill="#2480FF"/>
<path d="M134.543 277.951V229.975C134.543 228.919 133.687 228.062 132.631 228.062C131.575 228.062 130.719 228.919 130.719 229.975V277.951C130.719 279.007 131.575 279.863 132.631 279.863C133.687 279.863 134.543 279.007 134.543 277.951Z" fill="#2480FF"/>
<path d="M154.707 229.975V277.951C154.707 279.007 153.851 279.863 152.795 279.863C151.739 279.863 150.883 279.007 150.883 277.951V229.975C150.883 228.919 151.739 228.062 152.795 228.062C153.851 228.062 154.707 228.919 154.707 229.975Z" fill="#2480FF"/>
<path d="M173.828 228.932V278.994C173.828 279.474 173.439 279.863 172.959 279.863C172.479 279.863 172.09 279.474 172.09 278.994V228.932C172.09 228.452 172.479 228.062 172.959 228.062C173.439 228.062 173.828 228.452 173.828 228.932Z" fill="#2480FF"/>
<path d="M185.127 229.883V276.996C185.127 278.29 184.078 279.34 182.783 279.34H182.604C181.309 279.34 180.26 278.29 180.26 276.996V229.883C180.26 228.588 181.309 227.539 182.604 227.539H182.783C184.078 227.539 185.127 228.588 185.127 229.883Z" fill="#2480FF"/>
<path d="M196.426 230.406V277.519C196.426 278.814 195.376 279.863 194.082 279.863H191.469C190.174 279.863 189.125 278.814 189.125 277.519V230.406C189.125 229.112 190.174 228.062 191.469 228.062H194.082C195.376 228.062 196.426 229.112 196.426 230.406Z" fill="#2480FF"/>
<path d="M246.488 230.406V277.519C246.488 278.814 245.439 279.863 244.144 279.863H241.531C240.237 279.863 239.188 278.814 239.188 277.519V230.406C239.188 229.112 240.237 228.062 241.531 228.062H244.144C245.439 228.062 246.488 229.112 246.488 230.406Z" fill="#2480FF"/>
<path d="M226.672 230.406V277.519C226.672 278.814 225.623 279.863 224.328 279.863H221.715C220.42 279.863 219.371 278.814 219.371 277.519V230.406C219.371 229.112 220.42 228.062 221.715 228.062H224.328C225.623 228.062 226.672 229.112 226.672 230.406Z" fill="#2480FF"/>
<path d="M204.77 229.975V277.951C204.77 279.007 203.913 279.863 202.857 279.863C201.801 279.863 200.945 279.007 200.945 277.951V229.975C200.945 228.919 201.801 228.062 202.857 228.062C203.913 228.062 204.77 228.919 204.77 229.975Z" fill="#2480FF"/>
<path d="M214.852 229.975V277.951C214.852 279.007 213.995 279.863 212.939 279.863C211.883 279.863 211.027 279.007 211.027 277.951V229.975C211.027 228.919 211.883 228.062 212.939 228.062C213.995 228.062 214.852 228.919 214.852 229.975Z" fill="#2480FF"/>
<path d="M235.016 229.975V277.951C235.016 279.007 234.16 279.863 233.104 279.863C232.047 279.863 231.191 279.007 231.191 277.951V229.975C231.191 228.919 232.047 228.062 233.104 228.062C234.16 228.062 235.016 228.919 235.016 229.975Z" fill="#2480FF"/>
<path d="M253.789 228.932V278.994C253.789 279.474 253.4 279.863 252.92 279.863C252.44 279.863 252.051 279.474 252.051 278.994V228.932C252.051 228.452 252.44 228.062 252.92 228.062C253.4 228.062 253.789 228.452 253.789 228.932Z" fill="#2480FF"/>
<path d="M172.578 93.5166C171.747 92.9046 171.012 92.172 170.398 91.343C169.574 90.2494 169.024 88.4564 168.681 86.4817C167.07 86.2862 165.821 84.7161 165.821 82.8065C165.821 81.1678 166.741 79.7793 168.018 79.2959C167.97 77.4686 168.018 76.2104 168.018 76.2104C168.039 73.0732 169.611 70.1488 172.218 68.3972C172.218 68.3972 174.927 65.3597 183.336 65.3597V67.9138C186.365 69.5816 188.257 72.7503 188.287 76.2035C188.287 76.2035 188.329 77.5337 188.287 79.433C189.491 80.1246 190.218 81.4202 190.179 82.8065C190.179 84.5858 189.091 86.0737 187.642 86.4234C187.281 88.4221 186.732 90.2391 185.901 91.343C185.215 92.2809 184.372 93.0929 183.408 93.7429V97.682C185.697 98.4861 187.94 99.4178 190.124 100.473C199.037 95.0474 203.246 84.3645 200.424 74.3308C197.602 64.2971 188.438 57.3633 178 57.3633C167.562 57.3633 158.398 64.2971 155.576 74.3308C152.754 84.3645 156.963 95.0474 165.876 100.473C168.06 99.4178 170.303 98.4861 172.592 97.682L172.578 93.5166Z" fill="#F4FAFF"/>
<path d="M190.112 100.547C187.93 99.4895 185.69 98.5556 183.404 97.7495V93.8008C184.367 93.1494 185.209 92.3354 185.894 91.3952C186.724 90.2886 187.266 88.4672 187.632 86.4637C189.08 86.12 190.167 84.6216 190.167 82.838C190.202 81.4573 189.483 80.1675 188.291 79.4736C188.346 77.5697 188.291 76.2363 188.291 76.2363C188.259 72.7679 186.36 69.5872 183.325 67.9197V65.3594C174.927 65.3594 172.221 68.4042 172.221 68.4042C169.617 70.16 168.048 73.0915 168.027 76.2363C168.027 76.2363 167.986 77.5044 168.027 79.3292C166.751 79.8138 165.832 81.2056 165.832 82.8483C165.832 84.7625 167.08 86.3365 168.689 86.5324C169.049 88.5119 169.594 90.3127 170.403 91.4055C171.017 92.2365 171.751 92.9709 172.581 93.5843V97.7461C170.295 98.5521 168.055 99.4861 165.873 100.543C173.31 105.084 182.654 105.084 190.091 100.543L190.112 100.547Z" fill="#2480FF"/>
</svg>
