<svg width="180" height="180" viewBox="0 0 180 180" fill="none" xmlns="http://www.w3.org/2000/svg">
<path d="M160.843 35.8594H19.125C16.3291 35.8594 14.0625 38.1259 14.0625 40.9219V139.079C14.0625 141.875 16.3291 144.142 19.125 144.142H160.843C163.639 144.142 165.905 141.875 165.905 139.079V40.9219C165.905 38.1259 163.639 35.8594 160.843 35.8594Z" fill="#B0E7FF"/>
<path d="M137.429 131.039C139.625 131.039 141.405 127.281 141.405 122.645C141.405 118.009 139.625 114.251 137.429 114.251C135.233 114.251 133.452 118.009 133.452 122.645C133.452 127.281 135.233 131.039 137.429 131.039Z" fill="#B0E7FF"/>
<path d="M165.834 68.9735H14.1354V84.6763H165.834V68.9735Z" fill="#2480FF"/>
<path d="M77.4473 100.949H26.5813C25.6493 100.949 24.8938 101.704 24.8938 102.636V104.685C24.8938 105.617 25.6493 106.373 26.5813 106.373H77.4473C78.3793 106.373 79.1348 105.617 79.1348 104.685V102.636C79.1348 101.704 78.3793 100.949 77.4473 100.949Z" fill="#72C2FF"/>
<path d="M55.9204 117.221H26.5813C25.6493 117.221 24.8938 117.977 24.8938 118.908V120.958C24.8938 121.89 25.6493 122.645 26.5813 122.645H55.9204C56.8524 122.645 57.6079 121.89 57.6079 120.958V118.908C57.6079 117.977 56.8524 117.221 55.9204 117.221Z" fill="#72C2FF"/>
<path d="M39.5633 46.772H26.5813C25.6493 46.772 24.8938 47.5275 24.8938 48.4595V55.8683C24.8938 56.8003 25.6493 57.5558 26.5813 57.5558H39.5633C40.4953 57.5558 41.2508 56.8003 41.2508 55.8683V48.4595C41.2508 47.5275 40.4953 46.772 39.5633 46.772Z" fill="#B0E7FF"/>
<path d="M133.45 122.645C133.447 119.391 134.908 116.309 137.429 114.251C133.009 110.629 126.538 111.056 122.633 115.228C118.728 119.399 118.728 125.884 122.633 130.056C126.538 134.227 133.009 134.654 137.429 131.032C134.91 128.976 133.449 125.896 133.45 122.645Z" fill="#72C2FF"/>
<path d="M144.299 111.797C141.793 111.793 139.365 112.661 137.429 114.251C139.943 116.312 141.401 119.391 141.401 122.642C141.401 125.892 139.943 128.972 137.429 131.032C141.124 134.063 146.367 134.319 150.34 131.662C154.313 129.005 156.079 124.061 154.688 119.489C153.297 114.916 149.078 111.792 144.299 111.797Z" fill="#1999F9"/>
</svg>
