<svg width="52" height="52" viewBox="0 0 52 52" fill="none" xmlns="http://www.w3.org/2000/svg">
<path fill-rule="evenodd" clip-rule="evenodd" d="M47.9375 26C47.9375 38.1157 38.1158 47.9375 26 47.9375C13.8842 47.9375 4.0625 38.1157 4.0625 26C4.0625 13.8843 13.8842 4.0625 26 4.0625C38.1158 4.0625 47.9375 13.8843 47.9375 26Z" fill="#72C2FF"/>
<path fill-rule="evenodd" clip-rule="evenodd" d="M25.1016 22.7942C25.1016 25.345 23.0339 27.4127 20.4831 27.4127C17.9325 27.4127 15.8647 25.345 15.8647 22.7942C15.8647 20.2435 17.9325 18.1758 20.4831 18.1758C23.0339 18.1758 25.1016 20.2435 25.1016 22.7942Z" fill="#F4FAFF"/>
<path fill-rule="evenodd" clip-rule="evenodd" d="M22.5366 22.6627C22.5366 23.7254 21.6751 24.587 20.6122 24.587C19.5495 24.587 18.6879 23.7254 18.6879 22.6627C18.6879 21.5999 19.5495 20.7383 20.6122 20.7383C21.6751 20.7383 22.5366 21.5999 22.5366 22.6627Z" fill="#2480FF"/>
<path fill-rule="evenodd" clip-rule="evenodd" d="M22.664 32.61C22.5617 32.61 22.4577 32.5895 22.358 32.5462C21.9679 32.3769 21.789 31.9236 21.9582 31.5336C22.6944 29.8368 24.0348 28.9023 25.7322 28.9023C27.3534 28.9023 28.654 29.7224 29.4932 31.2739C29.6955 31.6478 29.5563 32.1149 29.1824 32.3171C28.8084 32.5194 28.3414 32.3802 28.1391 32.0063C27.5697 30.9535 26.7824 30.4418 25.7322 30.4418C24.6407 30.4418 23.8682 30.9994 23.3705 32.1465C23.2445 32.4366 22.9613 32.61 22.664 32.61Z" fill="#2480FF"/>
<path fill-rule="evenodd" clip-rule="evenodd" d="M26.0001 47.9393C33.6091 47.9393 40.3131 44.0652 44.2479 38.182C44.2481 38.1813 44.2485 38.1806 44.2485 38.1799C40.3379 38.6962 34.5955 41.0054 34.5955 37.6244C34.5955 34.2087 34.4571 26.3867 34.4571 26.3867H31.5165V37.285C31.5165 37.285 31.1622 41.7751 25.102 39.081C19.0419 36.3869 13.704 42.8553 9.06042 39.9419C13.084 44.8255 19.1784 47.9393 26.0001 47.9393Z" fill="#1999F9"/>
<path fill-rule="evenodd" clip-rule="evenodd" d="M36.1349 22.7942C36.1349 25.345 34.0672 27.4127 31.5164 27.4127C28.9658 27.4127 26.8981 25.345 26.8981 22.7942C26.8981 20.2435 28.9658 18.1758 31.5164 18.1758C34.0672 18.1758 36.1349 20.2435 36.1349 22.7942Z" fill="#F4FAFF"/>
<path fill-rule="evenodd" clip-rule="evenodd" d="M33.3128 22.6627C33.3128 23.7254 32.4513 24.587 31.3885 24.587C30.3257 24.587 29.4641 23.7254 29.4641 22.6627C29.4641 21.5999 30.3257 20.7383 31.3885 20.7383C32.4513 20.7383 33.3128 21.5999 33.3128 22.6627Z" fill="#2480FF"/>
</svg>
