<svg width="98" height="194" viewBox="0 0 98 194" fill="none" xmlns="http://www.w3.org/2000/svg">
<path fill-rule="evenodd" clip-rule="evenodd" d="M76.26 75.3906L72.7529 79.6513V85.3038C72.7529 86.4054 73.5075 87.2985 74.4381 87.2985H78.0819C79.0125 87.2985 79.7671 86.4054 79.7671 85.3038V79.6513L76.26 75.3906Z" fill="#1999F9"/>
<path fill-rule="evenodd" clip-rule="evenodd" d="M76.4102 78.8323C75.8284 78.8323 75.3569 78.2743 75.3569 77.5856V36.8522C75.3569 36.1637 75.8284 35.6055 76.4102 35.6055C76.992 35.6055 77.4634 36.1637 77.4634 36.8522V77.5856C77.4634 78.2743 76.992 78.8323 76.4102 78.8323Z" fill="#2480FF"/>
<path fill-rule="evenodd" clip-rule="evenodd" d="M24.4238 50.707V69.9654C24.4238 72.4307 28.519 74.0419 28.519 74.0419C41.9773 78.6644 56.2686 78.6644 69.7269 74.0419C69.7269 74.0419 73.8221 72.4307 73.8221 69.9654V50.707C73.8221 50.8781 49.123 57.0617 49.123 57.0617C49.123 57.0617 24.4238 50.8781 24.4238 50.707Z" fill="#1999F9"/>
<path fill-rule="evenodd" clip-rule="evenodd" d="M5.16797 43.5422L49.245 58.3566L92.6419 43.5422L48.5649 28.5664L5.16797 43.5422Z" fill="#E6EFF7"/>
<path fill-rule="evenodd" clip-rule="evenodd" d="M5.16797 43.543V44.93C5.16797 45.8237 5.67015 46.6086 6.39689 46.8504L49.2514 61.1138L49.245 58.3574L5.16797 43.543Z" fill="#2480FF"/>
<path fill-rule="evenodd" clip-rule="evenodd" d="M49.2451 61.0949L91.431 46.4515C92.1487 46.2022 92.642 45.423 92.642 44.5373V43.543L49.2451 58.3574V61.0949Z" fill="#2480FF"/>
<path fill-rule="evenodd" clip-rule="evenodd" d="M48.3286 44.6016C46.5343 44.6016 45.0796 43.8155 45.0796 42.8458C45.0796 41.8759 46.5343 41.0898 48.3286 41.0898C50.1231 41.0898 51.5777 41.8759 51.5777 42.8458C51.5777 43.8155 50.1231 44.6016 48.3286 44.6016Z" fill="#E6EFF7"/>
<path fill-rule="evenodd" clip-rule="evenodd" d="M48.3286 44.0844C47.9038 44.0844 47.5035 43.778 47.3439 43.28C47.1372 42.6363 47.4106 41.9164 47.9545 41.6721L67.5261 32.8742C67.7334 32.7809 67.9604 32.7677 68.1747 32.836L76.6847 35.5573C77.2462 35.7368 77.5784 36.4212 77.427 37.086C77.2751 37.7507 76.6969 38.1429 76.1355 37.9644L67.955 35.3483L48.7023 44.0029C48.5793 44.0585 48.4529 44.0844 48.3286 44.0844Z" fill="#1999F9"/>
<path fill-rule="evenodd" clip-rule="evenodd" d="M51.0259 42.8357C51.0259 43.5408 49.8185 44.1126 48.3288 44.1126C46.8393 44.1126 45.6318 43.5408 45.6318 42.8357C45.6318 42.1303 46.8393 41.5586 48.3288 41.5586C49.8185 41.5586 51.0259 42.1303 51.0259 42.8357Z" fill="#1999F9"/>
<path d="M83.4341 98.7227C83.587 98.7227 83.712 98.8641 83.7207 99.0425L83.7212 99.0625V133.892C83.7212 134.08 83.5926 134.232 83.4341 134.232C83.2812 134.232 83.1562 134.091 83.1475 133.912L83.147 133.892V99.0625C83.147 98.8748 83.2755 98.7227 83.4341 98.7227Z" fill="#E6EFF7"/>
<path d="M88.8926 102.867H21.0165C19.4943 102.867 18.2603 104.328 18.2603 106.13V143.137C18.2603 144.939 19.4943 146.4 21.0165 146.4H88.8926C90.4148 146.4 91.6489 144.939 91.6489 143.137V106.13C91.6489 104.328 90.4148 102.867 88.8926 102.867Z" fill="#1999F9"/>
<path d="M79.7016 113.742H48.5789C48.0715 113.742 47.6602 114.229 47.6602 114.83V117.005C47.6602 117.605 48.0715 118.092 48.5789 118.092H79.7016C80.209 118.092 80.6203 117.605 80.6203 117.005V114.83C80.6203 114.229 80.209 113.742 79.7016 113.742Z" fill="#72C2FF"/>
<path d="M65.2313 131.141H48.5789C48.0715 131.141 47.6602 131.628 47.6602 132.228V134.403C47.6602 135.004 48.0715 135.491 48.5789 135.491H65.2313C65.7387 135.491 66.15 135.004 66.15 134.403V132.228C66.15 131.628 65.7387 131.141 65.2313 131.141Z" fill="#1999F9"/>
<path d="M79.7016 122.441H48.5789C48.0715 122.441 47.6602 122.928 47.6602 123.529V125.704C47.6602 126.305 48.0715 126.791 48.5789 126.791H79.7016C80.209 126.791 80.6203 126.305 80.6203 125.704V123.529C80.6203 122.928 80.209 122.441 79.7016 122.441Z" fill="#72C2FF"/>
<path d="M35.7165 113.742H24.6915C23.6767 113.742 22.854 114.716 22.854 115.917V128.967C22.854 130.168 23.6767 131.142 24.6915 131.142H35.7165C36.7313 131.142 37.554 130.168 37.554 128.967V115.917C37.554 114.716 36.7313 113.742 35.7165 113.742Z" fill="#72C2FF"/>
<path d="M42.2051 113.742V142.063" stroke="#72C2FF" stroke-width="6" stroke-linecap="round" stroke-linejoin="round"/>
<path d="M76.9488 129.406H9.07266C7.55042 129.406 6.31641 130.867 6.31641 132.669V169.676C6.31641 171.478 7.55042 172.939 9.07266 172.939H76.9488C78.471 172.939 79.705 171.478 79.705 169.676V132.669C79.705 130.867 78.471 129.406 76.9488 129.406Z" fill="#E6EFF7"/>
<path d="M67.7577 140.281H36.6351C36.1276 140.281 35.7163 140.768 35.7163 141.369V143.544C35.7163 144.144 36.1276 144.631 36.6351 144.631H67.7577C68.2651 144.631 68.6765 144.144 68.6765 143.544V141.369C68.6765 140.768 68.2651 140.281 67.7577 140.281Z" fill="#72C2FF"/>
<path d="M53.2874 157.684H36.6351C36.1276 157.684 35.7163 158.17 35.7163 158.771V160.946C35.7163 161.547 36.1276 162.034 36.6351 162.034H53.2874C53.7948 162.034 54.2062 161.547 54.2062 160.946V158.771C54.2062 158.17 53.7948 157.684 53.2874 157.684Z" fill="#72C2FF"/>
<path d="M67.7577 148.98H36.6351C36.1276 148.98 35.7163 149.467 35.7163 150.068V152.243C35.7163 152.844 36.1276 153.33 36.6351 153.33H67.7577C68.2651 153.33 68.6765 152.844 68.6765 152.243V150.068C68.6765 149.467 68.2651 148.98 67.7577 148.98Z" fill="#72C2FF"/>
<path d="M23.7727 140.281H12.7477C11.7328 140.281 10.9102 141.255 10.9102 142.456V155.506C10.9102 156.707 11.7328 157.681 12.7477 157.681H23.7727C24.7875 157.681 25.6102 156.707 25.6102 155.506V142.456C25.6102 141.255 24.7875 140.281 23.7727 140.281Z" fill="#72C2FF"/>
<path d="M30.2612 139.602C30.4141 139.602 30.5391 139.743 30.5479 139.921L30.5483 139.941V168.263C30.5483 168.45 30.4198 168.602 30.2612 168.602C30.1083 168.602 29.9833 168.461 29.9746 168.283L29.9741 168.263V139.941C29.9741 139.754 30.1027 139.602 30.2612 139.602Z" fill="#72C2FF"/>
</svg>
