<svg width="100" height="100" viewBox="0 0 100 100" fill="none" xmlns="http://www.w3.org/2000/svg">
<path fill-rule="evenodd" clip-rule="evenodd" d="M49.9777 93.3485C26.0432 93.3485 6.64062 73.9465 6.64062 50.0121C6.64062 26.0777 26.0432 6.67578 49.9777 6.67578C73.9107 6.67578 93.314 26.0777 93.314 50.0121C93.314 73.9465 73.9107 93.3485 49.9777 93.3485Z" fill="#72C2FF"/>
<mask id="mask0" mask-type="alpha" maskUnits="userSpaceOnUse" x="6" y="6" width="88" height="88">
<path fill-rule="evenodd" clip-rule="evenodd" d="M49.9777 93.3485C26.0432 93.3485 6.64062 73.9465 6.64062 50.0121C6.64062 26.0777 26.0432 6.67578 49.9777 6.67578C73.9107 6.67578 93.314 26.0777 93.314 50.0121C93.314 73.9465 73.9107 93.3485 49.9777 93.3485Z" fill="#A3B5D6"/>
</mask>
<g mask="url(#mask0)">
<path fill-rule="evenodd" clip-rule="evenodd" d="M72.9647 46.8203V98.9669C72.9647 99.7317 71.9719 100.119 71.4255 99.5837L68.2439 95.8913L64.8926 99.2419C64.2249 99.9096 63.1441 99.9166 62.468 99.2572L59.01 95.8913L55.7279 99.2167C55.058 99.8949 53.9647 99.9019 53.2865 99.2314L49.9053 95.8913L46.4933 99.2523C45.8207 99.9138 44.7413 99.9138 44.0701 99.2509L40.6638 95.8913L37.2672 99.2419C36.5918 99.9082 35.5054 99.904 34.8349 99.2335L31.4913 95.8913L28.3906 99.627C27.8464 100.168 26.9902 99.7833 26.9902 99.0151V46.8203H72.9647Z" fill="#F4FAFF"/>
<path fill-rule="evenodd" clip-rule="evenodd" d="M26.918 46.6575H73.0362V43.9482C73.0362 42.995 72.2631 42.2227 71.31 42.2227H28.6442C27.6904 42.2227 26.918 42.995 26.918 43.9482V46.6575Z" fill="#1999F9"/>
<mask id="mask1" mask-type="alpha" maskUnits="userSpaceOnUse" x="6" y="6" width="88" height="88">
<path d="M49.9777 6.67578C26.0425 6.67578 6.64062 26.0777 6.64062 50.0114C6.64062 73.9465 26.0425 93.3485 49.9777 93.3485C73.9114 93.3485 93.314 73.9465 93.314 50.0114" fill="white"/>
</mask>
<g mask="url(#mask1)">
<path fill-rule="evenodd" clip-rule="evenodd" d="M60.217 60.6974H67.1218C67.7574 60.6974 68.2723 60.1825 68.2723 59.5468V52.6421C68.2723 52.0071 67.7574 51.4922 67.1218 51.4922H60.217C59.5813 51.4922 59.0664 52.0071 59.0664 52.6421V59.5468C59.0664 60.1825 59.5813 60.6974 60.217 60.6974Z" fill="#1999F9"/>
</g>
<path fill-rule="evenodd" clip-rule="evenodd" d="M63.0937 60.6967C63.4112 60.6967 63.6687 60.4393 63.6687 60.1218V56.6694C63.6687 56.3512 63.4112 56.0938 63.0937 56.0938H59.642C59.3239 56.0938 59.0664 56.3512 59.0664 56.6694V60.1218C59.0664 60.4393 59.3239 60.6967 59.642 60.6967H63.0937Z" fill="#72C2FF"/>
<path fill-rule="evenodd" clip-rule="evenodd" d="M31.8667 67.5433H67.7826C68.0135 67.5433 68.1998 67.3563 68.1998 67.1254V65.6601C68.1998 65.4292 68.0135 65.2422 67.7826 65.2422H31.8667C31.6364 65.2422 31.4487 65.4292 31.4487 65.6601V67.1254C31.4487 67.3563 31.6364 67.5433 31.8667 67.5433Z" fill="#72C2FF"/>
<path fill-rule="evenodd" clip-rule="evenodd" d="M31.8667 74.391H67.7826C68.0135 74.391 68.1998 74.204 68.1998 73.973V72.5078C68.1998 72.2768 68.0135 72.0898 67.7826 72.0898H31.8667C31.6364 72.0898 31.4487 72.2768 31.4487 72.5078V73.973C31.4487 74.204 31.6364 74.391 31.8667 74.391Z" fill="#B8C5D0"/>
<path fill-rule="evenodd" clip-rule="evenodd" d="M31.8667 81.2386H67.7826C68.0135 81.2386 68.1998 81.0516 68.1998 80.8207V79.3554C68.1998 79.1245 68.0135 78.9375 67.7826 78.9375H31.8667C31.6364 78.9375 31.4487 79.1245 31.4487 79.3554V80.8207C31.4487 81.0516 31.6364 81.2386 31.8667 81.2386Z" fill="#F4FAFF"/>
<path fill-rule="evenodd" clip-rule="evenodd" d="M27.0361 51.5256H46.9907V37.0273H27.0361V51.5256Z" fill="#2480FF"/>
<path fill-rule="evenodd" clip-rule="evenodd" d="M27.0361 58.6888H46.9907V53.9219H27.0361V58.6888Z" fill="#2480FF"/>
<path fill-rule="evenodd" clip-rule="evenodd" d="M54.533 39.6523H19.4941L37.0143 22.1328L54.533 39.6523Z" fill="#2480FF"/>
</g>
</svg>
