<svg width="56" height="56" viewBox="0 0 56 56" fill="none" xmlns="http://www.w3.org/2000/svg">
<g id="Gray/Exclamation point">
<path id="Fill 1" fill-rule="evenodd" clip-rule="evenodd" d="M28 4.375C14.9522 4.375 4.375 14.9522 4.375 28C4.375 41.0477 14.9522 51.625 28 51.625C41.0478 51.625 51.625 41.0477 51.625 28C51.625 14.9522 41.0478 4.375 28 4.375Z" fill="#1999F9"/>
<path id="Fill 3" fill-rule="evenodd" clip-rule="evenodd" d="M28.9647 34.75H28.121C27.422 34.75 26.8553 34.1834 26.8553 33.4844V17.4531C26.8553 16.7541 27.422 16.1875 28.121 16.1875H28.9647C29.6637 16.1875 30.2303 16.7541 30.2303 17.4531V33.4844C30.2303 34.1834 29.6637 34.75 28.9647 34.75Z" fill="#E6EFF7"/>
<path id="Fill 5" fill-rule="evenodd" clip-rule="evenodd" d="M28.9647 39.9381H28.121C27.422 39.9381 26.8553 39.3715 26.8553 38.6725V37.8288C26.8553 37.1298 27.422 36.5631 28.121 36.5631H28.9647C29.6637 36.5631 30.2303 37.1298 30.2303 37.8288V38.6725C30.2303 39.3715 29.6637 39.9381 28.9647 39.9381Z" fill="#E6EFF7"/>
</g>
</svg>
