<svg width="52" height="52" viewBox="0 0 52 52" fill="none" xmlns="http://www.w3.org/2000/svg">
<path fill-rule="evenodd" clip-rule="evenodd" d="M47.9375 26.3047C47.9375 38.4204 38.1158 48.2422 26 48.2422C13.8842 48.2422 4.0625 38.4204 4.0625 26.3047C4.0625 14.189 13.8842 4.36719 26 4.36719C38.1158 4.36719 47.9375 14.189 47.9375 26.3047Z" fill="#72C2FF"/>
<path fill-rule="evenodd" clip-rule="evenodd" d="M25.0676 22.5208C25.0676 25.0714 22.9998 27.1392 20.4491 27.1392C17.8985 27.1392 15.8307 25.0714 15.8307 22.5208C15.8307 19.9701 17.8985 17.9023 20.4491 17.9023C22.9998 17.9023 25.0676 19.9701 25.0676 22.5208Z" fill="#F4FAFF"/>
<path fill-rule="evenodd" clip-rule="evenodd" d="M36.1003 22.5208C36.1003 25.0714 34.0326 27.1392 31.4819 27.1392C28.9312 27.1392 26.8635 25.0714 26.8635 22.5208C26.8635 19.9701 28.9312 17.9023 31.4819 17.9023C34.0326 17.9023 36.1003 19.9701 36.1003 22.5208Z" fill="#F4FAFF"/>
<path fill-rule="evenodd" clip-rule="evenodd" d="M22.1378 22.5845C22.1378 23.6472 21.2763 24.5088 20.2134 24.5088C19.1507 24.5088 18.2891 23.6472 18.2891 22.5845C18.2891 21.5217 19.1507 20.6602 20.2134 20.6602C21.2763 20.6602 22.1378 21.5217 22.1378 22.5845Z" fill="#2480FF"/>
<path fill-rule="evenodd" clip-rule="evenodd" d="M33.3854 22.7134C33.3854 23.7762 32.5238 24.6377 31.4611 24.6377C30.3982 24.6377 29.5367 23.7762 29.5367 22.7134C29.5367 21.6506 30.3982 20.7891 31.4611 20.7891C32.5238 20.7891 33.3854 21.6506 33.3854 22.7134Z" fill="#2480FF"/>
<path fill-rule="evenodd" clip-rule="evenodd" d="M30.2574 34.4066H21.7425C20.7809 34.4066 19.9942 33.62 19.9942 32.6584C19.9942 31.6968 20.7809 30.9102 21.7425 30.9102H30.2574C31.2189 30.9102 32.0056 31.6968 32.0056 32.6584C32.0056 33.62 31.2189 34.4066 30.2574 34.4066Z" fill="#F4FAFF"/>
<path fill-rule="evenodd" clip-rule="evenodd" d="M21.7426 31.6801C21.2031 31.6801 20.7641 32.1191 20.7641 32.6586C20.7641 33.1981 21.2031 33.6371 21.7426 33.6371H30.2575C30.7971 33.6371 31.236 33.1981 31.236 32.6586C31.236 32.1191 30.7971 31.6801 30.2575 31.6801H21.7426ZM30.2575 35.1766H21.7426C20.3542 35.1766 19.2247 34.047 19.2247 32.6586C19.2247 31.2702 20.3542 30.1406 21.7426 30.1406H30.2575C31.6459 30.1406 32.7755 31.2702 32.7755 32.6586C32.7755 34.047 31.6459 35.1766 30.2575 35.1766Z" fill="#2480FF"/>
<path fill-rule="evenodd" clip-rule="evenodd" d="M47.862 13.243C47.862 15.9787 45.6443 18.1963 42.9088 18.1963C40.1731 18.1963 37.9554 15.9787 37.9554 13.243C37.9554 10.5074 42.9088 3.75781 42.9088 3.75781C42.9088 3.75781 47.862 10.5074 47.862 13.243Z" fill="#2480FF"/>
</svg>
