<svg width="52" height="52" viewBox="0 0 52 52" fill="none" xmlns="http://www.w3.org/2000/svg">
<path d="M10.5632 11.3763H49.2923L44.959 34.1263H14.6257L9.20898 3.79297H2.70898" stroke="#1999F9" stroke-width="4" stroke-miterlimit="10" stroke-linecap="round" stroke-linejoin="round"/>
<path d="M16.7923 49.2917C19.1856 49.2917 21.1257 47.3516 21.1257 44.9583C21.1257 42.5651 19.1856 40.625 16.7923 40.625C14.3991 40.625 12.459 42.5651 12.459 44.9583C12.459 47.3516 14.3991 49.2917 16.7923 49.2917Z" stroke="#1999F9" stroke-width="4" stroke-miterlimit="10" stroke-linecap="round" stroke-linejoin="round"/>
<path d="M42.7923 49.2917C45.1856 49.2917 47.1257 47.3516 47.1257 44.9583C47.1257 42.5651 45.1856 40.625 42.7923 40.625C40.3991 40.625 38.459 42.5651 38.459 44.9583C38.459 47.3516 40.3991 49.2917 42.7923 49.2917Z" stroke="#1999F9" stroke-width="4" stroke-miterlimit="10" stroke-linecap="round" stroke-linejoin="round"/>
<path fill-rule="evenodd" clip-rule="evenodd" d="M30.8535 26.2031C24.2302 26.2031 18.861 20.8339 18.861 14.2106C18.861 7.58736 24.2302 2.21812 30.8535 2.21812C37.4767 2.21812 42.846 7.58736 42.846 14.2106C42.846 20.8339 37.4767 26.2031 30.8535 26.2031Z" fill="#93A0AC"/>
<path fill-rule="evenodd" clip-rule="evenodd" d="M31.343 10.7844H30.9147C30.5599 10.7844 30.2722 11.072 30.2722 11.4268V19.5646C30.2722 19.9194 30.5599 20.207 30.9147 20.207H31.343C31.6978 20.207 31.9855 19.9194 31.9855 19.5646V11.4268C31.9855 11.072 31.6978 10.7844 31.343 10.7844Z" fill="#F4FAFF"/>
<path fill-rule="evenodd" clip-rule="evenodd" d="M31.343 8.15397H30.9147C30.5599 8.15397 30.2722 8.44161 30.2722 8.79643V9.22473C30.2722 9.57955 30.5599 9.86719 30.9147 9.86719H31.343C31.6978 9.86719 31.9855 9.57955 31.9855 9.22473V8.79643C31.9855 8.44161 31.6978 8.15397 31.343 8.15397Z" fill="#F4FAFF"/>
</svg>
