<svg width="160" height="160" viewBox="0 0 160 160" fill="none" xmlns="http://www.w3.org/2000/svg">
<path fill-rule="evenodd" clip-rule="evenodd" d="M143.948 32.8625H16.0936V21.4063C16.0936 18.9211 18.1085 16.9062 20.5936 16.9062H139.448C141.934 16.9062 143.948 18.9211 143.948 21.4063V32.8625Z" fill="#2480FF"/>
<path fill-rule="evenodd" clip-rule="evenodd" d="M139.448 143.167H20.5936C18.1085 143.167 16.0936 141.153 16.0936 138.667V31.5195H143.948V138.667C143.948 141.153 141.934 143.167 139.448 143.167Z" fill="#F4FAFF"/>
<path fill-rule="evenodd" clip-rule="evenodd" d="M26.4841 24.3319C26.4841 25.8916 25.2196 27.1561 23.6598 27.1561C22.1002 27.1561 20.8359 25.8916 20.8359 24.3319C20.8359 22.7723 22.1002 21.5078 23.6598 21.5078C25.2196 21.5078 26.4841 22.7723 26.4841 24.3319Z" fill="#72C2FF"/>
<path fill-rule="evenodd" clip-rule="evenodd" d="M37.0308 24.3319C37.0308 25.8916 35.7665 27.1561 34.2067 27.1561C32.6471 27.1561 31.3828 25.8916 31.3828 24.3319C31.3828 22.7723 32.6471 21.5078 34.2067 21.5078C35.7665 21.5078 37.0308 22.7723 37.0308 24.3319Z" fill="#F4FAFF"/>
<path fill-rule="evenodd" clip-rule="evenodd" d="M47.5776 24.3319C47.5776 25.8916 46.3133 27.1561 44.7535 27.1561C43.1939 27.1561 41.9296 25.8916 41.9296 24.3319C41.9296 22.7723 43.1939 21.5078 44.7535 21.5078C46.3133 21.5078 47.5776 22.7723 47.5776 24.3319Z" fill="#F4FAFF"/>
<path fill-rule="evenodd" clip-rule="evenodd" d="M29.9124 127.981C29.1368 127.981 28.5082 127.352 28.5082 126.578V45.239C28.5082 44.4642 29.1368 43.8359 29.9124 43.8359H131.527C132.302 43.8359 132.931 44.4642 132.931 45.239V126.578C132.931 127.352 132.302 127.981 131.527 127.981H29.9124Z" fill="#F4FAFF"/>
<path fill-rule="evenodd" clip-rule="evenodd" d="M70.9503 83.2813H49.7371C48.1457 83.2813 46.8437 81.9792 46.8437 80.3879V59.1746C46.8437 57.5832 48.1457 56.2812 49.7371 56.2812H70.9503C72.5417 56.2812 73.8437 57.5832 73.8437 59.1746V80.3879C73.8437 81.9792 72.5417 83.2813 70.9503 83.2813Z" fill="#72C2FF"/>
<path fill-rule="evenodd" clip-rule="evenodd" d="M70.9356 120.031H49.7518C48.1523 120.031 46.8437 118.723 46.8437 117.123V95.9394C46.8437 94.3398 48.1523 93.0312 49.7518 93.0312H70.9356C72.535 93.0312 73.8437 94.3398 73.8437 95.9394V117.123C73.8437 118.723 72.535 120.031 70.9356 120.031Z" fill="#72C2FF"/>
<path fill-rule="evenodd" clip-rule="evenodd" d="M115.749 71.9229L100.735 86.9366C99.6091 88.0628 97.766 88.0628 96.6396 86.9366L81.6259 71.9229C80.4997 70.7966 80.4997 68.9535 81.6259 67.8271L96.6396 52.8134C97.766 51.6872 99.6091 51.6872 100.735 52.8134L115.749 67.8271C116.875 68.9535 116.875 70.7966 115.749 71.9229Z" fill="#1999F9"/>
<path fill-rule="evenodd" clip-rule="evenodd" d="M109.185 120.031H88.0016C86.4022 120.031 85.0936 118.723 85.0936 117.123V95.9394C85.0936 94.3398 86.4022 93.0312 88.0016 93.0312H109.185C110.785 93.0312 112.094 94.3398 112.094 95.9394V117.123C112.094 118.723 110.785 120.031 109.185 120.031Z" fill="#72C2FF"/>
</svg>
