<svg width="160" height="160" viewBox="0 0 160 160" fill="none" xmlns="http://www.w3.org/2000/svg">
<g opacity="0.25">
<path fill-rule="evenodd" clip-rule="evenodd" d="M149.297 79.9603C149.297 118.222 118.288 149.241 80.0389 149.241C41.7894 149.241 10.7812 118.222 10.7812 79.9603C10.7812 41.697 41.7894 10.6797 80.0389 10.6797C118.288 10.6797 149.297 41.697 149.297 79.9603Z" fill="#72C2FF"/>
<mask id="mask0" mask-type="alpha" maskUnits="userSpaceOnUse" x="10" y="10" width="140" height="140">
<path d="M80.0389 10.6797C41.7894 10.6797 10.7812 41.6981 10.7812 79.9603C10.7812 118.222 41.7894 149.242 80.0389 149.242C118.29 149.242 149.297 118.222 149.297 79.9603" fill="white"/>
</mask>
<g mask="url(#mask0)">
<path fill-rule="evenodd" clip-rule="evenodd" d="M87.0646 117.22C87.0646 117.22 103.631 133.051 79.0483 155.648C79.0483 155.648 54.9124 131.514 72.6578 117.105L87.0646 117.22Z" fill="#1999F9"/>
<path fill-rule="evenodd" clip-rule="evenodd" d="M91.6923 120.369H66.3666C65.256 120.369 64.4431 119.321 64.7186 118.245L68.0292 105.312H90.0287L93.3404 118.245C93.6159 119.321 92.803 120.369 91.6923 120.369Z" fill="#2480FF"/>
<path fill-rule="evenodd" clip-rule="evenodd" d="M49.5436 104.182L79.0286 58.3594L108.516 104.182C109.751 106.104 108.373 108.632 106.088 108.632H51.9711C49.6863 108.632 48.307 106.104 49.5436 104.182Z" fill="#1999F9"/>
<path fill-rule="evenodd" clip-rule="evenodd" d="M78.955 22.4146C78.9505 22.4135 78.9461 22.4102 78.9461 22.4102V22.4191C78.3774 22.7035 62.2533 34.979 62.2533 43.2724C62.2533 60.8787 62.4016 108.629 62.4016 108.629H95.805C95.805 108.629 95.6567 60.8787 95.6567 43.2724C95.6567 34.979 78.9583 22.4135 78.955 22.4146Z" fill="#F4FAFF"/>
<path fill-rule="evenodd" clip-rule="evenodd" d="M84.2495 45.7454C87.1331 48.63 87.1331 53.306 84.2495 56.1905C81.3671 59.0739 76.6927 59.0739 73.8091 56.1905C70.9255 53.306 70.9255 48.63 73.8091 45.7454C76.6927 42.8609 81.3671 42.8609 84.2495 45.7454Z" fill="#2480FF"/>
<path fill-rule="evenodd" clip-rule="evenodd" d="M73.0703 151.745C73.0703 161.377 65.2647 169.185 55.636 169.185C46.0073 169.185 38.2017 161.377 38.2017 151.745C38.2017 142.113 46.0073 134.305 55.636 134.305C65.2647 134.305 73.0703 142.113 73.0703 151.745Z" fill="#F4FAFF"/>
<path fill-rule="evenodd" clip-rule="evenodd" d="M96.9314 156.772C96.9314 166.404 89.1258 174.212 79.4971 174.212C69.8684 174.212 62.0628 166.404 62.0628 156.772C62.0628 147.14 69.8684 139.332 79.4971 139.332C89.1258 139.332 96.9314 147.14 96.9314 156.772Z" fill="#F4FAFF"/>
<path fill-rule="evenodd" clip-rule="evenodd" d="M129.706 144.677C118.786 144.677 109.933 135.823 109.933 124.899C109.933 113.977 118.786 105.121 129.706 105.121C140.625 105.121 149.476 113.977 149.476 124.899C149.476 135.823 140.625 144.677 129.706 144.677Z" fill="#F4FAFF"/>
<path fill-rule="evenodd" clip-rule="evenodd" d="M120.146 79.638C115.817 79.638 112.307 76.1277 112.307 71.7975C112.307 67.4662 115.817 63.957 120.146 63.957C124.476 63.957 127.985 67.4662 127.985 71.7975C127.985 76.1277 124.476 79.638 120.146 79.638Z" fill="#F4FAFF"/>
<path fill-rule="evenodd" clip-rule="evenodd" d="M30.7928 90.3377C28.3474 90.3377 26.3659 88.3533 26.3659 85.9071C26.3659 83.4609 28.3474 81.4766 30.7928 81.4766C33.2393 81.4766 35.2219 83.4609 35.2219 85.9071C35.2219 88.3533 33.2393 90.3377 30.7928 90.3377Z" fill="#F4FAFF"/>
<path fill-rule="evenodd" clip-rule="evenodd" d="M33.0603 151.286C21.9218 151.286 12.8907 142.252 12.8907 131.11C12.8907 119.968 21.9218 110.934 33.0603 110.934C44.2 110.934 53.231 119.968 53.231 131.11C53.231 142.252 44.2 151.286 33.0603 151.286Z" fill="#F4FAFF"/>
<path fill-rule="evenodd" clip-rule="evenodd" d="M110.052 166.359C98.0077 166.359 88.2418 156.591 88.2418 144.541C88.2418 132.492 98.0077 122.723 110.052 122.723C122.098 122.723 131.863 132.492 131.863 144.541C131.863 156.591 122.098 166.359 110.052 166.359Z" fill="#F4FAFF"/>
</g>
</g>
</svg>
