<svg width="356" height="356" viewBox="0 0 356 356" fill="none" xmlns="http://www.w3.org/2000/svg">
<path fill-rule="evenodd" clip-rule="evenodd" d="M30.8949 312.626C24.7366 312.626 19.7439 307.633 19.7439 301.475C19.7439 295.317 24.7366 290.324 30.8949 290.324H325.036C331.194 290.324 336.187 295.317 336.187 301.475C336.187 307.633 331.194 312.626 325.036 312.626H30.8949Z" fill="#F4FAFF"/>
<path fill-rule="evenodd" clip-rule="evenodd" d="M28.4811 312.628C23.6558 312.628 19.7441 307.635 19.7441 301.477H336.187C336.187 307.635 332.276 312.628 327.451 312.628H28.4811Z" fill="#1999F9"/>
<path fill-rule="evenodd" clip-rule="evenodd" d="M220.623 290.324L211.96 294.826C209.692 296.005 207.267 296.611 204.819 296.611H147.715C144.834 296.611 141.991 295.772 139.403 294.158L133.256 290.324H220.623Z" fill="#72C2FF"/>
<path fill-rule="evenodd" clip-rule="evenodd" d="M328.038 269.59H27.9615C23.271 269.59 19.4688 265.788 19.4688 261.098V51.6099C19.4688 46.9195 23.271 43.1172 27.9615 43.1172H328.038C332.729 43.1172 336.531 46.9195 336.531 51.6099V261.098C336.531 265.788 332.729 269.59 328.038 269.59Z" fill="#2480FF"/>
<path fill-rule="evenodd" clip-rule="evenodd" d="M33.6095 256.007C32.0461 256.007 30.7786 254.74 30.7786 253.176V59.9051C30.7786 58.3418 32.0461 57.0742 33.6095 57.0742C144.78 57.0742 228.157 57.0742 283.742 57.0742C292.32 57.0742 305.187 57.0742 322.342 57.0742C323.906 57.0742 325.173 58.3418 325.173 59.9051V253.176C325.173 254.74 323.906 256.007 322.342 256.007H33.6095Z" fill="#72C2FF"/>
<path fill-rule="evenodd" clip-rule="evenodd" d="M109.911 256.095H33.4698C31.91 256.095 30.6453 254.831 30.6453 253.271V72.0859H109.911V256.095Z" fill="#1999F9"/>
<path fill-rule="evenodd" clip-rule="evenodd" d="M89.3028 160.325H49.0659C47.6498 160.325 46.5015 159.176 46.5015 157.76V151.435C46.5015 150.019 47.6498 148.871 49.0659 148.871H89.3028C90.7189 148.871 91.8672 150.019 91.8672 151.435V157.76C91.8672 159.176 90.7189 160.325 89.3028 160.325Z" fill="#F4FAFF"/>
<path fill-rule="evenodd" clip-rule="evenodd" d="M89.3418 182.404H49.0267C47.6322 182.404 46.5012 181.273 46.5012 179.878V173.822C46.5012 172.427 47.6322 171.297 49.0267 171.297H89.3418C90.7364 171.297 91.867 172.427 91.867 173.822V179.878C91.867 181.273 90.7364 182.404 89.3418 182.404Z" fill="#F4FAFF"/>
<path fill-rule="evenodd" clip-rule="evenodd" d="M89.3418 204.658H49.0267C47.6322 204.658 46.5012 203.527 46.5012 202.132V196.076C46.5012 194.681 47.6322 193.551 49.0267 193.551H89.3418C90.7364 193.551 91.867 194.681 91.867 196.076V202.132C91.867 203.527 90.7364 204.658 89.3418 204.658Z" fill="#F4FAFF"/>
<path fill-rule="evenodd" clip-rule="evenodd" d="M91.8315 111.206C91.8315 123.714 81.6919 133.853 69.1842 133.853C56.6765 133.853 46.5369 123.714 46.5369 111.206C46.5369 98.6982 56.6765 88.5586 69.1842 88.5586C81.6919 88.5586 91.8315 98.6982 91.8315 111.206Z" fill="#F4FAFF"/>
<path fill-rule="evenodd" clip-rule="evenodd" d="M69.1843 133.853C75.9756 133.853 82.0493 130.792 86.1092 125.976C82.9036 119.903 76.5291 115.762 69.1843 115.762C61.8394 115.762 55.4649 119.903 52.2593 125.976C56.3192 130.792 62.3929 133.853 69.1843 133.853Z" fill="#2480FF"/>
<path fill-rule="evenodd" clip-rule="evenodd" d="M77.8182 108.149C77.8182 112.853 74.0053 116.665 69.3021 116.665C64.5985 116.665 60.7856 112.853 60.7856 108.149C60.7856 103.446 64.5985 99.6328 69.3021 99.6328C74.0053 99.6328 77.8182 103.446 77.8182 108.149Z" fill="#2480FF"/>
<path fill-rule="evenodd" clip-rule="evenodd" d="M109.799 256.095V72.0859H325.68V253.265C325.68 254.828 324.413 256.095 322.849 256.095H109.799Z" fill="#F4FAFF"/>
<path fill-rule="evenodd" clip-rule="evenodd" d="M131.094 211.428C129.53 211.428 128.263 210.161 128.263 208.597V93.6161C128.263 92.0523 129.53 90.7852 131.094 90.7852H305.376C306.939 90.7852 308.207 92.0523 308.207 93.6161V208.597C308.207 210.161 306.939 211.428 305.376 211.428H131.094Z" fill="#72C2FF"/>
<path fill-rule="evenodd" clip-rule="evenodd" d="M140.518 107.419C139.562 107.419 138.787 106.644 138.787 105.688C138.787 104.732 139.562 103.957 140.518 103.957H152.874C153.83 103.957 154.605 104.732 154.605 105.688C154.605 106.644 153.83 107.419 152.874 107.419H140.518Z" fill="#2480FF"/>
<path fill-rule="evenodd" clip-rule="evenodd" d="M140.718 115.727C139.762 115.727 138.987 114.953 138.987 113.996C138.987 113.041 139.762 112.266 140.718 112.266H153.074C154.03 112.266 154.805 113.041 154.805 113.996C154.805 114.953 154.03 115.727 153.074 115.727H140.718Z" fill="#2480FF"/>
<path fill-rule="evenodd" clip-rule="evenodd" d="M128.263 179.571C146.99 179.571 142.018 155.841 170.381 155.841C198.744 155.841 197.267 177.055 219.387 177.055C241.853 177.055 240.367 116.125 261.889 116.125C284.608 116.125 279.48 171.336 307.778 171.336V208.752C307.778 210.317 306.509 211.585 304.945 211.583L131.092 211.434C129.529 211.432 128.263 210.165 128.263 208.603V179.571Z" fill="#1999F9"/>
<path d="M242.358 174.82L245.127 171.961C246.078 170.982 246.812 170.24 247.531 169.533C253.277 163.893 257.653 161.295 262.984 161.295C268.516 161.295 273.36 164.081 279.954 170.106L280.163 170.298C280.737 170.825 281.33 171.38 282.007 172.023L285.333 175.207C289.781 179.451 292.502 181.772 295.612 183.772C299.618 186.348 303.486 187.697 307.548 187.747L307.778 187.748V189.73C303.216 189.73 298.92 188.256 294.54 185.439L294.233 185.239C291.219 183.267 288.54 180.988 284.397 177.052L281.164 173.956L280.315 173.15C279.779 172.643 279.293 172.19 278.822 171.757L278.423 171.392C272.269 165.8 267.831 163.277 262.984 163.277C258.306 163.277 254.327 165.639 248.92 170.947L248.442 171.419C247.918 171.941 247.361 172.507 246.695 173.191L243.776 176.205L243.322 176.668C239.28 180.776 236.332 183.337 232.92 185.448C228.382 188.257 223.622 189.73 218.279 189.73C209.569 189.73 202.712 186.081 197.249 179.216C192.947 173.81 189.7 166.829 186.417 156.966L186.162 156.194C185.012 152.657 182.075 143.054 181.994 142.797L181.813 142.226C179.925 136.302 178.44 132.539 176.757 129.741C174.769 126.434 172.654 124.837 170.149 124.837C167.09 124.837 164.536 126.964 162.177 131.312L162.036 131.575C160.209 135.012 158.652 139.366 156.521 146.566L153.679 156.338L153.405 157.26C150.383 167.356 147.839 173.874 144.478 179.133C140.101 185.98 134.703 189.656 127.833 189.729L127.625 189.73V187.748C133.839 187.748 138.722 184.459 142.808 178.066C146.08 172.947 148.591 166.476 151.608 156.353L152.078 154.756C152.833 152.17 154.142 147.635 154.287 147.141L154.625 145.992C156.819 138.577 158.422 134.114 160.361 130.504L160.435 130.367C163.105 125.447 166.217 122.855 170.149 122.855C173.469 122.855 176.144 124.876 178.455 128.719L178.625 129.005C180.364 131.981 181.878 135.875 183.791 141.907L186.477 150.607C187.16 152.802 187.808 154.864 188.178 155.981C191.435 165.832 194.623 172.735 198.8 177.982C203.903 184.395 210.204 187.748 218.279 187.748C223.236 187.748 227.64 186.385 231.878 183.763C235.246 181.678 238.183 179.095 242.358 174.82Z" fill="#F4FAFF"/>
<path d="M304.715 227.051C305.372 227.051 305.904 227.583 305.904 228.24C305.904 228.875 305.407 229.393 304.78 229.427L304.715 229.429H130.156C129.5 229.429 128.967 228.896 128.967 228.24C128.967 227.605 129.465 227.086 130.091 227.053L130.156 227.051H304.715Z" fill="#72C2FF"/>
<path d="M276.817 239.004C277.474 239.004 278.006 239.536 278.006 240.193C278.006 240.828 277.509 241.346 276.883 241.38L276.817 241.382H130.156C129.5 241.382 128.967 240.85 128.967 240.193C128.967 239.558 129.465 239.04 130.091 239.006L130.156 239.004H276.817Z" fill="#72C2FF"/>
</svg>
