<svg width="52" height="52" viewBox="0 0 52 52" fill="none" xmlns="http://www.w3.org/2000/svg">
<path fill-rule="evenodd" clip-rule="evenodd" d="M47.9137 25.988C47.9137 38.0972 38.0974 47.9136 25.9883 47.9136C13.8791 47.9136 4.06274 38.0972 4.06274 25.988C4.06274 13.8789 13.8791 4.0625 25.9883 4.0625C38.0974 4.0625 47.9137 13.8789 47.9137 25.988Z" fill="#72C2FF"/>
<path fill-rule="evenodd" clip-rule="evenodd" d="M25.0919 22.8417C25.0919 25.3863 23.0291 27.449 20.4846 27.449C17.94 27.449 15.8772 25.3863 15.8772 22.8417C15.8772 20.2972 17.94 18.2344 20.4846 18.2344C23.0291 18.2344 25.0919 20.2972 25.0919 22.8417Z" fill="#F4FAFF"/>
<path fill-rule="evenodd" clip-rule="evenodd" d="M36.0982 22.8417C36.0982 25.3863 34.0355 27.449 31.4909 27.449C28.9463 27.449 26.8835 25.3863 26.8835 22.8417C26.8835 20.2972 28.9463 18.2344 31.4909 18.2344C34.0355 18.2344 36.0982 20.2972 36.0982 22.8417Z" fill="#F4FAFF"/>
<path fill-rule="evenodd" clip-rule="evenodd" d="M22.5323 22.7166C22.5323 23.7768 21.6728 24.6363 20.6126 24.6363C19.5523 24.6363 18.6929 23.7768 18.6929 22.7166C18.6929 21.6563 19.5523 20.7969 20.6126 20.7969C21.6728 20.7969 22.5323 21.6563 22.5323 22.7166Z" fill="#2480FF"/>
<path fill-rule="evenodd" clip-rule="evenodd" d="M33.2825 22.7166C33.2825 23.7768 32.4231 24.6363 31.3629 24.6363C30.3026 24.6363 29.4431 23.7768 29.4431 22.7166C29.4431 21.6563 30.3026 20.7969 31.3629 20.7969C32.4231 20.7969 33.2825 21.6563 33.2825 22.7166Z" fill="#2480FF"/>
<path fill-rule="evenodd" clip-rule="evenodd" d="M33.1104 35.8956C32.8281 35.8956 32.5564 35.7394 32.4222 35.4695C31.3388 33.2911 28.8133 31.8835 25.9882 31.8835C23.1631 31.8835 20.6376 33.2911 19.5542 35.4695C19.3653 35.8492 18.9044 36.004 18.5246 35.8151C18.1449 35.6263 17.9902 35.1653 18.179 34.7856C19.5199 32.0897 22.5851 30.3477 25.9882 30.3477C29.3913 30.3477 32.4565 32.0897 33.7973 34.7856C33.9861 35.1653 33.8314 35.6263 33.4518 35.8151C33.3419 35.8697 33.2253 35.8956 33.1104 35.8956Z" fill="#2480FF"/>
</svg>
