<svg xmlns="http://www.w3.org/2000/svg" xmlns:xlink="http://www.w3.org/1999/xlink" viewBox="0 0 633.68 313.62"><defs><style>.cls-1,.cls-10,.cls-2{isolation:isolate;}.cls-2{font-size:44px;font-family:Gotham-Bold, Gotham;font-weight:700;letter-spacing:-0.01em;}.cls-2,.cls-7{fill:#fff;}.cls-3{letter-spacing:-0.06em;}.cls-4{letter-spacing:-0.01em;}.cls-5{fill:#06e18b;}.cls-6{fill:#11bf74;}.cls-8{fill:#e0db14;}.cls-9{fill:#ff0;}.cls-10,.cls-17{opacity:0.48;}.cls-11{opacity:0.57;}.cls-12{fill:url(#linear-gradient);}.cls-13{fill:#f4d658;}.cls-14{fill:url(#linear-gradient-2);}.cls-15{fill:url(#linear-gradient-3);}.cls-16{fill:url(#linear-gradient-4);}</style><linearGradient id="linear-gradient" x1="4.1" y1="570.18" x2="5.1" y2="570.18" gradientTransform="matrix(55.03, 0, 0, -29.31, 140.43, 16909.56)" gradientUnits="userSpaceOnUse"><stop offset="0.03" stop-color="#f2cf3a"/><stop offset="1" stop-color="#d59e26"/></linearGradient><linearGradient id="linear-gradient-2" x1="4.1" y1="570.18" x2="5.1" y2="570.18" gradientTransform="matrix(55.03, 0, 0, -29.31, 140.43, 16890.19)" xlink:href="#linear-gradient"/><linearGradient id="linear-gradient-3" x1="4.1" y1="570.18" x2="5.1" y2="570.18" gradientTransform="matrix(55.03, 0, 0, -29.31, 140.43, 16870.98)" xlink:href="#linear-gradient"/><linearGradient id="linear-gradient-4" x1="4.1" y1="570.17" x2="5.1" y2="570.17" gradientTransform="matrix(55.03, 0, 0, -29.31, 140.49, 16856.28)" xlink:href="#linear-gradient"/></defs><title>Asset 2</title><g id="Layer_2" data-name="Layer 2"><g id="Layer_1-2" data-name="Layer 1"><g id="PopUp_-_Novo_pedido" data-name="PopUp - Novo pedido"><g id="Search"><g id="Placeholder_Label" data-name="Placeholder Label" class="cls-1"><text class="cls-2" transform="translate(0 300.55)">CHEGOU UM NOVO PEDIDO!</text></g></g><g id="Group_585" data-name="Group 585"><g id="Group_584" data-name="Group 584"><g id="Group_550" data-name="Group 550"><g id="Group_541" data-name="Group 541"><g id="Group_535" data-name="Group 535"><g id="Group_534" data-name="Group 534"><path id="Path_926" data-name="Path 926" class="cls-5" d="M371.24,162.42l-126,88.72-58-32.88V184.89l184-39.07Z"/></g></g><g id="Group_537" data-name="Group 537"><g id="Group_536" data-name="Group 536"><path id="Path_927" data-name="Path 927" class="cls-6" d="M371.24,179.35l-126,71.79.65-42.49,125.35-62.84Z"/></g></g><g id="Group_540" data-name="Group 540"><g id="Group_539" data-name="Group 539"><path id="Path_928" data-name="Path 928" class="cls-6" d="M371.08,145.65c-41.51,25.23-83.67,49.16-125.84,73.09-19.37-11.07-38.91-22.3-58.28-33.37q62.75-36.87,125.84-72.93C332.17,123.52,351.71,134.58,371.08,145.65Z"/><path id="Path_929" data-name="Path 929" class="cls-5" d="M196.9,184.89c15.63,9,31.25,17.91,46.88,27C282,190.1,320.13,168.28,357.9,145.82c-15.79-9-31.42-17.91-47.21-26.86Q253.55,151.43,196.9,184.89Zm39.56,15.79c-6.84-3.91-10.26-6-17.09-9.93,4.88-2.77,3.42-9-1.3-11.56,10.91-6.35,22-12.86,32.88-19.21-2.12,5.37.81,11.4,8.47,16,7.33,4.23,17.26,6,26,5-10.74,6.19-21.49,12.37-32.4,18.56C248.5,196.93,241.34,197.91,236.45,200.68Zm102.07-59.09c-4.72,2.77-6.51,7-1.79,9.6-10.26,6-20.67,12-30.93,18.07,1.63-5-1.63-10.74-9-15-7.81-4.4-18.56-6-27.84-4.88,10.75-6,21.33-12,32.07-18.23,4.72,2.77,15.3,3.58,20.19.65C328.1,135.72,331.52,137.68,338.52,141.59Z"/><g id="Group_538" data-name="Group 538"><path id="Path_930" data-name="Path 930" class="cls-7" d="M261.69,165a14.55,14.55,0,0,1,1.47-2.6,11.82,11.82,0,0,1,2.93-2.6c-1.14-.65-1.79-1-2.93-1.63a8.62,8.62,0,0,0,1.63-1c1.14.65,1.79,1,2.93,1.63a29.35,29.35,0,0,1,3.42-1.3,12.39,12.39,0,0,1,3.42-.5,24,24,0,0,1,3.42.16,10.08,10.08,0,0,1,3.09,1.14,4.88,4.88,0,0,1,1.63,1.46,2.42,2.42,0,0,1,.33,1.47,6.63,6.63,0,0,1-1,1.79,30.08,30.08,0,0,0-2.28,2.28l-.33.33-.33.33c2.44,1.3,3.58,2.12,6,3.42a17.3,17.3,0,0,0,1.79-1.47,4.49,4.49,0,0,0,1.14-1.47,9.6,9.6,0,0,0,.65-1.3,2.07,2.07,0,0,0,.16-1c1.79.33,2.6.33,4.4.65a8.14,8.14,0,0,1-1.8,3.26,15.92,15.92,0,0,1-3.42,2.93,30.24,30.24,0,0,1,3.09,1.79,8.62,8.62,0,0,0-1.63,1c-1.14-.65-1.79-1-3.09-1.79a14.36,14.36,0,0,1-3.26,1.47,26,26,0,0,1-3.42.81,8.1,8.1,0,0,1-3.42-.16,10.08,10.08,0,0,1-3.09-1.14,4.44,4.44,0,0,1-1.79-1.63,2.24,2.24,0,0,1-.16-1.79,4.1,4.1,0,0,1,1.14-2,25.94,25.94,0,0,1,2.12-2.12c.16-.16.33-.16.49-.33-2.44-1.3-3.58-2.12-6-3.42-.49.33-1,.81-1.47,1.14a3.05,3.05,0,0,0-1,1.14,4.08,4.08,0,0,0-.65,1.14,1.77,1.77,0,0,0-.16.81A12.38,12.38,0,0,0,261.69,165Zm12-5.38a8.31,8.31,0,0,0-3.58,1.14l5.7,3.26a5.17,5.17,0,0,0,1.63-2.12c.16-.65-.16-1.14-1-1.63A3.13,3.13,0,0,0,273.73,159.65Zm6.51,11.56a12.88,12.88,0,0,0,3.74-1.3l-5.7-3.26a6.46,6.46,0,0,0-1.79,2.44c-.33.65,0,1.3.81,1.79a5.63,5.63,0,0,0,2.94.33Z"/></g><path id="Path_931" data-name="Path 931" class="cls-7" d="M248.83,183.1c2.6,1.47,2.44,3.91-.33,5.53a10.7,10.7,0,0,1-9.44.16c-2.6-1.47-2.44-3.91.16-5.37A10.55,10.55,0,0,1,248.83,183.1Z"/><path id="Path_932" data-name="Path 932" class="cls-7" d="M309.22,148.26a10.7,10.7,0,0,0,9.44-.16c2.6-1.63,2.77-3.91.16-5.37a10.7,10.7,0,0,0-9.44.16C306.78,144.35,306.62,146.79,309.22,148.26Z"/></g></g></g><g id="Group_549" data-name="Group 549"><g id="Group_543" data-name="Group 543"><g id="Group_542" data-name="Group 542"><path id="Path_933" data-name="Path 933" class="cls-6" d="M187.13,139,313.29,227.7l58-32.88V161.28L187.13,122.38Z"/></g></g><g id="Group_545" data-name="Group 545"><g id="Group_544" data-name="Group 544"><path id="Path_934" data-name="Path 934" class="cls-5" d="M187.13,155.75l126.16,72-.81-42.65L187.13,122.38Z"/></g></g><g id="Group_548" data-name="Group 548"><g id="Group_547" data-name="Group 547"><path id="Path_935" data-name="Path 935" class="cls-6" d="M187.29,122.21c41.51,25.07,83.67,49,125.84,72.93,19.37-11.07,38.91-22.3,58.28-33.37Q308.89,124.9,245.57,88.84C226.2,99.91,206.66,111.14,187.29,122.21Z"/><path id="Path_936" data-name="Path 936" class="cls-5" d="M247.85,95.35c-15.79,9-31.42,17.91-47.21,26.86,37.77,22.47,75.86,44.28,114.11,66.09,15.63-9,31.26-17.91,46.88-27Q304.74,128.07,247.85,95.35Zm57.3,80.74-32.23-18.56c8.79,1,18.72-.81,26-5,7.81-4.56,10.58-10.58,8.46-16,10.91,6.35,22,12.7,32.88,19.21-4.72,2.77-6,8.79-1.3,11.56-6.84,3.91-10.26,6-17.09,9.93-4.72-2.77-12-3.91-16.77-1.14Zm-67.88-67.88c4.88,2.77,15.3,2,20.19-.65,10.74,6.19,21.32,12.37,31.91,18.39-9.28-1.3-19.86.33-27.84,4.88-7.33,4.23-10.58,9.93-9,15-10.42-6-20.68-12-30.93-18.06,4.72-2.77,3.09-6.84-1.79-9.6C226.85,114.24,230.27,112.28,237.27,108.21Z"/><g id="Group_546" data-name="Group 546"><path id="Path_937" data-name="Path 937" class="cls-7" d="M292.62,142.07a1.77,1.77,0,0,0-.16-.81,9.34,9.34,0,0,0-.65-1.14c-.33-.33-.65-.81-1-1.14-.49-.33-1-.81-1.46-1.14-2.44,1.3-3.58,2.12-6,3.42.16.16.33.16.49.33a25.76,25.76,0,0,1,2.12,2.12,4.1,4.1,0,0,1,1.14,2,2.31,2.31,0,0,1-.16,1.79,5.93,5.93,0,0,1-1.79,1.63,8,8,0,0,1-3.09,1.14,24,24,0,0,1-3.42.16,13.05,13.05,0,0,1-3.42-.81,11.75,11.75,0,0,1-3.26-1.47c-1.14.65-1.79,1-3.09,1.79a8.62,8.62,0,0,1-1.63-1,30.24,30.24,0,0,0,3.09-1.79,20.2,20.2,0,0,1-3.42-2.93,9.18,9.18,0,0,1-1.79-3.26c1.79-.33,2.6-.33,4.4-.65a2.07,2.07,0,0,0,.16,1,9.6,9.6,0,0,0,.65,1.3,9,9,0,0,0,1.14,1.47,17.3,17.3,0,0,0,1.79,1.47c2.44-1.3,3.58-2.12,6-3.42l-.33-.33-.33-.33a21.32,21.32,0,0,1-2-2.12,6.63,6.63,0,0,1-1-1.79A1.56,1.56,0,0,1,276,136a4.88,4.88,0,0,1,1.63-1.47,10.08,10.08,0,0,1,3.09-1.14,11.78,11.78,0,0,1,3.42-.16,24.7,24.7,0,0,1,3.42.49,29.35,29.35,0,0,1,3.42,1.3c1.14-.65,1.79-1,2.93-1.63a8.62,8.62,0,0,1,1.63,1c-1.14.65-1.79,1-2.93,1.63a9.3,9.3,0,0,1,2.93,2.6,10.53,10.53,0,0,1,1.46,2.6C295.06,141.58,294.24,141.75,292.62,142.07Zm-10.91-5.37c-.81.49-1.14,1-1,1.63a5.66,5.66,0,0,0,1.63,2.12l5.7-3.26a7.11,7.11,0,0,0-3.42-1.14A6,6,0,0,0,281.71,136.7Zm-.65,10.58c.81-.49,1.14-1,.81-1.79a9,9,0,0,0-1.79-2.44l-5.7,3.26a9.39,9.39,0,0,0,3.74,1.3,4.35,4.35,0,0,0,2.94-.32Z"/></g><path id="Path_938" data-name="Path 938" class="cls-7" d="M309.71,159.65c-2.6,1.47-2.44,3.91.33,5.53a10.7,10.7,0,0,0,9.44.16c2.6-1.47,2.44-3.91-.16-5.37A10.1,10.1,0,0,0,309.71,159.65Z"/><path id="Path_939" data-name="Path 939" class="cls-7" d="M249.15,124.66a10.7,10.7,0,0,1-9.44-.16c-2.6-1.63-2.77-3.91-.16-5.37a10.7,10.7,0,0,1,9.44.16C251.59,120.75,251.76,123.19,249.15,124.66Z"/></g></g></g></g><g id="Group_557" data-name="Group 557"><g id="Group_551" data-name="Group 551"><path id="Path_940" data-name="Path 940" class="cls-8" d="M353.17,240.56c23.44,13.84,62.18,14.33,86,.81,12.21-6.84,18.23-16.12,17.91-25.23V202.31s-8.3-5.21-17.42-10.58c-23.44-13.84-62.18-14.33-86-.81-10.58,6-18.07,10.9-18.07,10.9V216C335.76,224.93,341.62,233.72,353.17,240.56Z"/></g><path id="Path_941" data-name="Path 941" class="cls-9" d="M353.17,226.72c23.44,13.84,62.18,14.32,86,.81,23.77-13.35,23.93-35.65.49-49.65-23.44-13.84-62.19-14.33-86-.82S329.57,212.89,353.17,226.72Z"/><path id="Path_942" data-name="Path 942" class="cls-10" d="M397.13,225.75c-14.49,0-28.49-3.09-38.42-9.12-7.65-4.72-12-10.42-12-15.79s4.56-11.07,12.37-15.63c9.6-5.53,22.63-8.63,36.63-8.63,14.49,0,28.49,3.42,38.26,9.44,7.65,4.72,12,10.58,12,16s-4.56,10.74-12.37,15.3c-9.44,5.7-22.46,8.46-36.46,8.46Z"/><path id="Path_943" data-name="Path 943" class="cls-10" d="M359,189.45c9.6-5.53,22.63-8.63,36.63-8.63,14.49,0,28.49,3.42,38.26,9.44,6.67,4.07,10.91,9,11.88,13.84a7.93,7.93,0,0,0,.16-2c0-5.37-4.4-11.23-12-16-9.77-6-23.77-9.45-38.25-9.45-14,0-27,3.09-36.63,8.63-7.81,4.56-12.37,10.26-12.37,15.63a9.28,9.28,0,0,0,.16,2.12C347.8,198.24,352.2,193.51,359,189.45Z"/><g id="Group_556" data-name="Group 556"><g id="Group_552" data-name="Group 552" class="cls-11"><path id="Path_944" data-name="Path 944" d="M413.89,201.65a8.26,8.26,0,0,0-.33-1.46,9.72,9.72,0,0,0-1-1.79,17.75,17.75,0,0,0-1.79-2.12c-.65-.65-1.63-1.3-2.44-2-4.07,2.44-6.19,3.58-10.26,5.86a2.86,2.86,0,0,0,.81.65,40.46,40.46,0,0,1,3.74,3.74,9.21,9.21,0,0,1,2,3.42,4.13,4.13,0,0,1-.33,3.09,7.1,7.1,0,0,1-3.26,2.77,17.31,17.31,0,0,1-5.54,2,23.56,23.56,0,0,1-5.86.16,26.6,26.6,0,0,1-6-1.3,25.65,25.65,0,0,1-5.7-2.6c-2.12,1.14-3.09,1.79-5.21,2.93-1.14-.65-1.63-1-2.77-1.63,2.12-1.3,3.26-1.79,5.37-3.09a26.25,26.25,0,0,1-5.86-5,14.53,14.53,0,0,1-3.09-5.53c2.93-.49,4.56-.65,7.49-1.14a10.63,10.63,0,0,0,.33,1.79,11.33,11.33,0,0,0,1.3,2.28,24.92,24.92,0,0,0,2.12,2.6,23.68,23.68,0,0,0,2.93,2.6c4.07-2.44,6.19-3.58,10.26-5.86l-.49-.49-.49-.49a23,23,0,0,1-3.42-3.74,8.16,8.16,0,0,1-1.62-3.09,3.62,3.62,0,0,1,.49-2.6,7.71,7.71,0,0,1,2.93-2.44,15.6,15.6,0,0,1,5.21-2,22.77,22.77,0,0,1,5.86-.33,38.68,38.68,0,0,1,6,1,29,29,0,0,1,5.86,2.28l5-2.93c1.14.65,1.63,1,2.77,1.63l-5,2.93a23.23,23.23,0,0,1,5,4.4,15.6,15.6,0,0,1,2.44,4.56C418.13,201,416.82,201.17,413.89,201.65ZM395,192.22c-1.46.81-2,1.63-1.63,2.77a10.18,10.18,0,0,0,2.93,3.74l9.77-5.7a16.91,16.91,0,0,0-6.19-2A9.83,9.83,0,0,0,395,192.22Zm-1.14,18.4q2.2-1.22,1.46-2.93a15.46,15.46,0,0,0-3.26-4.23c-3.91,2.28-5.86,3.42-9.93,5.7a15.67,15.67,0,0,0,6.51,2.28,7.92,7.92,0,0,0,5.21-.82Z"/><path id="Path_945" data-name="Path 945" d="M413.89,201.65a8.26,8.26,0,0,0-.33-1.46,9.72,9.72,0,0,0-1-1.79,17.75,17.75,0,0,0-1.79-2.12c-.65-.65-1.63-1.3-2.44-2-4.07,2.44-6.19,3.58-10.26,5.86a2.86,2.86,0,0,0,.81.65,40.46,40.46,0,0,1,3.74,3.74,9.21,9.21,0,0,1,2,3.42,4.13,4.13,0,0,1-.33,3.09,7.1,7.1,0,0,1-3.26,2.77,17.31,17.31,0,0,1-5.54,2,23.56,23.56,0,0,1-5.86.16,26.6,26.6,0,0,1-6-1.3,25.65,25.65,0,0,1-5.7-2.6c-2.12,1.14-3.09,1.79-5.21,2.93-1.14-.65-1.63-1-2.77-1.63,2.12-1.3,3.26-1.79,5.37-3.09a26.25,26.25,0,0,1-5.86-5,14.53,14.53,0,0,1-3.09-5.53c2.93-.49,4.56-.65,7.49-1.14a10.63,10.63,0,0,0,.33,1.79,11.33,11.33,0,0,0,1.3,2.28,24.92,24.92,0,0,0,2.12,2.6,23.68,23.68,0,0,0,2.93,2.6c4.07-2.44,6.19-3.58,10.26-5.86l-.49-.49-.49-.49a23,23,0,0,1-3.42-3.74,8.16,8.16,0,0,1-1.62-3.09,3.62,3.62,0,0,1,.49-2.6,7.71,7.71,0,0,1,2.93-2.44,15.6,15.6,0,0,1,5.21-2,22.77,22.77,0,0,1,5.86-.33,38.68,38.68,0,0,1,6,1,29,29,0,0,1,5.86,2.28l5-2.93c1.14.65,1.63,1,2.77,1.63l-5,2.93a23.23,23.23,0,0,1,5,4.4,15.6,15.6,0,0,1,2.44,4.56C418.13,201,416.82,201.17,413.89,201.65ZM395,192.22c-1.46.81-2,1.63-1.63,2.77a10.18,10.18,0,0,0,2.93,3.74l9.77-5.7a16.91,16.91,0,0,0-6.19-2A9.83,9.83,0,0,0,395,192.22Zm-1.14,18.4q2.2-1.22,1.46-2.93a15.46,15.46,0,0,0-3.26-4.23c-3.91,2.28-5.86,3.42-9.93,5.7a15.67,15.67,0,0,0,6.51,2.28,7.92,7.92,0,0,0,5.21-.82Z"/></g><g id="Group_555" data-name="Group 555"><g id="Group_553" data-name="Group 553"><path id="Path_946" data-name="Path 946" class="cls-12" d="M413.89,200a8.26,8.26,0,0,0-.33-1.46,9.72,9.72,0,0,0-1-1.79,17.75,17.75,0,0,0-1.79-2.12c-.65-.65-1.63-1.3-2.44-2-4.07,2.44-6.19,3.58-10.26,5.86a2.86,2.86,0,0,0,.81.65,40.46,40.46,0,0,1,3.74,3.74,9.21,9.21,0,0,1,2,3.42,4.13,4.13,0,0,1-.33,3.09,7.1,7.1,0,0,1-3.26,2.77,17.31,17.31,0,0,1-5.54,2,23.56,23.56,0,0,1-5.86.16,26.6,26.6,0,0,1-6-1.3,25.65,25.65,0,0,1-5.7-2.6c-2.12,1.14-3.09,1.79-5.21,2.93-1.14-.65-1.63-1-2.77-1.63,2.12-1.3,3.26-1.79,5.37-3.09a26.25,26.25,0,0,1-5.86-5,14.53,14.53,0,0,1-3.09-5.53c2.93-.49,4.56-.65,7.49-1.14a10.63,10.63,0,0,0,.33,1.79,11.33,11.33,0,0,0,1.3,2.28,24.92,24.92,0,0,0,2.12,2.6,23.68,23.68,0,0,0,2.93,2.6c4.07-2.44,6.19-3.58,10.26-5.86l-.49-.49-.49-.49a23,23,0,0,1-3.42-3.74,8.16,8.16,0,0,1-1.62-3.09,3.62,3.62,0,0,1,.49-2.6,7.71,7.71,0,0,1,2.93-2.44,15.6,15.6,0,0,1,5.21-2,22.77,22.77,0,0,1,5.86-.33,38.68,38.68,0,0,1,6,1,29,29,0,0,1,5.86,2.28l5-2.93c1.14.65,1.63,1,2.77,1.63l-5,2.93a23.23,23.23,0,0,1,5,4.4,15.6,15.6,0,0,1,2.44,4.56C418.13,199.37,416.82,199.54,413.89,200ZM395,190.59c-1.46.81-2,1.63-1.63,2.77a10.18,10.18,0,0,0,2.93,3.74l9.77-5.7a16.91,16.91,0,0,0-6.19-2A9.83,9.83,0,0,0,395,190.59ZM393.87,209q2.2-1.22,1.46-2.93a15.45,15.45,0,0,0-3.26-4.23c-3.91,2.28-5.86,3.42-9.93,5.7a15.67,15.67,0,0,0,6.51,2.28,7.92,7.92,0,0,0,5.21-.82Z"/></g><g id="Group_554" data-name="Group 554"><path id="Path_947" data-name="Path 947" class="cls-13" d="M413.89,200a8.26,8.26,0,0,0-.33-1.46,9.72,9.72,0,0,0-1-1.79,17.75,17.75,0,0,0-1.79-2.12c-.65-.65-1.63-1.3-2.44-2-4.07,2.44-6.19,3.58-10.26,5.86a2.86,2.86,0,0,0,.81.65,40.46,40.46,0,0,1,3.74,3.74,9.21,9.21,0,0,1,2,3.42,4.13,4.13,0,0,1-.33,3.09,7.1,7.1,0,0,1-3.26,2.77,17.31,17.31,0,0,1-5.54,2,23.56,23.56,0,0,1-5.86.16,26.6,26.6,0,0,1-6-1.3,25.65,25.65,0,0,1-5.7-2.6c-2.12,1.14-3.09,1.79-5.21,2.93-1.14-.65-1.63-1-2.77-1.63,2.12-1.3,3.26-1.79,5.37-3.09a26.25,26.25,0,0,1-5.86-5,14.53,14.53,0,0,1-3.09-5.53c2.93-.49,4.56-.65,7.49-1.14a10.63,10.63,0,0,0,.33,1.79,11.33,11.33,0,0,0,1.3,2.28,24.92,24.92,0,0,0,2.12,2.6,23.68,23.68,0,0,0,2.93,2.6c4.07-2.44,6.19-3.58,10.26-5.86l-.49-.49-.49-.49a23,23,0,0,1-3.42-3.74,8.16,8.16,0,0,1-1.62-3.09,3.62,3.62,0,0,1,.49-2.6,7.71,7.71,0,0,1,2.93-2.44,15.6,15.6,0,0,1,5.21-2,22.77,22.77,0,0,1,5.86-.33,38.68,38.68,0,0,1,6,1,29,29,0,0,1,5.86,2.28l5-2.93c1.14.65,1.63,1,2.77,1.63l-5,2.93a23.23,23.23,0,0,1,5,4.4,15.6,15.6,0,0,1,2.44,4.56C418.13,199.37,416.82,199.54,413.89,200ZM395,190.59c-1.46.81-2,1.63-1.63,2.77a10.18,10.18,0,0,0,2.93,3.74l9.77-5.7a16.91,16.91,0,0,0-6.19-2A9.83,9.83,0,0,0,395,190.59ZM393.87,209q2.2-1.22,1.46-2.93a15.45,15.45,0,0,0-3.26-4.23c-3.91,2.28-5.86,3.42-9.93,5.7a15.67,15.67,0,0,0,6.51,2.28,7.92,7.92,0,0,0,5.21-.82Z"/></g></g></g></g><g id="Group_564" data-name="Group 564"><g id="Group_558" data-name="Group 558"><path id="Path_948" data-name="Path 948" class="cls-8" d="M353.17,221.35c23.44,13.84,62.18,14.32,86,.81,12.21-6.84,18.23-16.12,17.91-25.23V183.1s-8.3-5.21-17.42-10.58c-23.44-13.84-62.18-14.33-86-.81-10.58,6-18.07,10.9-18.07,10.9v14.16C335.76,205.72,341.62,214.51,353.17,221.35Z"/></g><path id="Path_949" data-name="Path 949" class="cls-9" d="M353.17,207.51c23.44,13.84,62.18,14.32,86,.81,23.77-13.35,23.93-35.65.49-49.65-23.44-13.84-62.18-14.33-86-.81S329.57,193.68,353.17,207.51Z"/><path id="Path_950" data-name="Path 950" class="cls-10" d="M397.13,207c-14.49,0-28.49-3.26-38.42-9.28-7.65-4.72-12-10.42-12-15.79s4.56-11.07,12.37-15.63c9.6-5.53,22.63-8.63,36.63-8.63,14.49,0,28.49,3.42,38.26,9.44,7.65,4.72,12,10.58,12,16s-4.56,11.07-12.37,15.63c-9.44,5.21-22.46,8.3-36.46,8.3Z"/><path id="Path_951" data-name="Path 951" class="cls-10" d="M359,170.24c9.6-5.53,22.63-8.63,36.63-8.63,14.49,0,28.49,3.42,38.26,9.44,6.67,4.07,10.91,9,11.88,13.84a7.93,7.93,0,0,0,.16-2c0-5.37-4.4-11.23-12-16-9.77-6-23.77-9.45-38.25-9.45-14,0-27,3.09-36.63,8.63-7.81,4.56-12.37,10.26-12.37,15.63a9.28,9.28,0,0,0,.16,2.12C347.8,179,352.2,174.14,359,170.24Z"/><g id="Group_563" data-name="Group 563"><g id="Group_559" data-name="Group 559" class="cls-11"><path id="Path_952" data-name="Path 952" d="M413.89,182.28a8.26,8.26,0,0,0-.33-1.47,9.72,9.72,0,0,0-1-1.79,17.75,17.75,0,0,0-1.79-2.12c-.65-.65-1.63-1.3-2.44-2-4.07,2.44-6.19,3.58-10.26,5.86a2.86,2.86,0,0,0,.81.65,40.46,40.46,0,0,1,3.74,3.74,9.21,9.21,0,0,1,2,3.42,4.13,4.13,0,0,1-.33,3.09,7.1,7.1,0,0,1-3.26,2.77,17.31,17.31,0,0,1-5.54,2,23.56,23.56,0,0,1-5.86.16,26.6,26.6,0,0,1-6-1.3,25.65,25.65,0,0,1-5.7-2.6c-2.12,1.14-3.09,1.79-5.21,2.93-1.14-.65-1.63-1-2.77-1.63,2.12-1.3,3.26-1.79,5.37-3.09a26.25,26.25,0,0,1-5.86-5,14.53,14.53,0,0,1-3.09-5.53c2.93-.49,4.56-.65,7.49-1.14a10.63,10.63,0,0,0,.33,1.79,11.33,11.33,0,0,0,1.3,2.28,24.92,24.92,0,0,0,2.12,2.6,23.68,23.68,0,0,0,2.93,2.6c4.07-2.44,6.19-3.58,10.26-5.86l-.49-.49-.49-.49a23,23,0,0,1-3.42-3.74,8.16,8.16,0,0,1-1.62-3.09,3.62,3.62,0,0,1,.49-2.6,7.71,7.71,0,0,1,2.93-2.44,15.6,15.6,0,0,1,5.21-2,22.77,22.77,0,0,1,5.86-.33,38.68,38.68,0,0,1,6,1,29,29,0,0,1,5.86,2.28l5-2.93c1.14.65,1.63,1,2.77,1.63l-5,2.93a23.24,23.24,0,0,1,5,4.4,15.61,15.61,0,0,1,2.44,4.56C418.13,181.63,416.82,182,413.89,182.28ZM395,173c-1.46.81-2,1.63-1.63,2.77a10.18,10.18,0,0,0,2.93,3.74l9.77-5.7a16.91,16.91,0,0,0-6.19-2A9.83,9.83,0,0,0,395,173Zm-1.14,18.4q2.2-1.22,1.46-2.93a15.45,15.45,0,0,0-3.26-4.23c-3.91,2.28-5.86,3.42-9.93,5.7a15.67,15.67,0,0,0,6.51,2.28,7.93,7.93,0,0,0,5.21-.82Z"/><path id="Path_953" data-name="Path 953" d="M413.89,182.28a8.26,8.26,0,0,0-.33-1.47,9.72,9.72,0,0,0-1-1.79,17.75,17.75,0,0,0-1.79-2.12c-.65-.65-1.63-1.3-2.44-2-4.07,2.44-6.19,3.58-10.26,5.86a2.86,2.86,0,0,0,.81.65,40.46,40.46,0,0,1,3.74,3.74,9.21,9.21,0,0,1,2,3.42,4.13,4.13,0,0,1-.33,3.09,7.1,7.1,0,0,1-3.26,2.77,17.31,17.31,0,0,1-5.54,2,23.56,23.56,0,0,1-5.86.16,26.6,26.6,0,0,1-6-1.3,25.65,25.65,0,0,1-5.7-2.6c-2.12,1.14-3.09,1.79-5.21,2.93-1.14-.65-1.63-1-2.77-1.63,2.12-1.3,3.26-1.79,5.37-3.09a26.25,26.25,0,0,1-5.86-5,14.53,14.53,0,0,1-3.09-5.53c2.93-.49,4.56-.65,7.49-1.14a10.63,10.63,0,0,0,.33,1.79,11.33,11.33,0,0,0,1.3,2.28,24.92,24.92,0,0,0,2.12,2.6,23.68,23.68,0,0,0,2.93,2.6c4.07-2.44,6.19-3.58,10.26-5.86l-.49-.49-.49-.49a23,23,0,0,1-3.42-3.74,8.16,8.16,0,0,1-1.62-3.09,3.62,3.62,0,0,1,.49-2.6,7.71,7.71,0,0,1,2.93-2.44,15.6,15.6,0,0,1,5.21-2,22.77,22.77,0,0,1,5.86-.33,38.68,38.68,0,0,1,6,1,29,29,0,0,1,5.86,2.28l5-2.93c1.14.65,1.63,1,2.77,1.63l-5,2.93a23.24,23.24,0,0,1,5,4.4,15.61,15.61,0,0,1,2.44,4.56C418.13,181.63,416.82,182,413.89,182.28ZM395,173c-1.46.81-2,1.63-1.63,2.77a10.18,10.18,0,0,0,2.93,3.74l9.77-5.7a16.91,16.91,0,0,0-6.19-2A9.83,9.83,0,0,0,395,173Zm-1.14,18.4q2.2-1.22,1.46-2.93a15.45,15.45,0,0,0-3.26-4.23c-3.91,2.28-5.86,3.42-9.93,5.7a15.67,15.67,0,0,0,6.51,2.28,7.93,7.93,0,0,0,5.21-.82Z"/></g><g id="Group_562" data-name="Group 562"><g id="Group_560" data-name="Group 560"><path id="Path_954" data-name="Path 954" class="cls-14" d="M413.89,180.65a8.26,8.26,0,0,0-.33-1.47,9.72,9.72,0,0,0-1-1.79,17.75,17.75,0,0,0-1.79-2.12c-.65-.65-1.63-1.3-2.44-2-4.07,2.44-6.19,3.58-10.26,5.86a2.86,2.86,0,0,0,.81.65,40.46,40.46,0,0,1,3.74,3.74,9.21,9.21,0,0,1,2,3.42,4.13,4.13,0,0,1-.33,3.09,7.1,7.1,0,0,1-3.26,2.77,17.31,17.31,0,0,1-5.54,2,23.56,23.56,0,0,1-5.86.16,26.6,26.6,0,0,1-6-1.3,25.65,25.65,0,0,1-5.7-2.6c-2.12,1.14-3.09,1.79-5.21,2.93-1.14-.65-1.63-1-2.77-1.63,2.12-1.3,3.26-1.79,5.37-3.09a26.25,26.25,0,0,1-5.86-5,14.53,14.53,0,0,1-3.09-5.53c2.93-.49,4.56-.65,7.49-1.14a10.63,10.63,0,0,0,.33,1.79,11.33,11.33,0,0,0,1.3,2.28,24.92,24.92,0,0,0,2.12,2.6,23.68,23.68,0,0,0,2.93,2.6c4.07-2.44,6.19-3.58,10.26-5.86l-.49-.49-.49-.49a23,23,0,0,1-3.42-3.74,8.16,8.16,0,0,1-1.62-3.09,3.62,3.62,0,0,1,.49-2.6,7.71,7.71,0,0,1,2.93-2.44,15.6,15.6,0,0,1,5.21-2,22.77,22.77,0,0,1,5.86-.33,38.68,38.68,0,0,1,6,1,29,29,0,0,1,5.86,2.28l5-2.93c1.14.65,1.63,1,2.77,1.63l-5,2.93a23.24,23.24,0,0,1,5,4.4,15.61,15.61,0,0,1,2.44,4.56C418.13,180,416.82,180.33,413.89,180.65ZM395,171.37c-1.46.81-2,1.63-1.63,2.77a10.18,10.18,0,0,0,2.93,3.74l9.77-5.7a16.91,16.91,0,0,0-6.19-2,9.83,9.83,0,0,0-4.88,1.14Zm-1.14,18.4q2.2-1.22,1.46-2.93a15.45,15.45,0,0,0-3.26-4.23c-3.91,2.28-5.86,3.42-9.93,5.7a15.67,15.67,0,0,0,6.51,2.28,7.93,7.93,0,0,0,5.21-.82Z"/></g><g id="Group_561" data-name="Group 561"><path id="Path_955" data-name="Path 955" class="cls-13" d="M413.89,180.65a8.26,8.26,0,0,0-.33-1.47,9.72,9.72,0,0,0-1-1.79,17.75,17.75,0,0,0-1.79-2.12c-.65-.65-1.63-1.3-2.44-2-4.07,2.44-6.19,3.58-10.26,5.86a2.86,2.86,0,0,0,.81.65,40.46,40.46,0,0,1,3.74,3.74,9.21,9.21,0,0,1,2,3.42,4.13,4.13,0,0,1-.33,3.09,7.1,7.1,0,0,1-3.26,2.77,17.31,17.31,0,0,1-5.54,2,23.56,23.56,0,0,1-5.86.16,26.6,26.6,0,0,1-6-1.3,25.65,25.65,0,0,1-5.7-2.6c-2.12,1.14-3.09,1.79-5.21,2.93-1.14-.65-1.63-1-2.77-1.63,2.12-1.3,3.26-1.79,5.37-3.09a26.25,26.25,0,0,1-5.86-5,14.53,14.53,0,0,1-3.09-5.53c2.93-.49,4.56-.65,7.49-1.14a10.63,10.63,0,0,0,.33,1.79,11.33,11.33,0,0,0,1.3,2.28,24.92,24.92,0,0,0,2.12,2.6,23.68,23.68,0,0,0,2.93,2.6c4.07-2.44,6.19-3.58,10.26-5.86l-.49-.49-.49-.49a23,23,0,0,1-3.42-3.74,8.16,8.16,0,0,1-1.62-3.09,3.62,3.62,0,0,1,.49-2.6,7.71,7.71,0,0,1,2.93-2.44,15.6,15.6,0,0,1,5.21-2,22.77,22.77,0,0,1,5.86-.33,38.68,38.68,0,0,1,6,1,29,29,0,0,1,5.86,2.28l5-2.93c1.14.65,1.63,1,2.77,1.63l-5,2.93a23.24,23.24,0,0,1,5,4.4,15.61,15.61,0,0,1,2.44,4.56C418.13,180,416.82,180.33,413.89,180.65ZM395,171.37c-1.46.81-2,1.63-1.63,2.77a10.18,10.18,0,0,0,2.93,3.74l9.77-5.7a16.91,16.91,0,0,0-6.19-2,9.83,9.83,0,0,0-4.88,1.14Zm-1.14,18.4q2.2-1.22,1.46-2.93a15.45,15.45,0,0,0-3.26-4.23c-3.91,2.28-5.86,3.42-9.93,5.7a15.67,15.67,0,0,0,6.51,2.28,7.93,7.93,0,0,0,5.21-.82Z"/></g></g></g></g><g id="Group_571" data-name="Group 571"><g id="Group_565" data-name="Group 565"><path id="Path_956" data-name="Path 956" class="cls-8" d="M353.17,202.14c23.44,13.84,62.18,14.32,86,.81,12.21-6.84,18.23-16.12,17.91-25.23V163.89s-8.3-5.21-17.42-10.58c-23.44-13.84-62.18-14.33-86-.81-10.58,6-18.07,10.9-18.07,10.9v14.16C335.76,186.52,341.62,195.3,353.17,202.14Z"/></g><path id="Path_957" data-name="Path 957" class="cls-9" d="M353.17,188.31c23.44,13.84,62.18,14.32,86,.81,23.77-13.35,23.93-35.65.49-49.65-23.44-13.84-62.18-14.33-86-.81S329.57,174.47,353.17,188.31Z"/><path id="Path_958" data-name="Path 958" class="cls-10" d="M397.13,187c-14.49,0-28.49-2.93-38.42-9-7.65-4.72-12-10.26-12-15.63s4.56-11.07,12.37-15.63c9.6-5.53,22.63-8.63,36.63-8.63,14.49,0,28.49,3.42,38.26,9.44,7.65,4.72,12,10.58,12,16s-4.56,10.58-12.37,15.14c-9.44,5.7-22.46,8.3-36.46,8.3Z"/><path id="Path_959" data-name="Path 959" class="cls-10" d="M359,150.87c9.6-5.53,22.63-8.63,36.63-8.63,14.49,0,28.49,3.42,38.26,9.44,6.67,4.07,10.91,9,11.88,13.84a7.93,7.93,0,0,0,.16-2c0-5.37-4.4-11.23-12-16-9.77-6-23.77-9.45-38.25-9.45-14,0-27,3.09-36.63,8.63-7.81,4.56-12.37,10.26-12.37,15.63a9.28,9.28,0,0,0,.16,2.12C347.8,159.82,352.2,154.93,359,150.87Z"/><g id="Group_570" data-name="Group 570"><g id="Group_566" data-name="Group 566" class="cls-11"><path id="Path_960" data-name="Path 960" d="M413.89,163.07a8.26,8.26,0,0,0-.33-1.47,9.72,9.72,0,0,0-1-1.79,17.75,17.75,0,0,0-1.79-2.12c-.65-.65-1.63-1.3-2.44-2-4.07,2.44-6.19,3.58-10.26,5.86a2.86,2.86,0,0,0,.81.65,40.46,40.46,0,0,1,3.74,3.74,9.21,9.21,0,0,1,2,3.42,4.13,4.13,0,0,1-.33,3.09,7.1,7.1,0,0,1-3.26,2.77,17.31,17.31,0,0,1-5.54,2,23.56,23.56,0,0,1-5.86.16,26.6,26.6,0,0,1-6-1.3,25.65,25.65,0,0,1-5.7-2.6c-2.12,1.14-3.09,1.79-5.21,2.93-1.14-.65-1.63-1-2.77-1.63,2.12-1.3,3.26-1.79,5.37-3.09a26.25,26.25,0,0,1-5.86-5,14.53,14.53,0,0,1-3.09-5.53c2.93-.49,4.56-.65,7.49-1.14a10.63,10.63,0,0,0,.33,1.79,11.33,11.33,0,0,0,1.3,2.28,24.92,24.92,0,0,0,2.12,2.6,23.67,23.67,0,0,0,2.93,2.6c4.07-2.44,6.19-3.58,10.26-5.86l-.49-.49-.49-.49a23,23,0,0,1-3.42-3.74,8.16,8.16,0,0,1-1.62-3.09,3.62,3.62,0,0,1,.49-2.6,7.71,7.71,0,0,1,2.93-2.44,15.6,15.6,0,0,1,5.21-2,22.77,22.77,0,0,1,5.86-.33,38.68,38.68,0,0,1,6,1,29,29,0,0,1,5.86,2.28l5-2.93c1.14.65,1.63,1,2.77,1.63l-5,2.93a23.24,23.24,0,0,1,5,4.4,15.6,15.6,0,0,1,2.44,4.56C418.13,162.42,416.82,162.75,413.89,163.07ZM395,153.79c-1.46.81-2,1.63-1.63,2.77a10.18,10.18,0,0,0,2.93,3.74l9.77-5.7a16.91,16.91,0,0,0-6.19-2,9.83,9.83,0,0,0-4.88,1.14ZM393.87,172q2.2-1.22,1.46-2.93a15.46,15.46,0,0,0-3.26-4.23c-3.91,2.28-5.86,3.42-9.93,5.7a15.67,15.67,0,0,0,6.51,2.28,7,7,0,0,0,5.21-.81Z"/><path id="Path_961" data-name="Path 961" d="M413.89,163.07a8.26,8.26,0,0,0-.33-1.47,9.72,9.72,0,0,0-1-1.79,17.75,17.75,0,0,0-1.79-2.12c-.65-.65-1.63-1.3-2.44-2-4.07,2.44-6.19,3.58-10.26,5.86a2.86,2.86,0,0,0,.81.65,40.46,40.46,0,0,1,3.74,3.74,9.21,9.21,0,0,1,2,3.42,4.13,4.13,0,0,1-.33,3.09,7.1,7.1,0,0,1-3.26,2.77,17.31,17.31,0,0,1-5.54,2,23.56,23.56,0,0,1-5.86.16,26.6,26.6,0,0,1-6-1.3,25.65,25.65,0,0,1-5.7-2.6c-2.12,1.14-3.09,1.79-5.21,2.93-1.14-.65-1.63-1-2.77-1.63,2.12-1.3,3.26-1.79,5.37-3.09a26.25,26.25,0,0,1-5.86-5,14.53,14.53,0,0,1-3.09-5.53c2.93-.49,4.56-.65,7.49-1.14a10.63,10.63,0,0,0,.33,1.79,11.33,11.33,0,0,0,1.3,2.28,24.92,24.92,0,0,0,2.12,2.6,23.67,23.67,0,0,0,2.93,2.6c4.07-2.44,6.19-3.58,10.26-5.86l-.49-.49-.49-.49a23,23,0,0,1-3.42-3.74,8.16,8.16,0,0,1-1.62-3.09,3.62,3.62,0,0,1,.49-2.6,7.71,7.71,0,0,1,2.93-2.44,15.6,15.6,0,0,1,5.21-2,22.77,22.77,0,0,1,5.86-.33,38.68,38.68,0,0,1,6,1,29,29,0,0,1,5.86,2.28l5-2.93c1.14.65,1.63,1,2.77,1.63l-5,2.93a23.24,23.24,0,0,1,5,4.4,15.6,15.6,0,0,1,2.44,4.56C418.13,162.42,416.82,162.75,413.89,163.07ZM395,153.79c-1.46.81-2,1.63-1.63,2.77a10.18,10.18,0,0,0,2.93,3.74l9.77-5.7a16.91,16.91,0,0,0-6.19-2,9.83,9.83,0,0,0-4.88,1.14ZM393.87,172q2.2-1.22,1.46-2.93a15.46,15.46,0,0,0-3.26-4.23c-3.91,2.28-5.86,3.42-9.93,5.7a15.67,15.67,0,0,0,6.51,2.28,7,7,0,0,0,5.21-.81Z"/></g><g id="Group_569" data-name="Group 569"><g id="Group_567" data-name="Group 567"><path id="Path_962" data-name="Path 962" class="cls-15" d="M413.89,161.44a8.26,8.26,0,0,0-.33-1.47,9.72,9.72,0,0,0-1-1.79,17.75,17.75,0,0,0-1.79-2.12c-.65-.65-1.63-1.3-2.44-2-4.07,2.44-6.19,3.58-10.26,5.86a2.86,2.86,0,0,0,.81.65,40.46,40.46,0,0,1,3.74,3.74,9.21,9.21,0,0,1,2,3.42,4.13,4.13,0,0,1-.33,3.09,7.1,7.1,0,0,1-3.26,2.77,17.31,17.31,0,0,1-5.54,2,23.56,23.56,0,0,1-5.86.16,26.6,26.6,0,0,1-6-1.3,25.65,25.65,0,0,1-5.7-2.6c-2.12,1.14-3.09,1.79-5.21,2.93-1.14-.65-1.63-1-2.77-1.63,2.12-1.3,3.26-1.79,5.37-3.09a26.25,26.25,0,0,1-5.86-5,14.53,14.53,0,0,1-3.09-5.53c2.93-.49,4.56-.65,7.49-1.14a10.63,10.63,0,0,0,.33,1.79,11.33,11.33,0,0,0,1.3,2.28,24.92,24.92,0,0,0,2.12,2.6,23.67,23.67,0,0,0,2.93,2.6c4.07-2.44,6.19-3.58,10.26-5.86l-.49-.49-.49-.49a23,23,0,0,1-3.42-3.74,8.16,8.16,0,0,1-1.62-3.09,3.62,3.62,0,0,1,.49-2.6,7.71,7.71,0,0,1,2.93-2.44,15.6,15.6,0,0,1,5.21-2,22.77,22.77,0,0,1,5.86-.33,38.68,38.68,0,0,1,6,1,29,29,0,0,1,5.86,2.28l5-2.93c1.14.65,1.63,1,2.77,1.63l-5,2.93a23.24,23.24,0,0,1,5,4.4,15.61,15.61,0,0,1,2.44,4.56C418.13,160.79,416.82,161.12,413.89,161.44ZM395,152.17c-1.46.81-2,1.63-1.63,2.77a10.18,10.18,0,0,0,2.93,3.74l9.77-5.7a16.91,16.91,0,0,0-6.19-2,9.83,9.83,0,0,0-4.88,1.14Zm-1.14,18.23q2.2-1.22,1.46-2.93a15.46,15.46,0,0,0-3.26-4.23c-3.91,2.28-5.86,3.42-9.93,5.7a15.67,15.67,0,0,0,6.51,2.28,7,7,0,0,0,5.21-.81Z"/></g><g id="Group_568" data-name="Group 568"><path id="Path_963" data-name="Path 963" class="cls-13" d="M413.89,161.44a8.26,8.26,0,0,0-.33-1.47,9.72,9.72,0,0,0-1-1.79,17.75,17.75,0,0,0-1.79-2.12c-.65-.65-1.63-1.3-2.44-2-4.07,2.44-6.19,3.58-10.26,5.86a2.86,2.86,0,0,0,.81.65,40.46,40.46,0,0,1,3.74,3.74,9.21,9.21,0,0,1,2,3.42,4.13,4.13,0,0,1-.33,3.09,7.1,7.1,0,0,1-3.26,2.77,17.31,17.31,0,0,1-5.54,2,23.56,23.56,0,0,1-5.86.16,26.6,26.6,0,0,1-6-1.3,25.65,25.65,0,0,1-5.7-2.6c-2.12,1.14-3.09,1.79-5.21,2.93-1.14-.65-1.63-1-2.77-1.63,2.12-1.3,3.26-1.79,5.37-3.09a26.25,26.25,0,0,1-5.86-5,14.53,14.53,0,0,1-3.09-5.53c2.93-.49,4.56-.65,7.49-1.14a10.63,10.63,0,0,0,.33,1.79,11.33,11.33,0,0,0,1.3,2.28,24.92,24.92,0,0,0,2.12,2.6,23.67,23.67,0,0,0,2.93,2.6c4.07-2.44,6.19-3.58,10.26-5.86l-.49-.49-.49-.49a23,23,0,0,1-3.42-3.74,8.16,8.16,0,0,1-1.62-3.09,3.62,3.62,0,0,1,.49-2.6,7.71,7.71,0,0,1,2.93-2.44,15.6,15.6,0,0,1,5.21-2,22.77,22.77,0,0,1,5.86-.33,38.68,38.68,0,0,1,6,1,29,29,0,0,1,5.86,2.28l5-2.93c1.14.65,1.63,1,2.77,1.63l-5,2.93a23.24,23.24,0,0,1,5,4.4,15.61,15.61,0,0,1,2.44,4.56C418.13,160.79,416.82,161.12,413.89,161.44ZM395,152.17c-1.46.81-2,1.63-1.63,2.77a10.18,10.18,0,0,0,2.93,3.74l9.77-5.7a16.91,16.91,0,0,0-6.19-2,9.83,9.83,0,0,0-4.88,1.14Zm-1.14,18.23q2.2-1.22,1.46-2.93a15.46,15.46,0,0,0-3.26-4.23c-3.91,2.28-5.86,3.42-9.93,5.7a15.67,15.67,0,0,0,6.51,2.28,7,7,0,0,0,5.21-.81Z"/></g></g></g></g><g id="Group_572" data-name="Group 572"><path id="Path_964" data-name="Path 964" class="cls-8" d="M353.17,182.77c23.44,13.84,62.18,14.32,86,.81,12.21-6.84,18.23-16.12,17.91-25.23V144.52s-8.3-5.21-17.42-10.58c-23.44-13.84-62.19-14.33-86-.82-10.74,6-18.07,11.07-18.07,11.07v14.16C335.76,167.31,341.62,176.1,353.17,182.77Z"/></g><path id="Path_965" data-name="Path 965" class="cls-9" d="M353.17,169.1c23.44,13.84,62.18,14.32,86,.81,23.77-13.35,23.93-35.65.49-49.65-23.44-13.84-62.19-14.33-86-.82C329.89,132.79,329.57,155.26,353.17,169.1Z"/><path id="Path_966" data-name="Path 966" class="cls-10" d="M397.13,168.12c-14.49,0-28.49-3.09-38.42-9.12-7.65-4.72-12-10.42-12-15.79s4.56-11.07,12.37-15.63c9.6-5.53,22.63-8.63,36.63-8.63,14.49,0,28.49,3.42,38.26,9.44,7.65,4.72,12,10.58,12,16s-4.56,10.74-12.37,15.3c-9.44,5.7-22.46,8.47-36.46,8.47Z"/><path id="Path_967" data-name="Path 967" class="cls-10" d="M359,131.66c9.6-5.53,22.63-8.63,36.63-8.63,14.49,0,28.49,3.42,38.26,9.44,6.67,4.07,10.91,9,11.88,13.84a7.93,7.93,0,0,0,.16-2c0-5.37-4.4-11.23-12-16-9.77-6-23.77-9.45-38.25-9.45-14,0-27,3.09-36.63,8.63-7.81,4.56-12.37,10.26-12.37,15.63a9.28,9.28,0,0,0,.16,2.12C347.8,140.61,352.2,135.72,359,131.66Z"/><g id="Group_577" data-name="Group 577"><g id="Group_573" data-name="Group 573" class="cls-11"><path id="Path_968" data-name="Path 968" d="M413.89,143.86a8.26,8.26,0,0,0-.33-1.47,9.72,9.72,0,0,0-1-1.79,17.75,17.75,0,0,0-1.79-2.12c-.65-.65-1.63-1.3-2.44-2-4.07,2.44-6.19,3.58-10.26,5.86a2.86,2.86,0,0,0,.81.65,40.46,40.46,0,0,1,3.74,3.74,9.21,9.21,0,0,1,2,3.42,4.13,4.13,0,0,1-.33,3.09,7.1,7.1,0,0,1-3.26,2.77,17.31,17.31,0,0,1-5.54,2,23.56,23.56,0,0,1-5.86.16,26.6,26.6,0,0,1-6-1.3,25.65,25.65,0,0,1-5.7-2.6c-2.12,1.14-3.09,1.79-5.21,2.93-1.14-.65-1.63-1-2.77-1.63,2.12-1.3,3.26-1.79,5.37-3.09a26.25,26.25,0,0,1-5.86-5,14.53,14.53,0,0,1-3.09-5.53c2.93-.49,4.56-.65,7.49-1.14a10.63,10.63,0,0,0,.33,1.79,11.33,11.33,0,0,0,1.3,2.28,24.92,24.92,0,0,0,2.12,2.6,23.67,23.67,0,0,0,2.93,2.6c4.07-2.44,6.19-3.58,10.26-5.86l-.49-.49-.49-.49a23,23,0,0,1-3.42-3.74,8.16,8.16,0,0,1-1.62-3.09,3.62,3.62,0,0,1,.49-2.6,7.71,7.71,0,0,1,2.93-2.45,15.6,15.6,0,0,1,5.21-2,22.77,22.77,0,0,1,5.86-.33,38.68,38.68,0,0,1,6,1,29,29,0,0,1,5.86,2.28l5-2.93c1.14.65,1.63,1,2.77,1.63l-5,2.93a23.24,23.24,0,0,1,5,4.4,15.6,15.6,0,0,1,2.44,4.56C418.13,143.21,416.82,143.38,413.89,143.86ZM395,134.58c-1.46.81-2,1.63-1.63,2.77a10.18,10.18,0,0,0,2.93,3.74l9.77-5.7a16.91,16.91,0,0,0-6.19-2,8.37,8.37,0,0,0-4.88,1.14Zm-1.14,18.23q2.2-1.22,1.46-2.93a15.46,15.46,0,0,0-3.26-4.23c-3.91,2.28-5.86,3.42-9.93,5.7a15.67,15.67,0,0,0,6.51,2.28,7.93,7.93,0,0,0,5.21-.81Z"/><path id="Path_969" data-name="Path 969" d="M413.89,143.86a8.26,8.26,0,0,0-.33-1.47,9.72,9.72,0,0,0-1-1.79,17.75,17.75,0,0,0-1.79-2.12c-.65-.65-1.63-1.3-2.44-2-4.07,2.44-6.19,3.58-10.26,5.86a2.86,2.86,0,0,0,.81.65,40.46,40.46,0,0,1,3.74,3.74,9.21,9.21,0,0,1,2,3.42,4.13,4.13,0,0,1-.33,3.09,7.1,7.1,0,0,1-3.26,2.77,17.31,17.31,0,0,1-5.54,2,23.56,23.56,0,0,1-5.86.16,26.6,26.6,0,0,1-6-1.3,25.65,25.65,0,0,1-5.7-2.6c-2.12,1.14-3.09,1.79-5.21,2.93-1.14-.65-1.63-1-2.77-1.63,2.12-1.3,3.26-1.79,5.37-3.09a26.25,26.25,0,0,1-5.86-5,14.53,14.53,0,0,1-3.09-5.53c2.93-.49,4.56-.65,7.49-1.14a10.63,10.63,0,0,0,.33,1.79,11.33,11.33,0,0,0,1.3,2.28,24.92,24.92,0,0,0,2.12,2.6,23.67,23.67,0,0,0,2.93,2.6c4.07-2.44,6.19-3.58,10.26-5.86l-.49-.49-.49-.49a23,23,0,0,1-3.42-3.74,8.16,8.16,0,0,1-1.62-3.09,3.62,3.62,0,0,1,.49-2.6,7.71,7.71,0,0,1,2.93-2.45,15.6,15.6,0,0,1,5.21-2,22.77,22.77,0,0,1,5.86-.33,38.68,38.68,0,0,1,6,1,29,29,0,0,1,5.86,2.28l5-2.93c1.14.65,1.63,1,2.77,1.63l-5,2.93a23.24,23.24,0,0,1,5,4.4,15.6,15.6,0,0,1,2.44,4.56C418.13,143.21,416.82,143.38,413.89,143.86ZM395,134.58c-1.46.81-2,1.63-1.63,2.77a10.18,10.18,0,0,0,2.93,3.74l9.77-5.7a16.91,16.91,0,0,0-6.19-2,8.37,8.37,0,0,0-4.88,1.14Zm-1.14,18.23q2.2-1.22,1.46-2.93a15.46,15.46,0,0,0-3.26-4.23c-3.91,2.28-5.86,3.42-9.93,5.7a15.67,15.67,0,0,0,6.51,2.28,7.93,7.93,0,0,0,5.21-.81Z"/></g><g id="Group_576" data-name="Group 576"><g id="Group_574" data-name="Group 574"><path id="Path_970" data-name="Path 970" class="cls-16" d="M413.89,142.24a8.26,8.26,0,0,0-.33-1.47,9.72,9.72,0,0,0-1-1.79,17.75,17.75,0,0,0-1.79-2.12c-.65-.65-1.63-1.3-2.44-2-4.07,2.44-6.19,3.58-10.26,5.86a2.86,2.86,0,0,0,.81.65,40.47,40.47,0,0,1,3.74,3.74,9.21,9.21,0,0,1,2,3.42,4.13,4.13,0,0,1-.33,3.09,7.1,7.1,0,0,1-3.26,2.77,17.31,17.31,0,0,1-5.54,2,23.56,23.56,0,0,1-5.86.16,26.6,26.6,0,0,1-6-1.3,25.65,25.65,0,0,1-5.7-2.6c-2.12,1.14-3.09,1.79-5.21,2.93-1.14-.65-1.63-1-2.77-1.63,2.12-1.3,3.26-1.79,5.37-3.09a26.25,26.25,0,0,1-5.86-5,14.53,14.53,0,0,1-3.09-5.53c2.93-.49,4.56-.65,7.49-1.14a10.63,10.63,0,0,0,.33,1.79,11.33,11.33,0,0,0,1.3,2.28,24.92,24.92,0,0,0,2.12,2.6,23.67,23.67,0,0,0,2.93,2.6c4.07-2.44,6.19-3.58,10.26-5.86l-.49-.49-.49-.49a23,23,0,0,1-3.42-3.74,8.16,8.16,0,0,1-1.62-3.09,3.62,3.62,0,0,1,.49-2.6,7.71,7.71,0,0,1,2.93-2.45,15.6,15.6,0,0,1,5.21-2,22.77,22.77,0,0,1,5.86-.33,38.68,38.68,0,0,1,6,1,29,29,0,0,1,5.86,2.28l5-2.93c1.14.65,1.63,1,2.77,1.63l-5,2.93a23.24,23.24,0,0,1,5,4.4,15.6,15.6,0,0,1,2.44,4.56C418.13,141.58,416.82,141.75,413.89,142.24ZM395,133c-1.46.81-2,1.63-1.63,2.77a10.18,10.18,0,0,0,2.93,3.74l9.77-5.7a16.91,16.91,0,0,0-6.19-2A8.37,8.37,0,0,0,395,133Zm-1.14,18.23q2.2-1.22,1.46-2.93a15.46,15.46,0,0,0-3.26-4.23c-3.91,2.28-5.86,3.42-9.93,5.7a15.67,15.67,0,0,0,6.51,2.28,7.93,7.93,0,0,0,5.21-.81Z"/></g><g id="Group_575" data-name="Group 575"><path id="Path_971" data-name="Path 971" class="cls-13" d="M413.89,142.24a8.26,8.26,0,0,0-.33-1.47,9.72,9.72,0,0,0-1-1.79,17.75,17.75,0,0,0-1.79-2.12c-.65-.65-1.63-1.3-2.44-2-4.07,2.44-6.19,3.58-10.26,5.86a2.86,2.86,0,0,0,.81.65,40.47,40.47,0,0,1,3.74,3.74,9.21,9.21,0,0,1,2,3.42,4.13,4.13,0,0,1-.33,3.09,7.1,7.1,0,0,1-3.26,2.77,17.31,17.31,0,0,1-5.54,2,23.56,23.56,0,0,1-5.86.16,26.6,26.6,0,0,1-6-1.3,25.65,25.65,0,0,1-5.7-2.6c-2.12,1.14-3.09,1.79-5.21,2.93-1.14-.65-1.63-1-2.77-1.63,2.12-1.3,3.26-1.79,5.37-3.09a26.25,26.25,0,0,1-5.86-5,14.53,14.53,0,0,1-3.09-5.53c2.93-.49,4.56-.65,7.49-1.14a10.63,10.63,0,0,0,.33,1.79,11.33,11.33,0,0,0,1.3,2.28,24.92,24.92,0,0,0,2.12,2.6,23.67,23.67,0,0,0,2.93,2.6c4.07-2.44,6.19-3.58,10.26-5.86l-.49-.49-.49-.49a23,23,0,0,1-3.42-3.74,8.16,8.16,0,0,1-1.62-3.09,3.62,3.62,0,0,1,.49-2.6,7.71,7.71,0,0,1,2.93-2.45,15.6,15.6,0,0,1,5.21-2,22.77,22.77,0,0,1,5.86-.33,38.68,38.68,0,0,1,6,1,29,29,0,0,1,5.86,2.28l5-2.93c1.14.65,1.63,1,2.77,1.63l-5,2.93a23.24,23.24,0,0,1,5,4.4,15.6,15.6,0,0,1,2.44,4.56C418.13,141.58,416.82,141.75,413.89,142.24ZM395,133c-1.46.81-2,1.63-1.63,2.77a10.18,10.18,0,0,0,2.93,3.74l9.77-5.7a16.91,16.91,0,0,0-6.19-2A8.37,8.37,0,0,0,395,133Zm-1.14,18.23q2.2-1.22,1.46-2.93a15.46,15.46,0,0,0-3.26-4.23c-3.91,2.28-5.86,3.42-9.93,5.7a15.67,15.67,0,0,0,6.51,2.28,7.93,7.93,0,0,0,5.21-.81Z"/></g></g></g><g id="Group_578" data-name="Group 578"><path id="Path_972" data-name="Path 972" class="cls-8" d="M353.17,163.56c23.44,13.84,62.18,14.32,86,.81,12.21-6.84,18.23-16.12,17.91-25.23V125.31s-8.3-5.21-17.42-10.58c-23.44-13.84-62.19-14.33-86-.82-10.58,6-18.07,10.91-18.07,10.91V139C335.76,147.93,341.62,156.72,353.17,163.56Z"/></g><path id="Path_973" data-name="Path 973" class="cls-9" d="M353.17,149.89c23.44,13.84,62.18,14.33,86,.81,23.77-13.35,23.93-35.65.49-49.65-23.6-13.84-62.18-14.32-86-.81C329.89,113.59,329.57,135.89,353.17,149.89Z"/><path id="Path_974" data-name="Path 974" class="cls-8" d="M397.13,149.24c-14.49,0-28.49-3.26-38.42-9.28-7.65-4.72-12-10.42-12-15.79s4.56-11.07,12.37-15.63c9.61-5.53,22.63-8.63,36.63-8.63,14.49,0,28.49,3.42,38.26,9.44,7.65,4.72,12,10.58,12,16s-4.56,11.07-12.37,15.63c-9.44,5.37-22.46,8.3-36.46,8.3Z"/><path id="Path_975" data-name="Path 975" class="cls-10" d="M359,112.45c9.6-5.53,22.63-8.63,36.63-8.63,14.49,0,28.49,3.42,38.26,9.44,6.67,4.07,10.91,9,11.88,13.84a7.93,7.93,0,0,0,.16-2c0-5.37-4.4-11.23-12-16-9.77-6-23.77-9.45-38.25-9.45-14,0-27,3.09-36.63,8.63-7.81,4.56-12.37,10.26-12.37,15.63a9.28,9.28,0,0,0,.16,2.12C347.8,121.24,352.2,116.52,359,112.45Z"/><g id="Group_583" data-name="Group 583" class="cls-17"><g id="Group_579" data-name="Group 579" class="cls-11"><path id="Path_976" data-name="Path 976" d="M413.89,124.65a8.26,8.26,0,0,0-.33-1.47,9.72,9.72,0,0,0-1-1.79,17.75,17.75,0,0,0-1.79-2.12c-.65-.65-1.63-1.3-2.44-2-4.07,2.44-6.19,3.58-10.26,5.86a2.86,2.86,0,0,0,.81.65,40.47,40.47,0,0,1,3.74,3.74,9.21,9.21,0,0,1,2,3.42,4.13,4.13,0,0,1-.33,3.09,7.1,7.1,0,0,1-3.26,2.77,17.31,17.31,0,0,1-5.54,2,23.56,23.56,0,0,1-5.86.16,26.6,26.6,0,0,1-6-1.3,25.65,25.65,0,0,1-5.7-2.6c-2.12,1.14-3.09,1.79-5.21,2.93-1.14-.65-1.63-1-2.77-1.63,2.12-1.3,3.26-1.79,5.37-3.09a26.25,26.25,0,0,1-5.86-5,14.53,14.53,0,0,1-3.09-5.53c2.93-.49,4.56-.65,7.49-1.14a10.63,10.63,0,0,0,.33,1.79,11.33,11.33,0,0,0,1.3,2.28,24.92,24.92,0,0,0,2.12,2.6,23.67,23.67,0,0,0,2.93,2.6c4.07-2.44,6.19-3.58,10.26-5.86l-.49-.49-.49-.49a23,23,0,0,1-3.42-3.74,8.16,8.16,0,0,1-1.62-3.09,3.62,3.62,0,0,1,.49-2.6,7.71,7.71,0,0,1,2.93-2.44,15.6,15.6,0,0,1,5.21-2,22.77,22.77,0,0,1,5.86-.33,38.68,38.68,0,0,1,6,1,29,29,0,0,1,5.86,2.28l5-2.93c1.14.65,1.63,1,2.77,1.63l-5,2.93a23.24,23.24,0,0,1,5,4.4,15.6,15.6,0,0,1,2.44,4.56C418.13,124,416.82,124.17,413.89,124.65ZM395,115.22c-1.46.81-2,1.63-1.63,2.77a10.18,10.18,0,0,0,2.93,3.74l9.77-5.7a16.91,16.91,0,0,0-6.19-2A9.83,9.83,0,0,0,395,115.22Zm-1.14,18.4q2.2-1.22,1.46-2.93a15.46,15.46,0,0,0-3.26-4.23c-3.91,2.28-5.86,3.42-9.93,5.7a15.67,15.67,0,0,0,6.51,2.28,7.93,7.93,0,0,0,5.21-.82Z"/><path id="Path_977" data-name="Path 977" d="M413.89,124.65a8.26,8.26,0,0,0-.33-1.47,9.72,9.72,0,0,0-1-1.79,17.75,17.75,0,0,0-1.79-2.12c-.65-.65-1.63-1.3-2.44-2-4.07,2.44-6.19,3.58-10.26,5.86a2.86,2.86,0,0,0,.81.65,40.47,40.47,0,0,1,3.74,3.74,9.21,9.21,0,0,1,2,3.42,4.13,4.13,0,0,1-.33,3.09,7.1,7.1,0,0,1-3.26,2.77,17.31,17.31,0,0,1-5.54,2,23.56,23.56,0,0,1-5.86.16,26.6,26.6,0,0,1-6-1.3,25.65,25.65,0,0,1-5.7-2.6c-2.12,1.14-3.09,1.79-5.21,2.93-1.14-.65-1.63-1-2.77-1.63,2.12-1.3,3.26-1.79,5.37-3.09a26.25,26.25,0,0,1-5.86-5,14.53,14.53,0,0,1-3.09-5.53c2.93-.49,4.56-.65,7.49-1.14a10.63,10.63,0,0,0,.33,1.79,11.33,11.33,0,0,0,1.3,2.28,24.92,24.92,0,0,0,2.12,2.6,23.67,23.67,0,0,0,2.93,2.6c4.07-2.44,6.19-3.58,10.26-5.86l-.49-.49-.49-.49a23,23,0,0,1-3.42-3.74,8.16,8.16,0,0,1-1.62-3.09,3.62,3.62,0,0,1,.49-2.6,7.71,7.71,0,0,1,2.93-2.44,15.6,15.6,0,0,1,5.21-2,22.77,22.77,0,0,1,5.86-.33,38.68,38.68,0,0,1,6,1,29,29,0,0,1,5.86,2.28l5-2.93c1.14.65,1.63,1,2.77,1.63l-5,2.93a23.24,23.24,0,0,1,5,4.4,15.6,15.6,0,0,1,2.44,4.56C418.13,124,416.82,124.17,413.89,124.65ZM395,115.22c-1.46.81-2,1.63-1.63,2.77a10.18,10.18,0,0,0,2.93,3.74l9.77-5.7a16.91,16.91,0,0,0-6.19-2A9.83,9.83,0,0,0,395,115.22Zm-1.14,18.4q2.2-1.22,1.46-2.93a15.46,15.46,0,0,0-3.26-4.23c-3.91,2.28-5.86,3.42-9.93,5.7a15.67,15.67,0,0,0,6.51,2.28,7.93,7.93,0,0,0,5.21-.82Z"/></g><g id="Group_582" data-name="Group 582"><g id="Group_580" data-name="Group 580"><path id="Path_978" data-name="Path 978" d="M413.89,123a8.26,8.26,0,0,0-.33-1.47,9.72,9.72,0,0,0-1-1.79,17.75,17.75,0,0,0-1.79-2.12c-.65-.65-1.63-1.3-2.44-2-4.07,2.44-6.19,3.58-10.26,5.86a2.86,2.86,0,0,0,.81.65,40.47,40.47,0,0,1,3.74,3.74,9.21,9.21,0,0,1,2,3.42,4.13,4.13,0,0,1-.33,3.09,7.1,7.1,0,0,1-3.26,2.77,17.31,17.31,0,0,1-5.54,2,23.56,23.56,0,0,1-5.86.16,26.6,26.6,0,0,1-6-1.3,25.65,25.65,0,0,1-5.7-2.6c-2.12,1.14-3.09,1.79-5.21,2.93-1.14-.65-1.63-1-2.77-1.63,2.12-1.3,3.26-1.79,5.37-3.09a26.25,26.25,0,0,1-5.86-5,14.53,14.53,0,0,1-3.09-5.53c2.93-.49,4.56-.65,7.49-1.14a10.63,10.63,0,0,0,.33,1.79,11.33,11.33,0,0,0,1.3,2.28,24.92,24.92,0,0,0,2.12,2.6,23.67,23.67,0,0,0,2.93,2.6c4.07-2.44,6.19-3.58,10.26-5.86l-.49-.49-.49-.49a23,23,0,0,1-3.42-3.74,8.16,8.16,0,0,1-1.62-3.09,3.62,3.62,0,0,1,.49-2.6,7.71,7.71,0,0,1,2.93-2.44,15.6,15.6,0,0,1,5.21-2,22.77,22.77,0,0,1,5.86-.33,38.68,38.68,0,0,1,6,1,29,29,0,0,1,5.86,2.28l5-2.93c1.14.65,1.63,1,2.77,1.63l-5,2.93a23.24,23.24,0,0,1,5,4.4,15.6,15.6,0,0,1,2.44,4.56C418.13,122.38,416.82,122.54,413.89,123ZM395,113.59c-1.46.81-2,1.63-1.63,2.77a10.18,10.18,0,0,0,2.93,3.74l9.77-5.7a16.91,16.91,0,0,0-6.19-2A9.83,9.83,0,0,0,395,113.59ZM393.87,132q2.2-1.22,1.46-2.93a15.46,15.46,0,0,0-3.26-4.23c-3.91,2.28-5.86,3.42-9.93,5.7a15.67,15.67,0,0,0,6.51,2.28,7.93,7.93,0,0,0,5.21-.82Z"/></g><g id="Group_581" data-name="Group 581"><path id="Path_979" data-name="Path 979" class="cls-13" d="M413.89,123a8.26,8.26,0,0,0-.33-1.47,9.72,9.72,0,0,0-1-1.79,17.75,17.75,0,0,0-1.79-2.12c-.65-.65-1.63-1.3-2.44-2-4.07,2.44-6.19,3.58-10.26,5.86a2.86,2.86,0,0,0,.81.65,40.47,40.47,0,0,1,3.74,3.74,9.21,9.21,0,0,1,2,3.42,4.13,4.13,0,0,1-.33,3.09,7.1,7.1,0,0,1-3.26,2.77,17.31,17.31,0,0,1-5.54,2,23.56,23.56,0,0,1-5.86.16,26.6,26.6,0,0,1-6-1.3,25.65,25.65,0,0,1-5.7-2.6c-2.12,1.14-3.09,1.79-5.21,2.93-1.14-.65-1.63-1-2.77-1.63,2.12-1.3,3.26-1.79,5.37-3.09a26.25,26.25,0,0,1-5.86-5,14.53,14.53,0,0,1-3.09-5.53c2.93-.49,4.56-.65,7.49-1.14a10.63,10.63,0,0,0,.33,1.79,11.33,11.33,0,0,0,1.3,2.28,24.92,24.92,0,0,0,2.12,2.6,23.67,23.67,0,0,0,2.93,2.6c4.07-2.44,6.19-3.58,10.26-5.86l-.49-.49-.49-.49a23,23,0,0,1-3.42-3.74,8.16,8.16,0,0,1-1.62-3.09,3.62,3.62,0,0,1,.49-2.6,7.71,7.71,0,0,1,2.93-2.44,15.6,15.6,0,0,1,5.21-2,22.77,22.77,0,0,1,5.86-.33,38.68,38.68,0,0,1,6,1,29,29,0,0,1,5.86,2.28l5-2.93c1.14.65,1.63,1,2.77,1.63l-5,2.93a23.24,23.24,0,0,1,5,4.4,15.6,15.6,0,0,1,2.44,4.56C418.13,122.38,416.82,122.54,413.89,123ZM395,113.59c-1.46.81-2,1.63-1.63,2.77a10.18,10.18,0,0,0,2.93,3.74l9.77-5.7a16.91,16.91,0,0,0-6.19-2A9.83,9.83,0,0,0,395,113.59ZM393.87,132q2.2-1.22,1.46-2.93a15.46,15.46,0,0,0-3.26-4.23c-3.91,2.28-5.86,3.42-9.93,5.7a15.67,15.67,0,0,0,6.51,2.28,7.93,7.93,0,0,0,5.21-.82Z"/></g></g></g></g></g><g id="LOGO_BUSINESS" data-name="LOGO BUSINESS"><g id="MyPharma_1" data-name="MyPharma 1"><g id="Group_1" data-name="Group 1"><path id="Path_1" data-name="Path 1" class="cls-7" d="M247.66,5.78l5.25,28.29h-4.18L246,18.32l-7.56,16.19-7.56-16.1-2.76,15.66h-4.18l5.25-28.29,9.25,19.48Z"/><path id="Path_2" data-name="Path 2" class="cls-7" d="M277.73,13.79l-9,18.59-2.31,4.89-4.8,10H257l7.21-14.95-8.1-18.41h4.54l6,13.52,6.49-13.52h4.63Z"/><path id="Path_3" data-name="Path 3" class="cls-7" d="M301.27,14.77c0,.18.09.27.09.44v.53h0v.54a.8.8,0,0,1-.09.44h0l-.09.89v.18c0,.09-.09.27-.09.36s-.09.18-.09.36a10.82,10.82,0,0,1-1.6,3.2A10.69,10.69,0,0,1,296.82,24,13.77,13.77,0,0,1,294,25.27a13.36,13.36,0,0,1-3.29.44h-5.07v8.36h-4.09V5.78h9.16a11,11,0,0,1,6.14,1.69,10.69,10.69,0,0,1,2.58,2.31A9.4,9.4,0,0,1,301,12.9a2.75,2.75,0,0,1,.18.71v.18c0,.18.09.27.09.44a.56.56,0,0,0,0,.53Zm-10.14,7.38a4.92,4.92,0,0,0,2.31-.53,5.8,5.8,0,0,0,1.87-1.42,6,6,0,0,0,1.25-2,7.19,7.19,0,0,0,.44-2.4,7.63,7.63,0,0,0-.44-2.4,6,6,0,0,0-1.25-2,5.8,5.8,0,0,0-1.87-1.42,5.19,5.19,0,0,0-2.31-.53h-5.52V22.06h5.52Z"/><path id="Path_4" data-name="Path 4" class="cls-7" d="M318.35,15.12a9.83,9.83,0,0,1,2.94,3.11,8.94,8.94,0,0,1,1.07,4.27V34.07h-4V22.51a4.13,4.13,0,0,0-.36-1.87A4.91,4.91,0,0,0,315.33,18a4.65,4.65,0,0,0-1.87-.36,4.13,4.13,0,0,0-1.87.36,4.91,4.91,0,0,0-2.67,2.67,4.65,4.65,0,0,0-.36,1.87V34.07h-4V0h4V15.21a9.2,9.2,0,0,1,2.31-1.07,9.53,9.53,0,0,1,5.16,0A7.55,7.55,0,0,1,318.35,15.12Z"/><path id="Path_5" data-name="Path 5" class="cls-7" d="M335.16,13.7a10.05,10.05,0,0,1,4,.8,10.25,10.25,0,0,1,3.29,2.22A9.37,9.37,0,0,1,344.68,20a10.05,10.05,0,0,1,.8,4V34.07h-4V32.2a15.48,15.48,0,0,1-2.94,1.6,10.75,10.75,0,0,1-3.38.53,10.05,10.05,0,0,1-4-.8,10.25,10.25,0,0,1-3.29-2.22A10.74,10.74,0,0,1,325.64,28a10.41,10.41,0,0,1,0-8,10.25,10.25,0,0,1,2.22-3.29,10.73,10.73,0,0,1,3.29-2.22A10.37,10.37,0,0,1,335.16,13.7Zm.09,16.64a6,6,0,0,0,2.49-.54,6.34,6.34,0,0,0,2-1.33,7.61,7.61,0,0,0,1.33-2,5.87,5.87,0,0,0,.53-2.4,6,6,0,0,0-.53-2.49,6.34,6.34,0,0,0-1.33-2,7.61,7.61,0,0,0-2-1.33,6.08,6.08,0,0,0-5,0,6.34,6.34,0,0,0-2,1.33,7.61,7.61,0,0,0-1.33,2,6,6,0,0,0-.53,2.49,5.3,5.3,0,0,0,.53,2.4,6.34,6.34,0,0,0,1.33,2,7.61,7.61,0,0,0,2,1.33A6,6,0,0,0,335.25,30.34Z"/><path id="Path_6" data-name="Path 6" class="cls-7" d="M362.38,15.21a7.26,7.26,0,0,1,2.22,2.14l-2.22,1.78-.89.71a4.62,4.62,0,0,0-1.69-1.51,5.28,5.28,0,0,0-2.31-.62,4.13,4.13,0,0,0-1.87.36,4.65,4.65,0,0,0-1.51,1.07A5.84,5.84,0,0,0,353,20.64a4.65,4.65,0,0,0-.36,1.87V33.9h-4V13.79h4V15.3A9.2,9.2,0,0,1,355,14.23a9.53,9.53,0,0,1,5.16,0A6.29,6.29,0,0,1,362.38,15.21Z"/><path id="Path_7" data-name="Path 7" class="cls-7" d="M393.34,15.12a9.83,9.83,0,0,1,2.94,3.11,8.94,8.94,0,0,1,1.07,4.27V34.07h-4V22.51a4.13,4.13,0,0,0-.36-1.87A4.91,4.91,0,0,0,390.32,18a4.65,4.65,0,0,0-1.87-.36,4.13,4.13,0,0,0-1.87.36,4.91,4.91,0,0,0-2.67,2.67,4.65,4.65,0,0,0-.36,1.87V34.16h-4V22.51a4.13,4.13,0,0,0-.36-1.87A4.91,4.91,0,0,0,376.53,18a4.65,4.65,0,0,0-1.87-.36,4.13,4.13,0,0,0-1.87.36,4.91,4.91,0,0,0-2.67,2.67,4.64,4.64,0,0,0-.36,1.88V34.16h-4V13.61h4V15A10.92,10.92,0,0,1,372.08,14a9.53,9.53,0,0,1,5.16,0A10.92,10.92,0,0,1,379.55,15a8,8,0,0,1,2,1.87,9.75,9.75,0,0,1,2-1.87A10.92,10.92,0,0,1,385.87,14,9.53,9.53,0,0,1,391,14,8.05,8.05,0,0,1,393.34,15.12Z"/><path id="Path_8" data-name="Path 8" class="cls-7" d="M410.15,13.7a10.05,10.05,0,0,1,4,.8,10.25,10.25,0,0,1,3.29,2.22A9.37,9.37,0,0,1,419.67,20a10.05,10.05,0,0,1,.8,4V34.07h-4V32.2a15.48,15.48,0,0,1-2.94,1.6,10.75,10.75,0,0,1-3.38.53,10.05,10.05,0,0,1-4-.8,10.25,10.25,0,0,1-3.29-2.22A10.74,10.74,0,0,1,400.64,28a10.41,10.41,0,0,1,0-8,10.25,10.25,0,0,1,2.22-3.29,10.73,10.73,0,0,1,3.29-2.22A10.37,10.37,0,0,1,410.15,13.7Zm.09,16.64a6,6,0,0,0,2.49-.54,6.34,6.34,0,0,0,2-1.33,7.61,7.61,0,0,0,1.33-2,5.87,5.87,0,0,0,.53-2.4,6,6,0,0,0-.53-2.49,6.34,6.34,0,0,0-1.33-2,7.61,7.61,0,0,0-2-1.33,6.08,6.08,0,0,0-5,0,6.34,6.34,0,0,0-2,1.33,7.61,7.61,0,0,0-1.33,2,6,6,0,0,0-.53,2.49,5.3,5.3,0,0,0,.53,2.4,6.34,6.34,0,0,0,1.33,2,7.61,7.61,0,0,0,2,1.33A6,6,0,0,0,410.24,30.34Z"/></g></g></g></g></g></g></svg>