<svg width="52" height="52" viewBox="0 0 52 52" fill="none" xmlns="http://www.w3.org/2000/svg">
<path d="M10.5632 11.3763H49.2923L44.959 34.1263H14.6257L9.20898 3.79297H2.70898" stroke="#93A0AC" stroke-width="4" stroke-miterlimit="10" stroke-linecap="round" stroke-linejoin="round"/>
<path d="M16.7923 49.2917C19.1856 49.2917 21.1257 47.3516 21.1257 44.9583C21.1257 42.5651 19.1856 40.625 16.7923 40.625C14.3991 40.625 12.459 42.5651 12.459 44.9583C12.459 47.3516 14.3991 49.2917 16.7923 49.2917Z" stroke="#93A0AC" stroke-width="4" stroke-miterlimit="10" stroke-linecap="round" stroke-linejoin="round"/>
<path d="M42.7923 49.2917C45.1856 49.2917 47.1257 47.3516 47.1257 44.9583C47.1257 42.5651 45.1856 40.625 42.7923 40.625C40.3991 40.625 38.459 42.5651 38.459 44.9583C38.459 47.3516 40.3991 49.2917 42.7923 49.2917Z" stroke="#93A0AC" stroke-width="4" stroke-miterlimit="10" stroke-linecap="round" stroke-linejoin="round"/>
</svg>
