<svg width="20" height="20" viewBox="0 0 20 20" fill="none" xmlns="http://www.w3.org/2000/svg">
<path d="M18.3913 10.6852C18.209 10.6868 18.0334 10.6172 17.9016 10.4914L17.5535 10.1433C17.4105 10.0003 17.1955 9.95748 17.0086 10.0349C16.8218 10.1123 16.7 10.2946 16.7 10.4968V18.4C16.7 18.5857 16.6262 18.7637 16.495 18.895C16.3637 19.0263 16.1856 19.1 16 19.1H13.6C13.4143 19.1 13.2363 19.0263 13.105 18.895C12.9737 18.7637 12.9 18.5857 12.9 18.4V16C12.9 15.5491 12.7209 15.1167 12.4021 14.7979C12.0833 14.4791 11.6509 14.3 11.2 14.3H8.79999C8.34912 14.3 7.91672 14.4791 7.59791 14.7979C7.2791 15.1167 7.09999 15.5491 7.09999 16V18.4C7.09999 18.5857 7.02624 18.7637 6.89496 18.895C6.76369 19.0263 6.58564 19.1 6.39999 19.1H3.99999C3.81434 19.1 3.63629 19.0263 3.50501 18.895C3.37374 18.7637 3.29999 18.5857 3.29999 18.4V10.4968C3.29999 10.2946 3.17817 10.1123 2.99133 10.0349C2.80449 9.95748 2.58943 10.0003 2.44643 10.1433L2.09832 10.4914C1.9666 10.6172 1.79094 10.6868 1.60865 10.6852C1.42511 10.6836 1.24954 10.61 1.11976 10.4802C0.989974 10.3505 0.916355 10.1749 0.91476 9.99135C0.913176 9.80907 0.982754 9.63342 1.10861 9.5017L9.50509 1.10522C9.50511 1.1052 9.50512 1.10518 9.50514 1.10517C9.63641 0.973969 9.8144 0.900269 9.99999 0.900269C10.1856 0.900269 10.3636 0.973969 10.4948 1.10517C10.4949 1.10518 10.4949 1.1052 10.4949 1.10522L18.8914 9.5017C19.0172 9.63343 19.0868 9.80907 19.0852 9.99135C19.0836 10.1749 19.01 10.3505 18.8802 10.4802C18.7504 10.61 18.5749 10.6836 18.3913 10.6852Z" stroke="currentColor" stroke-linecap="round" stroke-linejoin="round"/>
</svg>
