<svg viewBox="0 0 299 256" fill="none" xmlns="http://www.w3.org/2000/svg">
<path d="M202.611 10.8172C202.611 10.8172 161.694 62.6459 96.2259 31.7315C30.7576 0.817221 -34.7098 84.4685 21.6647 135.388C78.0392 186.308 22.8726 214.288 61.1717 245.494C104.701 280.963 142.599 209.039 177.151 225.407C253.41 261.529 309.906 247.229 297.176 205.402C274.83 131.981 246.256 127.205 268.079 89.0149C289.901 50.8254 241.739 -28.5804 202.611 10.8172Z" class="primaryLightest"/>
<path d="M132.705 173.436C132.705 208.63 161.231 237.156 196.425 237.156C204.62 237.17 212.74 235.592 220.334 232.511C220.49 232.529 220.647 232.539 220.805 232.539H248.694C249.591 232.539 250.48 232.363 251.309 232.019C252.139 231.676 252.892 231.173 253.527 230.538C254.161 229.904 254.665 229.15 255.008 228.321C255.351 227.491 255.528 226.602 255.527 225.705V197.28C258.59 189.704 260.158 181.608 260.145 173.436C260.145 138.242 231.618 109.716 196.425 109.716C161.231 109.716 132.705 138.242 132.705 173.436Z" class="primaryLight"/>
<path d="M221.929 128.27C221.929 172.422 186.142 208.209 141.99 208.209C131.709 208.226 121.522 206.247 111.995 202.381C111.799 202.405 111.602 202.416 111.405 202.416H76.4162C75.2902 202.417 74.1751 202.195 73.1347 201.765C72.0943 201.334 71.1489 200.703 70.3527 199.906C69.5565 199.11 68.925 198.165 68.4944 197.125C68.0638 196.084 67.8424 194.969 67.8431 193.843V158.183C64.0011 148.679 62.034 138.521 62.0504 128.27C62.0504 84.1182 97.8376 48.3311 141.99 48.3311C186.142 48.3311 221.929 84.1176 221.929 128.27Z" class="primaryMedium"/>
<path d="M104.916 144.489C111.315 144.489 116.502 139.302 116.502 132.904C116.502 126.505 111.315 121.318 104.916 121.318C98.518 121.318 93.3311 126.505 93.3311 132.904C93.3311 139.302 98.518 144.489 104.916 144.489Z" fill="white"/>
<path d="M138.514 144.489C144.912 144.489 150.099 139.302 150.099 132.904C150.099 126.505 144.912 121.318 138.514 121.318C132.115 121.318 126.928 126.505 126.928 132.904C126.928 139.302 132.115 144.489 138.514 144.489Z" fill="white"/>
<path d="M173.271 144.489C179.67 144.489 184.856 139.302 184.856 132.904C184.856 126.505 179.67 121.318 173.271 121.318C166.873 121.318 161.686 126.505 161.686 132.904C161.686 139.302 166.873 144.489 173.271 144.489Z" fill="white"/>
<path d="M209.185 90.0379C220.702 90.0379 230.038 80.7014 230.038 69.1843C230.038 57.6671 220.702 48.3306 209.185 48.3306C197.667 48.3306 188.331 57.6671 188.331 69.1843C188.331 80.7014 197.667 90.0379 209.185 90.0379Z" class="primaryMedium" stroke="white" stroke-width="15" stroke-miterlimit="10"/>
<path d="M215.813 63.0035C215.538 61.943 215.045 60.9514 214.366 60.0922C213.766 59.3683 212.988 58.8131 212.109 58.4813C210.211 57.8266 208.149 57.8266 206.252 58.4813C205.373 58.8111 204.598 59.3667 204.003 60.0922C203.317 60.9473 202.824 61.9403 202.556 63.0035C202.19 64.4355 202.02 65.9102 202.048 67.3879V70.9024C202.018 72.3835 202.192 73.8617 202.565 75.2955C202.835 76.3671 203.332 77.3686 204.021 78.2328C204.619 78.964 205.396 79.5279 206.277 79.8694C208.165 80.547 210.23 80.547 212.117 79.8694C212.993 79.5274 213.765 78.9634 214.357 78.2328C215.035 77.3642 215.525 76.3639 215.796 75.2955C216.161 73.8605 216.332 72.3829 216.304 70.9024H216.321V67.3879C216.35 65.9102 216.179 64.4355 215.813 63.0035ZM212.669 71.4275C212.681 72.3656 212.606 73.3028 212.445 74.2271C212.336 74.8844 212.112 75.5172 211.782 76.0962C211.528 76.5428 211.151 76.9075 210.697 77.147C210.229 77.3721 209.716 77.4842 209.198 77.4744C208.68 77.4822 208.167 77.3702 207.699 77.147C207.238 76.9063 206.853 76.5425 206.587 76.0962C206.25 75.5181 206.017 74.8856 205.898 74.2271C205.722 73.3046 205.641 72.3665 205.657 71.4275V66.828C205.642 65.8923 205.72 64.9575 205.89 64.0372C206.003 63.392 206.234 62.773 206.57 62.211C206.837 61.7816 207.219 61.4354 207.673 61.2118C208.143 61.0073 208.65 60.9018 209.163 60.9018C209.676 60.9018 210.183 61.0073 210.653 61.2118C211.11 61.43 211.494 61.7774 211.756 62.211C212.092 62.7731 212.323 63.392 212.436 64.0372C212.606 64.9574 212.684 65.8923 212.669 66.828V71.4279L212.669 71.4275Z" fill="white"/>
</svg>
