<svg viewBox="0 0 170 187" fill="none" xmlns="http://www.w3.org/2000/svg">
<path d="M159.459 61.7899C159.459 61.7899 134.42 83.7678 163.251 130.83C188.855 172.626 131.304 190.743 106.504 185.892C74.3783 179.607 55.9328 139.002 31.3648 151.868C6.79675 164.734 -17.542 106.432 18.1946 84.9778C62.6493 58.2903 34.1189 42.7818 38.1115 23.2137C40.9772 9.16991 81.7557 -12.5432 103.744 12.2249C122.246 33.0669 131.32 25.6105 139.777 22.8282C151.974 18.8152 178.597 39.6888 159.459 61.7899Z" class="primaryLightest"/>
<path d="M88.5651 86.5567L80.3618 120.205C80.0573 121.453 80.0016 122.749 80.1979 124.018C80.3942 125.287 80.8387 126.506 81.506 127.603C82.1733 128.701 83.0503 129.656 84.0869 130.414C85.1235 131.173 86.2994 131.72 87.5473 132.024L128.346 141.97C129.395 153.488 138.927 154.339 142.688 154.734C142.725 154.736 142.761 154.726 142.792 154.705C142.822 154.684 142.845 154.653 142.857 154.618C142.868 154.583 142.868 154.545 142.855 154.51C142.843 154.475 142.819 154.445 142.788 154.425C140.087 152.779 139.281 148.266 139.101 144.592L142.13 145.33C143.378 145.635 144.673 145.691 145.943 145.494C147.212 145.298 148.43 144.854 149.528 144.186C150.625 143.519 151.581 142.642 152.339 141.605C153.098 140.569 153.644 139.393 153.948 138.145L162.151 104.496C162.456 103.248 162.512 101.953 162.315 100.684C162.119 99.4141 161.675 98.1959 161.007 97.0984C160.34 96.0009 159.463 95.0456 158.427 94.2871C157.39 93.5286 156.214 92.9818 154.966 92.6779L100.384 79.3711C99.1357 79.0666 97.8401 79.0108 96.5707 79.2072C95.3014 79.4035 94.0831 79.848 92.9856 80.5153C91.8881 81.1825 90.9328 82.0595 90.1743 83.0962C89.4158 84.1328 88.869 85.3087 88.5651 86.5567Z" class="primaryLight"/>
<path d="M156.241 103.156L133.427 97.5946C133.277 97.558 133.126 97.6501 133.089 97.8004L131.919 102.601C131.882 102.751 131.974 102.903 132.124 102.939L154.938 108.501C155.088 108.538 155.24 108.446 155.276 108.295L156.447 103.495C156.483 103.345 156.391 103.193 156.241 103.156Z" fill="white"/>
<path d="M152.984 116.518L91.1714 101.449C91.0212 101.413 90.8697 101.505 90.8331 101.655L89.6627 106.456C89.6261 106.606 89.7182 106.757 89.8684 106.794L151.681 121.863C151.831 121.9 151.982 121.808 152.019 121.658L153.189 116.857C153.226 116.707 153.134 116.555 152.984 116.518Z" fill="white"/>
<path d="M149.726 129.881L87.9136 114.811C87.7634 114.775 87.6119 114.867 87.5753 115.017L86.4049 119.818C86.3683 119.968 86.4604 120.12 86.6106 120.156L148.423 135.226C148.573 135.262 148.724 135.17 148.761 135.02L149.931 130.219C149.968 130.069 149.876 129.917 149.726 129.881Z" fill="white"/>
<path d="M111.536 46.1922L124.95 89.2701C125.448 90.8676 125.627 92.5475 125.475 94.2139C125.324 95.8802 124.845 97.5004 124.067 98.9818C123.289 100.463 122.227 101.777 120.941 102.848C119.656 103.919 118.172 104.726 116.574 105.223L64.343 121.487C63.9203 136.547 51.5972 138.433 46.7402 139.253C46.692 139.259 46.6431 139.249 46.6011 139.225C46.5592 139.2 46.5267 139.162 46.5088 139.117C46.4909 139.072 46.4886 139.022 46.5023 138.975C46.516 138.929 46.5449 138.888 46.5844 138.86C49.9608 136.499 50.6403 130.566 50.5744 125.774L46.6964 126.982C45.099 127.479 43.4192 127.658 41.7529 127.506C40.0866 127.355 38.4665 126.876 36.9851 126.098C35.5038 125.321 34.1902 124.258 33.1194 122.973C32.0486 121.687 31.2416 120.203 30.7445 118.606L17.33 75.5276C16.832 73.9302 16.6537 72.2502 16.8053 70.5839C16.9568 68.9175 17.4351 67.2973 18.213 65.8159C18.9909 64.3344 20.053 63.0207 21.3388 61.9499C22.6245 60.8791 24.1086 60.0721 25.7063 59.575L95.5833 37.8158C97.1807 37.3179 98.8606 37.1396 100.527 37.2911C102.193 37.4426 103.814 37.921 105.295 38.6988C106.776 39.4767 108.09 40.5389 109.161 41.8246C110.232 43.1103 111.039 44.5944 111.536 46.1922Z" class="primaryMedium"/>
<path d="M62.1856 61.621L24.7664 73.2581C24.6187 73.3041 24.5363 73.461 24.5822 73.6087L26.5443 79.918C26.5903 80.0657 26.7472 80.1482 26.8949 80.1022L64.3141 68.4651C64.4618 68.4192 64.5442 68.2622 64.4983 68.1145L62.5362 61.8052C62.4902 61.6576 62.3333 61.5751 62.1856 61.621Z" fill="white"/>
<path d="M109.407 65.6194L30.113 90.3123C29.9654 90.3582 29.883 90.5152 29.929 90.6628L31.8933 96.9707C31.9392 97.1183 32.0962 97.2007 32.2439 97.1547L111.538 72.4619C111.686 72.4159 111.768 72.259 111.722 72.1113L109.758 65.8035C109.712 65.6559 109.555 65.5735 109.407 65.6194Z" fill="white"/>
<path d="M114.727 82.8135L35.4139 107.479C35.2662 107.525 35.1837 107.682 35.2296 107.83L37.1918 114.139C37.2377 114.287 37.3947 114.369 37.5424 114.323L116.855 89.6576C117.003 89.6117 117.085 89.4547 117.04 89.307L115.077 82.9977C115.031 82.8501 114.874 82.7676 114.727 82.8135Z" fill="white"/>
</svg>
