<svg  viewBox="0 0 314 314" fill="none" xmlns="http://www.w3.org/2000/svg">
<path d="M258.487 122.712C258.487 122.712 222.822 148.386 254.695 213.834C283.002 271.959 205.143 288.434 173.2 278.915C131.821 266.583 112.762 210.93 78.8734 224.7C44.9843 238.471 20.438 158.836 70.0798 135.209C131.833 105.82 96.3468 81.834 104.074 56.6516C109.621 38.5779 165.917 15.2507 191.637 50.5622C213.281 80.2755 226.141 71.6389 237.597 69.0602C254.119 65.3412 286.42 96.1275 258.487 122.712Z" fill="#E0E8F0"/>
<path d="M258.914 145.638L258.67 147.159C258.466 148.425 257.768 149.56 256.728 150.311C255.688 151.063 254.392 151.371 253.125 151.168L253.014 151.15C251.947 150.979 250.853 151.169 249.907 151.692C248.961 152.215 248.217 153.039 247.795 154.034L213.486 234.723C212.497 237.055 210.754 238.988 208.537 240.214C206.32 241.44 203.756 241.888 201.255 241.487L105.574 226.114C103.017 225.709 100.676 224.438 98.9436 222.514C97.211 220.59 96.1916 218.13 96.0558 215.544L91.3045 129.027C91.2439 127.924 90.8078 126.875 90.0686 126.054C89.3294 125.234 88.3317 124.69 87.2411 124.515C86.6139 124.415 86.0126 124.191 85.4716 123.858C84.9306 123.525 84.4606 123.088 84.0883 122.574C83.716 122.059 83.4488 121.476 83.3019 120.857C83.1549 120.239 83.1312 119.598 83.232 118.971L83.4763 117.45C83.5771 116.823 83.8004 116.222 84.1336 115.681C84.4667 115.14 84.9032 114.67 85.418 114.298C85.9328 113.925 86.5159 113.658 87.134 113.511C87.7522 113.364 88.3931 113.34 89.0204 113.441L129.552 119.953C130.174 120.053 130.812 119.971 131.389 119.717C131.966 119.463 132.457 119.047 132.804 118.52L161.112 75.4464C161.486 74.8734 162.018 74.4211 162.644 74.144C163.27 73.8669 163.963 73.7768 164.639 73.8847C165.13 73.9606 165.598 74.142 166.012 74.4163C166.403 74.672 166.74 75.0023 167.003 75.3883C167.266 75.7743 167.451 76.2083 167.546 76.6656C167.642 77.1229 167.646 77.5946 167.559 78.0535C167.472 78.5125 167.295 78.9498 167.039 79.3404L142.088 117.298C141.788 117.754 141.607 118.278 141.561 118.822C141.516 119.366 141.608 119.913 141.828 120.413C142.048 120.912 142.389 121.349 142.821 121.682C143.254 122.016 143.762 122.236 144.301 122.323L198.245 130.99C198.784 131.076 199.337 131.026 199.852 130.845C200.367 130.663 200.828 130.355 201.194 129.95C201.559 129.544 201.817 129.053 201.944 128.522C202.072 127.991 202.064 127.437 201.921 126.909L190.096 83.0452C189.857 82.134 189.988 81.1655 190.459 80.3501C190.931 79.5346 191.705 78.9382 192.613 78.6903C193.093 78.5594 193.594 78.534 194.084 78.6157C194.76 78.725 195.39 79.0275 195.897 79.4868C196.405 79.946 196.769 80.5423 196.945 81.2037L210.335 130.977C210.499 131.586 210.835 132.135 211.304 132.557C211.772 132.979 212.352 133.257 212.975 133.357L254.904 140.094C255.532 140.194 256.133 140.418 256.674 140.751C257.215 141.084 257.685 141.521 258.058 142.035C258.43 142.55 258.697 143.133 258.844 143.751C258.991 144.37 259.015 145.011 258.914 145.638Z" fill="currentColor"/>
<path d="M131.912 133.786L121.345 132.088C121.26 132.074 121.179 132.133 121.166 132.218L108.573 210.593C108.559 210.679 108.617 210.759 108.703 210.773L119.269 212.471C119.354 212.484 119.435 212.426 119.449 212.34L132.042 133.966C132.055 133.88 131.997 133.8 131.912 133.786Z" fill="#E0E8F0"/>
<path d="M219.378 147.59L208.812 145.892C208.727 145.878 208.646 145.936 208.632 146.022L196.039 224.397C196.026 224.482 196.084 224.563 196.169 224.577L206.736 226.274C206.821 226.288 206.902 226.23 206.915 226.144L219.508 147.769C219.522 147.684 219.464 147.603 219.378 147.59Z" fill="#E0E8F0"/>
<path d="M153.67 137.305L143.108 135.604C143.022 135.59 142.942 135.648 142.928 135.734L130.306 214.081C130.293 214.167 130.351 214.248 130.436 214.261L140.999 215.963C141.084 215.977 141.165 215.919 141.179 215.833L153.8 137.485C153.814 137.399 153.756 137.319 153.67 137.305Z" fill="#E0E8F0"/>
<path d="M175.664 140.566L165.098 138.868C165.013 138.854 164.932 138.912 164.918 138.998L152.326 217.373C152.312 217.458 152.37 217.539 152.456 217.552L163.022 219.25C163.107 219.264 163.188 219.206 163.202 219.12L175.794 140.745C175.808 140.66 175.75 140.579 175.664 140.566Z" fill="#E0E8F0"/>
<path d="M197.522 144.077L186.956 142.38C186.87 142.366 186.789 142.424 186.776 142.51L174.183 220.884C174.169 220.97 174.227 221.051 174.313 221.064L184.879 222.762C184.965 222.776 185.045 222.718 185.059 222.632L197.652 144.257C197.666 144.172 197.607 144.091 197.522 144.077Z" fill="#E0E8F0"/>
</svg>
