<svg width="267" height="198" viewBox="0 0 267 198" fill="none" xmlns="http://www.w3.org/2000/svg">
<path d="M77.5562 32.8859C77.5562 32.8859 107.58 55.6699 153.224 13.0679C193.76 -24.7658 226.859 34.9274 227.09 63.5134C227.39 100.543 186.554 130.173 206.372 154.495C226.189 178.817 167.07 218.981 135.208 184.222C95.5722 140.983 84.8345 176.114 62.2424 176.114C46.0278 176.114 12.7376 135.825 35.2181 105.851C54.1352 80.6287 43.8181 72.2578 38.822 63.5134C31.6149 50.9021 48.7303 16.6714 77.5562 32.8859Z" fill="#E0E8F0"/>
<path d="M198.093 83.2349C199.706 83.8345 201.47 83.8745 203.148 83.4893C210.178 81.8757 234.351 77.6031 230.151 96.3349C229.236 100.051 215.078 120.864 235.24 128.462C236.718 129.026 238.28 129.334 239.861 129.372C246.068 129.5 258.37 128.034 263.518 122.793C269.737 116.463 262.943 119.465 262.943 119.465C262.943 119.465 239.299 129.783 230.947 118.836C230.018 117.618 229.426 115.849 229.256 114.326C228.962 111.686 230.135 108.197 231.675 105.159C233.76 101.048 243.767 82.5554 222.039 77.1682C217.034 75.9762 209.764 74.9055 200.39 78.8521C194.923 81.154 196.134 82.5071 198.093 83.2349Z" fill="#E0E8F0"/>
<path d="M202.931 76.3312L196.638 78.6865C194.465 79.4996 193.363 81.9198 194.176 84.0922L194.488 84.9257C195.301 87.0981 197.721 88.2001 199.894 87.3871L206.187 85.0317C208.36 84.2187 209.462 81.7985 208.649 79.6261L208.337 78.7925C207.524 76.6201 205.103 75.5181 202.931 76.3312Z" fill="currentColor"/>
<path d="M164.301 83.1466L143.546 90.9143C142.46 91.3208 141.909 92.5309 142.315 93.6171L142.397 93.8356C142.803 94.9218 144.014 95.4728 145.1 95.0663L165.855 87.2985C166.941 86.892 167.492 85.6819 167.085 84.5957L167.004 84.3772C166.597 83.291 165.387 82.74 164.301 83.1466Z" fill="white"/>
<path d="M170.094 98.6235L149.339 106.391C148.253 106.798 147.702 108.008 148.108 109.094L148.19 109.313C148.596 110.399 149.807 110.95 150.893 110.543L171.648 102.776C172.734 102.369 173.285 101.159 172.878 100.073L172.797 99.8542C172.39 98.768 171.18 98.217 170.094 98.6235Z" fill="white"/>
<path d="M189.256 72.5843L172.435 78.8799C170.262 79.6929 169.16 82.1132 169.973 84.2856L175.716 99.6307C176.529 101.803 178.95 102.905 181.122 102.092L197.943 95.7964C200.116 94.9834 201.218 92.5632 200.405 90.3907L194.662 75.0456C193.849 72.8732 191.428 71.7712 189.256 72.5843Z" fill="currentColor"/>
<path d="M174.172 76.6101L157.351 82.9058C155.178 83.7188 154.076 86.139 154.889 88.3115L161.741 106.619C162.554 108.791 164.974 109.893 167.147 109.08L183.968 102.785C186.14 101.971 187.242 99.5513 186.429 97.3788L179.578 79.0715C178.765 76.8991 176.344 75.7971 174.172 76.6101Z" fill="currentColor"/>
<path d="M176.805 72.895L176.673 72.9443C175.225 73.4864 174.49 75.0998 175.032 76.5481L184.631 102.195C185.173 103.643 186.786 104.378 188.235 103.836L188.367 103.786C189.815 103.244 190.549 101.631 190.007 100.182L180.409 74.5359C179.867 73.0876 178.253 72.3529 176.805 72.895Z" fill="currentColor"/>
<path d="M5.28195 89.2923C5.28195 89.2923 39.0651 79.7983 34.1603 101.672C33.3086 105.132 21.0475 122.953 35.6523 131.509C38.7883 133.346 42.4073 134.16 46.0416 134.141C52.5576 134.107 62.8875 132.853 67.5281 128.13C73.7474 121.798 66.9529 124.801 66.9529 124.801C66.9529 124.801 47.5508 132.782 37.569 126.42C34.1607 124.248 32.6158 120.042 33.5414 116.107C34.0144 114.153 34.7348 112.267 35.6851 110.495C37.8559 106.429 47.7771 87.8913 26.0491 82.5041C21.0439 81.3121 13.7741 80.2414 4.40038 84.188C-4.97333 88.1346 5.28195 89.2923 5.28195 89.2923Z" fill="#E0E8F0"/>
<path d="M72.0705 119.906L65.7773 122.262C63.6049 123.075 62.5029 125.495 63.3159 127.667L63.6279 128.501C64.4409 130.673 66.8612 131.775 69.0336 130.962L75.3268 128.607C77.4993 127.794 78.6013 125.374 77.7882 123.201L77.4762 122.368C76.6632 120.195 74.243 119.093 72.0705 119.906Z" fill="currentColor"/>
<path d="M82.7038 109.552L73.3769 113.042C71.2045 113.856 70.1025 116.276 70.9155 118.448L75.4129 130.465C76.226 132.637 78.6462 133.739 80.8186 132.926L90.1456 129.436C92.318 128.622 93.42 126.202 92.6069 124.03L88.1095 112.013C87.2965 109.841 84.8762 108.739 82.7038 109.552Z" fill="currentColor"/>
<path d="M98.2303 100.3L84.3212 105.506C82.1488 106.319 81.0468 108.739 81.8599 110.912L88.7116 129.219C89.5247 131.391 91.9449 132.493 94.1173 131.68L108.026 126.475C110.199 125.662 111.301 123.241 110.488 121.069L103.636 102.762C102.823 100.589 100.403 99.4871 98.2303 100.3Z" fill="currentColor"/>
<path d="M101.177 96.5087L101.045 96.5581C99.5969 97.1001 98.8623 98.7136 99.4043 100.162L109.003 125.808C109.545 127.257 111.158 127.991 112.607 127.449L112.739 127.4C114.187 126.858 114.922 125.245 114.38 123.796L104.781 98.1496C104.239 96.7014 102.625 95.9667 101.177 96.5087Z" fill="currentColor"/>
<path d="M136.695 80.1698C136.194 80.1142 135.735 79.8665 135.413 79.4787C135.091 79.0909 134.932 78.5934 134.969 78.0908L136.007 59.1348C136.069 58.0025 137.025 57.1422 138.11 57.2423L139.622 57.3823C140.707 57.4824 141.484 58.5023 141.333 59.6266L138.782 78.4427C138.724 78.9439 138.474 79.4031 138.085 79.7249C137.696 80.0466 137.199 80.206 136.695 80.1698Z" fill="currentColor"/>
<path d="M127.733 81.8041C127.578 81.8499 127.414 81.8645 127.253 81.8472C127.091 81.8299 126.935 81.7809 126.792 81.7031C126.65 81.6253 126.524 81.5202 126.422 81.3937C126.32 81.2673 126.244 81.122 126.199 80.9662L122.493 69.1746C122.385 68.8393 122.414 68.4748 122.575 68.1613C122.736 67.8478 123.014 67.6108 123.349 67.5023L124.309 67.2128C124.473 67.1647 124.646 67.1513 124.816 67.1734C124.986 67.1955 125.15 67.2527 125.297 67.3412C125.444 67.4297 125.571 67.5478 125.669 67.6878C125.768 67.8279 125.837 67.987 125.872 68.155L128.618 80.2363C128.695 80.561 128.646 80.9027 128.482 81.1932C128.318 81.4838 128.051 81.7019 127.733 81.8041Z" fill="currentColor"/>
<path d="M122.733 88.6041C122.069 89.4269 120.733 89.4171 119.705 88.5819L101.453 73.7528C100.363 72.867 100.041 71.4008 100.746 70.5286L101.728 69.3123C102.432 68.4397 103.879 68.5112 104.911 69.4697L122.181 85.5152C123.153 86.4187 123.397 87.7813 122.733 88.6041Z" fill="currentColor"/>
<path d="M131.17 126.906C131.64 127.088 132.021 127.445 132.233 127.902C132.445 128.359 132.472 128.88 132.307 129.357L126.463 147.419C126.114 148.498 124.969 149.085 123.946 148.711L122.519 148.19C121.496 147.816 121.004 146.631 121.439 145.583L128.71 128.043C128.894 127.573 129.253 127.192 129.711 126.981C130.17 126.769 130.692 126.742 131.17 126.906Z" fill="currentColor"/>
<path d="M140.25 127.615C140.413 127.61 140.574 127.638 140.726 127.696C140.878 127.754 141.016 127.841 141.134 127.953C141.252 128.064 141.347 128.198 141.413 128.346C141.48 128.495 141.516 128.654 141.521 128.817L142.092 141.164C142.111 141.516 141.989 141.86 141.754 142.123C141.518 142.385 141.189 142.543 140.837 142.562L139.835 142.597C139.664 142.601 139.493 142.57 139.334 142.505C139.176 142.441 139.032 142.344 138.913 142.22C138.793 142.097 138.701 141.951 138.641 141.79C138.581 141.629 138.555 141.458 138.564 141.287L138.995 128.905C139.004 128.571 139.138 128.253 139.37 128.014C139.603 127.775 139.917 127.633 140.25 127.615Z" fill="currentColor"/>
<path d="M146.822 122.317C147.674 121.691 148.963 122.042 149.744 123.112L163.603 142.11C164.431 143.245 164.368 144.744 163.463 145.408L162.203 146.333C161.299 146.997 159.918 146.558 159.166 145.368L146.566 125.444C145.857 124.323 145.97 122.943 146.822 122.317Z" fill="currentColor"/>
</svg>
