<svg width="auto" height="auto" viewBox="0 0 509 509" fill="none" xmlns="http://www.w3.org/2000/svg">
<path d="M277.519 97.4168C277.519 97.4168 243.436 173.915 153.302 156.391C63.1681 138.866 8.86259 262.157 94.0766 307.112C179.291 352.066 120.235 403.709 177.067 430.088C241.661 460.068 265.748 359.817 313.334 369.128C418.359 389.678 483.326 354.435 454.599 307.007C404.174 223.753 367.56 226.818 382.439 173.055C397.318 119.293 313.291 36.7574 277.519 97.4168Z" class="primaryLightest" />
<path d="M261.067 272.012C253.147 287.19 251.149 295.257 227.125 310.317C226.939 310.439 226.799 310.62 226.728 310.832C222.89 322.73 216.393 333.599 207.73 342.613C207.614 342.733 207.532 342.882 207.493 343.045C207.454 343.208 207.46 343.379 207.51 343.538C210.199 352.487 213.109 368.62 205.012 381.844C193.111 401.313 184.296 389.558 186.131 385.15C187.703 381.373 201.133 373.263 198.033 353.001C198.007 352.839 197.939 352.686 197.837 352.558C197.735 352.429 197.602 352.329 197.45 352.267C197.298 352.205 197.132 352.183 196.969 352.204C196.806 352.224 196.651 352.286 196.519 352.384C186.785 359.449 175.613 364.28 163.798 366.534C163.667 366.556 163.541 366.605 163.431 366.678C163.32 366.752 163.226 366.848 163.155 366.96C163.084 367.073 163.038 367.199 163.02 367.331C163.001 367.463 163.011 367.597 163.048 367.724C166.061 378.509 167.486 395.363 154.908 410.864C148.194 418.945 139.289 407.131 148.194 399.08C153.718 394.099 153.292 379.773 150.706 368.739C150.657 368.525 150.534 368.334 150.36 368.2C150.186 368.066 149.971 367.997 149.751 368.004C149.237 368.019 148.707 368.019 148.194 368.019C130.02 368.046 112.351 362.04 97.9576 350.944C97.8259 350.841 97.6698 350.774 97.5044 350.75C97.3391 350.726 97.1703 350.745 97.0147 350.806C96.859 350.866 96.7219 350.967 96.6167 351.096C96.5115 351.226 96.442 351.381 96.4148 351.546C92.9618 374.349 106.671 382.24 108.625 388.088C110.799 394.627 105.804 400.445 99.6472 398.8C99.5138 398.76 99.3891 398.695 99.28 398.608C79.2091 383.533 80.9575 351.943 83.1615 336.736C83.1816 336.611 83.175 336.484 83.1421 336.362C83.1091 336.241 83.0506 336.128 82.9704 336.03C71.7463 321.587 65.6698 303.807 65.7058 285.515C65.7058 251.971 85.7327 223.098 114.487 210.212C114.489 210.212 114.491 210.212 114.493 210.211C114.495 210.211 114.497 210.21 114.498 210.208C114.499 210.207 114.5 210.205 114.501 210.204C114.502 210.202 114.502 210.2 114.502 210.198C118.925 204.599 124.317 196.68 125.14 191.126C125.167 190.938 125.25 190.762 125.378 190.621C125.505 190.48 125.672 190.381 125.856 190.335C126.041 190.289 126.235 190.299 126.413 190.364C126.592 190.429 126.747 190.546 126.859 190.7C128.975 193.55 132.252 198.987 131.532 204.717C131.502 204.908 131.488 205.099 131.458 205.29C131.399 205.614 131.326 205.922 131.253 206.245C131.179 206.495 131.12 206.745 131.032 206.995C132.06 206.137 133.04 205.225 133.969 204.262C136.129 202.043 138.862 198.708 140.038 195.137C140.093 194.947 140.207 194.778 140.362 194.655C140.517 194.531 140.707 194.459 140.905 194.448C141.103 194.437 141.3 194.487 141.468 194.593C141.636 194.698 141.768 194.853 141.845 195.036C142.608 196.916 143.505 199.546 143.813 202.235C143.84 202.476 143.956 202.699 144.138 202.859C144.32 203.019 144.555 203.106 144.798 203.102C145.929 203.058 147.061 203.029 148.192 203.029C193.755 203.029 230.694 239.967 230.694 285.516C230.694 286.56 230.68 287.588 230.635 288.616C230.629 288.773 230.661 288.93 230.728 289.071C230.796 289.213 230.897 289.337 231.023 289.431C231.149 289.525 231.296 289.587 231.451 289.611C231.606 289.636 231.765 289.622 231.914 289.571C236.821 287.852 243.007 283.709 246.739 273.85C253.718 255.483 254.453 250.341 252.249 236.015C250.045 221.689 260.699 222.424 262.902 227.199C265.105 231.973 269.882 255.115 261.067 272.012Z" class="primaryDark"/>
<path d="M115.97 292.752C115.689 292.752 115.416 292.658 115.194 292.487C114.971 292.315 114.812 292.074 114.74 291.803C114.186 289.383 114.067 286.884 114.389 284.422C115.112 279.072 118.024 275.14 122.809 273.05C125.936 271.684 128.891 271.605 131.594 272.816C137.132 275.299 139.49 282.337 139.588 282.636C139.683 282.953 139.65 283.296 139.496 283.589C139.342 283.883 139.08 284.105 138.765 284.208C138.449 284.312 138.106 284.288 137.809 284.142C137.511 283.996 137.282 283.74 137.17 283.427C137.15 283.366 135.053 277.148 130.545 275.135C128.527 274.234 126.267 274.317 123.828 275.382C119.869 277.112 117.546 280.243 116.923 284.687C116.638 286.845 116.733 289.035 117.204 291.16C117.289 291.486 117.24 291.833 117.07 292.124C116.899 292.415 116.619 292.627 116.293 292.712C116.187 292.739 116.079 292.752 115.97 292.752Z" fill="white"/>
<path d="M154.329 281.099C154.062 281.099 153.803 281.015 153.586 280.859C153.37 280.703 153.208 280.484 153.123 280.231C152.413 277.862 152.132 275.386 152.294 272.918C152.669 267.555 155.32 263.458 159.96 261.07C162.997 259.507 165.946 259.238 168.725 260.274C174.401 262.386 177.206 269.212 177.322 269.501C177.445 269.814 177.439 270.161 177.306 270.469C177.173 270.777 176.924 271.02 176.613 271.146C176.302 271.271 175.954 271.269 175.645 271.139C175.336 271.009 175.09 270.762 174.962 270.452C174.936 270.393 172.448 264.368 167.828 262.655C165.75 261.885 163.495 262.113 161.124 263.333C157.286 265.308 155.171 268.567 154.838 273.02C154.695 275.179 154.931 277.348 155.538 279.425C155.601 279.617 155.618 279.82 155.587 280.019C155.556 280.218 155.479 280.407 155.361 280.571C155.243 280.734 155.088 280.867 154.909 280.959C154.73 281.051 154.531 281.099 154.33 281.099H154.329Z" fill="white"/>
<path d="M151.091 307.72C142.43 307.72 135.826 301.956 135.496 301.663C135.371 301.552 135.269 301.418 135.196 301.267C135.123 301.117 135.08 300.954 135.07 300.787C135.061 300.62 135.084 300.453 135.138 300.295C135.193 300.137 135.278 299.991 135.389 299.866C135.5 299.742 135.635 299.64 135.785 299.567C135.935 299.494 136.099 299.451 136.265 299.441C136.432 299.431 136.599 299.454 136.757 299.509C136.915 299.564 137.061 299.649 137.186 299.76C137.273 299.836 145.993 307.416 155.812 304.489C165.585 301.577 168.265 289.168 168.291 289.044C168.362 288.716 168.56 288.43 168.841 288.248C169.121 288.065 169.463 288.001 169.791 288.068C170.119 288.136 170.407 288.33 170.593 288.608C170.779 288.887 170.847 289.228 170.784 289.557C170.179 292.127 169.231 294.604 167.966 296.922C165.172 302.073 161.222 305.533 156.539 306.928C154.771 307.455 152.936 307.722 151.091 307.72V307.72Z" fill="white"/>
<path d="M425.396 251.081C425.287 253.844 425.006 256.598 424.555 259.326C418.42 296.854 383.042 322.291 345.514 316.156C308.001 310.024 282.549 274.642 288.684 237.114C289.075 234.722 289.592 232.381 290.203 230.097C262.371 211.196 263.996 174.747 269.332 170.706C274.72 166.614 280.603 170.062 279.989 181.381C279.356 197.818 289.476 211.412 295.089 217.333C308.23 191.134 337.274 175.306 367.725 180.284C397.278 185.115 419.324 208.088 424.372 235.95C429.881 233.948 439.609 228.168 447.491 211.74C448.592 208.465 448.896 206.059 448.954 204.609C448.994 203.255 449.523 201.961 450.443 200.967C452.167 199.164 455.219 197.251 459.161 200.188C460.057 200.859 460.78 201.734 461.268 202.741C461.756 203.748 461.996 204.858 461.966 205.977C461.719 214.856 454.615 236.458 425.396 251.081Z" class="primaryLight"/>
<path d="M384.458 263.252C382.72 273.882 368.102 280.335 351.818 277.674C335.519 275.009 323.717 264.236 325.454 253.607C325.785 251.628 326.559 249.749 327.717 248.11C328.034 247.667 328.508 247.361 329.043 247.257C329.578 247.153 330.133 247.258 330.593 247.55C336.427 251.203 345.662 254.424 356.317 256.166C366.123 257.769 375.197 257.793 381.801 256.54C382.339 256.437 382.895 256.545 383.356 256.841C383.816 257.138 384.145 257.6 384.274 258.132C384.672 259.81 384.734 261.55 384.458 263.252Z" fill="white"/>
<path d="M353.558 242.163C353.374 242.163 353.191 242.123 353.024 242.046C352.856 241.969 352.707 241.856 352.588 241.715C352.468 241.574 352.38 241.409 352.331 241.232C352.281 241.054 352.271 240.867 352.301 240.685C352.728 238.072 352.1 235.397 350.554 233.247C349.009 231.097 346.672 229.65 344.059 229.223C341.447 228.796 338.771 229.424 336.622 230.97C334.472 232.515 333.024 234.851 332.597 237.464C332.543 237.797 332.358 238.095 332.084 238.292C331.81 238.489 331.469 238.569 331.136 238.515C330.803 238.46 330.505 238.276 330.308 238.002C330.111 237.728 330.031 237.387 330.086 237.054C330.622 233.775 332.438 230.843 335.136 228.903C337.833 226.964 341.191 226.175 344.47 226.711C347.749 227.247 350.681 229.064 352.62 231.761C354.56 234.459 355.349 237.817 354.813 241.096C354.764 241.393 354.611 241.664 354.381 241.859C354.152 242.055 353.86 242.162 353.558 242.163V242.163Z" fill="white"/>
<path d="M384.084 247.153C383.9 247.152 383.717 247.112 383.55 247.035C383.382 246.957 383.234 246.844 383.114 246.704C382.995 246.563 382.907 246.398 382.858 246.221C382.808 246.043 382.797 245.857 382.827 245.675C383.243 243.066 382.609 240.4 381.064 238.258C379.518 236.116 377.186 234.675 374.58 234.249C371.973 233.823 369.304 234.447 367.157 235.985C365.009 237.523 363.559 239.849 363.123 242.454C363.097 242.619 363.038 242.778 362.95 242.92C362.862 243.063 362.747 243.187 362.612 243.285C362.476 243.383 362.322 243.453 362.159 243.491C361.996 243.53 361.827 243.536 361.662 243.509C361.496 243.481 361.338 243.422 361.196 243.334C361.054 243.245 360.93 243.13 360.833 242.994C360.735 242.858 360.665 242.704 360.627 242.541C360.59 242.377 360.584 242.208 360.612 242.043C361.157 238.773 362.976 235.852 365.672 233.92C368.367 231.989 371.718 231.204 374.99 231.739C378.262 232.274 381.189 234.085 383.129 236.774C385.069 239.463 385.863 242.811 385.339 246.085C385.29 246.383 385.137 246.654 384.907 246.849C384.678 247.045 384.386 247.152 384.084 247.153Z" fill="white"/>
<g opacity="0.16" filter="url(#filter0_f_1727_64178)">
<path d="M169.136 170.754C169.136 162.769 176.708 163.289 180.494 163.894C203.325 166.011 248.988 171.244 248.988 175.236C248.988 180.227 245.891 185.671 241.072 185.671H209.75C202.867 185.671 199.08 179.529 186.001 179.529C172.922 179.529 169.136 180.735 169.136 170.754Z" fill="white"/>
</g>
<rect x="170.212" y="127.955" width="42.599" height="46.9866" rx="16.1524" class="primaryLight" stroke="white" stroke-width="2.15365"/>
<path d="M191.073 144.429V158.469" stroke="white" stroke-width="2.15365"/>
<path d="M198.093 151.447L184.053 151.447" stroke="white" stroke-width="2.15365"/>
<rect x="172.845" y="110.404" width="36.4565" height="11.8864" rx="5.94321" stroke="white" stroke-width="2.15365"/>
<rect x="195.177" y="172.026" width="36.4565" height="11.8864" rx="5.94321" transform="rotate(-30 195.177 172.026)" fill="primaryLight" stroke="white" stroke-width="2.15365"/>
<path d="M198.149 177.173C196.508 174.33 197.482 170.696 200.324 169.054L210.164 163.373L216.107 173.667L206.267 179.348C203.425 180.989 199.79 180.016 198.149 177.173Z" fill="white" stroke="white" stroke-width="2.15365"/>
<rect x="247.912" y="181.083" width="36.4565" height="11.8864" rx="5.94321" transform="rotate(-180 247.912 181.083)" fill="primaryLight" stroke="white" stroke-width="2.15365"/>
<path d="M247.912 175.14C247.912 178.422 245.251 181.083 241.969 181.083L230.607 181.083L230.607 169.197L241.969 169.197C245.251 169.197 247.912 171.858 247.912 175.14Z" fill="white" stroke="white" stroke-width="2.15365"/>
<path d="M203.358 123.368V126.878" stroke="white" stroke-width="2.15365"/>
<path d="M178.788 123.368V126.878" stroke="white" stroke-width="2.15365"/>
<defs>
<filter id="filter0_f_1727_64178" x="134.677" y="129.129" width="148.77" height="91.0017" filterUnits="userSpaceOnUse" color-interpolation-filters="sRGB">
<feFlood flood-opacity="0" result="BackgroundImageFix"/>
<feBlend mode="normal" in="SourceGraphic" in2="BackgroundImageFix" result="shape"/>
<feGaussianBlur stdDeviation="17.2292" result="effect1_foregroundBlur_1727_64178"/>
</filter>
</defs>
</svg>
