<svg viewBox="0 0 236 236" fill="none" xmlns="http://www.w3.org/2000/svg">
<path d="M128.673 45.1674C128.673 45.1674 112.87 80.6361 71.0791 72.5108C29.2881 64.3856 4.10914 121.55 43.619 142.393C83.1288 163.237 55.7475 187.181 82.0978 199.412C112.047 213.312 123.215 166.83 145.279 171.148C193.974 180.676 224.096 164.335 210.777 142.345C187.397 103.744 170.421 105.165 177.32 80.2376C184.218 55.3102 145.258 17.0425 128.673 45.1674Z" class="primaryLightest"/>
<path d="M121.045 126.119C117.373 133.157 116.446 136.897 105.308 143.88C105.221 143.936 105.156 144.02 105.124 144.118C103.344 149.635 100.332 154.674 96.315 158.854C96.2609 158.909 96.2228 158.979 96.2048 159.054C96.1869 159.13 96.1896 159.209 96.2128 159.283C97.4595 163.432 98.8088 170.912 95.0546 177.043C89.5365 186.07 85.4494 180.62 86.3006 178.576C87.0294 176.825 93.2562 173.065 91.8187 163.67C91.8066 163.595 91.7754 163.524 91.728 163.465C91.6807 163.405 91.6188 163.359 91.5483 163.33C91.4778 163.301 91.4011 163.291 91.3255 163.301C91.25 163.31 91.1782 163.339 91.117 163.384C86.6036 166.66 81.4235 168.9 75.9455 169.945C75.8846 169.955 75.8266 169.978 75.7753 170.012C75.7239 170.046 75.6804 170.09 75.6475 170.143C75.6147 170.195 75.5933 170.253 75.5847 170.314C75.5762 170.375 75.5807 170.438 75.598 170.497C76.9946 175.497 77.6554 183.312 71.8238 190.498C68.7105 194.245 64.5821 188.768 68.7105 185.035C71.272 182.726 71.0744 176.083 69.8754 170.967C69.8525 170.868 69.7958 170.78 69.7151 170.717C69.6343 170.655 69.5344 170.623 69.4326 170.627C69.1942 170.633 68.9488 170.633 68.7105 170.633C60.2841 170.646 52.0918 167.861 45.4184 162.716C45.3574 162.669 45.2849 162.638 45.2083 162.626C45.1316 162.615 45.0534 162.624 44.9812 162.652C44.909 162.681 44.8454 162.727 44.7967 162.787C44.7479 162.847 44.7157 162.919 44.7031 162.996C43.1021 173.569 49.4585 177.227 50.3643 179.939C51.3726 182.97 49.0562 185.668 46.2018 184.905C46.1399 184.887 46.0821 184.856 46.0315 184.816C36.7256 177.827 37.5362 163.18 38.5581 156.129C38.5675 156.071 38.5644 156.012 38.5491 155.956C38.5338 155.899 38.5067 155.847 38.4695 155.802C33.2654 149.105 30.448 140.861 30.4647 132.38C30.4647 116.827 39.7503 103.44 53.0825 97.4657C53.0834 97.4658 53.0843 97.4656 53.0851 97.4653C53.086 97.4649 53.0867 97.4645 53.0874 97.4638C53.088 97.4632 53.0885 97.4624 53.0889 97.4616C53.0892 97.4608 53.0894 97.4599 53.0893 97.459C55.1398 94.863 57.6401 91.1914 58.0217 88.6163C58.0343 88.5291 58.0726 88.4476 58.1318 88.3822C58.1909 88.3168 58.2682 88.2706 58.3537 88.2494C58.4393 88.2281 58.5292 88.2329 58.6121 88.2631C58.6949 88.2932 58.7668 88.3474 58.8187 88.4187C59.7998 89.7403 61.319 92.261 60.9852 94.9179C60.9715 95.0064 60.9648 95.0949 60.9511 95.1835C60.9238 95.3335 60.8899 95.4765 60.8557 95.6263C60.8216 95.7422 60.7944 95.858 60.7536 95.9738C61.23 95.5763 61.6846 95.1533 62.1154 94.7066C63.1168 93.678 64.384 92.1315 64.929 90.4761C64.9548 90.3878 65.0073 90.3096 65.0793 90.2524C65.1514 90.1952 65.2394 90.1616 65.3312 90.1565C65.4231 90.1513 65.5143 90.1747 65.5923 90.2235C65.6703 90.2723 65.7313 90.344 65.7668 90.4289C66.1208 91.3009 66.5366 92.5203 66.6796 93.767C66.692 93.8788 66.7456 93.982 66.83 94.0563C66.9145 94.1307 67.0236 94.1708 67.1361 94.1689C67.6607 94.1485 68.1852 94.1349 68.7098 94.1349C89.8355 94.1349 106.962 111.262 106.962 132.381C106.962 132.864 106.956 133.341 106.935 133.818C106.932 133.891 106.947 133.963 106.978 134.029C107.009 134.095 107.056 134.152 107.115 134.196C107.173 134.239 107.241 134.268 107.313 134.279C107.385 134.291 107.459 134.284 107.528 134.261C109.803 133.464 112.671 131.543 114.402 126.971C117.638 118.456 117.978 116.071 116.956 109.429C115.934 102.787 120.874 103.128 121.895 105.342C122.917 107.555 125.132 118.285 121.045 126.119Z" class="primaryDark"/>
<path d="M53.7699 135.735C53.6396 135.735 53.513 135.691 53.4099 135.612C53.3068 135.532 53.2329 135.421 53.1998 135.295C52.943 134.173 52.8878 133.014 53.0369 131.873C53.3724 129.392 54.7223 127.569 56.9408 126.6C58.3905 125.966 59.761 125.93 61.0139 126.491C63.582 127.642 64.6752 130.906 64.7205 131.044C64.7645 131.192 64.7491 131.35 64.6778 131.486C64.6065 131.623 64.4849 131.726 64.3387 131.773C64.1926 131.821 64.0336 131.81 63.8956 131.743C63.7575 131.675 63.6513 131.556 63.5995 131.411C63.5902 131.383 62.6178 128.5 60.5278 127.566C59.592 127.149 58.5443 127.187 57.4135 127.681C55.5778 128.483 54.5004 129.935 54.2116 131.995C54.0796 132.996 54.1238 134.011 54.3421 134.996C54.3814 135.148 54.3589 135.309 54.2797 135.444C54.2005 135.579 54.071 135.677 53.9196 135.716C53.8707 135.729 53.8204 135.735 53.7699 135.735Z" fill="white"/>
<path d="M71.5553 130.333C71.4317 130.333 71.3112 130.294 71.2109 130.221C71.1106 130.149 71.0355 130.047 70.9962 129.93C70.6669 128.832 70.5367 127.684 70.6115 126.54C70.7856 124.053 72.0147 122.153 74.1659 121.046C75.5744 120.322 76.9415 120.196 78.2302 120.677C80.8616 121.656 82.1622 124.821 82.2163 124.955C82.273 125.1 82.2703 125.261 82.2087 125.404C82.1471 125.547 82.0317 125.66 81.8874 125.718C81.7432 125.776 81.5819 125.775 81.4385 125.715C81.2951 125.654 81.1813 125.54 81.1218 125.396C81.11 125.369 79.9561 122.575 77.8142 121.781C76.8508 121.424 75.8053 121.53 74.706 122.095C72.9265 123.011 71.9459 124.522 71.7914 126.587C71.7248 127.588 71.8346 128.593 72.1158 129.557C72.1451 129.645 72.1529 129.74 72.1386 129.832C72.1244 129.924 72.0884 130.012 72.0338 130.088C71.9791 130.163 71.9072 130.225 71.8241 130.268C71.741 130.31 71.6489 130.333 71.5555 130.333H71.5553Z" fill="white"/>
<path d="M70.054 142.676C66.0383 142.676 62.9764 140.003 62.8231 139.867C62.7652 139.816 62.718 139.753 62.6841 139.684C62.6503 139.614 62.6305 139.538 62.6259 139.461C62.6213 139.384 62.632 139.306 62.6574 139.233C62.6827 139.16 62.7223 139.092 62.7737 139.034C62.8251 138.976 62.8875 138.929 62.9572 138.895C63.0269 138.861 63.1026 138.842 63.1799 138.837C63.2573 138.832 63.3348 138.843 63.408 138.868C63.4812 138.894 63.5487 138.933 63.6067 138.985C63.6469 139.02 67.6903 142.535 72.2427 141.178C76.7739 139.827 78.0166 134.074 78.0288 134.016C78.0618 133.864 78.1534 133.732 78.2836 133.647C78.4138 133.562 78.5721 133.533 78.7242 133.564C78.8763 133.595 79.0099 133.685 79.0961 133.814C79.1823 133.944 79.214 134.102 79.1845 134.254C78.9039 135.446 78.4645 136.594 77.8781 137.669C76.5827 140.057 74.7511 141.662 72.5799 142.308C71.7602 142.553 70.9093 142.676 70.054 142.676Z" fill="white"/>
<path d="M197.237 116.415C197.186 117.696 197.056 118.972 196.847 120.237C194.002 137.637 177.599 149.431 160.199 146.587C142.806 143.743 131.005 127.339 133.85 109.939C134.031 108.829 134.271 107.744 134.554 106.685C121.649 97.9213 122.403 81.0217 124.877 79.1481C127.375 77.2509 130.103 78.8495 129.818 84.0976C129.525 91.7189 134.217 98.0216 136.819 100.767C142.912 88.6196 156.378 81.2809 170.497 83.589C184.2 85.8288 194.421 96.4805 196.762 109.399C199.316 108.47 203.827 105.791 207.481 98.1736C207.991 96.6555 208.132 95.5396 208.159 94.8675C208.178 94.2396 208.423 93.6396 208.85 93.1786C209.649 92.3428 211.064 91.4558 212.892 92.8178C213.307 93.1285 213.642 93.5344 213.869 94.0014C214.095 94.4684 214.206 94.9829 214.193 95.5017C214.078 99.6184 210.784 109.634 197.237 116.415Z" class="primaryLight"/>
<path d="M178.255 122.058C177.45 126.986 170.672 129.978 163.122 128.744C155.565 127.509 150.093 122.514 150.898 117.586C151.052 116.668 151.41 115.797 151.947 115.037C152.094 114.831 152.314 114.69 152.562 114.641C152.81 114.593 153.067 114.642 153.281 114.777C155.986 116.471 160.268 117.964 165.208 118.772C169.754 119.515 173.962 119.526 177.024 118.946C177.273 118.898 177.531 118.948 177.745 119.085C177.958 119.222 178.111 119.437 178.17 119.683C178.355 120.461 178.384 121.268 178.255 122.058Z" fill="white"/>
<path d="M163.929 112.279C163.843 112.28 163.759 112.261 163.681 112.225C163.603 112.189 163.534 112.137 163.479 112.072C163.423 112.007 163.383 111.93 163.36 111.848C163.337 111.765 163.332 111.679 163.346 111.594C163.544 110.383 163.252 109.142 162.536 108.146C161.819 107.149 160.736 106.478 159.525 106.28C158.313 106.082 157.073 106.373 156.076 107.09C155.079 107.806 154.408 108.89 154.21 110.101C154.185 110.255 154.099 110.393 153.972 110.485C153.845 110.576 153.687 110.613 153.533 110.588C153.378 110.563 153.24 110.477 153.149 110.35C153.057 110.223 153.02 110.065 153.046 109.911C153.294 108.39 154.136 107.031 155.387 106.132C156.638 105.232 158.195 104.867 159.715 105.115C161.235 105.364 162.595 106.206 163.494 107.457C164.393 108.707 164.759 110.264 164.51 111.785C164.488 111.923 164.417 112.048 164.31 112.139C164.204 112.229 164.069 112.279 163.929 112.279Z" fill="white"/>
<path d="M178.082 114.594C177.997 114.594 177.912 114.575 177.834 114.539C177.757 114.503 177.688 114.451 177.633 114.386C177.577 114.32 177.536 114.244 177.513 114.162C177.49 114.079 177.486 113.993 177.499 113.908C177.692 112.699 177.398 111.463 176.682 110.47C175.965 109.477 174.884 108.808 173.675 108.611C172.467 108.413 171.229 108.703 170.234 109.416C169.238 110.129 168.566 111.207 168.364 112.415C168.351 112.492 168.324 112.565 168.283 112.631C168.243 112.697 168.189 112.755 168.126 112.8C168.063 112.846 167.992 112.878 167.916 112.896C167.841 112.914 167.763 112.917 167.686 112.904C167.609 112.891 167.536 112.864 167.47 112.823C167.404 112.782 167.347 112.729 167.302 112.665C167.256 112.602 167.224 112.531 167.206 112.455C167.189 112.38 167.186 112.301 167.199 112.225C167.452 110.708 168.295 109.354 169.545 108.458C170.795 107.563 172.348 107.199 173.866 107.447C175.383 107.695 176.74 108.535 177.639 109.781C178.539 111.028 178.907 112.581 178.664 114.099C178.641 114.237 178.57 114.362 178.464 114.453C178.357 114.544 178.222 114.593 178.082 114.594Z" fill="white"/>
<g opacity="0.16" filter="url(#filter0_f_1727_63973)">
<path d="M78.6506 79.068C78.6506 75.3603 82.1666 75.6017 83.9247 75.8826C94.526 76.8657 115.729 79.2955 115.729 81.1493C115.729 83.4667 114.29 85.9947 112.053 85.9947H97.5092C94.3129 85.9947 92.5549 83.1425 86.4818 83.1425C80.4086 83.1425 78.6506 83.7027 78.6506 79.068Z" fill="white"/>
</g>
<rect x="79.1506" y="59.1963" width="19.7799" height="21.8172" rx="7.5" class="primaryLight" stroke="white"/>
<path d="M88.8369 66.8447V73.3639" stroke="white"/>
<path d="M92.0966 70.1045L85.5774 70.1045" stroke="white"/>
<rect x="80.3729" y="51.0469" width="16.9278" height="5.5192" rx="2.7596" stroke="white"/>
<rect x="90.7423" y="79.6586" width="16.9278" height="5.5192" rx="2.7596" transform="rotate(-30 90.7423 79.6586)" fill="#3E9DFF" stroke="white"/>
<path d="M92.1221 82.0485C91.3601 80.7286 91.8123 79.0408 93.1322 78.2788L97.701 75.641L100.461 80.4208L95.8918 83.0586C94.5719 83.8206 92.8842 83.3684 92.1221 82.0485Z" fill="white" stroke="white"/>
<rect x="115.229" y="83.8652" width="16.9278" height="5.5192" rx="2.7596" transform="rotate(-180 115.229 83.8652)" fill="#3E9DFF" stroke="white"/>
<path d="M115.229 81.1056C115.229 82.6297 113.993 83.8652 112.469 83.8652L107.193 83.8652L107.193 78.346L112.469 78.346C113.993 78.346 115.229 79.5816 115.229 81.1056Z" fill="white" stroke="white"/>
<path d="M94.5412 57.0664V58.6962" stroke="white"/>
<path d="M83.1326 57.0664V58.6962" stroke="white"/>
<defs>
<filter id="filter0_f_1727_63973" x="62.6506" y="59.7402" width="69.0779" height="42.2549" filterUnits="userSpaceOnUse" color-interpolation-filters="sRGB">
<feFlood flood-opacity="0" result="BackgroundImageFix"/>
<feBlend mode="normal" in="SourceGraphic" in2="BackgroundImageFix" result="shape"/>
<feGaussianBlur stdDeviation="8" result="effect1_foregroundBlur_1727_63973"/>
</filter>
</defs>
</svg>
