<svg width="122" height="104" viewBox="0 0 122 104" fill="none" xmlns="http://www.w3.org/2000/svg">
<path d="M82.3285 5.03378C82.3285 5.03378 65.8565 25.8984 39.5011 13.4528C13.1458 1.00721 -13.2096 34.6836 9.48529 55.1821C32.1802 75.6807 9.97154 86.9446 25.3896 99.5075C42.9131 113.786 58.1695 84.8319 72.0792 91.4208C102.779 105.963 125.522 100.206 120.397 83.3677C111.402 53.8106 99.8988 51.8877 108.684 36.5138C117.469 21.1398 98.0801 -10.8265 82.3285 5.03378Z" fill="#E0E8F0"/>
<path d="M73.3603 62.7398L72.059 69.7264L65.8607 102.938L54.6953 100.853L61.8545 62.4879L62.1949 60.6597L73.3603 62.7398Z" fill="currentColor"/>
<path d="M100.857 46.0318L97.0074 66.6724C96.9961 66.7329 96.973 66.7906 96.9395 66.8421C96.9059 66.8937 96.8625 66.9382 96.8117 66.9729C96.7609 67.0077 96.7038 67.0322 96.6436 67.0449C96.5834 67.0576 96.5212 67.0583 96.4607 67.047L42.3711 56.9587L48.7375 22.8246L89.811 30.4854C97.2555 31.8735 102.2 38.8325 100.857 46.0318Z" fill="currentColor"/>
<path d="M60.2899 39.105L56.47 59.5854L28.0781 54.29L31.8979 33.8096C33.3043 26.269 40.8004 21.3414 48.6405 22.8036C56.4806 24.2658 61.6963 31.5642 60.2899 39.105Z" fill="currentColor"/>
<path d="M73.5091 48.6789C71.4169 48.2886 70.0364 46.2552 70.4304 44.1436C70.8244 42.0319 72.8448 40.6324 74.9371 41.0228C75.604 41.1481 76.2259 41.4478 76.7395 41.8914C77.253 42.3351 77.6399 42.9068 77.8608 43.5484L104.289 48.4777L103.576 52.3058L77.1468 47.3766C76.7095 47.8956 76.1425 48.2895 75.5036 48.5182C74.8646 48.747 74.1765 48.8024 73.5091 48.6789Z" fill="white"/>
<path d="M59.3488 39.4814L55.627 59.4355L28.8809 54.447L32.6028 34.4928C33.973 27.1461 41.0714 22.3068 48.4571 23.6843C55.8428 25.0619 60.719 32.1346 59.3488 39.4814Z" fill="white"/>
<path d="M74.2576 46.7451C75.333 46.7451 76.2048 45.8733 76.2048 44.798C76.2048 43.7226 75.333 42.8509 74.2576 42.8509C73.1823 42.8509 72.3105 43.7226 72.3105 44.798C72.3105 45.8733 73.1823 46.7451 74.2576 46.7451Z" fill="white"/>
<path d="M104.594 48.4641L102.259 60.9811C102.249 61.035 102.218 61.0827 102.173 61.1137C102.128 61.1447 102.072 61.1565 102.018 61.1464L95.8814 60.0018C95.8708 59.9998 95.8614 59.9937 95.8553 59.9848C95.8491 59.9759 95.8468 59.9649 95.8488 59.9542L98.2138 47.2741C98.2158 47.2635 98.2219 47.2541 98.2309 47.2479C98.2398 47.2418 98.2508 47.2395 98.2614 47.2415L104.561 48.4165C104.572 48.4185 104.582 48.4246 104.588 48.4335C104.594 48.4425 104.596 48.4535 104.594 48.4641Z" fill="currentColor"/>
<path d="M37.7317 47.2865C37.9901 49.1875 40.0762 51.4471 40.0762 51.4471C36.8975 51.6724 35.176 49.8748 34.4352 48.7824C33.5194 49.0471 32.5782 49.2141 31.6272 49.2808C25.1014 49.7433 19.4836 45.4828 19.0779 39.7599C18.6722 34.0369 23.6329 29.0265 30.1587 28.5641C36.6846 28.1016 42.3019 32.3619 42.7076 38.0849C42.9715 41.8075 40.9628 45.2291 37.7317 47.2865Z" fill="white"/>
<path d="M56.4973 59.598C56.2018 60.346 50.7976 82.6295 33.3095 79.3678C14.1327 76.1211 28.0037 54.2836 28.0037 54.2836L56.4973 59.598Z" fill="currentColor"/>
<path d="M30.8921 40.8857C31.7882 40.8857 32.5146 40.1592 32.5146 39.2631C32.5146 38.367 31.7882 37.6406 30.8921 37.6406C29.996 37.6406 29.2695 38.367 29.2695 39.2631C29.2695 40.1592 29.996 40.8857 30.8921 40.8857Z" fill="currentColor"/>
<path d="M23.6284 40.1781C24.5299 40.1781 25.2607 39.4473 25.2607 38.5458C25.2607 37.6443 24.5299 36.9135 23.6284 36.9135C22.7269 36.9135 21.9961 37.6443 21.9961 38.5458C21.9961 39.4473 22.7269 40.1781 23.6284 40.1781Z" fill="currentColor"/>
<path d="M38.0874 41.5771C38.9889 41.5771 39.7197 40.8463 39.7197 39.9448C39.7197 39.0433 38.9889 38.3124 38.0874 38.3124C37.1859 38.3124 36.4551 39.0433 36.4551 39.9448C36.4551 40.8463 37.1859 41.5771 38.0874 41.5771Z" fill="currentColor"/>
<path d="M73.3594 62.7398L72.0581 69.7264L61.8535 62.4879L62.1939 60.6597L73.3594 62.7398Z" fill="white"/>
</svg>
