<svg width="145" height="26" viewBox="0 0 145 26" fill="none" xmlns="http://www.w3.org/2000/svg">
<g clip-path="url(#clip0_381_6177)">
<path d="M48.6974 3.62524L43.4301 13.818L38.1856 3.62524L35.2144 18.4385H37.5952L39.1477 10.2246L43.4301 18.7005L47.7353 10.2246L49.2877 18.4385H51.6686L48.6974 3.62524Z" fill="white"/>
<path d="M56.9458 14.9327L53.5831 7.84839H51.0261L55.6151 17.496L51.5284 25.3243H54.1278L56.8381 20.1195L58.1721 17.5562L63.2405 7.84839H60.641L56.9458 14.9327Z" fill="white"/>
<path d="M77.2159 8.35391V8.31475C77.2028 8.24848 77.1898 8.17318 77.1833 8.09186C77.1767 8.01053 77.1637 7.92921 77.1506 7.85089C77.1376 7.83885 77.1278 7.81174 77.1278 7.76957C77.1115 7.66114 77.0756 7.53463 77.0202 7.38704C76.8147 6.78162 76.5147 6.23644 76.1135 5.7515C75.7123 5.26656 75.2296 4.85692 74.6621 4.51957C73.6706 3.94126 72.5193 3.6521 71.2082 3.6521H66.0061V18.4864H68.3446V14.1039H71.2082C71.8638 14.1039 72.4834 14.0256 73.0672 13.872C73.6511 13.7184 74.1827 13.5045 74.6621 13.2364C75.2296 12.8991 75.7156 12.4894 76.1135 12.0045C76.5147 11.5196 76.8147 10.9684 77.0202 10.3509C77.0495 10.2846 77.0724 10.2244 77.0854 10.1702C77.0985 10.116 77.1148 10.0557 77.1278 9.98945C77.1278 9.95029 77.1343 9.92318 77.1506 9.90812L77.2159 9.42318V9.4021C77.2289 9.32077 77.242 9.23945 77.2485 9.16113C77.255 9.07981 77.2583 8.99246 77.2583 8.89909V8.878V8.85692C77.2583 8.76354 77.255 8.67619 77.2485 8.59487C77.242 8.51354 77.2289 8.43222 77.2159 8.35391ZM74.561 10.119C74.3947 10.5166 74.1599 10.869 73.8631 11.1792C73.563 11.4894 73.214 11.7364 72.8129 11.9262C72.4117 12.116 71.9714 12.2093 71.4919 12.2093H68.3674V5.54668H71.4919C71.9714 5.54668 72.4149 5.64005 72.8129 5.82981C73.214 6.01957 73.563 6.26656 73.8631 6.5768C74.1631 6.88704 74.3947 7.23945 74.561 7.63704C74.7274 8.03463 74.8122 8.44728 74.8122 8.878C74.8122 9.30872 74.7274 9.72138 74.561 10.119Z" fill="#51CF66"/>
<path d="M86.3579 8.57403C85.9633 8.33307 85.5295 8.14331 85.0566 8.00777C84.5837 7.87223 84.0912 7.80596 83.5824 7.80596C83.0736 7.80596 82.5811 7.87223 82.1082 8.00777C81.6353 8.14331 81.2015 8.33006 80.8068 8.57403V0.643311H78.5564V12.4505V18.5048H80.8068V16.324V12.4505C80.8068 12.1011 80.8786 11.7728 81.0254 11.4626C81.1721 11.1523 81.3678 10.8813 81.6157 10.6463C81.8636 10.4114 82.1571 10.2246 82.4996 10.0921C82.842 9.95656 83.2008 9.8903 83.5824 9.8903C83.9607 9.8903 84.3162 9.95656 84.6521 10.0921C84.9881 10.2276 85.2816 10.4114 85.536 10.6463C85.7904 10.8813 85.9926 11.1554 86.1361 11.4626C86.2829 11.7728 86.3546 12.1011 86.3546 12.4505V16.324V18.5048H88.6051V12.4505C88.6051 11.6433 88.3996 10.8993 87.9919 10.2216C87.5875 9.5409 87.0428 8.99271 86.3579 8.57403Z" fill="#51CF66"/>
<path d="M99.7661 9.40221C99.2345 8.91727 98.6181 8.53474 97.9136 8.2516C97.2091 7.96847 96.4557 7.8269 95.6566 7.8269C94.8576 7.8269 94.1041 7.96847 93.3997 8.2516C92.6952 8.53474 92.0787 8.91727 91.5569 9.40221C91.0351 9.88715 90.6176 10.4594 90.3143 11.1161C90.0077 11.7757 89.8577 12.4745 89.8577 13.2155C89.8577 13.9564 90.011 14.6522 90.3175 15.3028C90.6241 15.9564 91.0383 16.5227 91.5634 17.0076C92.0885 17.4926 92.7017 17.8751 93.4094 18.1582C94.1172 18.4414 94.8706 18.5829 95.6697 18.5829C96.3546 18.5829 96.9938 18.4835 97.594 18.2817C98.1908 18.0829 98.7387 17.8088 99.2345 17.4624V18.4414H101.485V13.2155C101.485 12.4745 101.332 11.7757 101.025 11.1161C100.715 10.4594 100.298 9.88715 99.7661 9.40221ZM98.9442 14.4865C98.755 14.8871 98.5006 15.2335 98.1778 15.5317C97.8581 15.8299 97.4831 16.0679 97.0525 16.2426C96.622 16.4173 96.1589 16.5076 95.6664 16.5076C95.1707 16.5076 94.7075 16.4203 94.2803 16.2426C93.8497 16.0679 93.4747 15.8299 93.155 15.5317C92.8354 15.2335 92.581 14.8841 92.3886 14.4865C92.1994 14.0859 92.1048 13.6643 92.1048 13.2185C92.1048 12.7576 92.1994 12.3299 92.3886 11.9293C92.5778 11.5287 92.8322 11.1823 93.155 10.8841C93.4747 10.5859 93.8497 10.348 94.2803 10.1733C94.7108 9.99859 95.1707 9.90823 95.6664 9.90823C96.1622 9.90823 96.6253 9.99558 97.0525 10.1733C97.4831 10.348 97.8581 10.5859 98.1778 10.8841C98.4974 11.1823 98.7518 11.5317 98.9442 11.9293C99.1334 12.3299 99.228 12.7576 99.228 13.2185C99.228 13.6643 99.1334 14.0859 98.9442 14.4865Z" fill="#51CF66"/>
<path d="M110.516 8.601C110.121 8.35703 109.694 8.16727 109.228 8.03172C108.761 7.89618 108.272 7.8269 107.763 7.8269C107.254 7.8269 106.765 7.89618 106.299 8.03172C105.832 8.16727 105.402 8.35703 105.01 8.601V7.8269H102.76V12.4384V18.4444H105.01V16.2847V12.4504C105.01 12.101 105.082 11.7727 105.229 11.4624C105.376 11.1522 105.571 10.8841 105.819 10.6552C106.067 10.4263 106.357 10.2456 106.693 10.11C107.029 9.97449 107.385 9.90823 107.763 9.90823C108.23 9.90823 108.663 10.0106 109.064 10.2094C109.466 10.4112 109.789 10.6793 110.036 11.0167L110.516 10.6522L111.785 9.72148C111.436 9.2757 111.012 8.90221 110.516 8.601Z" fill="#51CF66"/>
<path d="M128.78 8.53467C128.386 8.29371 127.952 8.10395 127.479 7.96841C127.006 7.83287 126.514 7.7666 126.005 7.7666C125.496 7.7666 125.004 7.83287 124.531 7.96841C124.058 8.10395 123.617 8.2907 123.21 8.53467C122.786 8.80275 122.414 9.12805 122.094 9.50455C121.758 9.11299 121.38 8.7907 120.959 8.53467C120.565 8.29371 120.131 8.10395 119.658 7.96841C119.185 7.83287 118.693 7.7666 118.184 7.7666C117.675 7.7666 117.182 7.83287 116.71 7.96841C116.237 8.10395 115.796 8.2907 115.389 8.53467V7.7666H113.138V12.4082V18.4835H115.389V16.3027V12.4082C115.389 12.0588 115.46 11.7305 115.607 11.4202C115.754 11.11 115.953 10.8389 116.207 10.604C116.462 10.369 116.762 10.1823 117.104 10.0497C117.447 9.91419 117.805 9.84793 118.187 9.84793C118.569 9.84793 118.924 9.91419 119.257 10.0497C119.593 10.1853 119.886 10.369 120.141 10.604C120.395 10.8389 120.597 11.113 120.741 11.4202C120.888 11.7305 120.959 12.0588 120.959 12.4082V16.3027V18.4835H123.21V16.3027V12.4082C123.21 12.0588 123.281 11.7305 123.428 11.4202C123.575 11.11 123.774 10.8389 124.028 10.604C124.283 10.369 124.583 10.1823 124.925 10.0497C125.268 9.91419 125.626 9.84793 126.008 9.84793C126.386 9.84793 126.742 9.91419 127.078 10.0497C127.414 10.1853 127.707 10.369 127.962 10.604C128.216 10.8389 128.418 11.113 128.562 11.4202C128.709 11.7305 128.78 12.0588 128.78 12.4082V16.3027V18.4835H131.031V12.4082C131.031 11.6009 130.825 10.857 130.418 10.1793C130.01 9.49853 129.465 8.95034 128.78 8.53467Z" fill="#51CF66"/>
<path d="M143.597 11.1161C143.291 10.4564 142.873 9.88413 142.342 9.40221C141.81 8.91727 141.194 8.53474 140.489 8.2516C139.785 7.96847 139.031 7.8269 138.232 7.8269C137.433 7.8269 136.68 7.96847 135.975 8.2516C135.271 8.53474 134.654 8.91727 134.133 9.40221C133.611 9.88715 133.193 10.4594 132.89 11.1161C132.583 11.7757 132.433 12.4745 132.433 13.2155C132.433 13.9564 132.587 14.6522 132.893 15.3028C133.2 15.9564 133.614 16.5227 134.139 17.0076C134.664 17.4926 135.281 17.8751 135.985 18.1582C136.693 18.4414 137.446 18.5829 138.245 18.5829C138.93 18.5829 139.57 18.4835 140.17 18.2817C140.77 18.0799 141.314 17.8088 141.81 17.4624V18.4414H144.061V13.2155C144.054 12.4775 143.901 11.7757 143.597 11.1161ZM141.52 14.4865C141.331 14.8871 141.076 15.2335 140.753 15.5317C140.434 15.8299 140.059 16.0679 139.628 16.2426C139.198 16.4173 138.735 16.5076 138.242 16.5076C137.746 16.5076 137.283 16.4203 136.856 16.2426C136.425 16.0679 136.05 15.8299 135.731 15.5317C135.411 15.2335 135.153 14.8841 134.964 14.4865C134.775 14.0859 134.681 13.6643 134.681 13.2185C134.681 12.7576 134.775 12.3299 134.964 11.9293C135.153 11.5287 135.408 11.1823 135.731 10.8841C136.05 10.5859 136.425 10.348 136.856 10.1733C137.286 9.99859 137.75 9.90823 138.242 9.90823C138.738 9.90823 139.201 9.99558 139.628 10.1733C140.059 10.348 140.434 10.5859 140.753 10.8841C141.073 11.1823 141.327 11.5317 141.52 11.9293C141.709 12.3299 141.804 12.7576 141.804 13.2185C141.804 13.6643 141.709 14.0859 141.52 14.4865Z" fill="#51CF66"/>
<path d="M23.3817 6.15527V7.28479H22.188V8.52576H23.3817V9.65527H24.7254V8.52576H25.9485V7.28479H24.7254V6.15527H23.3817Z" fill="white"/>
<path d="M12.5144 13.9958C13.4276 14.5681 14.4256 14.9415 15.4497 15.1253L17.0935 17.4024L18.6036 15.1132C20.5996 14.7428 22.4456 13.6855 23.6687 12.0229L17.025 7.86022L23.7274 3.77589C23.1501 2.96565 22.4032 2.26986 21.5357 1.72468C17.8926 -0.558451 12.8568 0.330103 10.3814 3.69456C7.90587 7.05902 8.87128 11.7096 12.5144 13.9958Z" fill="white"/>
<path d="M9.71288 21.502C8.52895 21.502 7.57007 22.3875 7.57007 23.4809C7.57007 24.5742 8.52895 25.4598 9.71288 25.4598C10.8968 25.4598 11.8557 24.5742 11.8557 23.4809C11.8557 22.3875 10.8968 21.502 9.71288 21.502Z" fill="white"/>
<path d="M23.1272 21.502C21.9433 21.502 20.9844 22.3875 20.9844 23.4809C20.9844 24.5742 21.9433 25.4598 23.1272 25.4598C24.3111 25.4598 25.27 24.5742 25.27 23.4809C25.27 22.3875 24.3111 21.502 23.1272 21.502Z" fill="white"/>
<path d="M8.09505 17.7762L5.04228 1.18282L0.169598 0.809326L0 2.68884L3.29412 2.94186L6.36971 19.6647H26.1181V17.7762H8.09505Z" fill="white"/>
</g>
<defs>
<clipPath id="clip0_381_6177">
<rect width="144.054" height="25" fill="white" transform="translate(0 0.456543)"/>
</clipPath>
</defs>
</svg>
