<svg width="227" height="199" viewBox="0 0 227 199" fill="none" xmlns="http://www.w3.org/2000/svg">
<path d="M124.663 12.5886C124.663 12.5886 105.914 54.6701 56.3312 45.03C6.74861 35.3899 -23.1247 103.212 23.7513 127.941C70.6274 152.671 38.1411 181.079 69.4042 195.59C104.937 212.082 118.187 156.935 144.365 162.057C202.139 173.361 237.877 153.974 222.074 127.884C194.335 82.0862 174.194 83.7722 182.379 54.1973C190.564 24.6225 144.341 -20.7799 124.663 12.5886Z" fill="#E0E8F0"/>
<path d="M115.612 108.634C111.256 116.983 110.156 121.42 96.9412 129.705C96.8385 129.772 96.7616 129.872 96.7229 129.988C94.6116 136.533 91.0376 142.512 86.272 147.471C86.2078 147.537 86.1627 147.619 86.1414 147.709C86.12 147.798 86.1233 147.892 86.1508 147.98C87.6299 152.902 89.2308 161.777 84.7767 169.052C78.2297 179.762 73.3807 173.295 74.3905 170.87C75.2553 168.793 82.643 164.331 80.9375 153.185C80.9231 153.096 80.8861 153.012 80.8299 152.941C80.7737 152.871 80.7002 152.816 80.6166 152.782C80.533 152.747 80.442 152.735 80.3523 152.747C80.2627 152.758 80.1775 152.792 80.1049 152.846C74.7501 156.732 68.6042 159.39 62.1048 160.63C62.0327 160.642 61.9638 160.669 61.9029 160.709C61.842 160.75 61.7903 160.803 61.7513 160.864C61.7124 160.926 61.687 160.996 61.6768 161.068C61.6667 161.141 61.672 161.214 61.6925 161.285C63.3496 167.217 64.1336 176.489 57.2148 185.015C53.521 189.461 48.6228 182.962 53.521 178.533C56.56 175.793 56.3256 167.913 54.9031 161.843C54.8759 161.725 54.8087 161.62 54.7128 161.546C54.617 161.473 54.4985 161.435 54.3777 161.439C54.0949 161.447 53.8037 161.447 53.521 161.447C43.5236 161.462 33.8039 158.158 25.8863 152.054C25.8138 151.997 25.7279 151.96 25.637 151.947C25.546 151.934 25.4532 151.944 25.3675 151.978C25.2819 152.011 25.2065 152.066 25.1486 152.138C25.0908 152.209 25.0525 152.294 25.0376 152.385C23.1381 164.929 30.6796 169.27 31.7542 172.487C32.9505 176.084 30.2023 179.284 26.8157 178.379C26.7423 178.357 26.6737 178.322 26.6137 178.274C15.5727 169.981 16.5345 152.603 17.7469 144.238C17.758 144.169 17.7544 144.099 17.7363 144.032C17.7181 143.966 17.6859 143.903 17.6418 143.85C11.4675 135.904 8.1248 126.124 8.14462 116.062C8.14462 97.6087 19.1614 81.7261 34.9793 74.6376C34.9803 74.6377 34.9814 74.6375 34.9824 74.6371C34.9834 74.6367 34.9843 74.6361 34.985 74.6354C34.9858 74.6346 34.9864 74.6337 34.9868 74.6328C34.9872 74.6318 34.9874 74.6307 34.9874 74.6296C37.4202 71.5496 40.3866 67.1935 40.8394 64.1383C40.8543 64.0348 40.8997 63.9381 40.9699 63.8606C41.0401 63.783 41.1318 63.7281 41.2333 63.703C41.3348 63.6778 41.4415 63.6835 41.5397 63.7192C41.638 63.755 41.7234 63.8193 41.7849 63.9038C42.9489 65.4718 44.7514 68.4625 44.3553 71.6147C44.3391 71.7197 44.3311 71.8247 44.3149 71.9299C44.2825 72.1078 44.2422 72.2775 44.2018 72.4553C44.1613 72.5928 44.129 72.7301 44.0805 72.8676C44.6458 72.3959 45.1852 71.894 45.6963 71.3641C46.8843 70.1438 48.3878 68.3089 49.0344 66.3449C49.065 66.2401 49.1273 66.1474 49.2128 66.0794C49.2982 66.0115 49.4026 65.9718 49.5116 65.9656C49.6206 65.9595 49.7288 65.9873 49.8214 66.0452C49.9139 66.103 49.9862 66.1882 50.0284 66.2889C50.4484 67.3235 50.9418 68.7702 51.1115 70.2493C51.1261 70.382 51.1897 70.5044 51.2899 70.5926C51.3901 70.6808 51.5195 70.7284 51.653 70.7262C52.2754 70.702 52.8977 70.6858 53.5202 70.6858C78.5845 70.6858 98.9045 91.0057 98.9045 116.062C98.9045 116.636 98.8964 117.202 98.872 117.767C98.8685 117.854 98.886 117.94 98.9232 118.018C98.9603 118.096 99.0159 118.164 99.0852 118.215C99.1544 118.267 99.2352 118.301 99.3206 118.315C99.406 118.328 99.4934 118.321 99.5753 118.293C102.275 117.347 105.678 115.068 107.731 109.644C111.57 99.541 111.974 96.7121 110.762 88.8314C109.549 80.9507 115.41 81.3554 116.622 83.9818C117.833 86.6082 120.461 99.3384 115.612 108.634Z" fill="currentColor"/>
<path d="M35.7948 120.042C35.6402 120.042 35.49 119.991 35.3677 119.896C35.2454 119.802 35.1577 119.669 35.1185 119.52C34.8137 118.189 34.7482 116.814 34.9251 115.46C35.3231 112.517 36.9247 110.353 39.5569 109.204C41.2769 108.452 42.9029 108.409 44.3894 109.075C47.4362 110.441 48.7333 114.313 48.7871 114.477C48.8392 114.652 48.821 114.84 48.7364 115.002C48.6518 115.163 48.5074 115.285 48.3341 115.342C48.1607 115.399 47.9721 115.386 47.8083 115.306C47.6445 115.225 47.5185 115.084 47.4571 114.913C47.446 114.879 46.2923 111.458 43.8126 110.351C42.7024 109.855 41.4593 109.901 40.1177 110.487C37.9397 111.439 36.6615 113.161 36.3188 115.606C36.1622 116.792 36.2146 117.997 36.4737 119.166C36.5203 119.346 36.4937 119.537 36.3997 119.697C36.3057 119.857 36.1521 119.973 35.9725 120.02C35.9144 120.035 35.8547 120.042 35.7948 120.042Z" fill="white"/>
<path d="M56.896 113.632C56.7494 113.632 56.6064 113.585 56.4874 113.5C56.3684 113.414 56.2793 113.293 56.2327 113.154C55.842 111.851 55.6875 110.489 55.7763 109.131C55.9828 106.181 57.4411 103.927 59.9934 102.614C61.6644 101.754 63.2865 101.606 64.8154 102.176C67.9374 103.338 69.4805 107.092 69.5446 107.252C69.6119 107.423 69.6087 107.615 69.5357 107.784C69.4626 107.954 69.3256 108.087 69.1545 108.156C68.9834 108.225 68.7919 108.224 68.6218 108.152C68.4517 108.081 68.3167 107.945 68.2461 107.775C68.2321 107.742 66.8631 104.428 64.3218 103.486C63.1788 103.062 61.9384 103.187 60.6342 103.859C58.5228 104.945 57.3594 106.738 57.1762 109.187C57.0971 110.375 57.2273 111.568 57.561 112.711C57.5958 112.816 57.605 112.928 57.5881 113.038C57.5712 113.147 57.5286 113.251 57.4637 113.341C57.3988 113.431 57.3136 113.504 57.215 113.554C57.1163 113.605 57.0071 113.631 56.8963 113.632H56.896Z" fill="white"/>
<path d="M55.1149 128.276C50.3506 128.276 46.7179 125.105 46.536 124.944C46.4673 124.883 46.4112 124.809 46.3711 124.726C46.3309 124.644 46.3075 124.554 46.302 124.462C46.2966 124.37 46.3092 124.278 46.3393 124.191C46.3694 124.105 46.4163 124.025 46.4774 123.956C46.5384 123.887 46.6124 123.831 46.6951 123.791C46.7778 123.751 46.8676 123.727 46.9593 123.722C47.0511 123.716 47.143 123.729 47.2299 123.759C47.3168 123.789 47.3969 123.836 47.4656 123.897C47.5134 123.939 52.3106 128.109 57.7118 126.499C63.0878 124.897 64.5622 118.071 64.5766 118.002C64.6158 117.822 64.7244 117.665 64.8789 117.564C65.0334 117.464 65.2212 117.428 65.4017 117.466C65.5821 117.503 65.7407 117.61 65.8429 117.763C65.9451 117.916 65.9828 118.104 65.9477 118.284C65.6149 119.698 65.0936 121.061 64.3978 122.336C62.8609 125.17 60.6878 127.073 58.1118 127.841C57.1393 128.13 56.1297 128.277 55.1149 128.276Z" fill="white"/>
<path d="M206.011 97.1192C205.951 98.6391 205.796 100.154 205.548 101.654C202.173 122.298 182.712 136.292 162.068 132.916C141.432 129.543 127.43 110.08 130.806 89.436C131.021 88.12 131.305 86.832 131.641 85.5759C116.331 75.1781 117.225 55.1277 120.16 52.9048C123.124 50.6538 126.36 52.5506 126.022 58.7771C125.674 67.8192 131.241 75.2971 134.329 78.5542C141.558 64.1421 157.535 55.4353 174.286 58.1737C190.543 60.831 202.67 73.4687 205.447 88.7956C208.478 87.6939 213.829 84.5147 218.165 75.4774C218.77 73.6763 218.938 72.3523 218.97 71.5549C218.992 70.8099 219.283 70.0981 219.789 69.5512C220.737 68.5596 222.416 67.5072 224.584 69.1231C225.078 69.4918 225.475 69.9733 225.744 70.5274C226.012 71.0815 226.144 71.6919 226.128 72.3074C225.992 77.1916 222.084 89.075 206.011 97.1192Z" fill="currentColor"/>
<path d="M183.489 103.815C182.533 109.662 174.491 113.212 165.533 111.748C156.567 110.282 150.075 104.356 151.031 98.509C151.213 97.4202 151.638 96.3865 152.275 95.4851C152.45 95.241 152.711 95.073 153.005 95.0157C153.299 94.9584 153.604 95.0162 153.857 95.1771C157.067 97.1865 162.147 98.9585 168.008 99.9166C173.402 100.799 178.394 100.812 182.027 100.123C182.323 100.066 182.629 100.125 182.882 100.288C183.136 100.451 183.317 100.705 183.388 100.998C183.606 101.921 183.641 102.878 183.489 103.815Z" fill="white"/>
<path d="M166.492 92.2134C166.39 92.2135 166.29 92.1916 166.198 92.149C166.105 92.1065 166.024 92.0444 165.958 91.967C165.892 91.8897 165.844 91.7989 165.817 91.7011C165.789 91.6032 165.784 91.5006 165.8 91.4004C166.035 89.9631 165.689 88.4913 164.839 87.3088C163.989 86.1263 162.704 85.33 161.266 85.0951C159.829 84.8601 158.357 85.2058 157.175 86.056C155.992 86.9062 155.196 88.1914 154.961 89.6287C154.931 89.8119 154.83 89.9757 154.679 90.0841C154.528 90.1925 154.341 90.2365 154.157 90.2065C153.974 90.1766 153.81 90.0751 153.702 89.9243C153.594 89.7736 153.55 89.586 153.579 89.4027C153.874 87.599 154.874 85.9862 156.358 84.9192C157.842 83.8523 159.689 83.4185 161.492 83.7133C163.296 84.0082 164.909 85.0075 165.976 86.4915C167.043 87.9754 167.477 89.8224 167.182 91.6262C167.155 91.79 167.071 91.9389 166.945 92.0465C166.818 92.154 166.658 92.2132 166.492 92.2134Z" fill="white"/>
<path d="M183.285 94.9583C183.183 94.9582 183.083 94.9361 182.991 94.8934C182.899 94.8508 182.817 94.7887 182.751 94.7114C182.686 94.6341 182.637 94.5434 182.61 94.4456C182.583 94.3479 182.577 94.2454 182.593 94.1452C182.822 92.7105 182.474 91.2434 181.623 90.0653C180.773 88.8873 179.49 88.0942 178.056 87.8598C176.623 87.6254 175.154 87.9689 173.973 88.8149C172.792 89.6608 171.994 90.9405 171.754 92.3735C171.74 92.4644 171.708 92.5516 171.659 92.63C171.611 92.7085 171.548 92.7766 171.473 92.8305C171.398 92.8844 171.314 92.923 171.224 92.9441C171.134 92.9653 171.041 92.9685 170.95 92.9537C170.859 92.9388 170.772 92.9061 170.694 92.8576C170.616 92.809 170.548 92.7454 170.494 92.6705C170.441 92.5957 170.402 92.5109 170.381 92.4212C170.361 92.3315 170.358 92.2385 170.373 92.1477C170.673 90.3485 171.674 88.7416 173.156 87.6791C174.639 86.6166 176.482 86.1852 178.282 86.4795C180.082 86.7737 181.692 87.7696 182.759 89.2489C183.826 90.7281 184.264 92.5701 183.975 94.3711C183.948 94.5349 183.864 94.6839 183.738 94.7914C183.611 94.899 183.451 94.9581 183.285 94.9583Z" fill="white"/>
</svg>
