<svg  viewBox="0 0 371 275" fill="none" xmlns="http://www.w3.org/2000/svg">
<path d="M107.775 44.9125C107.775 44.9125 149.594 76.6473 213.169 17.3089C269.63 -35.3881 315.732 47.756 316.054 87.5722C316.472 139.15 259.593 180.42 287.196 214.297C314.8 248.174 232.455 304.116 188.075 255.702C132.868 195.476 117.912 244.409 86.4448 244.409C63.8601 244.409 17.4917 188.292 48.8038 146.543C75.1526 111.411 60.7825 99.7519 53.8235 87.5722C43.7851 70.0064 67.6244 22.328 107.775 44.9125Z" class="primaryLightest"/>
<path d="M275.665 115.041C277.912 115.877 280.369 115.932 282.706 115.396C292.498 113.148 326.167 107.197 320.317 133.288C319.043 138.464 299.323 167.454 327.406 178.036C329.464 178.822 331.64 179.25 333.842 179.304C342.488 179.482 359.622 177.441 366.793 170.141C375.456 161.323 365.992 165.505 365.992 165.505C365.992 165.505 333.059 179.876 321.426 164.629C320.132 162.932 319.308 160.468 319.071 158.347C318.662 154.669 320.295 149.809 322.44 145.579C325.344 139.853 339.283 114.095 309.019 106.591C302.047 104.931 291.922 103.44 278.865 108.937C271.249 112.143 272.936 114.028 275.665 115.041Z" class="primaryLight"/>
<path d="M282.404 105.426L273.638 108.706C270.612 109.839 269.077 113.21 270.21 116.236L270.644 117.397C271.777 120.423 275.148 121.957 278.174 120.825L286.939 117.544C289.965 116.412 291.5 113.041 290.368 110.015L289.933 108.854C288.801 105.828 285.43 104.293 282.404 105.426Z" class="primaryMedium"/>
<path d="M228.597 114.919L199.689 125.738C198.176 126.304 197.408 127.99 197.975 129.503L198.089 129.807C198.655 131.32 200.34 132.087 201.853 131.521L230.762 120.702C232.275 120.135 233.042 118.45 232.476 116.937L232.362 116.633C231.796 115.12 230.11 114.352 228.597 114.919Z" fill="white"/>
<path d="M236.666 136.476L207.758 147.295C206.245 147.861 205.477 149.547 206.043 151.06L206.157 151.364C206.724 152.877 208.409 153.644 209.922 153.078L238.831 142.259C240.344 141.692 241.111 140.007 240.545 138.494L240.431 138.19C239.865 136.677 238.179 135.909 236.666 136.476Z" fill="white"/>
<path d="M263.356 100.207L239.927 108.976C236.901 110.108 235.366 113.479 236.498 116.505L244.498 137.879C245.63 140.905 249.001 142.44 252.027 141.307L275.457 132.538C278.483 131.406 280.018 128.035 278.885 125.009L270.886 103.635C269.753 100.609 266.382 99.0745 263.356 100.207Z" fill="white"/>
<path d="M242.346 105.814L218.917 114.583C215.891 115.716 214.356 119.087 215.488 122.113L225.032 147.612C226.164 150.638 229.535 152.173 232.561 151.04L255.991 142.272C259.017 141.139 260.552 137.768 259.419 134.742L249.876 109.243C248.743 106.217 245.372 104.682 242.346 105.814Z" class="primaryLight"/>
<path d="M246.014 100.639L245.83 100.708C243.813 101.463 242.79 103.711 243.545 105.728L256.914 141.45C257.669 143.467 259.917 144.49 261.934 143.735L262.118 143.667C264.135 142.912 265.158 140.664 264.403 138.647L251.034 102.925C250.279 100.908 248.031 99.8844 246.014 100.639Z" class="primaryMedium"/>
<path d="M7.10701 123.478C7.10701 123.478 54.1621 110.255 47.3304 140.721C46.1441 145.541 29.0662 170.363 49.4086 182.28C53.7766 184.839 58.8173 185.973 63.8793 185.946C72.9552 185.899 87.3433 184.152 93.8069 177.573C102.47 168.755 93.0059 172.937 93.0059 172.937C93.0059 172.937 65.9814 184.053 52.0783 175.192C47.331 172.166 45.1792 166.308 46.4683 160.828C47.1273 158.106 48.1306 155.479 49.4542 153.011C52.4779 147.348 66.2967 121.527 36.0327 114.023C29.0611 112.363 18.9353 110.872 5.87909 116.369C-7.17713 121.866 7.10701 123.478 7.10701 123.478Z" class="primaryLight"/>
<path d="M100.134 166.119L91.3684 169.4C88.3425 170.533 86.8076 173.904 87.9401 176.93L88.3746 178.091C89.507 181.116 92.8781 182.651 95.9039 181.519L104.67 178.238C107.695 177.106 109.23 173.735 108.098 170.709L107.663 169.548C106.531 166.522 103.16 164.987 100.134 166.119Z" class="primaryMedium"/>
<path d="M114.945 151.698L101.954 156.56C98.9277 157.692 97.3928 161.063 98.5253 164.089L104.789 180.827C105.922 183.853 109.293 185.388 112.319 184.255L125.31 179.393C128.336 178.261 129.871 174.89 128.738 171.864L122.474 155.126C121.342 152.1 117.971 150.565 114.945 151.698Z" fill="white"/>
<path d="M136.571 138.811L117.197 146.062C114.172 147.194 112.637 150.565 113.769 153.591L123.313 179.091C124.445 182.117 127.816 183.652 130.842 182.519L150.215 175.268C153.241 174.136 154.776 170.765 153.644 167.739L144.1 142.239C142.968 139.213 139.597 137.679 136.571 138.811Z" class="primaryLight"/>
<path d="M140.675 133.531L140.492 133.599C138.474 134.354 137.451 136.602 138.206 138.619L151.575 174.341C152.33 176.358 154.578 177.381 156.595 176.626L156.779 176.558C158.796 175.803 159.819 173.555 159.064 171.538L145.695 135.816C144.94 133.799 142.693 132.776 140.675 133.531Z" class="primaryMedium"/>
<path d="M190.147 110.772C189.449 110.695 188.809 110.35 188.36 109.81C187.912 109.27 187.691 108.577 187.743 107.877L189.188 81.4737C189.275 79.8966 190.606 78.6983 192.118 78.8377L194.224 79.0327C195.735 79.1721 196.817 80.5927 196.606 82.1587L193.054 108.367C192.972 109.065 192.624 109.705 192.083 110.153C191.541 110.601 190.848 110.823 190.147 110.772V110.772Z" class="primaryMedium"/>
<path d="M177.664 113.049C177.447 113.113 177.22 113.133 176.995 113.109C176.77 113.085 176.552 113.017 176.354 112.908C176.155 112.8 175.98 112.654 175.838 112.478C175.696 112.301 175.59 112.099 175.527 111.882L170.365 95.458C170.214 94.9909 170.256 94.4833 170.479 94.0467C170.703 93.61 171.091 93.2799 171.558 93.1287L172.894 92.7255C173.123 92.6585 173.364 92.6399 173.601 92.6707C173.838 92.7014 174.066 92.781 174.27 92.9043C174.475 93.0276 174.652 93.192 174.79 93.3871C174.928 93.5822 175.023 93.8038 175.071 94.0378L178.897 110.865C179.004 111.318 178.936 111.794 178.708 112.198C178.479 112.603 178.107 112.907 177.664 113.049V113.049Z" class="primaryMedium"/>
<path d="M170.699 122.52C169.774 123.666 167.914 123.652 166.482 122.489L141.06 101.834C139.542 100.601 139.093 98.5584 140.075 97.3435L141.442 95.6494C142.423 94.4339 144.439 94.5336 145.876 95.8685L169.93 118.218C171.285 119.476 171.624 121.374 170.699 122.52Z" class="primaryMedium"/>
<path d="M182.45 175.869C183.105 176.122 183.636 176.619 183.932 177.256C184.227 177.893 184.264 178.619 184.035 179.283L175.895 204.44C175.408 205.943 173.815 206.761 172.389 206.241L170.402 205.515C168.976 204.994 168.292 203.343 168.897 201.884L179.024 177.452C179.282 176.798 179.781 176.268 180.42 175.973C181.058 175.678 181.785 175.641 182.45 175.869V175.869Z" class="primaryMedium"/>
<path d="M195.099 176.856C195.325 176.849 195.55 176.888 195.761 176.969C195.973 177.049 196.166 177.171 196.33 177.326C196.494 177.482 196.626 177.668 196.719 177.875C196.811 178.081 196.862 178.304 196.868 178.53L197.664 195.728C197.69 196.218 197.52 196.698 197.193 197.063C196.865 197.428 196.406 197.648 195.916 197.675L194.52 197.724C194.282 197.73 194.044 197.686 193.823 197.596C193.602 197.506 193.402 197.371 193.235 197.199C193.069 197.028 192.94 196.824 192.857 196.6C192.773 196.376 192.737 196.137 192.751 195.899L193.35 178.652C193.362 178.188 193.549 177.745 193.873 177.412C194.197 177.079 194.635 176.881 195.099 176.856V176.856Z" class="primaryMedium"/>
<path d="M204.252 169.478C205.44 168.606 207.234 169.094 208.322 170.584L227.626 197.046C228.779 198.627 228.691 200.715 227.431 201.64L225.676 202.928C224.417 203.853 222.494 203.242 221.445 201.584L203.895 173.833C202.909 172.271 203.065 170.349 204.252 169.478Z" class="primaryMedium"/>
</svg>
