<svg width="23" height="29" viewBox="0 0 23 29" fill="none" xmlns="http://www.w3.org/2000/svg">
<rect x="0.343994" y="0.568604" width="22.2731" height="2.6988" fill="#ADB5BD"/>
<path d="M11.536 28.9235V3.26733H0.352833C0.352721 10.3449 0.0788259 17.135 2.58925 20.8629C5.43567 25.0898 10.0108 27.9405 11.536 28.9235Z" fill="#51CF66"/>
<path d="M11.3869 28.9235V3.26733H22.57C22.5701 10.3449 22.844 17.135 20.3336 20.8629C17.4872 25.0898 12.9121 27.9405 11.3869 28.9235Z" fill="#1E9C33"/>
<path d="M15.2886 10.6452C15.2886 12.7483 13.5837 14.4532 11.4806 14.4532C9.37751 14.4532 7.67261 12.7483 7.67261 10.6452C7.67261 8.54206 9.37751 6.83716 11.4806 6.83716C13.5837 6.83716 15.2886 8.54206 15.2886 10.6452Z" fill="white"/>
<path fill-rule="evenodd" clip-rule="evenodd" d="M6.73883 19.2675C6.73902 19.2674 6.73922 19.2672 6.23792 18.5416C5.73663 17.816 5.73685 17.8159 5.73707 17.8157L5.73871 17.8146L5.74164 17.8126L5.75009 17.8069L5.77714 17.7887C5.79963 17.7738 5.831 17.7533 5.8708 17.728C5.95037 17.6775 6.06387 17.6078 6.20782 17.5254C6.49524 17.3607 6.90663 17.1438 7.41367 16.9273C8.42099 16.4972 9.84258 16.0532 11.4381 16.0532C13.0323 16.0532 14.4734 16.4966 15.4984 16.9246C16.0147 17.1402 16.4356 17.3562 16.73 17.5199C16.8774 17.6019 16.9938 17.6711 17.0753 17.7212C17.116 17.7462 17.1481 17.7665 17.1711 17.7812L17.1986 17.799L17.2071 17.8046L17.21 17.8065L17.2111 17.8072C17.2113 17.8074 17.212 17.8078 16.7228 18.5416C16.2336 19.2755 16.2338 19.2756 16.234 19.2757L16.219 19.266C16.2053 19.2572 16.1828 19.243 16.152 19.2241C16.0905 19.1863 15.9962 19.13 15.8728 19.0614C15.6255 18.9239 15.2642 18.7382 14.8187 18.5522C13.9201 18.177 12.7188 17.8171 11.4381 17.8171C10.1588 17.8171 8.98032 18.1763 8.10625 18.5495C7.67259 18.7346 7.32296 18.9193 7.08455 19.0559C6.96557 19.124 6.87495 19.1798 6.81611 19.2172C6.78672 19.2359 6.76532 19.2499 6.75234 19.2585L6.73883 19.2675Z" fill="white"/>
<path fill-rule="evenodd" clip-rule="evenodd" d="M8.66337 21.8474C8.66357 21.8473 8.66377 21.8471 8.162 21.1219C7.66023 20.3966 7.66044 20.3965 7.66065 20.3963L7.66214 20.3953L7.66461 20.3936L7.6712 20.3891L7.69089 20.3759C7.70688 20.3653 7.72856 20.3511 7.75566 20.3338C7.80983 20.2994 7.88588 20.2527 7.98157 20.1978C8.1725 20.0882 8.44424 19.9448 8.77866 19.8018C9.44073 19.5188 10.3853 19.2217 11.4535 19.2217C12.5202 19.2217 13.4765 19.5181 14.1485 19.7991C14.4883 19.9412 14.7657 20.0837 14.9607 20.1923C15.0584 20.2467 15.1361 20.293 15.1914 20.3269C15.219 20.3439 15.2411 20.3579 15.2573 20.3683L15.2772 20.3812L15.2837 20.3855L15.2862 20.3871L15.2872 20.3878C15.2874 20.3879 15.288 20.3884 14.7984 21.1219C14.3087 21.8554 14.3089 21.8555 14.3091 21.8556L14.31 21.8562L14.3043 21.8526C14.2973 21.848 14.2848 21.8401 14.2672 21.8293C14.2319 21.8076 14.1762 21.7743 14.1025 21.7333C13.9547 21.6509 13.737 21.5388 13.468 21.4264C12.9225 21.1983 12.2063 20.9855 11.4535 20.9855C10.702 20.9855 10.0008 21.1976 9.47207 21.4237C9.21107 21.5352 9.00113 21.6464 8.85923 21.7278C8.78851 21.7683 8.73536 21.8011 8.70192 21.8224C8.68523 21.833 8.67351 21.8407 8.66705 21.845L8.66135 21.8488C8.66107 21.849 8.66094 21.8491 8.66135 21.8488L8.66239 21.8481L8.66337 21.8474ZM14.3108 21.8567L14.31 21.8562L14.3108 21.8567Z" fill="white"/>
<path d="M13.1321 23.3286L11.3584 25.1023L9.63843 23.3286C9.63843 23.3286 10.0775 22.5759 11.3584 22.5759C12.6392 22.576 13.1321 23.3286 13.1321 23.3286Z" fill="white"/>
</svg>
