<svg width="280" height="280" viewBox="0 0 280 280" fill="none" xmlns="http://www.w3.org/2000/svg">
<path d="M226.019 106.097C226.019 106.097 197.09 130.481 227.891 184.955C255.246 233.333 189.878 252.421 162.148 246.207C126.227 238.157 106.885 191.333 78.8021 205.336C50.7192 219.339 25.3614 152.166 66.3053 128.674C117.238 99.4508 85.6813 80.9774 90.851 58.7663C94.561 42.8253 141.186 19.1755 165.063 48.0315C185.154 72.3132 195.619 64.0566 205.229 61.1146C219.088 56.8712 248.313 81.4117 226.019 106.097Z" fill="#FFA4A4"/>
<path d="M196.757 70.3357L134.336 60.1072C129.758 59.3571 125.439 62.4602 124.689 67.0383L103.098 198.796C102.348 203.374 105.451 207.694 110.029 208.444L172.45 218.672C177.028 219.422 181.347 216.319 182.097 211.741L203.688 79.9834C204.438 75.4053 201.335 71.0858 196.757 70.3357Z" fill="#BD0B0B"/>
<path d="M194.704 74.0491L135.097 64.2815C132.045 63.7814 129.165 65.8502 128.665 68.9023L107.461 198.298C106.961 201.351 109.03 204.23 112.082 204.73L171.69 214.498C174.742 214.998 177.621 212.929 178.122 209.877L199.325 80.4809C199.825 77.4288 197.756 74.5492 194.704 74.0491Z" fill="#F03E3E"/>
<path d="M76.9552 170.342C76.7113 171.189 76.7241 172.09 76.992 172.93C77.26 173.77 77.771 174.512 78.4604 175.062C79.1499 175.611 79.9868 175.944 80.8654 176.018C81.744 176.092 82.6249 175.904 83.3965 175.477C84.1681 175.05 84.7959 174.405 85.2005 173.621C85.6051 172.838 85.7683 171.952 85.6694 171.076C85.5706 170.2 85.2142 169.372 84.6452 168.699C84.0763 168.025 83.3203 167.535 82.473 167.291C81.3368 166.964 80.1172 167.102 79.0825 167.674C78.0477 168.246 77.2826 169.206 76.9552 170.342Z" fill="#F03E3E"/>
<path d="M86.9298 161.043C86.9187 161.227 86.8863 161.41 86.8332 161.587C86.7383 161.917 86.5791 162.225 86.3648 162.493C86.1504 162.761 85.8851 162.984 85.5841 163.149C85.285 163.316 84.9556 163.421 84.6152 163.459C84.2749 163.497 83.9304 163.467 83.602 163.37C82.5247 163.059 81.3967 162.964 80.2826 163.09C79.1685 163.215 78.0901 163.56 77.1092 164.102C76.1282 164.645 75.264 165.376 74.5658 166.254C73.8677 167.131 73.3494 168.137 73.0407 169.215C72.9456 169.545 72.7866 169.852 72.5727 170.12C72.3589 170.387 72.0944 170.61 71.7943 170.776C71.1884 171.11 70.4744 171.19 69.8094 170.998C69.1445 170.806 68.583 170.358 68.2486 169.752C67.9142 169.146 67.8343 168.432 68.0263 167.767C68.5207 166.03 69.3554 164.408 70.482 162.996C71.6085 161.584 73.0044 160.41 74.5885 159.542C75.7759 158.883 77.053 158.401 78.3796 158.11L86.9298 161.043Z" fill="#F03E3E"/>
<path d="M67.1196 154.259L73.3406 156.392C73.2074 156.45 73.0777 156.517 72.9523 156.59C70.9801 157.672 69.2422 159.135 67.8395 160.894C66.4367 162.652 65.3969 164.672 64.7803 166.835C64.6874 167.166 64.53 167.475 64.3171 167.745C64.1042 168.015 63.8401 168.24 63.5399 168.407C63.2397 168.575 62.9094 168.681 62.5679 168.72C62.2265 168.759 61.8806 168.731 61.5503 168.636C61.22 168.541 60.9118 168.381 60.6433 168.167C60.3748 167.952 60.1514 167.687 59.986 167.385C59.8205 167.084 59.7163 166.753 59.6792 166.411C59.6422 166.07 59.6731 165.724 59.7702 165.394C61.0139 161.014 63.5808 157.125 67.1196 154.259Z" fill="#F03E3E"/>
<path d="M89.2057 153.331C89.0129 153.995 88.5655 154.556 87.961 154.891C87.3565 155.227 86.6439 155.309 85.9785 155.122C84.7718 154.771 83.5302 154.554 82.2761 154.475L72.3379 151.077C77.0956 148.992 82.4352 148.646 87.4222 150.1C88.0865 150.293 88.6473 150.741 88.9816 151.347C89.3159 151.953 89.3965 152.666 89.2057 153.331Z" fill="#F03E3E"/>
<path d="M57.9715 151.133L63.4223 152.993C60.1395 156.13 57.753 160.085 56.509 164.452C56.4141 164.782 56.255 165.09 56.0406 165.358C55.8263 165.626 55.561 165.849 55.26 166.014C54.9621 166.182 54.6337 166.289 54.294 166.328C53.9543 166.367 53.6102 166.338 53.282 166.242C52.9524 166.148 52.6446 165.99 52.3762 165.777C52.1078 165.564 51.8841 165.3 51.7179 165C51.5516 164.701 51.4461 164.371 51.4073 164.031C51.3686 163.69 51.3974 163.345 51.4921 163.016C52.743 158.623 54.9564 154.564 57.9715 151.133Z" fill="#F03E3E"/>
<path d="M91.588 145.06C91.3949 145.724 90.9464 146.284 90.3407 146.619C89.735 146.953 89.0216 147.033 88.3567 146.843C85.1099 145.899 81.7083 145.609 78.3486 145.989C74.9889 146.368 71.7379 147.41 68.7836 149.055C68.4855 149.222 68.1956 149.385 67.917 149.57L61.8047 147.474C65.6779 144.358 70.2432 142.219 75.1161 141.236C79.989 140.254 85.0267 140.457 89.8047 141.828C90.469 142.021 91.0297 142.47 91.364 143.075C91.6983 143.681 91.7788 144.395 91.588 145.06Z" fill="#F03E3E"/>
<path d="M51.9814 151.492L51.9814 151.492C51.5613 152.719 52.2158 154.055 53.4433 154.475L87.1514 166.011C88.3789 166.431 89.7146 165.777 90.1347 164.549L90.1348 164.549C90.5549 163.322 89.9003 161.986 88.6728 161.566L54.9647 150.03C53.7372 149.61 52.4015 150.264 51.9814 151.492Z" fill="#F03E3E"/>
<path d="M230.227 60.0537C225.693 58.1592 222.487 59.9766 221.73 61.7904C221.182 63.1005 222.038 64.1682 222.945 64.5471C224.758 65.3048 225.1 62.4096 228.526 63.841C230.206 64.5425 231.24 65.843 230.594 67.3882C229.836 69.2021 227.521 69.4576 226.019 69.935C224.694 70.3679 222.843 71.212 221.636 74.1007C220.906 75.8474 221.166 76.5477 222.543 77.1231C224.188 77.8106 224.833 77.212 225.1 76.5737C225.829 74.8269 226.284 73.8332 228.735 73.1606C229.936 72.8342 233.746 71.7426 235.065 68.5852C236.384 65.4277 234.526 61.8499 230.227 60.0537Z" fill="#F03E3E"/>
<path d="M221.608 79.4549C220.924 79.1782 220.159 79.1824 219.478 79.4666C218.797 79.7508 218.255 80.2921 217.971 80.973C217.686 81.6539 217.682 82.4196 217.958 83.1038C218.234 83.788 218.77 84.3357 219.447 84.6279C220.132 84.9098 220.901 84.909 221.586 84.6257C222.27 84.3425 222.815 83.7998 223.1 83.1162C223.386 82.4327 223.389 81.6639 223.11 80.9778C222.83 80.2918 222.29 79.7442 221.608 79.4549Z" fill="#F03E3E"/>
<path d="M144.944 120.276C145.353 117.757 144.626 115.543 143.319 115.331C142.013 115.119 140.623 116.989 140.214 119.508C139.804 122.027 140.531 124.241 141.838 124.453C143.144 124.665 144.534 122.795 144.944 120.276Z" fill="white"/>
<path d="M172.179 124.747C172.593 122.203 171.869 119.969 170.563 119.756C169.257 119.544 167.863 121.434 167.449 123.978C167.036 126.522 167.76 128.757 169.066 128.969C170.372 129.181 171.766 127.291 172.179 124.747Z" fill="white"/>
<path d="M161.061 146.677C160.966 146.677 160.872 146.657 160.785 146.62C160.698 146.583 160.619 146.528 160.554 146.459L159.569 145.422C157.988 143.763 155.907 142.669 153.644 142.308C151.381 141.948 149.063 142.34 147.045 143.426L145.787 144.106C145.706 144.149 145.617 144.177 145.526 144.186C145.434 144.196 145.342 144.187 145.254 144.161C145.166 144.134 145.083 144.091 145.012 144.033C144.941 143.975 144.882 143.903 144.838 143.822C144.794 143.742 144.767 143.653 144.758 143.561C144.748 143.47 144.757 143.377 144.783 143.289C144.81 143.201 144.853 143.119 144.911 143.048C144.969 142.977 145.04 142.917 145.121 142.874L146.38 142.194C148.668 140.963 151.298 140.517 153.864 140.926C156.43 141.335 158.791 142.576 160.584 144.457L161.569 145.494C161.663 145.594 161.726 145.718 161.75 145.853C161.774 145.988 161.758 146.127 161.704 146.253C161.65 146.378 161.561 146.486 161.446 146.561C161.332 146.636 161.198 146.676 161.061 146.676V146.677Z" fill="white"/>
</svg>
