<svg width="25" height="25" viewBox="0 0 25 25" fill="none" xmlns="http://www.w3.org/2000/svg">
<path d="M4.16089 7.96069V6.96069C4.16089 6.43026 4.3716 5.92155 4.74668 5.54648C5.12175 5.17141 5.63046 4.96069 6.16089 4.96069H8.16089" stroke="currentColor" stroke-linecap="round" stroke-linejoin="round"/>
<path d="M4.16089 17.9607V18.9607C4.16089 19.4911 4.3716 19.9998 4.74668 20.3749C5.12175 20.75 5.63046 20.9607 6.16089 20.9607H8.16089" stroke="currentColor" stroke-linecap="round" stroke-linejoin="round"/>
<path d="M16.1609 4.96069H18.1609C18.6913 4.96069 19.2 5.17141 19.5751 5.54648C19.9502 5.92155 20.1609 6.43026 20.1609 6.96069V7.96069" stroke="currentColor" stroke-linecap="round" stroke-linejoin="round"/>
<path d="M16.1609 20.9607H18.1609C18.6913 20.9607 19.2 20.75 19.5751 20.3749C19.9502 19.9998 20.1609 19.4911 20.1609 18.9607V17.9607" stroke="currentColor" stroke-linecap="round" stroke-linejoin="round"/>
<path d="M6.16089 11.9607H5.16089V13.9607H6.16089V11.9607Z" stroke="currentColor" stroke-linecap="round" stroke-linejoin="round"/>
<path d="M10.1609 11.9607V13.9607" stroke="currentColor" stroke-linecap="round" stroke-linejoin="round"/>
<path d="M15.1609 11.9607H14.1609V13.9607H15.1609V11.9607Z" stroke="currentColor" stroke-linecap="round" stroke-linejoin="round"/>
<path d="M19.1609 11.9607V13.9607" stroke="currentColor" stroke-linecap="round" stroke-linejoin="round"/>
</svg>
