<svg width="16" height="17" viewBox="0 0 16 17" fill="none" xmlns="http://www.w3.org/2000/svg">
    <path d="M10.1252 1.88745L7.4585 5.88745H12.7918L10.1252 9.88745" stroke="currentColor" stroke-width="2" stroke-linecap="round" stroke-linejoin="round"/>
    <path d="M6.06757 14.3547C5.38384 14.3547 4.83008 14.9214 4.83008 15.6211C4.83008 16.3208 5.38384 16.8875 6.06757 16.8875C6.75129 16.8875 7.30505 16.3208 7.30505 15.6211C7.30505 14.9214 6.75129 14.3547 6.06757 14.3547Z" fill="currentColor"/>
    <path d="M13.8146 14.3547C13.1309 14.3547 12.5771 14.9214 12.5771 15.6211C12.5771 16.3208 13.1309 16.8875 13.8146 16.8875C14.4984 16.8875 15.0521 16.3208 15.0521 15.6211C15.0521 14.9214 14.4984 14.3547 13.8146 14.3547Z" fill="currentColor"/>
    <path d="M5.13345 11.9703L3.37045 1.35156L0.55644 1.11255L0.458496 2.31533L2.36087 2.47724L4.13706 13.1789H15.5419V11.9703H5.13345Z" fill="currentColor"/>
    </svg>
    