<svg viewBox="0 0 24 24" fill="none" xmlns="http://www.w3.org/2000/svg">
<mask id="path-1-outside-1_1377_50077" maskUnits="userSpaceOnUse" x="0" y="4" width="23" height="16" fill="currentColor">
<rect fill="white" y="4" width="23" height="16"/>
<path d="M2 14.5598V6.51222L4.15711 7.04873L3.41628 14.5598H2Z"/>
<path d="M21 14.5374V6.48987L18.6468 7.02637L19.455 14.5374H21Z"/>
</mask>
<path d="M3.7337 6.42968C3.39181 6.66352 3.30422 7.13024 3.53806 7.47214C3.7719 7.81403 4.23863 7.90162 4.58052 7.66778L3.7337 6.42968ZM8.61225 6.55407C8.9687 6.76505 9.4287 6.64712 9.63968 6.29067C9.85067 5.93422 9.73274 5.47422 9.37628 5.26324L8.61225 6.55407ZM18.592 7.79481C19.0041 7.83708 19.3724 7.53732 19.4147 7.12527C19.4569 6.71322 19.1572 6.34492 18.7451 6.30264L18.592 7.79481ZM15.0516 6.04278L15.3338 5.34789L15.0516 6.04278ZM9.29931 5.70746L8.89447 5.07611V5.07611L9.29931 5.70746ZM7.75229 9.75361L8.20457 9.15532L7.75229 9.75361ZM12.9314 8.75905C13.3452 8.73865 13.664 8.38673 13.6436 7.97302C13.6232 7.55931 13.2713 7.24047 12.8575 7.26088L12.9314 8.75905ZM11.7925 7.95096C11.5007 7.65703 11.0258 7.65535 10.7319 7.9472C10.4379 8.23905 10.4363 8.71392 10.7281 9.00785L11.7925 7.95096ZM17.4048 16.3482L16.9145 15.7806H16.9145L17.4048 16.3482ZM15.4002 16.0575L14.8845 16.6021V16.6021L15.4002 16.0575ZM12.3975 11.7685C12.1152 11.4654 11.6406 11.4485 11.3375 11.7308C11.0344 12.0131 11.0175 12.4877 11.2998 12.7908L12.3975 11.7685ZM17.5467 15.074L16.8886 15.4337L17.5467 15.074ZM19.6444 15.2341C20.0415 15.1164 20.268 14.699 20.1502 14.3019C20.0325 13.9047 19.6151 13.6783 19.218 13.796L19.6444 15.2341ZM13.3956 17.1753L12.8818 17.7216V17.7216L13.3956 17.1753ZM15.6877 15.3022C15.3817 15.0231 14.9073 15.0449 14.6282 15.351C14.3491 15.657 14.3709 16.1314 14.677 16.4105L15.6877 15.3022ZM11.195 18.0918L10.7376 18.6862L10.7376 18.6862L11.195 18.0918ZM10.7278 13.4084C10.4376 13.1128 9.96272 13.1085 9.66717 13.3988C9.37163 13.689 9.36731 14.1638 9.65753 14.4594L10.7278 13.4084ZM3.8805 13.9931C3.55517 13.7367 3.08359 13.7926 2.82721 14.1179C2.57083 14.4433 2.62673 14.9148 2.95207 15.1712L3.8805 13.9931ZM8.44954 18.4942L8.02613 19.1132L8.44954 18.4942ZM9.20451 15.0199C8.91539 14.7233 8.44056 14.7172 8.14394 15.0063C7.84732 15.2954 7.84123 15.7703 8.13035 16.0669L9.20451 15.0199ZM10.6674 17.5776L11.1983 17.0479L11.1983 17.0479L10.6674 17.5776ZM9.37628 5.26324C8.46286 4.72258 6.37598 4.62245 3.7337 6.42968L4.58052 7.66778C6.95843 6.04137 8.39265 6.42409 8.61225 6.55407L9.37628 5.26324ZM18.7451 6.30264C18.3115 6.25815 16.9454 6.00236 15.3338 5.34789L14.7694 6.73766C16.5046 7.44234 18.0089 7.73498 18.592 7.79481L18.7451 6.30264ZM15.3338 5.34789C14.342 4.94512 13.3175 4.47553 12.2931 4.31287C11.1993 4.13921 10.0977 4.30455 8.89447 5.07611L9.70414 6.33882C10.5926 5.76911 11.3214 5.67738 12.0578 5.79432C12.8637 5.92227 13.6694 6.29097 14.7694 6.73766L15.3338 5.34789ZM8.89447 5.07611C7.78473 5.78769 6.92251 6.65469 6.54939 7.57658C6.35816 8.04905 6.28633 8.56196 6.41343 9.06966C6.54184 9.58257 6.85469 10.0152 7.30002 10.3519L8.20457 9.15532C7.98751 8.99123 7.90108 8.83543 7.86852 8.70537C7.83466 8.57011 7.84017 8.38555 7.93982 8.13934C8.14847 7.62383 8.72214 6.96849 9.70414 6.33882L8.89447 5.07611ZM7.30002 10.3519C7.85069 10.7682 8.45316 10.7544 8.96527 10.5953C9.43547 10.4491 9.91001 10.1571 10.3218 9.89863C11.2283 9.32954 12.0349 8.80327 12.9314 8.75905L12.8575 7.26088C11.488 7.32843 10.3227 8.12696 9.52425 8.62822C9.08354 8.90489 8.77231 9.08447 8.52007 9.16287C8.30975 9.22824 8.25309 9.192 8.20457 9.15532L7.30002 10.3519ZM10.7281 9.00785C12.3082 10.5992 15.872 14.2629 16.2576 14.6586L17.3318 13.6116C16.9505 13.2204 13.3791 9.54881 11.7925 7.95096L10.7281 9.00785ZM16.9145 15.7806C16.8122 15.869 16.7355 15.8918 16.6831 15.8988C16.6233 15.9068 16.5469 15.8996 16.4491 15.8649C16.2363 15.7894 16.0341 15.6249 15.9159 15.513L14.8845 16.6021C15.0496 16.7584 15.4357 17.0969 15.9474 17.2785C16.5029 17.4756 17.2325 17.4882 17.8951 16.9157L16.9145 15.7806ZM15.9159 15.513C15.916 15.513 15.9157 15.5127 15.915 15.5121C15.9143 15.5114 15.9134 15.5105 15.9122 15.5093C15.9097 15.5069 15.9064 15.5037 15.9023 15.4996C15.8939 15.4913 15.8832 15.4805 15.8699 15.467C15.8434 15.4399 15.8092 15.4047 15.7677 15.3615C15.6847 15.2753 15.5761 15.1613 15.4474 15.0254C15.1902 14.754 14.8565 14.3992 14.4951 14.0138C13.7725 13.2432 12.9418 12.3531 12.3975 11.7685L11.2998 12.7908C12.3724 13.9426 14.6353 16.366 14.8845 16.6021L15.9159 15.513ZM16.2576 14.6586C16.4888 14.8957 16.7427 15.1668 16.8886 15.4337L18.2048 14.7142C17.9459 14.2407 17.5465 13.8319 17.3318 13.6116L16.2576 14.6586ZM16.8886 15.4337C16.9708 15.5841 16.981 15.6675 16.9798 15.6956C16.9794 15.7042 16.9783 15.707 16.9762 15.7112C16.9735 15.7165 16.9602 15.7412 16.9145 15.7806L17.8951 16.9157C18.2608 16.5998 18.4598 16.1989 18.4784 15.7589C18.4956 15.352 18.3553 14.9896 18.2048 14.7142L16.8886 15.4337ZM19.218 13.796L17.3334 14.3549L17.7599 15.793L19.6444 15.2341L19.218 13.796ZM12.8818 17.7216C13.1175 17.9433 13.5079 18.1625 13.9616 18.2278C14.452 18.2983 15.0296 18.1867 15.5133 17.7088L14.4591 16.6417C14.397 16.7032 14.3471 16.7259 14.3126 16.7361C14.275 16.7473 14.23 16.751 14.1751 16.7431C14.1185 16.7349 14.0586 16.7153 14.0036 16.6881C13.9768 16.6749 13.9541 16.6614 13.9366 16.6495C13.928 16.6436 13.9213 16.6386 13.9164 16.6347C13.9115 16.6308 13.9093 16.6288 13.9095 16.6289L12.8818 17.7216ZM15.5133 17.7088C16.3864 16.8463 16.2224 15.7898 15.6877 15.3022L14.677 16.4105C14.6539 16.3894 14.6413 16.3727 14.6357 16.3645C14.6296 16.3557 14.6273 16.3504 14.6268 16.3492C14.6258 16.3468 14.6284 16.3521 14.6284 16.3649C14.6284 16.3757 14.6266 16.4013 14.6081 16.4427C14.5892 16.485 14.5483 16.5537 14.4591 16.6417L15.5133 17.7088ZM10.7376 18.6862C10.8672 18.786 11.0277 18.8593 11.1645 18.9093C11.3151 18.9644 11.4964 19.0128 11.6934 19.0373C12.0681 19.0839 12.6282 19.0564 13.0847 18.655L12.0942 17.5286C12.0931 17.5295 12.0431 17.5692 11.8785 17.5487C11.8059 17.5397 11.7353 17.521 11.6796 17.5006C11.6523 17.4906 11.6335 17.482 11.6239 17.4772C11.6103 17.4703 11.6239 17.4756 11.6523 17.4974L10.7376 18.6862ZM9.65753 14.4594C10.4472 15.2635 11.9101 16.7506 12.5593 17.4022L13.6219 16.3434C12.9773 15.6965 11.5184 14.2135 10.7278 13.4084L9.65753 14.4594ZM12.5593 17.4022C12.7111 17.5545 12.8301 17.673 12.8818 17.7216L13.9095 16.6289C13.8799 16.6011 13.7817 16.5039 13.6219 16.3434L12.5593 17.4022ZM13.0847 18.655C13.5844 18.2156 14.1607 17.4792 13.7815 16.5811L12.3997 17.1645C12.4031 17.1727 12.4002 17.1684 12.4005 17.1584C12.4008 17.1502 12.4027 17.1566 12.3913 17.1824C12.3636 17.2449 12.2838 17.3619 12.0942 17.5286L13.0847 18.655ZM2.95207 15.1712C4.4365 16.341 7.58021 18.8082 8.02613 19.1132L8.87295 17.8751C8.48218 17.6079 5.40295 15.1929 3.8805 13.9931L2.95207 15.1712ZM8.02613 19.1132C8.28399 19.2896 8.64694 19.5315 9.06025 19.6583C9.51034 19.7964 10.0347 19.8031 10.5621 19.5045L9.82321 18.1992C9.7187 18.2583 9.63301 18.265 9.50024 18.2243C9.3307 18.1722 9.13803 18.0564 8.87295 17.8751L8.02613 19.1132ZM8.13035 16.0669C8.65821 16.6084 9.55908 17.5287 10.1364 18.1073L11.1983 17.0479C10.6276 16.4759 9.73189 15.561 9.20451 15.0199L8.13035 16.0669ZM10.1364 18.1073C10.2769 18.2482 10.4 18.3706 10.4948 18.4631C10.5694 18.536 10.6706 18.6347 10.7376 18.6862L11.6523 17.4974C11.6751 17.5149 11.6805 17.5217 11.646 17.4894C11.6214 17.4662 11.587 17.4331 11.5428 17.39C11.455 17.3042 11.3372 17.1872 11.1983 17.0479L10.1364 18.1073ZM10.5621 19.5045C11.0918 19.2047 11.358 18.7301 11.4559 18.3092C11.5041 18.1018 11.5157 17.8923 11.4921 17.7009C11.4732 17.5473 11.4153 17.266 11.1989 17.0486L10.1358 18.1067C10.0552 18.0258 10.0243 17.9499 10.0156 17.9267C10.0044 17.8968 10.003 17.881 10.0034 17.8841C10.0041 17.8903 10.0058 17.9226 9.99488 17.9694C9.97447 18.0571 9.92537 18.1413 9.82321 18.1992L10.5621 19.5045ZM2 6.51222L2.36204 5.05657C1.9141 4.94516 1.43982 5.04619 1.07617 5.33047C0.712515 5.61476 0.5 6.05064 0.5 6.51222H2ZM2 14.5598H0.5C0.5 15.3882 1.17157 16.0598 2 16.0598L2 14.5598ZM3.41628 14.5598V16.0598C4.18769 16.0598 4.83332 15.4747 4.90904 14.707L3.41628 14.5598ZM4.15711 7.04873L5.64987 7.19596C5.72294 6.4551 5.24159 5.77275 4.51915 5.59307L4.15711 7.04873ZM21 6.48987H22.5C22.5 6.03344 22.2922 5.60185 21.9354 5.31723C21.5786 5.03261 21.1116 4.92594 20.6666 5.02739L21 6.48987ZM21 14.5374V16.0374C21.8284 16.0374 22.5 15.3659 22.5 14.5374H21ZM19.455 14.5374L17.9636 14.6979C18.0455 15.4598 18.6886 16.0374 19.455 16.0374V14.5374ZM18.6468 7.02637L18.3134 5.5639C17.5717 5.73299 17.074 6.4305 17.1554 7.18684L18.6468 7.02637ZM0.5 6.51222V14.5598H3.5V6.51222H0.5ZM2 16.0598H3.41628V13.0598H2V16.0598ZM4.90904 14.707L5.64987 7.19596L2.66435 6.90149L1.92353 14.4126L4.90904 14.707ZM4.51915 5.59307L2.36204 5.05657L1.63796 7.96787L3.79507 8.50438L4.51915 5.59307ZM19.5 6.48987V14.5374H22.5V6.48987H19.5ZM21 13.0374H19.455V16.0374H21V13.0374ZM20.9464 14.377L20.1382 6.8659L17.1554 7.18684L17.9636 14.6979L20.9464 14.377ZM18.9802 8.48884L21.3334 7.95234L20.6666 5.02739L18.3134 5.5639L18.9802 8.48884Z" fill="currentColor" mask="url(#path-1-outside-1_1377_50077)"/>
</svg>
