<svg width="32" height="20" viewBox="0 0 32 20" fill="none" xmlns="http://www.w3.org/2000/svg">
<path d="M31.7397 10.4607C31.7397 15.6735 27.5013 19.9607 22.2397 19.9607C17.0269 19.9607 12.7397 15.6735 12.7397 10.4607C12.7397 5.24787 16.9782 0.960693 22.191 0.960693C27.5013 0.960693 31.7397 5.24787 31.7397 10.4607Z" fill="#F9B50B"/>
<path d="M19.024 10.5094C19.024 9.82736 18.9266 9.14531 18.8292 8.51198H12.983C13.0317 8.17095 13.1292 7.87864 13.2266 7.4889H18.4394C18.342 7.14787 18.1958 6.80685 18.0497 6.46582H13.6163C13.7625 6.1248 13.9574 5.83249 14.1522 5.44274H17.5138C17.3189 5.10172 17.0753 4.76069 16.783 4.41967H14.9317C15.224 4.07864 15.5163 3.78633 15.9061 3.44531C14.2497 1.88633 12.0087 0.960693 9.52404 0.960693C4.35993 1.10685 0.0727539 5.24787 0.0727539 10.4607C0.0727539 15.6735 4.31122 19.9607 9.57275 19.9607C12.0574 19.9607 14.2497 18.9863 15.9548 17.4761C16.2958 17.1838 16.5881 16.8427 16.9292 16.453H14.9804C14.7369 16.1607 14.4933 15.8197 14.2984 15.4786H17.6112C17.8061 15.1863 18.001 14.8453 18.1471 14.4556H13.7138C13.5676 14.1633 13.4215 13.8222 13.324 13.4325H18.5369C18.8292 12.5556 19.024 11.5812 19.024 10.5094Z" fill="#C8191C"/>
<path d="M12.9344 12.8966L13.0806 12.0197C13.0319 12.0197 12.9344 12.0684 12.837 12.0684C12.496 12.0684 12.4473 11.8735 12.496 11.7761L12.7883 10.0222H13.3242L13.4703 9.04787H12.9832L13.0806 8.46326H12.0575C12.0575 8.46326 11.4729 11.7761 11.4729 12.1658C11.4729 12.7504 11.8139 13.0427 12.3011 13.0427C12.5934 13.0427 12.837 12.9453 12.9344 12.8966Z" fill="white"/>
<path d="M13.2751 11.2888C13.2751 12.7017 14.2495 13.0427 15.029 13.0427C15.7598 13.0427 16.1008 12.8965 16.1008 12.8965L16.2957 11.9222C16.2957 11.9222 15.7598 12.1658 15.2239 12.1658C14.1034 12.1658 14.2982 11.3376 14.2982 11.3376H16.3444C16.3444 11.3376 16.4905 10.7042 16.4905 10.4119C16.4905 9.77859 16.1495 8.95038 15.029 8.95038C14.0546 8.90167 13.2751 10.0222 13.2751 11.2888ZM15.029 9.82731C15.5649 9.82731 15.4675 10.4606 15.4675 10.5094H14.3469C14.3957 10.4606 14.4931 9.82731 15.029 9.82731Z" fill="white"/>
<path d="M21.4117 12.8967L21.6066 11.7762C21.6066 11.7762 21.1194 12.0198 20.7296 12.0198C20.0476 12.0198 19.7066 11.4839 19.7066 10.8506C19.7066 9.63261 20.2912 8.99927 21.0219 8.99927C21.5091 8.99927 21.9476 9.29158 21.9476 9.29158L22.0937 8.21979C22.0937 8.21979 21.5091 7.9762 20.9245 7.9762C19.7553 7.9762 18.6348 8.99927 18.6348 10.8993C18.6348 12.1659 19.2194 12.9941 20.4373 12.9941C20.8758 13.0429 21.4117 12.8967 21.4117 12.8967Z" fill="white"/>
<path d="M7.42905 8.90173C6.747 8.90173 6.2111 9.09661 6.2111 9.09661L6.06495 9.97353C6.06495 9.97353 6.50341 9.77866 7.18546 9.77866C7.52649 9.77866 7.8188 9.82737 7.8188 10.1197C7.8188 10.3146 7.77008 10.3633 7.77008 10.3633H7.33162C6.45469 10.3633 5.52905 10.7043 5.52905 11.8735C5.52905 12.7992 6.11367 12.994 6.50341 12.994C7.18546 12.994 7.52649 12.5556 7.57521 12.5556L7.52649 12.9453H8.35469L8.74444 10.1684C8.74444 8.95045 7.77008 8.90173 7.42905 8.90173ZM7.62392 11.1428C7.62392 11.2889 7.52649 12.1171 6.94187 12.1171C6.64957 12.1171 6.55213 11.8735 6.55213 11.7274C6.55213 11.4838 6.69828 11.1428 7.47777 11.1428C7.57521 11.1428 7.62392 11.1428 7.62392 11.1428Z" fill="white"/>
<path d="M9.71893 12.9941C9.96251 12.9941 11.2292 13.0428 11.2292 11.6787C11.2292 10.412 10.0112 10.6556 10.0112 10.1684C10.0112 9.92482 10.2061 9.82739 10.5471 9.82739C10.6933 9.82739 11.2292 9.8761 11.2292 9.8761L11.3753 8.95046C11.3753 8.95046 11.0343 8.85303 10.401 8.85303C9.67021 8.85303 8.89072 9.14533 8.89072 10.1684C8.89072 11.3376 10.1574 11.2402 10.1574 11.6787C10.1574 11.971 9.81636 12.0197 9.57277 12.0197C9.13431 12.0197 8.64713 11.8735 8.64713 11.8735L8.50098 12.7992C8.59841 12.8966 8.89072 12.9941 9.71893 12.9941Z" fill="white"/>
<path d="M29.7909 8.12231L29.596 9.48642C29.596 9.48642 29.2062 8.99924 28.6216 8.99924C27.696 8.99924 26.9165 10.1198 26.9165 11.4351C26.9165 12.2633 27.3062 13.0915 28.1832 13.0915C28.7678 13.0915 29.1575 12.7018 29.1575 12.7018L29.1088 13.0428H30.1319L30.8627 8.21975L29.7909 8.12231ZM29.3037 10.7531C29.3037 11.289 29.0601 12.0198 28.4755 12.0198C28.1345 12.0198 27.9396 11.7274 27.9396 11.1915C27.9396 10.3633 28.2806 9.87616 28.7678 9.87616C29.1088 9.92488 29.3037 10.1685 29.3037 10.7531Z" fill="white"/>
<path d="M1.92407 12.9454L2.50868 9.34026L2.60612 12.9454H3.28817L4.60355 9.34026L4.06766 12.9454H5.13945L5.96766 8.12231H4.31125L3.28817 11.0941L3.23945 8.12231H1.77791L0.949707 12.9454H1.92407Z" fill="white"/>
<path d="M17.5136 12.9453C17.8059 11.2889 17.8546 9.92479 18.5854 10.1684C18.6828 9.53504 18.829 9.24274 18.9264 8.99915H18.7315C18.2931 8.99915 17.9033 9.58376 17.9033 9.58376L18.0008 9.04786H17.0264L16.3931 12.9453H17.5136Z" fill="white"/>
<path d="M23.7499 8.90173C23.0678 8.90173 22.5319 9.09661 22.5319 9.09661L22.3858 9.97353C22.3858 9.97353 22.8242 9.77866 23.5063 9.77866C23.8473 9.77866 24.1396 9.82737 24.1396 10.1197C24.1396 10.3146 24.0909 10.3633 24.0909 10.3633H23.6524C22.7755 10.3633 21.8499 10.7043 21.8499 11.8735C21.8499 12.7992 22.4345 12.994 22.8242 12.994C23.5063 12.994 23.8473 12.5556 23.896 12.5556L23.8473 12.9453H24.7729L25.1627 10.1684C25.1627 8.95045 24.0909 8.90173 23.7499 8.90173ZM23.9934 11.1428C23.9934 11.2889 23.896 12.1171 23.3114 12.1171C23.0191 12.1171 22.9216 11.8735 22.9216 11.7274C22.9216 11.4838 23.0678 11.1428 23.8473 11.1428C23.9447 11.1428 23.9447 11.1428 23.9934 11.1428Z" fill="white"/>
<path d="M25.9418 12.9453C26.2341 11.2889 26.2828 9.92479 27.0136 10.1684C27.111 9.53504 27.2572 9.24274 27.3546 8.99915H27.1598C26.7213 8.99915 26.3315 9.58376 26.3315 9.58376L26.429 9.04786H25.4546L24.8213 12.9453H25.9418Z" fill="white"/>
</svg>
