<svg width="122" height="104" viewBox="0 0 122 104" fill="none" xmlns="http://www.w3.org/2000/svg">
<path d="M82.3285 5.03378C82.3285 5.03378 65.8565 25.8984 39.5011 13.4528C13.1458 1.00721 -13.2096 34.6836 9.48529 55.1821C32.1802 75.6807 9.97154 86.9446 25.3896 99.5075C42.9131 113.786 58.1695 84.8319 72.0792 91.4208C102.779 105.963 125.522 100.206 120.397 83.3677C111.402 53.8106 99.8988 51.8877 108.684 36.5138C117.469 21.1398 98.0801 -10.8265 82.3285 5.03378Z" fill="#E0E8F0"/>
<path d="M73.3606 62.7399L72.0593 69.7265L65.8609 102.938L54.6956 100.853L61.8547 62.488L62.1951 60.6598L73.3606 62.7399Z" fill="#3E9DFF"/>
<path d="M100.858 46.0318L97.0084 66.6724C96.9971 66.7329 96.974 66.7906 96.9404 66.8422C96.9069 66.8938 96.8634 66.9382 96.8127 66.973C96.7619 67.0078 96.7048 67.0323 96.6445 67.045C96.5843 67.0577 96.5222 67.0584 96.4617 67.0471L42.3721 56.9588L48.7384 22.8247L89.812 30.4854C97.2565 31.8736 102.201 38.8326 100.858 46.0318Z" fill="#3E9DFF"/>
<path d="M60.2914 39.105L56.4715 59.5855L28.0796 54.2901L31.8994 33.8097C33.3058 26.2691 40.8019 21.3414 48.642 22.8037C56.482 24.2659 61.6978 31.5643 60.2914 39.105Z" fill="#3E9DFF"/>
<path d="M73.5089 48.6789C71.4166 48.2887 70.0362 46.2553 70.4302 44.1436C70.8242 42.032 72.8446 40.6324 74.9368 41.0229C75.6038 41.1482 76.2257 41.4479 76.7392 41.8915C77.2528 42.3351 77.6396 42.9068 77.8605 43.5485L104.289 48.4777L103.575 52.3058L77.1466 47.3766C76.7093 47.8956 76.1423 48.2895 75.5033 48.5183C74.8644 48.747 74.1762 48.8025 73.5089 48.6789Z" fill="#0B6AF2"/>
<path d="M59.3492 39.4814L55.6275 59.4355L28.8813 54.4471L32.6033 34.4929C33.9735 27.1462 41.0719 22.3069 48.4576 23.6844C55.8433 25.062 60.7195 32.1346 59.3492 39.4814Z" fill="#0B6AF2"/>
<path d="M74.2584 46.7452C75.3337 46.7452 76.2055 45.8734 76.2055 44.7981C76.2055 43.7227 75.3337 42.851 74.2584 42.851C73.183 42.851 72.3113 43.7227 72.3113 44.7981C72.3113 45.8734 73.183 46.7452 74.2584 46.7452Z" fill="white"/>
<path d="M104.595 48.4642L102.26 60.9812C102.25 61.0351 102.219 61.0828 102.174 61.1138C102.129 61.1448 102.073 61.1566 102.019 61.1465L95.8822 60.0019C95.8715 59.9999 95.8621 59.9938 95.856 59.9849C95.8499 59.9759 95.8476 59.965 95.8495 59.9543L98.2146 47.2742C98.2165 47.2636 98.2227 47.2541 98.2316 47.248C98.2405 47.2419 98.2515 47.2396 98.2622 47.2416L104.562 48.4166C104.573 48.4186 104.582 48.4247 104.588 48.4336C104.594 48.4426 104.597 48.4536 104.595 48.4642Z" fill="#3E9DFF"/>
<path d="M37.7324 47.2865C37.9908 49.1876 40.0769 51.4472 40.0769 51.4472C36.8982 51.6725 35.1767 49.8748 34.436 48.7825C33.5201 49.0471 32.5789 49.2142 31.6279 49.2808C25.1021 49.7434 19.4843 45.4829 19.0786 39.7599C18.6729 34.037 23.6336 29.0266 30.1595 28.5641C36.6853 28.1017 42.3027 32.3619 42.7083 38.085C42.9722 41.8075 40.9635 45.2292 37.7324 47.2865Z" fill="white"/>
<path d="M56.499 59.5981C56.2035 60.346 50.7993 82.6295 33.3112 79.3678C14.1344 76.1212 28.0054 54.2837 28.0054 54.2837L56.499 59.5981Z" fill="#3E9DFF"/>
<path d="M30.8933 40.8857C31.7894 40.8857 32.5158 40.1593 32.5158 39.2632C32.5158 38.3671 31.7894 37.6406 30.8933 37.6406C29.9972 37.6406 29.2708 38.3671 29.2708 39.2632C29.2708 40.1593 29.9972 40.8857 30.8933 40.8857Z" fill="#3E9DFF"/>
<path d="M23.6294 40.1782C24.5309 40.1782 25.2617 39.4474 25.2617 38.5459C25.2617 37.6444 24.5309 36.9136 23.6294 36.9136C22.7279 36.9136 21.9971 37.6444 21.9971 38.5459C21.9971 39.4474 22.7279 40.1782 23.6294 40.1782Z" fill="#3E9DFF"/>
<path d="M38.0876 41.5771C38.9892 41.5771 39.72 40.8463 39.72 39.9448C39.72 39.0433 38.9892 38.3125 38.0876 38.3125C37.1861 38.3125 36.4553 39.0433 36.4553 39.9448C36.4553 40.8463 37.1861 41.5771 38.0876 41.5771Z" fill="#3E9DFF"/>
<path d="M73.3606 62.7399L72.0593 69.7265L61.8547 62.488L62.1952 60.6598L73.3606 62.7399Z" fill="#0B6AF2"/>
</svg>
