<svg width="24" height="24" viewBox="0 0 24 24" fill="none" xmlns="http://www.w3.org/2000/svg">
<path d="M5.2959 12.4469L12.4469 5.2959C13.2767 4.46615 14.4021 4 15.5755 4C16.749 4 17.8743 4.46615 18.7041 5.2959C19.5339 6.12565 20 7.25104 20 8.42448C20 9.59793 19.5339 10.7233 18.7041 11.5531L11.5531 18.7041C10.7233 19.5339 9.59793 20 8.42448 20C7.25104 20 6.12565 19.5339 5.2959 18.7041C4.46615 17.8743 4 16.749 4 15.5755C4 14.4021 4.46615 13.2767 5.2959 12.4469" stroke="#474F57" stroke-width="2" stroke-linecap="round" stroke-linejoin="round"/>
<path d="M9 9L15 15" stroke="#474F57" stroke-width="2" stroke-linecap="round" stroke-linejoin="round"/>
</svg>
