<svg viewBox="0 0 50 51" fill="none" xmlns="http://www.w3.org/2000/svg">
<mask id="path-1-inside-1_723_53" fill="white">
<path fill-rule="evenodd" clip-rule="evenodd" d="M2.37269 31.1811C-0.751508 28.0569 -0.751507 22.9916 2.37269 19.8674L7.67018 14.5699H11.0567L11.0993 14.574C11.1655 14.5807 11.2682 14.5924 11.3993 14.6115C11.6632 14.6499 12.0334 14.717 12.4482 14.8297C13.3124 15.0645 14.2089 15.4544 14.8071 16.049L22.1704 23.3674C23.0391 24.2599 24.0742 25.0509 25.3948 25.0124C26.6402 24.976 27.6701 24.1968 28.5305 23.4367L28.5635 23.4075L28.5948 23.3764L27.5374 22.3125L28.5949 23.3764L28.5951 23.3762L28.5958 23.3754L28.5989 23.3724L28.6109 23.3605L28.658 23.3137L28.8383 23.1344L29.4954 22.4813L31.6108 20.3788L35.9672 16.049C37.4017 14.6232 38.7384 14.5699 38.9311 14.5699L40.9242 14.5699L42.0609 14.5699H42.33L47.6275 19.8674C50.7517 22.9916 50.7517 28.0569 47.6275 31.1811L42.2742 36.5345H42.2494H41.036H38.9311C38.7385 36.5345 37.4017 36.4812 35.9673 35.0555L31.6109 30.7256L29.4955 28.6231L28.8384 27.97L28.6581 27.7907L28.611 27.7439L28.599 27.732L28.5959 27.729L28.5952 27.7282L28.595 27.728L27.5375 28.7919L28.5949 27.728L28.5636 27.6969L28.5306 27.6677C27.6702 26.9076 26.6403 26.1284 25.3949 26.092C24.0742 26.0535 23.0392 26.8446 22.1705 27.737L14.8072 35.0554C14.209 35.65 13.3125 36.0399 12.4483 36.2747C12.0335 36.3874 11.6633 36.4545 11.3994 36.4929C11.2683 36.512 11.1656 36.5237 11.0994 36.5304L11.0567 36.5345H7.72604L2.37269 31.1811ZM10.726 39.5345L19.3432 48.1517C22.4674 51.2759 27.5328 51.2759 30.657 48.1517L39.2742 39.5345H38.9312C38.1743 39.5345 35.9925 39.3102 33.8524 37.1832L29.496 32.8534L27.3807 30.7509L26.7236 30.0978L26.5432 29.9185L26.5122 29.8877C25.6719 29.1505 25.3729 29.0926 25.3074 29.0907C25.2996 29.0905 25.2869 29.0907 25.2618 29.0977C25.2342 29.1055 25.1815 29.1243 25.0997 29.1712C24.9252 29.2713 24.6719 29.4674 24.3129 29.837L24.3037 29.8464L24.2944 29.8558L16.922 37.1832C15.7888 38.3096 14.3116 38.8772 13.2349 39.1697C12.6794 39.3207 12.1874 39.4098 11.8316 39.4616C11.6529 39.4876 11.5065 39.5045 11.401 39.5152C11.3482 39.5205 11.3055 39.5243 11.2739 39.5269L11.2351 39.5299L11.2221 39.5308L11.2173 39.5311L11.2153 39.5313L11.2145 39.5313C11.214 39.5313 11.2136 39.5314 11.1172 38.0345L11.2136 39.5314L11.1655 39.5345H11.1172H10.726ZM11.1171 11.5699H10.6702L19.3433 2.89686C22.4674 -0.227338 27.5328 -0.227337 30.657 2.89686L39.33 11.5699H38.9311C38.1742 11.5699 35.9924 11.7942 33.8524 13.9212L29.496 18.251L27.3806 20.3535L26.7235 21.0067L26.5431 21.1859L26.5122 21.2167C25.6718 21.9539 25.3728 22.0118 25.3073 22.0137C25.2995 22.0139 25.2868 22.0137 25.2618 22.0067C25.2341 21.9989 25.1814 21.9801 25.0996 21.9332C24.9251 21.8331 24.6718 21.637 24.3129 21.2674L24.3036 21.258L24.2943 21.2486L16.9219 13.9212C15.7887 12.7948 14.3115 12.2272 13.2349 11.9347C12.6793 11.7837 12.1873 11.6946 11.8315 11.6428C11.6529 11.6168 11.5064 11.5999 11.4009 11.5892C11.3481 11.5839 11.3054 11.5801 11.2738 11.5775L11.235 11.5745L11.222 11.5736L11.2172 11.5733L11.2153 11.5731L11.2144 11.5731C11.214 11.5731 11.2136 11.573 11.1171 13.0699L11.2136 11.573L11.1654 11.5699H11.1171Z"/>
</mask>
<path d="M2.37269 19.8674L0.958473 18.4532H0.958473L2.37269 19.8674ZM2.37269 31.1811L0.958473 32.5953H0.958473L2.37269 31.1811ZM7.67018 14.5699V12.5699H6.84175L6.25597 13.1557L7.67018 14.5699ZM11.0567 14.5699L11.2485 12.5791L11.1528 12.5699H11.0567V14.5699ZM11.0993 14.574L11.3004 12.5841L11.2911 12.5833L11.0993 14.574ZM11.3993 14.6115L11.6875 12.6324H11.6875L11.3993 14.6115ZM12.4482 14.8297L11.9238 16.7597L12.4482 14.8297ZM14.8071 16.049L13.3972 17.4675L14.8071 16.049ZM22.1704 23.3674L23.6035 21.9724L23.592 21.9606L23.5803 21.9489L22.1704 23.3674ZM25.3948 25.0124L25.3365 23.0132H25.3365L25.3948 25.0124ZM28.5305 23.4367L27.2064 21.9378L27.2064 21.9378L28.5305 23.4367ZM28.5635 23.4075L29.8876 24.9065L29.9317 24.8675L29.9734 24.8261L28.5635 23.4075ZM28.5948 23.3764L30.0047 24.795L31.4232 23.3851L30.0133 21.9665L28.5948 23.3764ZM27.5374 22.3125L28.9558 20.9026L26.1189 23.7224L27.5374 22.3125ZM28.5949 23.3764L27.1764 24.7863L28.5906 26.209L30.0091 24.7906L28.5949 23.3764ZM28.5951 23.3762L27.1862 21.9566L27.1809 21.962L28.5951 23.3762ZM28.5958 23.3754L30.0047 24.7949L30.006 24.7936L28.5958 23.3754ZM28.5989 23.3724L27.1889 21.9539L27.1887 21.9542L28.5989 23.3724ZM28.6109 23.3605L27.201 21.9419L27.201 21.942L28.6109 23.3605ZM28.658 23.3137L30.0679 24.7322L30.0679 24.7322L28.658 23.3137ZM28.8383 23.1344L30.2482 24.553L30.2482 24.553L28.8383 23.1344ZM29.4954 22.4813L28.0855 21.0628V21.0628L29.4954 22.4813ZM31.6108 20.3788L33.0207 21.7974L31.6108 20.3788ZM35.9672 16.049L37.3771 17.4675L35.9672 16.049ZM38.9311 14.5699L38.9311 16.5699H38.9311V14.5699ZM40.9242 14.5699V16.5699V14.5699ZM42.0609 14.5699V12.5699V14.5699ZM42.33 14.5699L43.7442 13.1557L43.1585 12.5699H42.33V14.5699ZM47.6275 19.8674L49.0417 18.4532L47.6275 19.8674ZM47.6275 31.1811L49.0417 32.5953L47.6275 31.1811ZM42.2742 36.5345V38.5345H43.1026L43.6884 37.9487L42.2742 36.5345ZM38.9311 36.5345V34.5345H38.9311L38.9311 36.5345ZM35.9673 35.0555L34.5574 36.474L35.9673 35.0555ZM31.6109 30.7256L30.201 32.1441L31.6109 30.7256ZM29.4955 28.6231L30.9054 27.2046L30.9054 27.2046L29.4955 28.6231ZM28.8384 27.97L27.4285 29.3885L27.4285 29.3885L28.8384 27.97ZM28.6581 27.7907L30.068 26.3722L30.0679 26.3722L28.6581 27.7907ZM28.611 27.7439L27.2011 29.1624L27.2011 29.1625L28.611 27.7439ZM28.599 27.732L27.1888 29.1502L27.189 29.1505L28.599 27.732ZM28.5959 27.729L30.0061 26.3108L30.003 26.3077L28.5959 27.729ZM28.5952 27.7282L27.1809 29.1425L27.1881 29.1495L28.5952 27.7282ZM28.595 27.728L30.0092 26.3138L28.5907 24.8954L27.1765 26.3181L28.595 27.728ZM27.5375 28.7919L26.119 27.382L28.9559 30.2018L27.5375 28.7919ZM28.5949 27.728L30.0134 29.1379L31.4233 27.7193L30.0048 26.3094L28.5949 27.728ZM28.5636 27.6969L29.9735 26.2784L29.9318 26.2369L29.8877 26.198L28.5636 27.6969ZM28.5306 27.6677L27.2065 29.1666L27.2065 29.1666L28.5306 27.6677ZM25.3949 26.092L25.3366 28.0912H25.3366L25.3949 26.092ZM22.1705 27.737L23.5803 29.1555L23.5921 29.1439L23.6036 29.1321L22.1705 27.737ZM14.8072 35.0554L16.217 36.474L14.8072 35.0554ZM12.4483 36.2747L12.9727 38.2047L12.9727 38.2047L12.4483 36.2747ZM11.3994 36.4929L11.1113 34.5137L11.1112 34.5137L11.3994 36.4929ZM11.0994 36.5304L11.2912 38.5212L11.3004 38.5202L11.0994 36.5304ZM11.0567 36.5345V38.5345H11.1529L11.2485 38.5253L11.0567 36.5345ZM7.72604 36.5345L6.31182 37.9487L6.89761 38.5345H7.72604V36.5345ZM10.726 39.5345V37.5345H5.89761L9.31182 40.9487L10.726 39.5345ZM19.3432 48.1517L20.7575 46.7375L19.3432 48.1517ZM30.657 48.1517L32.0712 49.5659L30.657 48.1517ZM39.2742 39.5345L40.6884 40.9487L44.1026 37.5345H39.2742V39.5345ZM38.9312 39.5345V37.5345H38.9311L38.9312 39.5345ZM33.8524 37.1832L32.4426 38.6018L33.8524 37.1832ZM29.496 32.8534L30.9059 31.4348L30.9059 31.4348L29.496 32.8534ZM27.3807 30.7509L28.7906 29.3324L27.3807 30.7509ZM26.7236 30.0978L25.3137 31.5163L25.3137 31.5163L26.7236 30.0978ZM26.5432 29.9185L27.9531 28.5L27.9531 28.5L26.5432 29.9185ZM26.5122 29.8877L27.9221 28.4692L27.878 28.4253L27.8312 28.3843L26.5122 29.8877ZM25.3074 29.0907L25.3657 27.0916L25.3655 27.0916L25.3074 29.0907ZM25.2618 29.0977L24.7243 27.1713L24.7242 27.1714L25.2618 29.0977ZM25.0997 29.1712L26.0946 30.9062L26.0946 30.9062L25.0997 29.1712ZM24.3129 29.837L22.8783 28.4435L22.8782 28.4436L24.3129 29.837ZM24.3037 29.8464L25.7136 31.265L25.7261 31.2525L25.7384 31.2399L24.3037 29.8464ZM24.2944 29.8558L22.8845 28.4372L22.8845 28.4372L24.2944 29.8558ZM16.922 37.1832L15.5121 35.7647H15.5121L16.922 37.1832ZM13.2349 39.1697L12.7105 37.2397L12.7105 37.2397L13.2349 39.1697ZM11.8316 39.4616L12.1197 41.4407H12.1198L11.8316 39.4616ZM11.401 39.5152L11.6019 41.5051L11.6021 41.505L11.401 39.5152ZM11.2739 39.5269L11.429 41.5209L11.4371 41.5202L11.2739 39.5269ZM11.2351 39.5299L11.3763 41.5249L11.3901 41.5239L11.2351 39.5299ZM11.2221 39.5308L11.3569 41.5263L11.3634 41.5258L11.2221 39.5308ZM11.2173 39.5311L11.352 41.5266L11.3521 41.5266L11.2173 39.5311ZM11.2153 39.5313L11.3447 41.5271L11.35 41.5267L11.2153 39.5313ZM11.2145 39.5313L11.0851 37.5355L11.0851 37.5355L11.2145 39.5313ZM11.2136 39.5314L11.3423 41.5272L13.3381 41.3986L13.2095 39.4028L11.2136 39.5314ZM11.1655 39.5345V41.5345H11.2299L11.2942 41.5303L11.1655 39.5345ZM10.6702 11.5699L9.25597 10.1557L5.84175 13.5699H10.6702V11.5699ZM19.3433 2.89686L20.7575 4.31107V4.31107L19.3433 2.89686ZM30.657 2.89686L29.2427 4.31107V4.31107L30.657 2.89686ZM39.33 11.5699V13.5699H44.1585L40.7442 10.1557L39.33 11.5699ZM38.9311 11.5699L38.9311 13.5699H38.9311V11.5699ZM33.8524 13.9212L32.4425 12.5026L33.8524 13.9212ZM29.496 18.251L30.9058 19.6696H30.9058L29.496 18.251ZM27.3806 20.3535L25.9707 18.935L25.9707 18.935L27.3806 20.3535ZM26.7235 21.0067L25.3136 19.5881L25.3136 19.5881L26.7235 21.0067ZM26.5431 21.1859L25.1333 19.7674L25.1332 19.7674L26.5431 21.1859ZM26.5122 21.2167L27.8311 22.7201L27.8779 22.6791L27.9221 22.6352L26.5122 21.2167ZM25.3073 22.0137L25.249 20.0145L25.2488 20.0145L25.3073 22.0137ZM25.2618 22.0067L24.7241 23.933L24.7243 23.9331L25.2618 22.0067ZM25.0996 21.9332L26.0946 20.1982L26.0945 20.1982L25.0996 21.9332ZM24.3129 21.2674L25.7475 19.874L25.7474 19.8739L24.3129 21.2674ZM24.3036 21.258L25.7382 19.8644L25.7258 19.8517L25.7132 19.8391L24.3036 21.258ZM24.2943 21.2486L22.8844 22.6672L22.8847 22.6675L24.2943 21.2486ZM16.9219 13.9212L18.3318 12.5026L18.3318 12.5026L16.9219 13.9212ZM13.2349 11.9347L12.7104 13.8647H12.7104L13.2349 11.9347ZM11.8315 11.6428L11.5434 13.622H11.5434L11.8315 11.6428ZM11.4009 11.5892L11.1998 13.5791L11.1998 13.5791L11.4009 11.5892ZM11.2738 11.5775L11.4371 9.58418L11.4288 9.58354L11.2738 11.5775ZM11.235 11.5745L11.3899 9.58048L11.3765 9.57952L11.235 11.5745ZM11.222 11.5736L11.3636 9.5786L11.3568 9.57814L11.222 11.5736ZM11.2172 11.5733L11.352 9.57781L11.3491 9.57762L11.2172 11.5733ZM11.2153 11.5731L11.3471 9.57749L11.3446 9.57732L11.2153 11.5731ZM11.2144 11.5731L11.085 13.5689L11.0851 13.5689L11.2144 11.5731ZM11.2136 11.573L13.2094 11.7016L13.338 9.70576L11.3422 9.57717L11.2136 11.573ZM11.1654 11.5699L11.294 9.57406L11.2298 9.56993H11.1654V11.5699ZM0.958473 18.4532C-2.94677 22.3584 -2.94677 28.6901 0.958473 32.5953L3.7869 29.7669C1.44375 27.4238 1.44375 23.6248 3.7869 21.2816L0.958473 18.4532ZM6.25597 13.1557L0.958473 18.4532L3.7869 21.2816L9.08439 15.9841L6.25597 13.1557ZM11.0567 12.5699H7.67018V16.5699H11.0567V12.5699ZM11.2911 12.5833L11.2485 12.5791L10.8648 16.5607L10.9075 16.5648L11.2911 12.5833ZM11.6875 12.6324C11.5246 12.6087 11.3928 12.5935 11.3004 12.5842L10.8983 16.5639C10.9383 16.5679 11.0118 16.5762 11.1112 16.5907L11.6875 12.6324ZM12.9727 12.8997C12.464 12.7615 12.0126 12.6797 11.6875 12.6324L11.1112 16.5907C11.3138 16.6202 11.6028 16.6725 11.9238 16.7597L12.9727 12.8997ZM16.217 14.6304C15.2619 13.6812 13.9781 13.1729 12.9727 12.8997L11.9238 16.7597C12.6468 16.9562 13.1559 17.2277 13.3972 17.4675L16.217 14.6304ZM23.5803 21.9489L16.217 14.6304L13.3972 17.4675L20.7605 24.786L23.5803 21.9489ZM25.3365 23.0132C24.9065 23.0258 24.3962 22.7867 23.6035 21.9724L20.7373 24.7625C21.682 25.733 23.2418 27.0761 25.4531 27.0115L25.3365 23.0132ZM27.2064 21.9378C26.3478 22.6963 25.7986 22.9998 25.3365 23.0132L25.4531 27.0115C27.4817 26.9523 28.9925 25.6972 29.8546 24.9356L27.2064 21.9378ZM27.2395 21.9086L27.2064 21.9378L29.8545 24.9357L29.8876 24.9065L27.2395 21.9086ZM27.1849 21.9579L27.1537 21.989L29.9734 24.8261L30.0047 24.795L27.1849 21.9579ZM26.1189 23.7224L27.1763 24.7863L30.0133 21.9665L28.9559 20.9026L26.1189 23.7224ZM30.0133 21.9664L28.9558 20.9026L26.119 23.7225L27.1764 24.7863L30.0133 21.9664ZM27.1809 21.962L27.1807 21.9622L30.0091 24.7906L30.0093 24.7904L27.1809 21.962ZM27.187 21.9559L27.1862 21.9567L30.004 24.7957L30.0047 24.7949L27.187 21.9559ZM27.1887 21.9542L27.1856 21.9572L30.006 24.7936L30.0091 24.7906L27.1887 21.9542ZM27.201 21.942L27.1889 21.9539L30.0088 24.7909L30.0208 24.7789L27.201 21.942ZM27.2481 21.8951L27.201 21.9419L30.0208 24.779L30.0679 24.7322L27.2481 21.8951ZM27.4284 21.7159L27.2481 21.8951L30.0679 24.7322L30.2482 24.553L27.4284 21.7159ZM28.0855 21.0628L27.4284 21.7159L30.2482 24.553L30.9053 23.8998L28.0855 21.0628ZM30.2009 18.9603L28.0855 21.0628L30.9053 23.8998L33.0207 21.7974L30.2009 18.9603ZM34.5573 14.6304L30.2009 18.9603L33.0207 21.7974L37.3771 17.4675L34.5573 14.6304ZM38.9311 12.5699C38.3595 12.5699 36.4605 12.7388 34.5573 14.6304L37.3771 17.4675C38.3428 16.5077 39.1174 16.5699 38.9311 16.5699L38.9311 12.5699ZM40.9242 12.5699L38.9311 12.5699V16.5699L40.9242 16.5699V12.5699ZM42.0609 12.5699L40.9242 12.5699V16.5699L42.0609 16.5699V12.5699ZM42.33 12.5699H42.0609V16.5699H42.33V12.5699ZM49.0417 18.4532L43.7442 13.1557L40.9158 15.9841L46.2133 21.2816L49.0417 18.4532ZM49.0417 32.5953C52.947 28.6901 52.947 22.3584 49.0417 18.4532L46.2133 21.2816C48.5564 23.6248 48.5564 27.4238 46.2133 29.7669L49.0417 32.5953ZM43.6884 37.9487L49.0417 32.5953L46.2133 29.7669L40.86 35.1203L43.6884 37.9487ZM42.2742 34.5345H42.2494V38.5345H42.2742V34.5345ZM42.2494 34.5345H41.036V38.5345H42.2494V34.5345ZM41.036 34.5345H38.9311V38.5345H41.036V34.5345ZM38.9311 34.5345C39.1175 34.5345 38.3429 34.5967 37.3772 33.6369L34.5574 36.474C36.4606 38.3656 38.3595 38.5345 38.9312 38.5345L38.9311 34.5345ZM37.3772 33.6369L33.0208 29.3071L30.201 32.1441L34.5574 36.474L37.3772 33.6369ZM33.0208 29.3071L30.9054 27.2046L28.0856 30.0416L30.201 32.1441L33.0208 29.3071ZM30.9054 27.2046L30.2483 26.5514L27.4285 29.3885L28.0856 30.0416L30.9054 27.2046ZM30.2483 26.5514L30.068 26.3722L27.2482 29.2093L27.4285 29.3885L30.2483 26.5514ZM30.0679 26.3722L30.0209 26.3254L27.2011 29.1625L27.2482 29.2093L30.0679 26.3722ZM30.0209 26.3255L30.0089 26.3135L27.189 29.1505L27.2011 29.1624L30.0209 26.3255ZM30.0092 26.3138L30.0061 26.3108L27.1857 29.1472L27.1888 29.1502L30.0092 26.3138ZM30.003 26.3077L30.0023 26.3069L27.1881 29.1495L27.1888 29.1503L30.003 26.3077ZM30.0094 26.314L30.0092 26.3138L27.1808 29.1422L27.181 29.1424L30.0094 26.314ZM27.1765 26.3181L26.1191 27.3819L28.9559 30.2018L30.0134 29.138L27.1765 26.3181ZM28.956 30.2018L30.0134 29.1379L27.1764 26.3181L26.119 27.382L28.956 30.2018ZM30.0048 26.3094L29.9735 26.2784L27.1538 29.1154L27.185 29.1465L30.0048 26.3094ZM29.8877 26.198L29.8547 26.1688L27.2065 29.1666L27.2395 29.1958L29.8877 26.198ZM29.8547 26.1688C28.9926 25.4072 27.4818 24.1521 25.4532 24.0929L25.3366 28.0912C25.7987 28.1047 26.3479 28.4081 27.2065 29.1666L29.8547 26.1688ZM25.4532 24.0929C23.2419 24.0283 21.6821 25.3714 20.7373 26.3419L23.6036 29.1321C24.3963 28.3177 24.9066 28.0786 25.3366 28.0912L25.4532 24.0929ZM20.7606 26.3185L13.3973 33.6369L16.217 36.474L23.5803 29.1555L20.7606 26.3185ZM13.3973 33.6369C13.156 33.8767 12.6468 34.1483 11.9239 34.3447L12.9727 38.2047C13.9781 37.9315 15.262 37.4232 16.217 36.474L13.3973 33.6369ZM11.9239 34.3447C11.6028 34.4319 11.3139 34.4842 11.1113 34.5137L11.6875 38.472C12.0127 38.4247 12.4641 38.3429 12.9727 38.2047L11.9239 34.3447ZM11.1112 34.5137C11.0118 34.5282 10.9384 34.5365 10.8984 34.5405L11.3004 38.5202C11.3928 38.5109 11.5247 38.4957 11.6876 38.472L11.1112 34.5137ZM10.9076 34.5396L10.8649 34.5437L11.2485 38.5253L11.2912 38.5211L10.9076 34.5396ZM11.0567 34.5345H7.72604V38.5345H11.0567V34.5345ZM0.958473 32.5953L6.31182 37.9487L9.14025 35.1203L3.7869 29.7669L0.958473 32.5953ZM9.31182 40.9487L17.929 49.5659L20.7575 46.7375L12.1403 38.1203L9.31182 40.9487ZM17.929 49.5659C21.8343 53.4711 28.1659 53.4711 32.0712 49.5659L29.2427 46.7375C26.8996 49.0806 23.1006 49.0806 20.7575 46.7375L17.929 49.5659ZM32.0712 49.5659L40.6884 40.9487L37.86 38.1203L29.2427 46.7375L32.0712 49.5659ZM38.9312 41.5345H39.2742V37.5345H38.9312V41.5345ZM32.4426 38.6018C35.0539 41.1972 37.7998 41.5345 38.9312 41.5345L38.9311 37.5345C38.5488 37.5345 36.931 37.4233 35.2623 35.7647L32.4426 38.6018ZM28.0862 34.2719L32.4426 38.6018L35.2623 35.7647L30.9059 31.4348L28.0862 34.2719ZM25.9708 32.1694L28.0862 34.2719L30.9059 31.4348L28.7906 29.3324L25.9708 32.1694ZM25.3137 31.5163L25.9708 32.1694L28.7906 29.3324L28.1334 28.6792L25.3137 31.5163ZM25.1333 31.3371L25.3137 31.5163L28.1334 28.6792L27.9531 28.5L25.1333 31.3371ZM25.1024 31.3063L25.1334 31.3371L27.9531 28.5L27.9221 28.4692L25.1024 31.3063ZM25.249 31.0899C25.0207 31.0832 24.8506 31.0365 24.7584 31.005C24.6646 30.9729 24.6192 30.9456 24.6309 30.9522C24.6411 30.958 24.6913 30.9878 24.7878 31.0592C24.8834 31.1301 25.0168 31.2363 25.1933 31.3912L27.8312 28.3843C27.3517 27.9637 26.9542 27.6718 26.6076 27.4748C26.285 27.2914 25.862 27.1061 25.3657 27.0916L25.249 31.0899ZM25.7994 31.0241C25.7343 31.0423 25.6457 31.0628 25.5382 31.0762C25.4189 31.0911 25.3181 31.0919 25.2493 31.0899L25.3655 27.0916C25.1503 27.0853 24.937 27.112 24.7243 27.1713L25.7994 31.0241ZM26.0946 30.9062C26.0554 30.9287 25.9552 30.9807 25.7995 31.0241L24.7242 27.1714C24.5132 27.2303 24.3076 27.32 24.1048 27.4362L26.0946 30.9062ZM25.7476 31.2304C25.8879 31.0859 25.988 30.9957 26.0516 30.943C26.117 30.8888 26.1297 30.8861 26.0946 30.9062L24.1048 27.4362C23.7029 27.6667 23.3011 28.0082 22.8783 28.4435L25.7476 31.2304ZM25.7384 31.2399L25.7476 31.2304L22.8782 28.4436L22.869 28.453L25.7384 31.2399ZM25.7042 31.2743L25.7136 31.265L22.8939 28.4279L22.8845 28.4372L25.7042 31.2743ZM18.3319 38.6018L25.7043 31.2743L22.8845 28.4372L15.5121 35.7647L18.3319 38.6018ZM13.7594 41.0998C14.9779 40.7687 16.8421 40.0825 18.3319 38.6018L15.5121 35.7647C14.7355 36.5366 13.6453 36.9857 12.7105 37.2397L13.7594 41.0998ZM12.1198 41.4407C12.5368 41.38 13.11 41.2762 13.7594 41.0998L12.7105 37.2397C12.2488 37.3652 11.838 37.4396 11.5435 37.4824L12.1198 41.4407ZM11.6021 41.505C11.7337 41.4917 11.9094 41.4713 12.1197 41.4407L11.5435 37.4824C11.3965 37.5038 11.2792 37.5173 11.1999 37.5253L11.6021 41.505ZM11.4371 41.5202C11.4807 41.5166 11.536 41.5117 11.6019 41.5051L11.2 37.5253C11.1604 37.5293 11.1302 37.5319 11.1107 37.5335L11.4371 41.5202ZM11.3901 41.5239L11.429 41.5209L11.1189 37.5329L11.08 37.5359L11.3901 41.5239ZM11.3634 41.5258L11.3763 41.5249L11.0938 37.5349L11.0809 37.5358L11.3634 41.5258ZM11.3521 41.5266L11.3569 41.5263L11.0873 37.5354L11.0825 37.5357L11.3521 41.5266ZM11.35 41.5267L11.352 41.5266L11.0827 37.5357L11.0807 37.5358L11.35 41.5267ZM11.3438 41.5271L11.3447 41.5271L11.086 37.5354L11.0851 37.5355L11.3438 41.5271ZM9.12136 38.163C9.16956 38.9114 9.19382 39.2864 9.20609 39.4744C9.21216 39.5676 9.21547 39.6175 9.21733 39.6447C9.21802 39.6546 9.21929 39.6733 9.22077 39.6913C9.22122 39.6969 9.22209 39.7073 9.22332 39.7202C9.22416 39.729 9.22709 39.7596 9.23233 39.7985C9.23493 39.8177 9.24044 39.8568 9.24977 39.9057C9.2564 39.9404 9.27843 40.0548 9.32781 40.1951C9.35255 40.2654 9.50806 40.7373 9.98547 41.1092C10.2736 41.3336 10.597 41.4595 10.9082 41.5077C11.0467 41.5292 11.161 41.5319 11.233 41.5312C11.2607 41.5308 11.3022 41.5294 11.3161 41.5287C11.3299 41.528 11.3438 41.5271 11.3438 41.5271L11.0851 37.5355C11.0851 37.5355 11.099 37.5347 11.1128 37.5339C11.1267 37.5332 11.1682 37.5319 11.1959 37.5314C11.2679 37.5307 11.3822 37.5335 11.5207 37.5549C11.8319 37.6031 12.1553 37.7291 12.4434 37.9535C12.7035 38.156 12.8577 38.379 12.942 38.5235C13.0265 38.6685 13.0754 38.7945 13.101 38.8674C13.1504 39.0077 13.1724 39.122 13.179 39.1567C13.1883 39.2055 13.1938 39.2444 13.1964 39.2634C13.2016 39.302 13.2045 39.3321 13.2052 39.34C13.2064 39.3521 13.2071 39.3614 13.2075 39.3655C13.2085 39.3777 13.2089 39.3846 13.208 39.3712C13.2066 39.3516 13.2037 39.308 13.1976 39.2141C13.1855 39.0279 13.1613 38.6545 13.1131 37.9059L9.12136 38.163ZM13.2095 39.4028L13.1131 37.9059L9.12136 38.163L9.21779 39.6599L13.2095 39.4028ZM11.2942 41.5303L11.3423 41.5272L11.085 37.5355L11.0368 37.5386L11.2942 41.5303ZM11.1172 41.5345H11.1655V37.5345H11.1172V41.5345ZM10.726 41.5345H11.1172V37.5345H10.726V41.5345ZM10.6702 13.5699H11.1171V9.56993H10.6702V13.5699ZM17.929 1.48264L9.25597 10.1557L12.0844 12.9841L20.7575 4.31107L17.929 1.48264ZM32.0712 1.48264C28.1659 -2.4226 21.8343 -2.4226 17.929 1.48264L20.7575 4.31107C23.1006 1.96792 26.8996 1.96792 29.2427 4.31107L32.0712 1.48264ZM40.7442 10.1557L32.0712 1.48264L29.2427 4.31107L37.9158 12.9841L40.7442 10.1557ZM38.9311 13.5699H39.33V9.56993H38.9311V13.5699ZM35.2622 15.3397C36.931 13.6811 38.5487 13.5699 38.9311 13.5699L38.9311 9.56993C37.7998 9.56992 35.0538 9.90723 32.4425 12.5026L35.2622 15.3397ZM30.9058 19.6696L35.2622 15.3397L32.4425 12.5026L28.0861 16.8325L30.9058 19.6696ZM28.7905 21.7721L30.9058 19.6696L28.0861 16.8325L25.9707 18.935L28.7905 21.7721ZM28.1334 22.4252L28.7905 21.7721L25.9707 18.935L25.3136 19.5881L28.1334 22.4252ZM27.953 22.6044L28.1334 22.4252L25.3136 19.5881L25.1333 19.7674L27.953 22.6044ZM27.9221 22.6352L27.9531 22.6044L25.1332 19.7674L25.1022 19.7982L27.9221 22.6352ZM25.3656 24.0128C25.8619 23.9983 26.2849 23.813 26.6075 23.6296C26.9542 23.4326 27.3516 23.1408 27.8311 22.7201L25.1932 19.7132C25.0167 19.8681 24.8833 19.9743 24.7877 20.0452C24.6913 20.1166 24.641 20.1464 24.6308 20.1522C24.6191 20.1588 24.6645 20.1315 24.7583 20.0994C24.8505 20.0679 25.0207 20.0212 25.249 20.0145L25.3656 24.0128ZM24.7243 23.9331C24.9367 23.9924 25.1502 24.0191 25.3658 24.0128L25.2488 20.0145C25.3179 20.0125 25.4188 20.0133 25.5381 20.0282C25.6456 20.0416 25.7342 20.0621 25.7992 20.0802L24.7243 23.9331ZM24.1047 23.6682C24.3075 23.7844 24.5131 23.8741 24.7241 23.933L25.7994 20.0803C25.9551 20.1237 26.0553 20.1757 26.0946 20.1982L24.1047 23.6682ZM22.8782 22.6609C23.301 23.0962 23.7028 23.4377 24.1047 23.6682L26.0945 20.1982C26.1296 20.2183 26.1169 20.2156 26.0515 20.1614C25.988 20.1087 25.8879 20.0185 25.7475 19.874L22.8782 22.6609ZM22.8691 22.6515L22.8783 22.661L25.7474 19.8739L25.7382 19.8644L22.8691 22.6515ZM22.8847 22.6675L22.8941 22.6768L25.7132 19.8391L25.7039 19.8298L22.8847 22.6675ZM15.512 15.3397L22.8844 22.6672L25.7042 19.8301L18.3318 12.5026L15.512 15.3397ZM12.7104 13.8647C13.6452 14.1187 14.7354 14.5678 15.512 15.3397L18.3318 12.5026C16.842 11.0219 14.9779 10.3357 13.7593 10.0046L12.7104 13.8647ZM11.5434 13.622C11.8379 13.6648 12.2487 13.7392 12.7104 13.8647L13.7593 10.0046C13.1099 9.8282 12.5367 9.7244 12.1197 9.66368L11.5434 13.622ZM11.1998 13.5791C11.2792 13.5871 11.3964 13.6006 11.5434 13.622L12.1197 9.66368C11.9093 9.63305 11.7336 9.61267 11.6019 9.59936L11.1998 13.5791ZM11.1106 13.5709C11.1302 13.5725 11.1602 13.5751 11.1998 13.5791L11.602 9.59937C11.5359 9.59269 11.4806 9.58777 11.4371 9.5842L11.1106 13.5709ZM11.08 13.5685L11.1189 13.5715L11.4288 9.58354L11.3899 9.58052L11.08 13.5685ZM11.0805 13.5686L11.0934 13.5695L11.3765 9.57952L11.3636 9.57861L11.0805 13.5686ZM11.0825 13.5687L11.0873 13.569L11.3568 9.57814L11.352 9.57782L11.0825 13.5687ZM11.0834 13.5688L11.0854 13.5689L11.3491 9.57762L11.3471 9.57749L11.0834 13.5688ZM11.0851 13.5689L11.0859 13.569L11.3446 9.57732L11.3437 9.57727L11.0851 13.5689ZM13.113 13.1985C13.1612 12.4499 13.1854 12.0765 13.1975 11.8903C13.2037 11.7964 13.2066 11.7528 13.2079 11.7332C13.2088 11.7198 13.2084 11.7267 13.2074 11.7389C13.2071 11.743 13.2063 11.7524 13.2051 11.7644C13.2044 11.7724 13.2015 11.8025 13.1963 11.841C13.1937 11.86 13.1882 11.8989 13.1789 11.9478C13.1723 11.9824 13.1503 12.0967 13.1009 12.237C13.0753 12.31 13.0264 12.436 12.9418 12.581C12.8575 12.7255 12.7032 12.9486 12.4431 13.1511C12.155 13.3755 11.8316 13.5013 11.5204 13.5495C11.382 13.571 11.2677 13.5737 11.1957 13.573C11.1681 13.5725 11.1265 13.5712 11.1127 13.5705C11.0989 13.5697 11.085 13.5689 11.085 13.5689L11.3437 9.57727C11.3437 9.57727 11.3299 9.57642 11.3161 9.57567C11.3022 9.57501 11.2607 9.57362 11.233 9.57317C11.161 9.5725 11.0468 9.5752 10.9083 9.59664C10.5971 9.64482 10.2737 9.7707 9.9856 9.99507C9.50807 10.3669 9.35251 10.8389 9.32775 10.9092C9.27837 11.0495 9.25632 11.1639 9.2497 11.1987C9.24037 11.2476 9.23486 11.2867 9.23226 11.3059C9.22701 11.3448 9.22408 11.3754 9.22325 11.3842C9.22201 11.3971 9.22114 11.4075 9.22069 11.4131C9.21922 11.4311 9.21794 11.4498 9.21726 11.4597C9.21539 11.4869 9.21209 11.5368 9.20601 11.63C9.19374 11.818 9.16949 12.193 9.12128 12.9414L13.113 13.1985ZM9.21771 11.4445L9.12128 12.9414L13.113 13.1985L13.2094 11.7016L9.21771 11.4445ZM11.0368 13.5658L11.085 13.5689L11.3422 9.57717L11.294 9.57406L11.0368 13.5658ZM11.1171 13.5699H11.1654V9.56993H11.1171V13.5699Z" fill="currentColor" mask="url(#path-1-inside-1_723_53)"/>
</svg>
