<svg width="56" height="56" viewBox="0 0 56 56" fill="none" xmlns="http://www.w3.org/2000/svg">
<path d="M19 43C21.2091 43 23 41.2091 23 39C23 36.7909 21.2091 35 19 35C16.7909 35 15 36.7909 15 39C15 41.2091 16.7909 43 19 43Z" stroke="currentColor" stroke-width="2" stroke-linecap="round" stroke-linejoin="round"/>
<path d="M39 43C41.2091 43 43 41.2091 43 39C43 36.7909 41.2091 35 39 35C36.7909 35 35 36.7909 35 39C35 41.2091 36.7909 43 39 43Z" stroke="currentColor" stroke-width="2" stroke-linecap="round" stroke-linejoin="round"/>
<path d="M14.3158 38H10.1053V29.6667M8 13H31.1579V38M23.5 38H29.0526H34M43.7895 38H48V25.5M48 25.5H31.1579M48 25.5L41.6842 15.0833H31.1579" stroke="currentColor" stroke-width="2" stroke-linecap="round" stroke-linejoin="round"/>
<path d="M10 21H18" stroke="currentColor" stroke-width="2" stroke-linecap="round" stroke-linejoin="round"/>
</svg>
