<svg width="24" height="24" viewBox="0 0 24 24" fill="none" xmlns="http://www.w3.org/2000/svg">
<path d="M15 4.99988V6.99988" stroke="currentColor" stroke-width="2" stroke-linecap="round" stroke-linejoin="round"/>
<path d="M15 10.9999V12.9999" stroke="currentColor" stroke-width="2" stroke-linecap="round" stroke-linejoin="round"/>
<path d="M15 16.9999V18.9999" stroke="currentColor" stroke-width="2" stroke-linecap="round" stroke-linejoin="round"/>
<path d="M5 4.99988H19C19.5304 4.99988 20.0391 5.21059 20.4142 5.58566C20.7893 5.96074 21 6.46944 21 6.99988V9.99988C20.4696 9.99988 19.9609 10.2106 19.5858 10.5857C19.2107 10.9607 19 11.4694 19 11.9999C19 12.5303 19.2107 13.039 19.5858 13.4141C19.9609 13.7892 20.4696 13.9999 21 13.9999V16.9999C21 17.5303 20.7893 18.039 20.4142 18.4141C20.0391 18.7892 19.5304 18.9999 19 18.9999H5C4.46957 18.9999 3.96086 18.7892 3.58579 18.4141C3.21071 18.039 3 17.5303 3 16.9999V13.9999C3.53043 13.9999 4.03914 13.7892 4.41421 13.4141C4.78929 13.039 5 12.5303 5 11.9999C5 11.4694 4.78929 10.9607 4.41421 10.5857C4.03914 10.2106 3.53043 9.99988 3 9.99988V6.99988C3 6.46944 3.21071 5.96074 3.58579 5.58566C3.96086 5.21059 4.46957 4.99988 5 4.99988" stroke="currentColor" stroke-width="2" stroke-linecap="round" stroke-linejoin="round"/>
</svg>
