<svg width="23" height="23" viewBox="0 0 23 23" fill="none" xmlns="http://www.w3.org/2000/svg">
<path d="M22.707 19.879L18.337 15.509C19.386 13.928 20 12.035 20 10C20 4.486 15.514 0 10 0C4.486 0 0 4.486 0 10C0 15.514 4.486 20 10 20C12.035 20 13.928 19.386 15.509 18.337L19.878 22.707C20.269 23.098 20.902 23.098 21.292 22.707L22.706 21.293C23.097 20.902 23.098 20.269 22.707 19.879ZM2 10C2 5.589 5.589 2 10 2C14.411 2 18 5.589 18 10C18 14.411 14.411 18 10 18C5.589 18 2 14.411 2 10Z" fill="#1999F9"/>
</svg>
