<svg width="24" height="24" viewBox="0 0 24 24" fill="none" xmlns="http://www.w3.org/2000/svg">
<path d="M20.4 8.4C19.9 8.5 19.6 9.1 19.7 9.6C19.9 10.4 20 11.2 20 12C20 17 16 21 11 21C6 21 2 17 2 12C2 7 6 3 11 3C12.7 3 14.3 3.5 15.7 4.3C16.2 4.6 16.8 4.4 17.1 4C17.4 3.5 17.2 2.9 16.8 2.6C15 1.6 13 1 11 1C4.9 1 0 5.9 0 12C0 18.1 4.9 23 11 23C17.1 23 22 18.1 22 12C22 11 21.9 10 21.6 9.1C21.5 8.6 20.9 8.3 20.4 8.4Z" fill="#93A0AC"/>
<path d="M22.7 2.3C22.3 1.9 21.7 1.9 21.3 2.3L11 12.6L7.7 9.3C7.3 8.9 6.7 8.9 6.3 9.3C5.9 9.7 5.9 10.3 6.3 10.7L10.3 14.7C10.5 14.9 10.8 15 11 15C11.2 15 11.5 14.9 11.7 14.7L22.7 3.7C23.1 3.3 23.1 2.7 22.7 2.3Z" fill="#93A0AC"/>
</svg>
