<svg width="240" height="240" viewBox="0 0 240 240" fill="none" xmlns="http://www.w3.org/2000/svg">
    <path
        d="M75.7471 60.9067C75.7471 60.9067 103.04 81.6174 144.531 42.8918C181.38 8.4998 211.467 62.7625 211.678 88.748C211.95 122.41 174.829 149.344 192.844 171.453C210.859 193.562 157.118 230.072 128.154 198.475C92.124 159.17 82.3631 191.106 61.8262 191.106C47.0867 191.106 16.8249 154.482 37.2604 127.234C54.4564 104.306 45.078 96.697 40.5364 88.748C33.9852 77.2839 49.5436 46.1672 75.7471 60.9067Z"
        fill="#E0E8F0" />
    <path
        d="M197.456 46.7889C197.456 47.2984 197.434 47.8004 197.39 48.2975C196.993 52.7891 194.854 56.9469 191.43 59.8804C188.006 62.8138 183.569 64.2898 179.07 63.992C174.57 63.6942 170.367 61.6464 167.359 58.2871C164.351 54.9279 162.779 50.5244 162.978 46.0199C163.177 41.5153 165.132 37.2678 168.425 34.1872C171.717 31.1067 176.085 29.4379 180.593 29.5385C185.101 29.639 189.39 31.5008 192.542 34.7252C195.694 37.9495 197.458 42.2799 197.456 46.7889Z"
        fill="#3E9DFF" />
    <path
        d="M182.386 48.1092C181.273 48.9748 179.718 50.6986 180.187 54.5343C179.666 56.0231 177.811 58.8671 177.811 60.2272C177.811 61.5873 175.585 61.8352 175.338 61.4632C175.09 61.0912 174.967 56.3934 173.607 55.5279C172.246 54.6623 172.494 50.7054 172.494 50.7054C172.494 50.7054 172.988 49.2215 171.381 48.2324C169.773 47.2432 168.653 44.8937 170.08 43.5335C171.505 42.1733 167.671 41.3078 167.177 40.3186C166.966 39.8986 166.16 38.9584 165.305 38.0211C167.155 34.8878 169.944 32.4166 173.278 30.958C174.542 32.278 175.635 33.9677 175.338 35.7434C175.387 36.6089 179.144 37.9691 177.304 39.8234C175.462 41.6782 172.961 44.2754 177.304 45.1404C181.644 46.0073 183.499 47.2433 182.386 48.1092Z"
        fill="#0B6AF2" />
    <path
        d="M192.263 34.4464C191.338 36.3976 189.018 37.9705 187.703 37.9705C186.219 36.3625 183.004 38.5888 182.703 35.992C182.527 34.4786 184.253 32.1291 185.725 30.4277C188.178 31.2601 190.412 32.6335 192.263 34.4464Z"
        fill="#0B6AF2" />
    <path
        d="M197.391 48.2979C197.022 52.5677 195.073 56.5461 191.925 59.4539C191.354 58.9073 190.872 58.2668 191.042 57.7549C191.413 56.642 192.922 54.2925 192.662 52.8087C192.42 51.4238 193.698 47.2345 197.391 48.2979Z"
        fill="#0B6AF2" />
    <path
        d="M169.31 134.019C168.758 137.426 167.843 140.764 166.583 143.977C158.369 165.016 136.336 178.197 113.148 174.409C100.346 172.313 88.9006 165.22 81.3268 154.688C73.7531 144.157 70.6711 131.049 72.7582 118.246C72.8643 117.597 72.988 116.942 73.1171 116.304C78.3485 90.7099 102.907 73.6074 128.92 77.8565C136.683 79.1113 144.025 82.23 150.317 86.9451C152.385 88.489 154.325 90.1969 156.118 92.0522C161.443 97.5298 165.411 104.179 167.702 111.468C169.993 118.756 170.543 126.479 169.31 134.019V134.019Z"
        fill="#3E9DFF" />
    <path
        d="M166.583 143.977C157.268 149.974 146.267 155.521 134.14 160.108C121.79 164.776 109.664 167.93 98.5489 169.582C72.4305 173.476 51.9185 169.125 47.2969 156.9C42.9687 145.481 53.6143 130.015 73.1173 116.305C72.9881 116.942 72.8644 117.597 72.7583 118.247C72.3686 120.625 72.1571 123.028 72.1256 125.437C60.8888 134.113 55.0411 142.61 57.3463 148.705C59.5875 154.631 69.1034 157.153 82.6406 156.438C95.8749 155.741 112.953 151.929 130.828 145.171C146.288 139.32 159.845 132.207 169.94 125.062C183.454 115.507 190.784 105.894 188.254 99.1868C185.653 92.3016 173.241 90.0068 156.118 92.0531C154.325 90.1978 152.385 88.4899 150.317 86.946C174.285 84.1761 192.759 88.7028 197.113 100.217C201.778 112.533 189.056 129.535 166.583 143.977Z"
        fill="#0B6AF2" />
</svg>
    