<svg width="24" height="24" viewBox="0 0 24 24" fill="none" xmlns="http://www.w3.org/2000/svg">
<path d="M23 3H11V5H23C23.552 5 24 4.552 24 4C24 3.448 23.552 3 23 3Z" fill="#93A0AC"/>
<path d="M1 5H3V7C3 7.552 3.448 8 4 8H8C8.552 8 9 7.552 9 7V1C9 0.448 8.552 0 8 0H4C3.448 0 3 0.448 3 1V3H1C0.448 3 0 3.448 0 4C0 4.552 0.448 5 1 5Z" fill="#93A0AC"/>
<path d="M23 11H21V13H23C23.552 13 24 12.552 24 12C24 11.448 23.552 11 23 11Z" fill="#93A0AC"/>
<path d="M1 13H13V15C13 15.552 13.448 16 14 16H18C18.552 16 19 15.552 19 15V9C19 8.448 18.552 8 18 8H14C13.448 8 13 8.448 13 9V11H1C0.448 11 0 11.448 0 12C0 12.552 0.448 13 1 13Z" fill="#93A0AC"/>
<path d="M23 19H11V21H23C23.552 21 24 20.552 24 20C24 19.448 23.552 19 23 19Z" fill="#93A0AC"/>
<path d="M8 16H4C3.448 16 3 16.448 3 17V19H1C0.448 19 0 19.448 0 20C0 20.552 0.448 21 1 21H3V23C3 23.552 3.448 24 4 24H8C8.552 24 9 23.552 9 23V17C9 16.448 8.552 16 8 16Z" fill="#93A0AC"/>
</svg>
