<svg width="24" height="14" viewBox="0 0 24 14" fill="none" xmlns="http://www.w3.org/2000/svg">
<path d="M19.44 4.03L15.41 0H11V2H14.59L16.59 4H5C2.2 4 0 6.2 0 9C0 11.8 2.2 14 5 14C7.46 14 9.45 12.31 9.9 10H11.55L14.32 7.23C14.11 7.77 14 8.37 14 9C14 11.8 16.2 14 19 14C21.8 14 24 11.8 24 9C24 6.35 22.03 4.23 19.44 4.03ZM7.82 10C7.4 11.15 6.28 12 5 12C3.37 12 2 10.63 2 9C2 7.37 3.37 6 5 6C6.28 6 7.4 6.85 7.82 8H5V10H7.82ZM19 12C17.34 12 16 10.66 16 9C16 7.34 17.34 6 19 6C20.66 6 22 7.34 22 9C22 10.66 20.66 12 19 12Z" fill="#93A0AC"/>
</svg>
