<?xml version="1.0" standalone="no"?>
<!DOCTYPE svg PUBLIC "-//W3C//DTD SVG 20010904//EN"
 "http://www.w3.org/TR/2001/REC-SVG-20010904/DTD/svg10.dtd">
<svg version="1.0" xmlns="http://www.w3.org/2000/svg"
 width="512.000000pt" height="512.000000pt" viewBox="0 0 512.000000 512.000000"
 preserveAspectRatio="xMidYMid meet">

<g transform="translate(0.000000,512.000000) scale(0.100000,-0.100000)"
fill="#93A0AC" stroke="none">
<path d="M2460 5106 c-111 -32 -136 -52 -365 -300 -104 -113 -197 -206 -206
-206 -9 0 -130 22 -270 49 -305 59 -318 61 -394 49 -142 -21 -271 -130 -311
-263 -8 -27 -31 -176 -50 -330 -19 -154 -38 -283 -42 -287 -4 -4 -115 -57
-246 -118 -131 -61 -258 -122 -282 -136 -58 -34 -121 -106 -152 -174 -30 -67
-40 -184 -22 -259 7 -29 72 -160 156 -311 l144 -260 -144 -260 c-84 -153 -149
-282 -156 -312 -19 -77 -8 -193 25 -262 58 -123 97 -151 423 -302 136 -63 250
-118 254 -122 4 -4 23 -134 42 -288 21 -172 42 -302 54 -337 56 -158 203 -261
369 -259 42 1 181 23 329 52 142 27 264 50 273 50 9 0 101 -93 206 -206 104
-113 212 -220 240 -239 147 -101 330 -96 470 11 17 12 116 115 220 228 105
113 197 206 206 206 9 0 130 -22 270 -49 305 -59 318 -61 394 -49 142 21 271
130 311 263 8 27 31 176 50 330 19 154 38 283 42 287 4 4 115 57 246 118 131
61 258 122 282 136 58 34 121 106 152 174 30 67 40 184 22 259 -7 29 -72 160
-156 311 l-144 260 144 260 c84 153 149 282 156 312 38 156 -34 343 -162 424
-22 14 -151 77 -286 140 -136 63 -250 119 -255 123 -4 4 -23 134 -42 288 -21
172 -42 303 -54 337 -40 113 -130 201 -247 241 -79 27 -171 20 -451 -35 -141
-27 -263 -50 -272 -50 -9 0 -101 93 -206 206 -192 207 -254 261 -335 289 -61
22 -174 28 -230 11z m153 -260 c20 -8 120 -108 261 -259 238 -257 256 -271
322 -260 16 3 166 31 334 64 175 34 316 56 330 52 41 -10 88 -50 98 -85 6 -18
27 -172 47 -343 21 -174 44 -324 52 -342 8 -17 24 -38 36 -46 12 -8 150 -73
307 -146 325 -150 350 -168 350 -247 0 -42 -17 -78 -162 -338 -143 -256 -163
-296 -163 -336 0 -40 20 -80 163 -336 145 -260 162 -296 162 -338 0 -79 -25
-97 -350 -247 -157 -73 -295 -138 -307 -146 -12 -8 -28 -29 -36 -46 -8 -18
-31 -168 -52 -342 -20 -171 -41 -325 -47 -343 -11 -35 -58 -76 -99 -86 -15 -3
-152 19 -330 53 -167 33 -317 61 -333 64 -67 11 -84 -3 -321 -259 -125 -135
-241 -252 -256 -259 -35 -19 -70 -19 -112 -1 -20 8 -120 108 -261 259 -171
185 -237 249 -261 256 -38 10 -47 9 -415 -63 -159 -31 -297 -53 -310 -49 -44
10 -89 51 -100 91 -5 20 -26 174 -46 342 -37 309 -48 357 -87 383 -12 8 -150
73 -307 146 -325 150 -350 168 -350 247 0 42 17 78 162 338 143 256 163 296
163 336 0 40 -20 80 -163 336 -145 260 -162 296 -162 338 0 79 25 97 350 247
157 73 295 138 307 146 39 26 50 74 87 383 20 168 41 322 46 342 11 40 56 81
101 92 15 3 152 -19 330 -53 167 -33 317 -61 333 -64 67 -11 85 3 317 255 123
132 238 249 254 260 36 21 74 23 118 4z"/>
<path d="M1850 3526 c-106 -30 -213 -113 -263 -204 -76 -140 -77 -364 -3 -510
68 -133 219 -222 377 -222 185 0 342 111 406 287 19 53 23 83 23 182 0 170
-33 262 -126 355 -106 107 -272 151 -414 112z m213 -279 c56 -42 69 -83 65
-197 -3 -106 -13 -131 -72 -174 -42 -32 -149 -30 -195 3 -49 35 -71 91 -71
185 0 101 23 155 83 191 57 35 138 32 190 -8z"/>
<path d="M3082 3433 c-22 -13 -214 -255 -613 -778 -320 -418 -590 -773 -600
-790 -67 -108 57 -238 169 -177 22 11 215 256 613 777 320 418 590 774 600
790 67 108 -56 238 -169 178z"/>
<path d="M3013 2506 c-124 -46 -220 -146 -264 -273 -24 -72 -27 -263 -4 -340
96 -323 498 -420 727 -175 84 89 118 188 118 337 0 233 -105 390 -306 459 -71
24 -194 21 -271 -8z m246 -266 c49 -34 71 -90 71 -184 0 -103 -23 -155 -86
-192 -85 -50 -197 -17 -238 69 -19 41 -22 189 -5 234 14 37 47 72 84 89 45 21
134 13 174 -16z"/>
</g>
</svg>
