<svg width="32" height="32" viewBox="0 0 32 32" fill="none" xmlns="http://www.w3.org/2000/svg">
<g clip-path="url(#clip0_3781_35250)">
<path d="M11.9999 10.6666L11.8439 10.676C11.5196 10.7142 11.2206 10.8701 11.0035 11.1141C10.7865 11.3582 10.6666 11.6734 10.6666 12V14.6653L7.21859 14.6666C6.69125 14.6667 6.17579 14.8232 5.73737 15.1162C5.29894 15.4092 4.95723 15.8257 4.75545 16.3129C4.55366 16.8001 4.50085 17.3362 4.6037 17.8534C4.70655 18.3706 4.96043 18.8457 5.33326 19.2186L14.1146 28C14.6147 28.4999 15.2928 28.7807 15.9999 28.7807C16.707 28.7807 17.3852 28.4999 17.8853 28L26.6666 19.2186C27.0397 18.8457 27.2939 18.3705 27.3969 17.8531C27.4999 17.3357 27.4471 16.7994 27.2453 16.312L27.1546 16.1186C26.931 15.6816 26.5911 15.3148 26.1723 15.0586C25.7535 14.8024 25.2722 14.6667 24.7813 14.6666L21.3333 14.6653V12C21.3333 11.6463 21.1928 11.3072 20.9427 11.0572C20.6927 10.8071 20.3535 10.6666 19.9999 10.6666H11.9999Z" fill="white"/>
<path d="M20.0001 2.66663C20.3399 2.667 20.6668 2.79713 20.9139 3.03042C21.161 3.26372 21.3097 3.58256 21.3296 3.92182C21.3495 4.26107 21.2392 4.59513 21.021 4.85574C20.8029 5.11634 20.4935 5.28382 20.1561 5.32396L20.0001 5.33329H12.0001C11.6602 5.33292 11.3334 5.20279 11.0862 4.96949C10.8391 4.7362 10.6904 4.41736 10.6705 4.0781C10.6506 3.73884 10.761 3.40479 10.9791 3.14418C11.1972 2.88358 11.5066 2.7161 11.8441 2.67596L12.0001 2.66663H20.0001Z" fill="white"/>
<path d="M20.0001 6.66663C20.3399 6.667 20.6668 6.79713 20.9139 7.03042C21.161 7.26372 21.3097 7.58256 21.3296 7.92182C21.3495 8.26107 21.2392 8.59513 21.021 8.85574C20.8029 9.11634 20.4935 9.28382 20.1561 9.32396L20.0001 9.33329H12.0001C11.6602 9.33292 11.3334 9.20279 11.0862 8.9695C10.8391 8.7362 10.6904 8.41736 10.6705 8.0781C10.6506 7.73884 10.761 7.40479 10.9791 7.14418C11.1972 6.88358 11.5066 6.7161 11.8441 6.67596L12.0001 6.66663H20.0001Z" fill="white"/>
</g>
<defs>
<clipPath id="clip0_3781_35250">
<rect width="32" height="32" fill="white"/>
</clipPath>
</defs>
</svg>
