<svg width="180" height="181" viewBox="0 0 180 181" fill="none" xmlns="http://www.w3.org/2000/svg">
    <path
        d="M29.7806 135.064C34.5416 146.683 42.3044 149.101 47.7627 146.683C58.3185 142.006 85.7388 136.78 113.9 149.064C151.199 165.332 159.135 140.787 147.231 115.959C135.327 91.1317 131.292 66.024 145.015 52.1911C158.738 38.3582 140.78 16.7189 108.889 39.244C88.2801 53.8006 73.1553 50.5592 65.0335 46.444C57.3788 42.5656 48.8659 38.511 40.8902 41.6768C31.2122 45.5184 27.3992 53.8472 42.1232 72.4537C62.9892 98.8208 19.1075 109.022 29.7806 135.064Z"
        fill="#E0E8F0" />
    <path
        d="M137.607 54.8609C137.48 55.0214 137.338 55.1691 137.183 55.3019L126.058 64.9296L117.754 90.1503L94.6055 107.066C94.6055 107.066 90.6612 110.37 87.0608 110.676C86.2549 110.958 83.8131 111.908 82.4607 113.376C82.0246 113.85 78.6052 123.949 73.3016 138.23C73.0362 138.944 72.5132 139.534 71.8353 139.883C71.1574 140.232 70.3736 140.315 69.6377 140.115C63.0104 138.317 48.1662 134.356 41.1035 131.68C40.6683 131.516 40.2799 131.247 39.9725 130.898C39.6651 130.548 39.4478 130.129 39.3399 129.677C39.2319 129.224 39.2364 128.752 39.3531 128.301C39.4697 127.851 39.6949 127.436 40.009 127.093C48.1247 118.222 65.1873 97.9171 65.1873 97.9171L66.3449 95.5129C66.3449 95.5129 73.6341 72.7383 76.0183 71.258C76.9199 70.279 82.1062 62.687 84.1468 57.3907C84.6106 56.6199 86.7617 53.412 88.5635 50.6422C89.8402 48.6622 90.9485 46.9008 91.1375 46.3977C91.1782 46.2824 91.2463 46.1788 91.336 46.0957C91.336 46.0957 91.3304 46.0941 91.3376 46.0899C92.1974 45.1918 95.0502 45.3947 95.1887 48.8042C95.3434 52.5653 91.961 60.3676 91.2802 60.5802C90.9358 61.41 89.9572 65.879 88.0428 69.6631C87.878 70.235 87.6317 71.7126 89.2464 71.3542C90.8627 70.99 128.248 53.3778 128.248 53.3778L132.885 50.465C133.568 50.023 134.38 49.825 135.19 49.903C136.149 50.0133 137.028 50.4909 137.643 51.2356C138.966 52.7687 138.102 54.2415 137.607 54.8609Z"
        fill="#BD0B0B" />
    <path
        d="M90.4537 51.2614C89.7856 51.3228 89.1037 51.0024 88.5637 50.6422C89.8405 48.6622 90.9487 46.9008 91.1377 46.3977C91.1784 46.2824 91.2466 46.1788 91.3363 46.0957C92.8749 47.9331 90.6381 51.073 90.4537 51.2614Z"
        fill="#F03E3E" />
    <path
        d="M128.657 47.2013L101.261 39.3047C99.351 38.754 97.3558 39.8563 96.8052 41.7668L80.2275 99.2806C79.6768 101.191 80.7792 103.186 82.6896 103.737L110.086 111.633C111.996 112.184 113.991 111.082 114.542 109.171L131.12 51.6575C131.67 49.747 130.568 47.7519 128.657 47.2013Z"
        fill="#8A0000" />
    <path
        d="M127.218 48.6418L101.715 41.2908C100.282 40.8778 98.7858 41.7045 98.3728 43.1373L82.2842 98.9545C81.8712 100.387 82.6979 101.884 84.1308 102.297L109.634 109.648C111.067 110.061 112.563 109.234 112.976 107.801L129.065 51.984C129.478 50.5512 128.651 49.0548 127.218 48.6418Z"
        fill="#F03E3E" />
    <path
        d="M128.524 67.4584L123.926 67.4221C121.651 67.4042 119.793 69.2334 119.775 71.5077C119.757 73.7821 121.586 75.6404 123.861 75.6583L128.459 75.6946C130.733 75.7125 132.591 73.8833 132.609 71.609C132.627 69.3346 130.798 67.4764 128.524 67.4584Z"
        fill="#BD0B0B" />
    <path
        d="M126.928 75.9707L121.107 75.9248C119.262 75.9102 117.755 77.3936 117.741 79.2379C117.726 81.0822 119.21 82.5891 121.054 82.6037L126.876 82.6496C128.72 82.6641 130.227 81.1808 130.241 79.3365C130.256 77.4922 128.773 75.9853 126.928 75.9707Z"
        fill="#BD0B0B" />
    <path
        d="M123.047 83.2775L119.607 83.2504C118.213 83.2394 117.074 84.3606 117.063 85.7546C117.052 87.1487 118.173 88.2877 119.567 88.2987L123.007 88.3258C124.401 88.3368 125.54 87.2156 125.551 85.8216C125.562 84.4275 124.441 83.2885 123.047 83.2775Z"
        fill="#BD0B0B" />
    <path
        d="M121.022 84.1917L119.012 84.1759C118.664 84.1731 118.38 84.4529 118.377 84.8009L118.363 86.5988C118.361 86.9468 118.64 87.231 118.988 87.2338L120.998 87.2496C121.346 87.2524 121.63 86.9726 121.633 86.6246L121.647 84.8267C121.65 84.4787 121.37 84.1945 121.022 84.1917Z"
        fill="#F03E3E" />
    <path
        d="M123.06 77.5089L120.808 77.4911C120.063 77.4852 119.454 78.0849 119.448 78.8304L119.439 79.9194C119.433 80.665 120.033 81.2741 120.779 81.28L123.03 81.2978C123.776 81.3036 124.385 80.704 124.391 79.9585L124.399 78.8695C124.405 78.1239 123.806 77.5148 123.06 77.5089Z"
        fill="#F03E3E" />
    <path
        d="M125.944 68.8713L124.126 68.857C123.132 68.8491 122.32 69.6486 122.312 70.6427L122.301 72.0724C122.293 73.0665 123.092 73.8787 124.087 73.8865L125.905 73.9009C126.899 73.9087 127.711 73.1092 127.719 72.1152L127.73 70.6855C127.738 69.6914 126.938 68.8792 125.944 68.8713Z"
        fill="#F03E3E" />
    <path
        d="M58.0437 86.0446C57.914 86.445 57.906 86.8749 58.0207 87.2799C58.1353 87.6848 58.3674 88.0467 58.6877 88.3197C59.0081 88.5928 59.4021 88.7647 59.8201 88.8138C60.2381 88.8628 60.6613 88.7868 61.0361 88.5954C61.411 88.404 61.7206 88.1057 61.9259 87.7383C62.1312 87.3709 62.223 86.9508 62.1895 86.5313C62.1561 86.1117 61.9991 85.7115 61.7382 85.3812C61.4773 85.0509 61.1244 84.8054 60.724 84.6757C60.187 84.5019 59.603 84.5485 59.1004 84.8052C58.5977 85.0619 58.2177 85.5077 58.0437 86.0446Z"
        fill="#BD0B0B" />
    <path
        d="M57.0811 80.8525C56.312 81.2426 55.6279 81.7814 55.0685 82.4378C54.509 83.0941 54.0854 83.855 53.8222 84.6762C53.7204 84.9905 53.7476 85.3323 53.8979 85.6264C54.0481 85.9206 54.309 86.143 54.6233 86.2448C54.9375 86.3466 55.2793 86.3194 55.5735 86.1692C55.8677 86.0189 56.0901 85.758 56.1919 85.4437C56.3567 84.9348 56.62 84.4634 56.967 84.0563C57.314 83.6492 57.7378 83.3144 58.2142 83.0711C58.6906 82.8278 59.2102 82.6807 59.7434 82.6383C60.2767 82.5959 60.813 82.6589 61.3219 82.8237C61.6361 82.9255 61.9779 82.8983 62.2721 82.7481C62.5663 82.5978 62.7887 82.3369 62.8905 82.0227C62.9923 81.7084 62.9651 81.3666 62.8148 81.0724C62.6646 80.7783 62.4036 80.5558 62.0894 80.454C61.2697 80.1859 60.405 80.083 59.5453 80.1514C58.6856 80.2198 57.848 80.4581 57.0811 80.8525Z"
        fill="#BD0B0B" />
    <path
        d="M55.2151 77.2007C53.9654 77.8346 52.8538 78.7101 51.9448 79.7766C51.0357 80.843 50.3472 82.0792 49.9192 83.4136C49.8679 83.5694 49.8478 83.7338 49.8603 83.8974C49.8727 84.061 49.9173 84.2205 49.9916 84.3668C50.0658 84.5131 50.1683 84.6433 50.293 84.7499C50.4177 84.8564 50.5623 84.9373 50.7183 84.9879C50.8744 85.0384 51.0389 85.0577 51.2025 85.0444C51.366 85.0312 51.5253 84.9858 51.6712 84.9108C51.8171 84.8359 51.9468 84.7328 52.0528 84.6076C52.1588 84.4824 52.239 84.3374 52.2888 84.1811C52.6195 83.1597 53.1482 82.2135 53.8446 81.3965C54.541 80.5795 55.3915 79.9076 56.3476 79.4193C57.3037 78.9311 58.3466 78.6359 59.4168 78.5507C60.487 78.4655 61.5635 78.5919 62.5848 78.9227C62.899 79.0245 63.2408 78.9973 63.535 78.847C63.8291 78.6968 64.0516 78.4359 64.1533 78.1216C64.2551 77.8074 64.2279 77.4656 64.0776 77.1714C63.9274 76.8772 63.6664 76.6548 63.3522 76.553C62.0204 76.1176 60.6155 75.9506 59.2188 76.0617C57.822 76.1729 56.4612 76.56 55.2151 77.2007Z"
        fill="#BD0B0B" />
    <path
        d="M64.6203 72.6421C62.7743 72.044 60.8285 71.8155 58.8941 71.9695C56.9597 72.1235 55.0746 72.657 53.3464 73.5396C51.6183 74.4222 50.0809 75.6366 48.8221 77.1134C47.5633 78.5902 46.6077 80.3005 46.0099 82.1467C45.9595 82.3023 45.9403 82.4663 45.9533 82.6293C45.9663 82.7924 46.0112 82.9513 46.0856 83.0969C46.16 83.2426 46.2624 83.3722 46.3868 83.4783C46.5113 83.5844 46.6554 83.6649 46.811 83.7153C46.9666 83.7657 47.1306 83.785 47.2937 83.772C47.4567 83.759 47.6156 83.714 47.7612 83.6396C47.9069 83.5652 48.0365 83.4629 48.1426 83.3384C48.2487 83.214 48.3292 83.0698 48.3796 82.9142C48.8766 81.3793 49.671 79.9573 50.7176 78.7295C51.7642 77.5016 53.0424 76.492 54.4793 75.7582C55.9161 75.0244 57.4834 74.5808 59.0917 74.4528C60.7 74.3248 62.3177 74.5149 63.8525 75.0122C64.1668 75.114 64.5087 75.0868 64.8029 74.9366C65.0972 74.7863 65.3197 74.5253 65.4215 74.211C65.5233 73.8967 65.4961 73.5549 65.3458 73.2606C65.1956 72.9664 64.9346 72.7439 64.6203 72.6421Z"
        fill="#BD0B0B" />
    <path
        d="M144.244 27.4025C141.322 25.6182 138.923 26.5305 138.209 27.6995C137.693 28.5438 138.17 29.3696 138.754 29.7265C139.923 30.4402 140.465 28.4826 142.672 29.8308C143.754 30.4917 144.329 31.4967 143.721 32.4924C143.007 33.6613 141.386 33.5922 140.301 33.7621C139.343 33.92 137.979 34.3053 136.842 36.1669C136.154 37.2925 136.259 37.8022 137.147 38.3442C138.207 38.9917 138.714 38.6477 138.965 38.2362C139.653 37.1105 140.071 36.4743 141.83 36.2705C142.692 36.1728 145.431 35.8242 146.673 33.7895C147.916 31.7547 147.014 29.0943 144.244 27.4025Z"
        fill="#8A0000" />
    <path
        d="M136.256 39.8507C136.037 39.717 135.794 39.6278 135.541 39.588C135.287 39.5483 135.028 39.5589 134.779 39.6191C134.53 39.6794 134.295 39.7882 134.088 39.9392C133.88 40.0903 133.705 40.2807 133.571 40.4996C133.437 40.7185 133.348 40.9616 133.308 41.215C133.269 41.4684 133.279 41.7271 133.34 41.9764C133.4 42.2257 133.509 42.4607 133.66 42.668C133.811 42.8752 134.001 43.0507 134.22 43.1844C134.662 43.4543 135.193 43.5376 135.697 43.4159C136.2 43.2942 136.635 42.9775 136.905 42.5354C137.175 42.0933 137.258 41.5621 137.136 41.0587C137.015 40.5552 136.698 40.1206 136.256 39.8507Z"
        fill="#8A0000" />
</svg>
    