<svg width="56" height="56" viewBox="0 0 56 56" fill="none" xmlns="http://www.w3.org/2000/svg">
<path d="M38.094 6.15698H12.4035C11.7065 6.15698 11.1415 6.72201 11.1415 7.419V43.3224H34.0918C34.0918 47.1768 37.3878 49.8702 41.2485 49.8503C45.043 49.8313 48.147 46.6147 48.147 42.8207V16.1606H41.4483C40.3798 16.1606 38.094 13.8216 38.094 12.7537V6.15698Z" fill="#1999F9"/>
<path d="M34.1424 43.2095H7.82031C7.82031 46.6527 10.3249 49.142 13.6109 49.6936L14.7677 49.7904L41.1424 49.7378C37.3058 49.7378 34.0445 46.7915 34.1424 43.2095Z" fill="#72C2FF"/>
<path d="M22.4582 9.52466H16.7118C16.44 9.52466 16.2196 9.74502 16.2196 10.0168V15.7632C16.2196 16.0351 16.44 16.2554 16.7118 16.2554H22.4582C22.73 16.2554 22.9504 16.0351 22.9504 15.7632V10.0168C22.9504 9.74502 22.73 9.52466 22.4582 9.52466Z" fill="#72C2FF"/>
<path d="M40.9562 19.5681H16.7002C16.4284 19.5681 16.208 19.7885 16.208 20.0603V20.7586C16.208 21.0304 16.4284 21.2508 16.7002 21.2508H40.9562C41.228 21.2508 41.4484 21.0304 41.4484 20.7586V20.0603C41.4484 19.7885 41.228 19.5681 40.9562 19.5681Z" fill="#72C2FF"/>
<path d="M40.9562 24.6345H16.7002C16.4284 24.6345 16.208 24.8549 16.208 25.1267V25.825C16.208 26.0969 16.4284 26.3172 16.7002 26.3172H40.9562C41.228 26.3172 41.4484 26.0969 41.4484 25.825V25.1267C41.4484 24.8549 41.228 24.6345 40.9562 24.6345Z" fill="#72C2FF"/>
<path d="M40.9562 29.7012H16.7002C16.4284 29.7012 16.208 29.9215 16.208 30.1934V30.8917C16.208 31.1635 16.4284 31.3839 16.7002 31.3839H40.9562C41.228 31.3839 41.4484 31.1635 41.4484 30.8917V30.1934C41.4484 29.9215 41.228 29.7012 40.9562 29.7012Z" fill="#72C2FF"/>
<path opacity="0.6" d="M38.0909 14.551V15.8656C38.0909 16.1481 38.2085 16.4179 38.4156 16.61C38.6226 16.8022 38.9004 16.8995 39.1821 16.8784L48.1813 16.209L38.0909 14.551Z" fill="#72C2FF"/>
<path d="M43.3072 11.1662L38.0798 6.125L38.0935 15.7868C38.0935 16.0191 38.2818 16.2075 38.5142 16.2075H48.1812L43.3072 11.1662Z" fill="#72C2FF"/>
</svg>
