<svg width="280" height="280" viewBox="0 0 280 280" fill="none" xmlns="http://www.w3.org/2000/svg">
    <path
        d="M101.792 242.485C116.649 251.44 127.248 247.722 131.305 240.542C139.152 226.655 165.242 198.258 206.588 188.66C261.348 175.948 249.912 142.196 216.249 124.484C182.586 106.773 157.415 82.2651 161.225 55.6176C165.034 28.9702 127.289 19.7839 110.503 71.0447C99.6554 104.171 80.216 113.046 67.8198 115.179C56.1367 117.19 43.3568 119.713 37.1247 129.797C29.5624 142.033 32.2013 154.41 63.8627 162.9C108.73 174.93 68.492 222.413 101.792 242.485Z"
        fill="#E0E8F0" />
    <path
        d="M63.1915 184.424C63.8202 184.064 70.9166 181.06 106.22 197.518C106.117 197.658 106.073 197.724 106.073 197.724C106.073 197.724 69.3721 210.084 62.1813 194.858C60.0339 190.325 60.6492 187.203 63.1302 184.459L63.1915 184.424Z"
        fill="#BD0B0B" />
    <path
        d="M181.847 190.652C174.177 197.1 162.149 201.78 150.543 195.557C152.377 194.385 154.271 193.178 156.203 191.929C167.859 184.44 178.125 189.451 181.847 190.652Z"
        fill="#BD0B0B" />
    <path
        d="M195.586 111.349C203.422 176.601 184.799 188.443 182.726 190.242C182.126 190.763 181.883 190.725 180.975 190.491L180.96 190.5C177.119 189.482 167.859 184.44 156.203 191.928C154.271 193.177 152.377 194.384 150.543 195.556C138.653 203.097 129.051 208.411 122.134 205.327C116.266 202.333 110.976 199.743 106.219 197.518C70.9165 181.06 63.8201 184.064 63.1914 184.424C63.9209 184.027 70.6134 180.317 79.6246 173.793C79.6553 173.776 79.6859 173.758 79.6925 173.734C91.7373 165.005 107.868 151.249 119.462 133.554C127.355 121.521 135.077 91.017 149.976 85.0317C180.595 73.6091 194.314 98.0762 195.586 111.349Z"
        fill="#F03E3E" />
    <path
        d="M161.729 110.204C162.68 107.694 162.587 105.333 161.522 104.93C160.457 104.526 158.824 106.234 157.873 108.744C156.923 111.254 157.015 113.615 158.08 114.018C159.145 114.421 160.779 112.714 161.729 110.204Z"
        fill="white" />
    <path
        d="M181.226 113.406C181.9 110.808 181.553 108.471 180.451 108.185C179.348 107.899 177.909 109.774 177.235 112.371C176.562 114.969 176.909 117.307 178.011 117.593C179.113 117.878 180.553 116.004 181.226 113.406Z"
        fill="white" />
    <path
        d="M169.357 122.944C169.198 122.944 169.043 122.89 168.919 122.789C168.794 122.689 168.708 122.549 168.674 122.393C168.549 121.828 167.994 120.156 167.114 119.908C166.233 119.659 164.507 120.624 163.808 121.13C163.658 121.239 163.47 121.284 163.287 121.254C163.103 121.225 162.939 121.124 162.83 120.974C162.721 120.823 162.677 120.636 162.706 120.452C162.735 120.269 162.836 120.105 162.987 119.996C163.262 119.797 165.728 118.062 167.494 118.56C169.336 119.08 169.975 121.788 170.042 122.095C170.064 122.198 170.063 122.304 170.039 122.405C170.015 122.507 169.969 122.602 169.903 122.684C169.837 122.765 169.754 122.831 169.66 122.876C169.565 122.921 169.462 122.945 169.357 122.944H169.357Z"
        fill="white" />
</svg>
    