<svg width="18" height="18" viewBox="0 0 18 18" fill="none" xmlns="http://www.w3.org/2000/svg">
<path d="M15.3 6.3C14.925 6.375 14.7 6.825 14.775 7.2C14.925 7.8 15 8.4 15 9C15 12.75 12 15.75 8.25 15.75C4.5 15.75 1.5 12.75 1.5 9C1.5 5.25 4.5 2.25 8.25 2.25C9.525 2.25 10.725 2.625 11.775 3.225C12.15 3.45 12.6 3.3 12.825 3C13.05 2.625 12.9 2.175 12.6 1.95C11.25 1.2 9.75 0.75 8.25 0.75C3.675 0.75 0 4.425 0 9C0 13.575 3.675 17.25 8.25 17.25C12.825 17.25 16.5 13.575 16.5 9C16.5 8.25 16.425 7.5 16.2 6.825C16.125 6.45 15.675 6.225 15.3 6.3Z" fill="#00BF91"/>
<path d="M17.025 1.725C16.725 1.425 16.275 1.425 15.975 1.725L8.25 9.45L5.775 6.975C5.475 6.675 5.025 6.675 4.725 6.975C4.425 7.275 4.425 7.725 4.725 8.025L7.725 11.025C7.875 11.175 8.1 11.25 8.25 11.25C8.4 11.25 8.625 11.175 8.775 11.025L17.025 2.775C17.325 2.475 17.325 2.025 17.025 1.725Z" fill="#00BF91"/>
</svg>
