<svg width="24" height="24" viewBox="0 0 24 24" fill="none" xmlns="http://www.w3.org/2000/svg">
<path d="M4.5 8.66675V21.1667C4.5 21.6267 4.87333 22.0001 5.33333 22.0001H18.6667C19.1267 22.0001 19.5 21.6267 19.5 21.1667V8.66675H4.5ZM9.5 17.8334H7.83333V12.8334H9.5V17.8334ZM12.8333 17.8334H11.1667V12.8334H12.8333V17.8334ZM16.1667 17.8334H14.5V12.8334H16.1667V17.8334Z" fill="#93A0AC"/>
<path d="M21.1667 5.33333H16.1667V2.83333C16.1667 2.37333 15.7942 2 15.3333 2H8.66667C8.20583 2 7.83333 2.37333 7.83333 2.83333V5.33333H2.83333C2.3725 5.33333 2 5.70667 2 6.16667C2 6.62667 2.3725 7 2.83333 7H21.1667C21.6275 7 22 6.62667 22 6.16667C22 5.70667 21.6275 5.33333 21.1667 5.33333ZM9.5 3.66667H14.5V5.33333H9.5V3.66667Z" fill="#93A0AC"/>
</svg>
