<svg width="57" height="56" viewBox="0 0 57 56" fill="none" xmlns="http://www.w3.org/2000/svg">
    <path fill-rule="evenodd" clip-rule="evenodd" d="M31.9362 28.5137C27.065 28.5137 23.1162 32.4625 23.1162 37.3337V37.3562C23.1162 42.2273 27.065 46.1762 31.9362 46.1762H44.9431C45.4289 46.1762 45.9056 46.1369 46.3702 46.0613L48.8901 48.4953C48.9586 48.5615 49.0502 48.5985 49.1454 48.5985C49.3484 48.5985 49.5129 48.434 49.5129 48.231L49.5131 44.9014C52.0609 43.3549 53.7631 40.5543 53.7631 37.3562V37.3337C53.7631 32.4625 49.8142 28.5137 44.9431 28.5137H31.9362Z" fill="#0037BF"/>
    <path d="M34.0756 7.38281H15.5037C8.5449 7.38281 2.90369 13.024 2.90369 19.9828C2.90369 26.9416 8.5449 32.5828 15.5037 32.5828H34.0756C41.0343 32.5828 46.6756 26.9416 46.6756 19.9828C46.6756 13.024 41.0343 7.38281 34.0756 7.38281Z" fill="#0B6AF2"/>
    <path fill-rule="evenodd" clip-rule="evenodd" d="M8.974 28.918V35.5142C8.974 35.8041 9.20905 36.0392 9.499 36.0392C9.63499 36.0392 9.76567 35.9864 9.86354 35.892L14.7107 31.215L8.974 28.918Z" fill="#0B6AF2"/>
    <path d="M16.3569 21.557C17.4804 21.557 18.3913 20.6462 18.3913 19.5227C18.3913 18.3991 17.4804 17.4883 16.3569 17.4883C15.2333 17.4883 14.3225 18.3991 14.3225 19.5227C14.3225 20.6462 15.2333 21.557 16.3569 21.557Z" fill="#71D0FF"/>
    <path d="M24.6912 21.557C25.8147 21.557 26.7255 20.6462 26.7255 19.5227C26.7255 18.3991 25.8147 17.4883 24.6912 17.4883C23.5676 17.4883 22.6568 18.3991 22.6568 19.5227C22.6568 20.6462 23.5676 21.557 24.6912 21.557Z" fill="#71D0FF"/>
    <path d="M33.2224 21.557C34.346 21.557 35.2568 20.6462 35.2568 19.5227C35.2568 18.3991 34.346 17.4883 33.2224 17.4883C32.0989 17.4883 31.188 18.3991 31.188 19.5227C31.188 20.6462 32.0989 21.557 33.2224 21.557Z" fill="#71D0FF"/>
    </svg>
    