<svg width="56" height="56" viewBox="0 0 56 56" fill="none" xmlns="http://www.w3.org/2000/svg">
<rect opacity="0.25" width="56" height="56" rx="4" fill="#93A0AC"/>
<path d="M25 16H17C16.448 16 16 16.447 16 17V25C16 25.553 16.448 26 17 26H25C25.552 26 26 25.553 26 25V17C26 16.447 25.552 16 25 16Z" fill="#93A0AC"/>
<path d="M39 16H31C30.448 16 30 16.447 30 17V25C30 25.553 30.448 26 31 26H39C39.552 26 40 25.553 40 25V17C40 16.447 39.552 16 39 16Z" fill="#93A0AC"/>
<path d="M25 30H17C16.448 30 16 30.447 16 31V39C16 39.553 16.448 40 17 40H25C25.552 40 26 39.553 26 39V31C26 30.447 25.552 30 25 30Z" fill="#93A0AC"/>
<path d="M39 30H31C30.448 30 30 30.447 30 31V39C30 39.553 30.448 40 31 40H39C39.552 40 40 39.553 40 39V31C40 30.447 39.552 30 39 30Z" fill="#93A0AC"/>
</svg>
