<svg width="56" height="56" viewBox="0 0 56 56" fill="none" xmlns="http://www.w3.org/2000/svg">
    <path fill-rule="evenodd" clip-rule="evenodd" d="M28 4.375C14.9522 4.375 4.375 14.9522 4.375 28C4.375 41.0477 14.9522 51.625 28 51.625C41.0477 51.625 51.625 41.0477 51.625 28C51.625 14.9522 41.0477 4.375 28 4.375Z" fill="#3E9DFF"/>
    <path fill-rule="evenodd" clip-rule="evenodd" d="M28.9648 34.75H28.1211C27.4221 34.75 26.8555 34.1834 26.8555 33.4844V17.4531C26.8555 16.7541 27.4221 16.1875 28.1211 16.1875H28.9648C29.6638 16.1875 30.2305 16.7541 30.2305 17.4531V33.4844C30.2305 34.1834 29.6638 34.75 28.9648 34.75Z" fill="white"/>
    <path fill-rule="evenodd" clip-rule="evenodd" d="M28.9648 39.9375H28.1211C27.4221 39.9375 26.8555 39.3709 26.8555 38.6719V37.8281C26.8555 37.1291 27.4221 36.5625 28.1211 36.5625H28.9648C29.6638 36.5625 30.2305 37.1291 30.2305 37.8281V38.6719C30.2305 39.3709 29.6638 39.9375 28.9648 39.9375Z" fill="white"/>
    </svg>
    