<svg width="24" height="24" viewBox="0 0 24 24" fill="none" xmlns="http://www.w3.org/2000/svg">
<path d="M9.25849 6.94514C6.42464 6.94514 5.64 6.59007 5.01231 9.4109L4.38462 9.4109C3.61846 9.4109 3 10.0717 3 10.8903C3 11.709 3.61846 12.3698 4.38462 12.3698L5.01231 12.3698C5.10464 14.0958 5.10464 14.0958 5.56618 14.589C6.02772 14.589 9.25849 15.0821 9.25849 15.0821L15.4615 16.8082L17.3077 18.7808L18.2308 18.7808L18.2308 2.99994L17.3077 2.99994L15.4615 4.97254L9.25849 6.94514ZM21 10.8903C21 10.7523 20.9908 10.624 20.9631 10.4958C20.8339 9.85473 20.4277 9.33199 19.8739 9.07555C19.6523 8.97692 19.4123 8.92761 19.1539 8.92761L19.1539 12.8728C20.1692 12.863 21 11.9851 21 10.8903Z" fill="#93A0AC"/>
<path d="M5.7 15.375L8.8499 15.8437L9.7499 21L7.5 21L5.7 15.375Z" fill="#93A0AC"/>
</svg>
