<svg width="57" height="56" viewBox="0 0 57 56" fill="none" xmlns="http://www.w3.org/2000/svg">
    <path d="M29.1156 53.0294C42.5371 53.0294 53.4174 42.1491 53.4174 28.7276C53.4174 15.3061 42.5371 4.42578 29.1156 4.42578C15.6941 4.42578 4.81384 15.3061 4.81384 28.7276C4.81384 42.1491 15.6941 53.0294 29.1156 53.0294Z" fill="#0B6AF2"/>
    <path d="M28.9733 47.8912C39.6357 47.8912 48.2793 39.2477 48.2793 28.5853C48.2793 17.9229 39.6357 9.2793 28.9733 9.2793C18.3109 9.2793 9.66736 17.9229 9.66736 28.5853C9.66736 39.2477 18.3109 47.8912 28.9733 47.8912Z" fill="#3E9DFF"/>
    <path d="M26.3027 36.895C25.4305 36.8127 24.6076 36.681 23.8341 36.5C23.0771 36.319 22.4435 36.0886 21.9333 35.8088V31.8591C22.822 32.3199 23.7436 32.6655 24.6981 32.8959C25.6691 33.1263 26.5907 33.2415 27.4629 33.2415C28.2529 33.2415 28.8289 33.1263 29.1909 32.8959C29.5695 32.649 29.7587 32.2952 29.7587 31.8344C29.7587 31.4723 29.66 31.1761 29.4625 30.9457C29.265 30.7153 28.9605 30.5014 28.5491 30.3039C28.1541 30.0899 27.5041 29.7937 26.5989 29.4152C25.0026 28.7404 23.8424 27.9834 23.1183 27.1441C22.3941 26.3048 22.0321 25.2762 22.0321 24.0584C22.0321 22.8735 22.4106 21.8614 23.1676 21.022C23.9411 20.1663 24.9861 19.5738 26.3027 19.2447V16.8008H30.2771V19.0472C31.4949 19.1788 32.6552 19.4998 33.7578 20.0099V23.8609C32.3096 23.1039 30.8531 22.7254 29.3884 22.7254C28.6479 22.7254 28.0554 22.8488 27.6111 23.0956C27.1667 23.3425 26.9445 23.7046 26.9445 24.1818C26.9445 24.511 27.0515 24.7907 27.2655 25.0211C27.4959 25.2515 27.8085 25.4655 28.2035 25.663C28.6149 25.8604 29.265 26.132 30.1537 26.4776C31.3221 26.9548 32.2273 27.4321 32.8691 27.9094C33.5274 28.3702 34.0047 28.9132 34.3009 29.5386C34.5971 30.164 34.7452 30.9457 34.7452 31.8838C34.7452 33.1674 34.3749 34.2289 33.6344 35.0682C32.8938 35.8911 31.7747 36.4506 30.2771 36.7468V39.1414H26.3027V36.895Z" fill="#0B6AF2"/>
    </svg>
    