<svg width="240" height="240" viewBox="0 0 240 240" fill="none" xmlns="http://www.w3.org/2000/svg">
    <path d="M39.7075 179.419C46.0555 194.91 56.4058 198.134 63.6835 194.91C77.7579 188.674 114.318 181.706 151.867 198.084C201.598 219.776 212.18 187.049 196.308 153.945C180.436 120.842 175.056 87.3647 193.354 68.9209C211.651 50.477 187.707 21.6245 145.186 51.658C117.707 71.0668 97.5404 66.7449 86.7112 61.258C76.505 56.0869 65.1544 50.6807 54.5201 54.9017C41.6162 60.0238 36.5321 71.129 56.1641 95.9377C83.9855 131.094 25.4767 144.695 39.7075 179.419Z" fill="#E0E8F0"/>
    <path d="M183.476 72.4812C183.307 72.6952 183.117 72.8921 182.91 73.0692L168.077 85.9062L157.005 119.534L126.141 142.088C126.141 142.088 120.882 146.493 116.081 146.902C115.006 147.278 111.751 148.544 109.947 150.502C109.366 151.133 104.807 164.598 97.7354 183.64C97.3815 184.592 96.6842 185.379 95.7803 185.844C94.8765 186.309 93.8314 186.419 92.8502 186.154C84.0138 183.755 64.2215 178.474 54.8046 174.907C54.2243 174.687 53.7065 174.329 53.2966 173.864C52.8867 173.398 52.597 172.839 52.4531 172.235C52.3091 171.632 52.3151 171.003 52.4707 170.402C52.6262 169.801 52.9265 169.248 53.3453 168.79C64.1662 156.962 86.9164 129.89 86.9164 129.89L88.4598 126.684C88.4598 126.684 98.1787 96.3177 101.358 94.344C102.56 93.0386 109.475 82.916 112.196 75.8543C112.814 74.8266 115.682 70.5493 118.085 66.8563C119.787 64.2163 121.265 61.8678 121.517 61.197C121.571 61.0433 121.662 60.905 121.781 60.7943C121.781 60.7943 121.774 60.7921 121.783 60.7866C122.93 59.5891 126.734 59.8596 126.918 64.4057C127.124 69.4205 122.615 79.8235 121.707 80.1069C121.248 81.2133 119.943 87.1721 117.39 92.2175C117.171 92.9801 116.842 94.9501 118.995 94.4722C121.15 93.9867 170.997 70.5037 170.997 70.5037L177.18 66.62C178.09 66.0307 179.173 65.7666 180.253 65.8706C181.532 66.0177 182.704 66.6546 183.524 67.6475C185.288 69.6915 184.135 71.6553 183.476 72.4812Z" fill="#3E9DFF"/>
    <path d="M120.605 67.6816C119.714 67.7634 118.805 67.3362 118.085 66.856C119.787 64.216 121.265 61.8675 121.517 61.1967C121.571 61.0429 121.662 60.9047 121.782 60.7939C123.833 63.2438 120.851 67.4303 120.605 67.6816Z" fill="#71D0FF"/>
    <path d="M171.543 62.2683L135.015 51.7396C132.468 51.0054 129.808 52.4751 129.073 55.0224L106.97 131.707C106.236 134.255 107.705 136.915 110.253 137.649L146.781 148.178C149.328 148.912 151.988 147.442 152.722 144.895L174.826 68.21C175.56 65.6627 174.09 63.0026 171.543 62.2683Z" fill="#0B6AF2"/>
    <path d="M169.624 64.1891L135.62 54.3877C133.709 53.837 131.714 54.9393 131.164 56.8498L109.712 131.273C109.161 133.183 110.264 135.178 112.174 135.729L146.179 145.53C148.089 146.081 150.084 144.979 150.635 143.068L172.087 68.6454C172.637 66.7349 171.535 64.7398 169.624 64.1891Z" fill="#71D0FF"/>
    <path d="M171.365 89.2772L165.234 89.2289C162.202 89.2049 159.724 91.6439 159.7 94.6763C159.676 97.7088 162.115 100.187 165.148 100.21L171.278 100.259C174.311 100.283 176.788 97.8438 176.812 94.8113C176.836 91.7789 174.397 89.3012 171.365 89.2772Z" fill="#3E9DFF"/>
    <path d="M169.238 100.627L161.476 100.565C159.016 100.546 157.007 102.524 156.988 104.983C156.968 107.442 158.946 109.451 161.405 109.471L169.168 109.532C171.627 109.551 173.636 107.573 173.655 105.114C173.675 102.655 171.697 100.646 169.238 100.627Z" fill="#3E9DFF"/>
    <path d="M164.062 110.37L159.476 110.334C157.617 110.32 156.099 111.814 156.084 113.673C156.069 115.532 157.564 117.051 159.423 117.065L164.009 117.101C165.868 117.116 167.387 115.621 167.401 113.762C167.416 111.904 165.921 110.385 164.062 110.37Z" fill="#3E9DFF"/>
    <path d="M161.363 111.588L158.683 111.567C158.219 111.564 157.84 111.937 157.837 112.401L157.818 114.798C157.814 115.262 158.187 115.641 158.651 115.644L161.331 115.666C161.795 115.669 162.174 115.296 162.177 114.832L162.196 112.435C162.2 111.971 161.827 111.592 161.363 111.588Z" fill="#71D0FF"/>
    <path d="M164.08 102.679L161.078 102.655C160.084 102.647 159.271 103.446 159.264 104.441L159.252 105.893C159.244 106.887 160.044 107.699 161.038 107.707L164.04 107.73C165.034 107.738 165.846 106.939 165.854 105.945L165.866 104.493C165.873 103.499 165.074 102.686 164.08 102.679Z" fill="#71D0FF"/>
    <path d="M167.925 91.1621L165.501 91.143C164.176 91.1325 163.093 92.1985 163.083 93.5239L163.068 95.4302C163.057 96.7557 164.123 97.8386 165.449 97.8491L167.873 97.8682C169.198 97.8786 170.281 96.8126 170.291 95.4872L170.306 93.5809C170.317 92.2555 169.251 91.1725 167.925 91.1621Z" fill="#71D0FF"/>
    <path d="M77.3914 114.059C77.2185 114.593 77.2078 115.166 77.3607 115.706C77.5136 116.246 77.8231 116.728 78.2502 117.092C78.6772 117.456 79.2027 117.686 79.76 117.751C80.3174 117.816 80.8816 117.715 81.3814 117.46C81.8811 117.205 82.294 116.807 82.5677 116.317C82.8415 115.827 82.9638 115.267 82.9192 114.708C82.8747 114.148 82.6652 113.615 82.3174 113.174C81.9696 112.734 81.499 112.407 80.9651 112.234C80.2492 112.002 79.4705 112.064 78.8003 112.406C78.1302 112.749 77.6234 113.343 77.3914 114.059Z" fill="#3E9DFF"/>
    <path d="M76.1079 107.137C75.0824 107.657 74.1702 108.376 73.4244 109.251C72.6785 110.126 72.1137 111.14 71.7627 112.235C71.627 112.654 71.6633 113.11 71.8636 113.502C72.0639 113.894 72.4118 114.191 72.8308 114.327C73.2498 114.462 73.7055 114.426 74.0978 114.226C74.49 114.026 74.7866 113.678 74.9223 113.259C75.142 112.58 75.4931 111.951 75.9558 111.409C76.4184 110.866 76.9835 110.42 77.6187 110.095C78.2538 109.771 78.9467 109.575 79.6577 109.518C80.3686 109.461 81.0838 109.545 81.7623 109.765C82.1813 109.901 82.637 109.865 83.0292 109.664C83.4215 109.464 83.718 109.116 83.8537 108.697C83.9895 108.278 83.9532 107.822 83.7528 107.43C83.5525 107.038 83.2046 106.741 82.7856 106.606C81.6927 106.248 80.5398 106.111 79.3935 106.202C78.2473 106.293 77.1305 106.611 76.1079 107.137Z" fill="#3E9DFF"/>
    <path d="M73.6199 102.267C71.9536 103.112 70.4715 104.28 69.2594 105.702C68.0473 107.124 67.1294 108.772 66.5586 110.551C66.4902 110.759 66.4635 110.978 66.4801 111.196C66.4967 111.414 66.5562 111.627 66.6552 111.822C66.7542 112.017 66.8908 112.191 67.0571 112.333C67.2234 112.475 67.4161 112.583 67.6242 112.65C67.8323 112.718 68.0517 112.743 68.2697 112.726C68.4877 112.708 68.7001 112.647 68.8947 112.547C69.0893 112.448 69.2622 112.31 69.4035 112.143C69.5448 111.976 69.6517 111.783 69.7181 111.574C70.1591 110.213 70.864 108.951 71.7925 107.862C72.7211 106.772 73.8551 105.877 75.1299 105.225C76.4047 104.574 77.7953 104.181 79.2222 104.067C80.6491 103.954 82.0844 104.122 83.4461 104.563C83.8651 104.699 84.3208 104.663 84.713 104.462C85.1053 104.262 85.4018 103.914 85.5375 103.495C85.6732 103.076 85.6369 102.62 85.4366 102.228C85.2363 101.836 84.8883 101.539 84.4694 101.404C82.6937 100.823 80.8205 100.6 78.9581 100.749C77.0958 100.897 75.2814 101.413 73.6199 102.267Z" fill="#3E9DFF"/>
    <path d="M86.1602 96.1894C83.6988 95.392 81.1045 95.0873 78.5253 95.2926C75.9461 95.4979 73.4326 96.2093 71.1284 97.3861C68.8242 98.5629 66.7743 100.182 65.0959 102.151C63.4175 104.12 62.1434 106.401 61.3464 108.862C61.2792 109.07 61.2536 109.288 61.2709 109.506C61.2882 109.723 61.3481 109.935 61.4473 110.129C61.5465 110.323 61.683 110.496 61.8489 110.638C62.0149 110.779 62.2071 110.887 62.4145 110.954C62.622 111.021 62.8407 111.047 63.0581 111.029C63.2754 111.012 63.4873 110.952 63.6815 110.853C63.8757 110.754 64.0485 110.617 64.19 110.451C64.3314 110.285 64.4388 110.093 64.506 109.886C65.1686 107.839 66.2279 105.943 67.6233 104.306C69.0188 102.669 70.7231 101.323 72.6389 100.344C74.5546 99.3658 76.6444 98.7744 78.7888 98.6038C80.9331 98.4331 83.0901 98.6866 85.1365 99.3496C85.5556 99.4854 86.0114 99.4491 86.4037 99.2488C86.7961 99.0484 87.0927 98.7004 87.2285 98.2814C87.3642 97.8623 87.3279 97.4065 87.1276 97.0141C86.9273 96.6218 86.5793 96.3252 86.1602 96.1894Z" fill="#3E9DFF"/>
    <path d="M192.325 35.8697C188.43 33.4906 185.23 34.707 184.279 36.2657C183.591 37.3914 184.226 38.4924 185.005 38.9683C186.564 39.9199 187.286 37.3098 190.23 39.1074C191.673 39.9886 192.439 41.3286 191.628 42.6562C190.676 44.2147 188.514 44.1226 187.068 44.3491C185.791 44.5597 183.971 45.0735 182.456 47.5555C181.539 49.0564 181.679 49.7359 182.862 50.4586C184.276 51.322 184.952 50.8633 185.287 50.3146C186.204 48.8137 186.761 47.9654 189.106 47.6936C190.256 47.5634 193.907 47.0986 195.564 44.3856C197.221 41.6726 196.019 38.1254 192.325 35.8697Z" fill="#0B6AF2"/>
    <path d="M181.674 52.4676C181.383 52.2893 181.059 52.1703 180.721 52.1174C180.383 52.0644 180.038 52.0785 179.705 52.1588C179.373 52.2392 179.06 52.3842 178.783 52.5856C178.507 52.7871 178.273 53.041 178.095 53.3328C177.917 53.6247 177.798 53.9488 177.745 54.2866C177.692 54.6245 177.706 54.9695 177.786 55.3019C177.866 55.6343 178.011 55.9476 178.213 56.2239C178.414 56.5003 178.668 56.7343 178.96 56.9125C179.549 57.2724 180.258 57.3835 180.929 57.2212C181.6 57.059 182.18 56.6367 182.54 56.0472C182.9 55.4578 183.011 54.7495 182.849 54.0782C182.686 53.4069 182.264 52.8275 181.674 52.4676Z" fill="#0B6AF2"/>
    </svg>
    