<svg width="56" height="56" viewBox="0 0 56 56" fill="none" xmlns="http://www.w3.org/2000/svg">
<path d="M10.616 49.388L12.1891 50.9878L13.7821 49.388L15.3552 50.9878L16.9483 49.388L18.5214 50.9878L20.1134 49.388L21.6865 50.9878L23.2796 49.388L24.8527 50.9878L26.4452 49.388L28.0183 50.9878L29.6109 49.388L31.184 50.9878L32.777 49.388L34.3496 50.9878L35.9427 49.388L37.5158 50.9878L39.1083 49.388L40.6814 50.9878L42.2745 49.388L43.8497 50.9883L45.4401 49.388L46.9766 50.9511V5.99678C46.9766 5.28231 46.3973 4.70312 45.6827 4.70312H10.3173C9.60272 4.70312 9.02344 5.28231 9.02344 5.99678V51.2422V50.9883L10.616 49.388Z" fill="#3E9DFF"/>
<path d="M39.6087 20.2344H16.3913C16.1277 20.2344 15.9141 20.4481 15.9141 20.7116V21.5071C15.9141 21.7707 16.1277 21.9844 16.3913 21.9844H39.6087C39.8723 21.9844 40.0859 21.7707 40.0859 21.5071V20.7116C40.0859 20.4481 39.8723 20.2344 39.6087 20.2344Z" fill="#71D0FF"/>
<path d="M10.3173 4.70312H45.6827C46.3973 4.70312 46.9766 5.29075 46.9766 6.01562V6.45312H9.02344V6.01562C9.02344 5.29075 9.60272 4.70312 10.3173 4.70312Z" fill="#0037BF"/>
<path d="M39.6087 23.8438H16.3913C16.1277 23.8438 15.9141 24.0574 15.9141 24.321V25.1165C15.9141 25.3801 16.1277 25.5938 16.3913 25.5938H39.6087C39.8723 25.5938 40.0859 25.3801 40.0859 25.1165V24.321C40.0859 24.0574 39.8723 23.8438 39.6087 23.8438Z" fill="#71D0FF"/>
<path d="M39.6087 27.4531H16.3913C16.1277 27.4531 15.9141 27.6668 15.9141 27.9304V28.7259C15.9141 28.9894 16.1277 29.2031 16.3913 29.2031H39.6087C39.8723 29.2031 40.0859 28.9894 40.0859 28.7259V27.9304C40.0859 27.6668 39.8723 27.4531 39.6087 27.4531Z" fill="#71D0FF"/>
<path d="M16.543 36.1617V43.5727C16.543 43.7763 16.3779 43.9414 16.1743 43.9414H16.146C15.9424 43.9414 15.7773 43.7763 15.7773 43.5727V36.1617C15.7773 35.958 15.9424 35.793 16.146 35.793H16.1743C16.3779 35.793 16.543 35.958 16.543 36.1617Z" fill="#0037BF"/>
<path d="M18.3203 36.2437V43.6547C18.3203 43.8584 18.1552 44.0234 17.9516 44.0234H17.5406C17.3369 44.0234 17.1719 43.8584 17.1719 43.6547V36.2437C17.1719 36.0401 17.3369 35.875 17.5406 35.875H17.9516C18.1552 35.875 18.3203 36.0401 18.3203 36.2437Z" fill="#0037BF"/>
<path d="M26.1953 36.2437V43.6547C26.1953 43.8584 26.0302 44.0234 25.8266 44.0234H25.4156C25.2119 44.0234 25.0469 43.8584 25.0469 43.6547V36.2437C25.0469 36.0401 25.2119 35.875 25.4156 35.875H25.8266C26.0302 35.875 26.1953 36.0401 26.1953 36.2437Z" fill="#0037BF"/>
<path d="M23.0234 36.2437V43.6547C23.0234 43.8584 22.8584 44.0234 22.6547 44.0234H22.2437C22.0401 44.0234 21.875 43.8584 21.875 43.6547V36.2437C21.875 36.0401 22.0401 35.875 22.2437 35.875H22.6547C22.8584 35.875 23.0234 36.0401 23.0234 36.2437Z" fill="#0037BF"/>
<path d="M19.5781 36.1758V43.7227C19.5781 43.8888 19.4435 44.0234 19.2773 44.0234C19.1112 44.0234 18.9766 43.8888 18.9766 43.7227V36.1758C18.9766 36.0097 19.1112 35.875 19.2773 35.875C19.4435 35.875 19.5781 36.0097 19.5781 36.1758Z" fill="#0037BF"/>
<path d="M21.1641 43.7227V36.1758C21.1641 36.0097 21.0294 35.875 20.8633 35.875C20.6972 35.875 20.5625 36.0097 20.5625 36.1758V43.7227C20.5625 43.8888 20.6972 44.0234 20.8633 44.0234C21.0294 44.0234 21.1641 43.8888 21.1641 43.7227Z" fill="#0037BF"/>
<path d="M24.3359 36.1758V43.7227C24.3359 43.8888 24.2013 44.0234 24.0352 44.0234C23.869 44.0234 23.7344 43.8888 23.7344 43.7227V36.1758C23.7344 36.0097 23.869 35.875 24.0352 35.875C24.2013 35.875 24.3359 36.0097 24.3359 36.1758Z" fill="#0037BF"/>
<path d="M27.3438 36.0117V43.8867C27.3438 43.9622 27.2825 44.0234 27.207 44.0234C27.1315 44.0234 27.0703 43.9622 27.0703 43.8867V36.0117C27.0703 35.9362 27.1315 35.875 27.207 35.875C27.2825 35.875 27.3438 35.9362 27.3438 36.0117Z" fill="#0037BF"/>
<path d="M29.1211 36.1617V43.5727C29.1211 43.7763 28.956 43.9414 28.7524 43.9414H28.7242C28.5205 43.9414 28.3555 43.7763 28.3555 43.5727V36.1617C28.3555 35.958 28.5205 35.793 28.7242 35.793H28.7524C28.956 35.793 29.1211 35.958 29.1211 36.1617Z" fill="#0037BF"/>
<path d="M30.8984 36.2437V43.6547C30.8984 43.8584 30.7334 44.0234 30.5297 44.0234H30.1187C29.9151 44.0234 29.75 43.8584 29.75 43.6547V36.2437C29.75 36.0401 29.9151 35.875 30.1187 35.875H30.5297C30.7334 35.875 30.8984 36.0401 30.8984 36.2437Z" fill="#0037BF"/>
<path d="M38.7734 36.2437V43.6547C38.7734 43.8584 38.6084 44.0234 38.4047 44.0234H37.9937C37.7901 44.0234 37.625 43.8584 37.625 43.6547V36.2437C37.625 36.0401 37.7901 35.875 37.9937 35.875H38.4047C38.6084 35.875 38.7734 36.0401 38.7734 36.2437Z" fill="#0037BF"/>
<path d="M35.6562 36.2437V43.6547C35.6562 43.8584 35.4912 44.0234 35.2876 44.0234H34.8765C34.6729 44.0234 34.5078 43.8584 34.5078 43.6547V36.2437C34.5078 36.0401 34.6729 35.875 34.8765 35.875H35.2876C35.4912 35.875 35.6562 36.0401 35.6562 36.2437Z" fill="#0037BF"/>
<path d="M32.2109 36.1758V43.7227C32.2109 43.8888 32.0763 44.0234 31.9102 44.0234C31.744 44.0234 31.6094 43.8888 31.6094 43.7227V36.1758C31.6094 36.0097 31.744 35.875 31.9102 35.875C32.0763 35.875 32.2109 36.0097 32.2109 36.1758Z" fill="#0037BF"/>
<path d="M33.7969 36.1758V43.7227C33.7969 43.8888 33.6622 44.0234 33.4961 44.0234C33.33 44.0234 33.1953 43.8888 33.1953 43.7227V36.1758C33.1953 36.0097 33.33 35.875 33.4961 35.875C33.6622 35.875 33.7969 36.0097 33.7969 36.1758Z" fill="#0037BF"/>
<path d="M36.9688 36.1758V43.7227C36.9688 43.8888 36.8341 44.0234 36.668 44.0234C36.5019 44.0234 36.3672 43.8888 36.3672 43.7227V36.1758C36.3672 36.0097 36.5019 35.875 36.668 35.875C36.8341 35.875 36.9688 36.0097 36.9688 36.1758Z" fill="#0037BF"/>
<path d="M39.9219 36.0117V43.8867C39.9219 43.9622 39.8607 44.0234 39.7852 44.0234C39.7096 44.0234 39.6484 43.9622 39.6484 43.8867V36.0117C39.6484 35.9362 39.7096 35.875 39.7852 35.875C39.8607 35.875 39.9219 35.9362 39.9219 36.0117Z" fill="#0037BF"/>
<path d="M27.1471 14.7105C27.0164 14.6142 26.9008 14.499 26.8041 14.3686C26.6745 14.1965 26.5881 13.9145 26.5341 13.6039C26.2807 13.5731 26.0841 13.3261 26.0841 13.0257C26.0841 12.768 26.2289 12.5496 26.4298 12.4735C26.4223 12.1861 26.4298 11.9882 26.4298 11.9882C26.4331 11.4947 26.6803 11.0346 27.0904 10.7591C27.0904 10.7591 27.5166 10.2813 28.8394 10.2813V10.6831C29.3158 10.9454 29.6135 11.4439 29.6182 11.9871C29.6182 11.9871 29.6247 12.1963 29.6182 12.4951C29.8076 12.6039 29.9219 12.8077 29.9159 13.0257C29.9159 13.3056 29.7446 13.5397 29.5167 13.5947C29.46 13.9091 29.3736 14.1949 29.2429 14.3686C29.135 14.5161 29.0023 14.6438 28.8507 14.7461V15.3657C29.2108 15.4922 29.5636 15.6388 29.9072 15.8047C31.3092 14.9513 31.9712 13.2708 31.5273 11.6925C31.0834 10.1142 29.642 9.02344 28 9.02344C26.358 9.02344 24.9166 10.1142 24.4727 11.6925C24.0288 13.2708 24.6908 14.9513 26.0928 15.8047C26.4364 15.6388 26.7892 15.4922 27.1493 15.3657L27.1471 14.7105Z" fill="#71D0FF"/>
<path d="M29.9052 15.8164C29.562 15.65 29.2097 15.5031 28.8501 15.3763V14.7552C29.0015 14.6527 29.134 14.5247 29.2417 14.3768C29.3723 14.2027 29.4575 13.9162 29.5152 13.601C29.7429 13.547 29.9139 13.3113 29.9139 13.0307C29.9194 12.8135 29.8062 12.6106 29.6188 12.5015C29.6274 12.202 29.6188 11.9922 29.6188 11.9922C29.6138 11.4466 29.3151 10.9463 28.8377 10.684V10.2812C27.5166 10.2812 27.0909 10.7602 27.0909 10.7602C26.6814 11.0364 26.4344 11.4975 26.4312 11.9922C26.4312 11.9922 26.4247 12.1917 26.4312 12.4788C26.2305 12.555 26.0859 12.7739 26.0859 13.0323C26.0859 13.3334 26.2823 13.581 26.5353 13.6118C26.5919 13.9232 26.6777 14.2065 26.805 14.3784C26.9015 14.5091 27.017 14.6246 27.1476 14.7211V15.3758C26.7879 15.5026 26.4356 15.6495 26.0924 15.8158C27.2622 16.5301 28.7322 16.5301 29.902 15.8158L29.9052 15.8164Z" fill="#0037BF"/>
</svg>
