<svg width="280" height="280" viewBox="0 0 280 280" fill="none" xmlns="http://www.w3.org/2000/svg">
    <path
        d="M152.663 53.5886C152.663 53.5886 133.914 95.6701 84.3312 86.03C34.7486 76.3899 4.87527 144.212 51.7513 168.941C98.6274 193.671 66.1411 222.079 97.4042 236.59C132.937 253.082 146.187 197.935 172.365 203.057C230.139 214.361 265.877 194.974 250.074 168.884C222.335 123.086 202.194 124.772 210.379 95.1973C218.564 65.6225 172.341 20.2201 152.663 53.5886Z"
        fill="#E0E8F0" />
    <path
        d="M143.612 149.634C139.256 157.983 138.156 162.42 124.941 170.705C124.839 170.772 124.762 170.872 124.723 170.988C122.612 177.533 119.038 183.512 114.272 188.471C114.208 188.537 114.163 188.619 114.141 188.709C114.12 188.798 114.123 188.892 114.151 188.98C115.63 193.902 117.231 202.777 112.777 210.052C106.23 220.762 101.381 214.295 102.391 211.87C103.255 209.793 110.643 205.331 108.937 194.185C108.923 194.096 108.886 194.012 108.83 193.941C108.774 193.871 108.7 193.816 108.617 193.782C108.533 193.747 108.442 193.735 108.352 193.747C108.263 193.758 108.178 193.792 108.105 193.846C102.75 197.732 96.6042 200.39 90.1048 201.63C90.0327 201.642 89.9638 201.669 89.9029 201.709C89.842 201.75 89.7903 201.803 89.7513 201.864C89.7124 201.926 89.687 201.996 89.6768 202.068C89.6667 202.141 89.672 202.214 89.6925 202.285C91.3496 208.217 92.1336 217.489 85.2148 226.015C81.521 230.461 76.6228 223.962 81.521 219.533C84.56 216.793 84.3256 208.913 82.9031 202.843C82.8759 202.725 82.8087 202.62 82.7128 202.546C82.617 202.473 82.4985 202.435 82.3777 202.439C82.0949 202.447 81.8037 202.447 81.521 202.447C71.5236 202.462 61.8039 199.158 53.8863 193.054C53.8138 192.997 53.7279 192.96 53.637 192.947C53.546 192.934 53.4532 192.944 53.3675 192.978C53.2819 193.011 53.2065 193.066 53.1486 193.138C53.0908 193.209 53.0525 193.294 53.0376 193.385C51.1381 205.929 58.6796 210.27 59.7542 213.487C60.9505 217.084 58.2023 220.284 54.8157 219.379C54.7423 219.357 54.6737 219.322 54.6137 219.274C43.5727 210.981 44.5345 193.603 45.7469 185.238C45.758 185.169 45.7544 185.099 45.7363 185.032C45.7181 184.966 45.6859 184.903 45.6418 184.85C39.4675 176.904 36.1248 167.124 36.1446 157.062C36.1446 138.609 47.1614 122.726 62.9793 115.638C62.9803 115.638 62.9814 115.637 62.9824 115.637C62.9834 115.637 62.9843 115.636 62.985 115.635C62.9858 115.635 62.9864 115.634 62.9868 115.633C62.9872 115.632 62.9874 115.631 62.9874 115.63C65.4202 112.55 68.3866 108.194 68.8394 105.138C68.8543 105.035 68.8997 104.938 68.9699 104.861C69.0401 104.783 69.1318 104.728 69.2333 104.703C69.3348 104.678 69.4415 104.683 69.5397 104.719C69.638 104.755 69.7234 104.819 69.7849 104.904C70.9489 106.472 72.7514 109.463 72.3553 112.615C72.3391 112.72 72.3311 112.825 72.3149 112.93C72.2825 113.108 72.2422 113.278 72.2018 113.455C72.1613 113.593 72.129 113.73 72.0805 113.868C72.6458 113.396 73.1852 112.894 73.6963 112.364C74.8843 111.144 76.3878 109.309 77.0344 107.345C77.065 107.24 77.1273 107.147 77.2128 107.079C77.2982 107.012 77.4026 106.972 77.5116 106.966C77.6206 106.959 77.7288 106.987 77.8214 107.045C77.9139 107.103 77.9862 107.188 78.0284 107.289C78.4484 108.323 78.9418 109.77 79.1115 111.249C79.1261 111.382 79.1897 111.504 79.2899 111.593C79.3901 111.681 79.5195 111.728 79.653 111.726C80.2754 111.702 80.8977 111.686 81.5202 111.686C106.584 111.686 126.905 132.006 126.905 157.062C126.905 157.636 126.896 158.202 126.872 158.767C126.868 158.854 126.886 158.94 126.923 159.018C126.96 159.096 127.016 159.164 127.085 159.215C127.154 159.267 127.235 159.301 127.321 159.315C127.406 159.328 127.493 159.321 127.575 159.293C130.275 158.347 133.678 156.068 135.731 150.644C139.57 140.541 139.974 137.712 138.762 129.831C137.549 121.951 143.41 122.355 144.622 124.982C145.833 127.608 148.461 140.338 143.612 149.634Z"
        fill="#51CF66" />
    <path
        d="M63.7948 161.042C63.6402 161.042 63.49 160.991 63.3677 160.896C63.2454 160.802 63.1577 160.67 63.1185 160.52C62.8137 159.189 62.7482 157.814 62.9251 156.46C63.3231 153.517 64.9247 151.354 67.5569 150.204C69.2769 149.453 70.9029 149.409 72.3894 150.076C75.4362 151.441 76.7333 155.313 76.7871 155.477C76.8392 155.652 76.821 155.84 76.7364 156.002C76.6518 156.163 76.5074 156.286 76.3341 156.342C76.1607 156.399 75.9721 156.386 75.8083 156.306C75.6445 156.226 75.5185 156.085 75.4571 155.913C75.446 155.879 74.2923 152.459 71.8126 151.351C70.7024 150.855 69.4593 150.901 68.1177 151.487C65.9397 152.439 64.6615 154.161 64.3188 156.606C64.1622 157.793 64.2146 158.998 64.4737 160.166C64.5203 160.346 64.4937 160.537 64.3997 160.697C64.3057 160.857 64.1521 160.973 63.9725 161.02C63.9144 161.035 63.8547 161.042 63.7948 161.042Z"
        fill="white" />
    <path
        d="M84.896 154.632C84.7494 154.632 84.6064 154.586 84.4874 154.5C84.3684 154.414 84.2793 154.293 84.2327 154.154C83.842 152.851 83.6875 151.489 83.7763 150.132C83.9828 147.181 85.4411 144.927 87.9934 143.614C89.6644 142.754 91.2865 142.606 92.8154 143.176C95.9374 144.338 97.4805 148.093 97.5446 148.252C97.6119 148.424 97.6087 148.615 97.5357 148.784C97.4626 148.954 97.3256 149.088 97.1545 149.157C96.9834 149.225 96.7919 149.224 96.6218 149.153C96.4517 149.081 96.3167 148.946 96.2461 148.775C96.2321 148.742 94.8631 145.428 92.3218 144.486C91.1788 144.062 89.9384 144.187 88.6342 144.859C86.5228 145.945 85.3594 147.738 85.1762 150.187C85.0971 151.375 85.2273 152.568 85.561 153.711C85.5958 153.816 85.605 153.928 85.5881 154.038C85.5712 154.147 85.5286 154.251 85.4637 154.341C85.3988 154.431 85.3136 154.504 85.215 154.555C85.1163 154.605 85.0071 154.632 84.8963 154.632H84.896Z"
        fill="white" />
    <path
        d="M83.1149 169.277C78.3506 169.277 74.7179 166.106 74.536 165.945C74.4673 165.883 74.4112 165.81 74.3711 165.727C74.3309 165.644 74.3075 165.554 74.302 165.463C74.2966 165.371 74.3092 165.279 74.3393 165.192C74.3694 165.105 74.4163 165.025 74.4774 164.956C74.5384 164.888 74.6124 164.831 74.6951 164.791C74.7778 164.751 74.8676 164.728 74.9593 164.722C75.0511 164.717 75.143 164.73 75.2299 164.76C75.3168 164.79 75.3969 164.837 75.4656 164.898C75.5134 164.94 80.3106 169.109 85.7118 167.499C91.0878 165.897 92.5622 159.071 92.5766 159.003C92.6158 158.823 92.7244 158.665 92.8789 158.565C93.0334 158.464 93.2212 158.429 93.4017 158.466C93.5821 158.503 93.7407 158.61 93.8429 158.763C93.9451 158.917 93.9828 159.104 93.9477 159.285C93.6149 160.699 93.0936 162.062 92.3978 163.337C90.8609 166.17 88.6878 168.074 86.1118 168.841C85.1393 169.131 84.1297 169.278 83.1149 169.277Z"
        fill="white" />
    <path
        d="M234.011 138.119C233.951 139.639 233.796 141.154 233.548 142.655C230.173 163.299 210.712 177.292 190.068 173.917C169.432 170.543 155.43 151.08 158.806 130.436C159.021 129.12 159.305 127.832 159.641 126.576C144.331 116.178 145.225 96.1279 148.16 93.905C151.124 91.6541 154.36 93.5508 154.022 99.7773C153.674 108.819 159.241 116.297 162.329 119.554C169.558 105.142 185.535 96.4355 202.286 99.1739C218.543 101.831 230.67 114.469 233.447 129.796C236.478 128.694 241.829 125.515 246.165 116.478C246.77 114.677 246.938 113.353 246.97 112.555C246.992 111.81 247.283 111.098 247.789 110.551C248.737 109.56 250.416 108.507 252.584 110.123C253.078 110.492 253.475 110.974 253.744 111.528C254.012 112.082 254.144 112.692 254.128 113.308C253.992 118.192 250.084 130.075 234.011 138.119Z"
        fill="#1E9C33" />
    <path
        d="M211.489 144.815C210.533 150.662 202.491 154.212 193.533 152.748C184.567 151.282 178.075 145.356 179.031 139.509C179.213 138.42 179.638 137.387 180.275 136.485C180.45 136.241 180.711 136.073 181.005 136.016C181.299 135.959 181.604 136.016 181.857 136.177C185.067 138.187 190.147 139.959 196.008 140.917C201.402 141.799 206.394 141.812 210.027 141.123C210.323 141.066 210.629 141.125 210.882 141.288C211.136 141.451 211.317 141.705 211.388 141.998C211.606 142.921 211.641 143.879 211.489 144.815Z"
        fill="white" />
    <path
        d="M194.492 133.214C194.39 133.214 194.29 133.192 194.198 133.149C194.105 133.107 194.024 133.045 193.958 132.967C193.892 132.89 193.844 132.799 193.817 132.701C193.789 132.603 193.784 132.501 193.8 132.401C194.035 130.963 193.689 129.492 192.839 128.309C191.989 127.127 190.704 126.33 189.266 126.095C187.829 125.86 186.357 126.206 185.175 127.056C183.992 127.906 183.196 129.192 182.961 130.629C182.931 130.812 182.83 130.976 182.679 131.084C182.528 131.193 182.341 131.237 182.157 131.207C181.974 131.177 181.81 131.075 181.702 130.925C181.594 130.774 181.55 130.586 181.579 130.403C181.874 128.599 182.874 126.986 184.358 125.919C185.842 124.853 187.689 124.419 189.492 124.714C191.296 125.008 192.909 126.008 193.976 127.492C195.043 128.976 195.477 130.823 195.182 132.626C195.155 132.79 195.071 132.939 194.945 133.047C194.818 133.154 194.658 133.213 194.492 133.214Z"
        fill="white" />
    <path
        d="M211.285 135.959C211.183 135.959 211.083 135.937 210.991 135.894C210.899 135.851 210.817 135.789 210.751 135.712C210.686 135.635 210.637 135.544 210.61 135.446C210.583 135.348 210.577 135.246 210.593 135.146C210.822 133.711 210.474 132.244 209.623 131.066C208.773 129.888 207.49 129.095 206.056 128.86C204.623 128.626 203.154 128.969 201.973 129.815C200.792 130.661 199.994 131.941 199.754 133.374C199.74 133.465 199.708 133.552 199.659 133.631C199.611 133.709 199.548 133.777 199.473 133.831C199.398 133.885 199.314 133.923 199.224 133.945C199.134 133.966 199.041 133.969 198.95 133.954C198.859 133.939 198.772 133.907 198.694 133.858C198.616 133.809 198.548 133.746 198.494 133.671C198.441 133.596 198.402 133.511 198.381 133.422C198.361 133.332 198.358 133.239 198.373 133.148C198.673 131.349 199.674 129.742 201.156 128.68C202.639 127.617 204.482 127.186 206.282 127.48C208.082 127.774 209.692 128.77 210.759 130.249C211.826 131.729 212.264 133.571 211.975 135.372C211.948 135.535 211.864 135.684 211.738 135.792C211.611 135.899 211.451 135.959 211.285 135.959Z"
        fill="white" />
</svg>
    