<svg width="57" height="56" viewBox="0 0 57 56" fill="none" xmlns="http://www.w3.org/2000/svg">
    <path fill-rule="evenodd" clip-rule="evenodd"
        d="M52.9204 27.9865C52.9204 41.3782 42.0676 52.2347 28.6803 52.2347C15.2929 52.2347 4.44006 41.3782 4.44006 27.9865C4.44006 14.5943 15.2929 3.73828 28.6803 3.73828C42.0676 3.73828 52.9204 14.5943 52.9204 27.9865Z"
        fill="#3E9DFF" />
    <mask id="mask0_508_3794" style="mask-type:alpha" maskUnits="userSpaceOnUse" x="4" y="3"
        width="49" height="50">
        <path
            d="M28.6806 3.73828C15.2933 3.73828 4.44043 14.5947 4.44043 27.9865C4.44043 41.3782 15.2933 52.2351 28.6806 52.2351C42.0683 52.2351 52.9208 41.3782 52.9208 27.9865"
            fill="white" />
    </mask>
    <g mask="url(#mask0_508_3794)">
        <path fill-rule="evenodd" clip-rule="evenodd"
            d="M31.1393 41.0265C31.1393 41.0265 36.9376 46.5672 28.3335 54.4761C28.3335 54.4761 19.886 46.0292 26.0969 40.9863L31.1393 41.0265Z"
            fill="#0B6AF2" />
        <path fill-rule="evenodd" clip-rule="evenodd"
            d="M32.7592 42.1291H23.8952C23.5065 42.1291 23.2219 41.7625 23.3183 41.3858L24.4771 36.8594H32.1769L33.336 41.3858C33.4324 41.7625 33.1479 42.1291 32.7592 42.1291Z"
            fill="#0037BF" />
        <path fill-rule="evenodd" clip-rule="evenodd"
            d="M18.0072 36.4637L28.3269 20.4258L38.6474 36.4637C39.0799 37.1364 38.5975 38.0211 37.7978 38.0211H18.8568C18.0571 38.0211 17.5744 37.1364 18.0072 36.4637Z"
            fill="#0B6AF2" />
        <path fill-rule="evenodd" clip-rule="evenodd"
            d="M28.3009 7.84531C28.2994 7.84492 28.2978 7.84375 28.2978 7.84375V7.84687C28.0987 7.94643 22.4553 12.2429 22.4553 15.1455C22.4553 21.3077 22.5072 38.0203 22.5072 38.0203H34.1984C34.1984 38.0203 34.1465 21.3077 34.1465 15.1455C34.1465 12.2429 28.3021 7.84492 28.3009 7.84531Z"
            fill="#71D0FF" />
        <path fill-rule="evenodd" clip-rule="evenodd"
            d="M30.1539 16.0111C31.1632 17.0207 31.1632 18.6573 30.1539 19.6669C29.145 20.6761 27.509 20.6761 26.4997 19.6669C25.4905 18.6573 25.4905 17.0207 26.4997 16.0111C27.509 15.0015 29.145 15.0015 30.1539 16.0111Z"
            fill="#0037BF" />
        <path fill-rule="evenodd" clip-rule="evenodd"
            d="M26.2414 53.1118C26.2414 56.483 23.5094 59.2159 20.1394 59.2159C16.7693 59.2159 14.0374 56.483 14.0374 53.1118C14.0374 49.7407 16.7693 47.0078 20.1394 47.0078C23.5094 47.0078 26.2414 49.7407 26.2414 53.1118Z"
            fill="#71D0FF" />
        <path fill-rule="evenodd" clip-rule="evenodd"
            d="M34.5925 54.8696C34.5925 58.2408 31.8605 60.9737 28.4905 60.9737C25.1204 60.9737 22.3885 58.2408 22.3885 54.8696C22.3885 51.4985 25.1204 48.7656 28.4905 48.7656C31.8605 48.7656 34.5925 51.4985 34.5925 54.8696Z"
            fill="#71D0FF" />
        <path fill-rule="evenodd" clip-rule="evenodd"
            d="M46.064 50.6376C42.242 50.6376 39.1436 47.5385 39.1436 43.7153C39.1436 39.8924 42.242 36.793 46.064 36.793C49.8856 36.793 52.9836 39.8924 52.9836 43.7153C52.9836 47.5385 49.8856 50.6376 46.064 50.6376Z"
            fill="#71D0FF" />
        <path fill-rule="evenodd" clip-rule="evenodd"
            d="M42.7177 27.8731C41.2027 27.8731 39.9741 26.6445 39.9741 25.1289C39.9741 23.613 41.2027 22.3848 42.7177 22.3848C44.2332 22.3848 45.4614 23.613 45.4614 25.1289C45.4614 26.6445 44.2332 27.8731 42.7177 27.8731Z"
            fill="#71D0FF" />
        <path fill-rule="evenodd" clip-rule="evenodd"
            d="M11.4442 31.617C10.5883 31.617 9.89478 30.9225 9.89478 30.0663C9.89478 29.2102 10.5883 28.5156 11.4442 28.5156C12.3005 28.5156 12.9944 29.2102 12.9944 30.0663C12.9944 30.9225 12.3005 31.617 11.4442 31.617Z"
            fill="#71D0FF" />
        <path fill-rule="evenodd" clip-rule="evenodd"
            d="M12.2377 52.9496C8.33921 52.9496 5.17834 49.7876 5.17834 45.8879C5.17834 41.9881 8.33921 38.8262 12.2377 38.8262C16.1366 38.8262 19.2974 41.9881 19.2974 45.8879C19.2974 49.7876 16.1366 52.9496 12.2377 52.9496Z"
            fill="#71D0FF" />
        <path fill-rule="evenodd" clip-rule="evenodd"
            d="M39.1848 58.2259C34.9694 58.2259 31.5514 54.8071 31.5514 50.5895C31.5514 46.3723 34.9694 42.9531 39.1848 42.9531C43.401 42.9531 46.8187 46.3723 46.8187 50.5895C46.8187 54.8071 43.401 58.2259 39.1848 58.2259Z"
            fill="#71D0FF" />
    </g>
</svg>
    