<svg width="240" height="240" viewBox="0 0 240 240" fill="none" xmlns="http://www.w3.org/2000/svg">
    <path d="M130.854 45.9334C130.854 45.9334 114.783 82.0033 72.2839 73.7403C29.7846 65.4774 4.17887 123.611 44.3584 144.807C84.5378 166.004 56.6924 190.354 83.4894 202.792C113.946 216.928 125.303 169.658 147.741 174.049C197.262 183.738 227.894 167.121 214.349 144.758C190.573 105.503 173.309 106.948 180.325 81.598C187.341 56.2482 147.721 17.3318 130.854 45.9334Z" fill="#E0E8F0"/>
    <path d="M123.096 128.258C119.362 135.414 118.42 139.218 107.093 146.319C107.005 146.376 106.939 146.462 106.906 146.561C105.096 152.172 102.032 157.296 97.9476 161.547C97.8926 161.603 97.8539 161.674 97.8356 161.751C97.8173 161.827 97.8201 161.908 97.8437 161.983C99.1115 166.202 100.484 173.809 96.6659 180.045C91.0542 189.225 86.8979 183.682 87.7635 181.603C88.5047 179.823 94.837 175.999 93.3751 166.445C93.3629 166.368 93.3311 166.296 93.2829 166.236C93.2348 166.175 93.1718 166.128 93.1001 166.099C93.0284 166.07 92.9504 166.059 92.8736 166.069C92.7968 166.079 92.7238 166.108 92.6615 166.154C88.0717 169.485 82.8037 171.763 77.2329 172.826C77.171 172.836 77.112 172.859 77.0598 172.894C77.0076 172.929 76.9633 172.974 76.9299 173.027C76.8965 173.08 76.8747 173.14 76.866 173.202C76.8573 173.264 76.8619 173.327 76.8795 173.387C78.2998 178.472 78.9718 186.419 73.0414 193.728C69.8753 197.538 65.6769 191.968 69.8753 188.172C72.4802 185.823 72.2793 179.068 71.06 173.865C71.0367 173.764 70.979 173.675 70.8969 173.611C70.8147 173.548 70.7132 173.516 70.6096 173.519C70.3672 173.526 70.1176 173.526 69.8753 173.526C61.3061 173.539 52.9749 170.707 46.1884 165.475C46.1263 165.426 46.0527 165.395 45.9747 165.383C45.8968 165.372 45.8172 165.381 45.7438 165.41C45.6704 165.438 45.6057 165.486 45.5561 165.547C45.5065 165.608 45.4737 165.681 45.461 165.759C43.8328 176.511 50.297 180.232 51.2181 182.989C52.2435 186.072 49.8879 188.815 46.9851 188.04C46.9221 188.021 46.8634 187.99 46.8119 187.949C37.3482 180.841 38.1726 165.946 39.2118 158.776C39.2213 158.717 39.2182 158.657 39.2027 158.6C39.1871 158.542 39.1595 158.489 39.1217 158.443C33.8294 151.633 30.9643 143.249 30.9813 134.624C30.9813 118.808 40.4242 105.194 53.9824 99.1182C53.9833 99.1183 53.9842 99.1181 53.9851 99.1178C53.9859 99.1175 53.9867 99.117 53.9873 99.1163C53.988 99.1157 53.9885 99.1149 53.9889 99.1141C53.9892 99.1132 53.9894 99.1123 53.9894 99.1114C56.0746 96.4714 58.6173 92.7376 59.0054 90.1188C59.0181 90.0301 59.0571 89.9472 59.1172 89.8808C59.1774 89.8143 59.256 89.7673 59.343 89.7457C59.43 89.7241 59.5214 89.729 59.6057 89.7596C59.6899 89.7903 59.7631 89.8454 59.8158 89.9178C60.8135 91.2618 62.3585 93.8253 62.019 96.5272C62.0051 96.6172 61.9983 96.7072 61.9844 96.7973C61.9566 96.9498 61.9221 97.0953 61.8874 97.2477C61.8527 97.3655 61.825 97.4832 61.7835 97.6011C62.268 97.1968 62.7303 96.7666 63.1684 96.3124C64.1867 95.2664 65.4754 93.6936 66.0297 92.0102C66.0559 91.9203 66.1093 91.8409 66.1826 91.7827C66.2558 91.7244 66.3453 91.6904 66.4387 91.6851C66.5321 91.6798 66.6249 91.7036 66.7042 91.7533C66.7835 91.8029 66.8455 91.8759 66.8817 91.9622C67.2417 92.849 67.6646 94.089 67.81 95.3568C67.8225 95.4706 67.8771 95.5755 67.9629 95.6511C68.0488 95.7267 68.1598 95.7675 68.2742 95.7656C68.8077 95.7448 69.3411 95.731 69.8746 95.731C91.3583 95.731 108.775 113.148 108.775 134.625C108.775 135.117 108.769 135.602 108.748 136.087C108.745 136.161 108.76 136.234 108.791 136.301C108.823 136.368 108.871 136.426 108.93 136.471C108.99 136.515 109.059 136.544 109.132 136.556C109.205 136.567 109.28 136.561 109.35 136.537C111.664 135.726 114.581 133.773 116.341 129.124C119.632 120.464 119.978 118.039 118.939 111.284C117.9 104.529 122.923 104.876 123.962 107.128C125 109.379 127.253 120.29 123.096 128.258Z" fill="#0B6AF2"/>
    <path d="M54.6814 138.036C54.5489 138.036 54.4201 137.992 54.3153 137.911C54.2104 137.83 54.1353 137.717 54.1016 137.589C53.8404 136.448 53.7843 135.27 53.9359 134.109C54.2771 131.586 55.6499 129.732 57.906 128.747C59.3803 128.102 60.774 128.065 62.0482 128.636C64.6597 129.807 65.7715 133.126 65.8176 133.266C65.8623 133.416 65.8467 133.578 65.7742 133.716C65.7016 133.855 65.5779 133.959 65.4293 134.008C65.2807 134.057 65.119 134.045 64.9786 133.977C64.8382 133.908 64.7302 133.787 64.6776 133.64C64.6681 133.611 63.6792 130.679 61.5538 129.73C60.6022 129.305 59.5367 129.344 58.3867 129.846C56.5199 130.662 55.4243 132.138 55.1305 134.234C54.9963 135.251 55.0412 136.284 55.2632 137.286C55.3032 137.44 55.2804 137.603 55.1998 137.74C55.1193 137.878 54.9876 137.977 54.8336 138.018C54.7839 138.03 54.7327 138.037 54.6814 138.036Z" fill="white"/>
    <path d="M72.7683 132.542C72.6425 132.542 72.52 132.502 72.418 132.429C72.316 132.355 72.2396 132.252 72.1997 132.133C71.8648 131.016 71.7323 129.848 71.8085 128.685C71.9855 126.156 73.2354 124.224 75.4231 123.098C76.8554 122.361 78.2458 122.234 79.5563 122.722C82.2323 123.718 83.5549 126.937 83.6099 127.073C83.6676 127.221 83.6648 127.385 83.6022 127.53C83.5396 127.675 83.4221 127.79 83.2755 127.849C83.1288 127.908 82.9647 127.907 82.8189 127.846C82.6731 127.784 82.5574 127.668 82.4969 127.522C82.4849 127.494 81.3114 124.653 79.1332 123.845C78.1535 123.482 77.0903 123.59 75.9724 124.165C74.1626 125.096 73.1654 126.633 73.0084 128.732C72.9406 129.751 73.0522 130.773 73.3383 131.753C73.368 131.843 73.376 131.939 73.3615 132.033C73.347 132.127 73.3104 132.216 73.2548 132.293C73.1992 132.37 73.1261 132.433 73.0416 132.476C72.9571 132.519 72.8635 132.542 72.7685 132.542H72.7683Z" fill="white"/>
    <path d="M71.2415 145.094C67.1578 145.094 64.044 142.376 63.8882 142.238C63.8292 142.186 63.7812 142.123 63.7468 142.052C63.7124 141.981 63.6922 141.904 63.6876 141.825C63.6829 141.747 63.6938 141.668 63.7196 141.593C63.7454 141.519 63.7856 141.45 63.8379 141.391C63.8902 141.332 63.9536 141.284 64.0245 141.25C64.0954 141.216 64.1723 141.195 64.251 141.191C64.3297 141.186 64.4085 141.197 64.4829 141.223C64.5574 141.249 64.626 141.289 64.685 141.341C64.7259 141.377 68.8378 144.951 73.4674 143.571C78.0754 142.198 79.3391 136.347 79.3515 136.288C79.3851 136.134 79.4782 135.999 79.6106 135.913C79.743 135.827 79.904 135.796 80.0587 135.828C80.2134 135.86 80.3493 135.952 80.4369 136.083C80.5245 136.214 80.5568 136.375 80.5268 136.53C80.2415 137.742 79.7946 138.91 79.1983 140.003C77.8809 142.432 76.0182 144.063 73.8102 144.721C72.9767 144.97 72.1113 145.095 71.2415 145.094Z" fill="white"/>
    <path d="M200.581 118.388C200.529 119.691 200.397 120.989 200.184 122.276C197.291 139.971 180.61 151.965 162.915 149.072C145.227 146.18 133.226 129.498 136.119 111.803C136.304 110.675 136.547 109.571 136.836 108.494C123.712 99.5816 124.479 82.3956 126.994 80.4902C129.535 78.5609 132.309 80.1866 132.019 85.5236C131.721 93.2741 136.493 99.6836 139.139 102.475C145.335 90.1223 159.03 82.6592 173.388 85.0064C187.323 87.2841 197.717 98.1164 200.098 111.254C202.695 110.31 207.282 107.584 210.999 99.8382C211.518 98.2944 211.661 97.1595 211.688 96.476C211.707 95.8375 211.957 95.2274 212.39 94.7586C213.203 93.9086 214.642 93.0066 216.501 94.3916C216.924 94.7076 217.264 95.1204 217.495 95.5953C217.725 96.0703 217.838 96.5934 217.824 97.121C217.707 101.307 214.358 111.493 200.581 118.388Z" fill="#3E9DFF"/>
    <path d="M181.276 124.127C180.457 129.139 173.564 132.182 165.886 130.927C158.201 129.671 152.636 124.591 153.455 119.579C153.611 118.646 153.976 117.76 154.522 116.987C154.671 116.778 154.895 116.634 155.147 116.585C155.4 116.536 155.661 116.586 155.878 116.723C158.629 118.446 162.983 119.965 168.007 120.786C172.631 121.542 176.91 121.553 180.023 120.962C180.277 120.914 180.539 120.965 180.757 121.104C180.974 121.244 181.129 121.462 181.19 121.713C181.377 122.504 181.406 123.324 181.276 124.127Z" fill="white"/>
    <path d="M166.707 114.183C166.62 114.183 166.534 114.165 166.455 114.128C166.376 114.092 166.306 114.038 166.25 113.972C166.193 113.906 166.152 113.828 166.129 113.744C166.105 113.66 166.1 113.572 166.114 113.486C166.316 112.254 166.02 110.993 165.291 109.979C164.562 108.966 163.461 108.283 162.229 108.082C160.997 107.88 159.735 108.177 158.721 108.905C157.708 109.634 157.025 110.736 156.824 111.968C156.798 112.125 156.711 112.265 156.582 112.358C156.453 112.451 156.292 112.489 156.135 112.463C155.978 112.437 155.838 112.35 155.745 112.221C155.652 112.092 155.614 111.931 155.64 111.774C155.892 110.228 156.749 108.846 158.021 107.931C159.293 107.017 160.876 106.645 162.422 106.897C163.968 107.15 165.351 108.007 166.265 109.279C167.18 110.551 167.551 112.134 167.299 113.68C167.276 113.82 167.204 113.948 167.095 114.04C166.987 114.132 166.85 114.183 166.707 114.183Z" fill="white"/>
    <path d="M181.102 116.536C181.015 116.536 180.929 116.517 180.85 116.481C180.771 116.444 180.701 116.391 180.644 116.324C180.588 116.258 180.547 116.181 180.523 116.097C180.5 116.013 180.495 115.925 180.509 115.839C180.705 114.609 180.406 113.352 179.677 112.342C178.948 111.332 177.849 110.653 176.62 110.452C175.391 110.251 174.132 110.545 173.12 111.27C172.108 111.995 171.424 113.092 171.218 114.321C171.206 114.399 171.178 114.473 171.137 114.54C171.095 114.608 171.041 114.666 170.977 114.712C170.913 114.758 170.84 114.792 170.764 114.81C170.687 114.828 170.607 114.831 170.529 114.818C170.451 114.805 170.377 114.777 170.309 114.736C170.242 114.694 170.184 114.639 170.138 114.575C170.092 114.511 170.059 114.438 170.041 114.361C170.024 114.285 170.021 114.205 170.034 114.127C170.291 112.585 171.149 111.208 172.42 110.297C173.691 109.386 175.271 109.016 176.814 109.269C178.356 109.521 179.736 110.374 180.651 111.642C181.566 112.91 181.94 114.489 181.693 116.033C181.67 116.173 181.598 116.301 181.49 116.393C181.381 116.485 181.244 116.536 181.102 116.536Z" fill="white"/>
    <path d="M47.9485 89.8971C57.3878 89.8971 65.0399 82.245 65.0399 72.8057C65.0399 63.3664 57.3878 55.7144 47.9485 55.7144C38.5092 55.7144 30.8572 63.3664 30.8572 72.8057C30.8572 82.245 38.5092 89.8971 47.9485 89.8971Z" fill="#0B6AF2" stroke="white" stroke-width="15" stroke-miterlimit="10"/>
    <path d="M151.663 61.6114C161.102 61.6114 168.754 53.9594 168.754 44.5201C168.754 35.0808 161.102 27.4287 151.663 27.4287C142.224 27.4287 134.572 35.0808 134.572 44.5201C134.572 53.9594 142.224 61.6114 151.663 61.6114Z" fill="#0B6AF2" stroke="white" stroke-width="15" stroke-miterlimit="10"/>
    <path d="M146.52 198.754C155.959 198.754 163.611 191.102 163.611 181.663C163.611 172.224 155.959 164.572 146.52 164.572C137.081 164.572 129.429 172.224 129.429 181.663C129.429 191.102 137.081 198.754 146.52 198.754Z" fill="#0B6AF2" stroke="white" stroke-width="15" stroke-miterlimit="10"/>
    <path d="M54.5332 71.3743H49.666C49.6284 71.3743 49.5912 71.3669 49.5564 71.3526C49.5217 71.3382 49.4902 71.3171 49.4636 71.2905C49.437 71.264 49.4159 71.2324 49.4015 71.1977C49.3871 71.1629 49.3797 71.1257 49.3797 71.0881V66.2214C49.3797 65.8418 49.2289 65.4777 48.9604 65.2093C48.692 64.9408 48.328 64.79 47.9483 64.79C47.5687 64.79 47.2046 64.9408 46.9362 65.2093C46.6678 65.4777 46.517 65.8418 46.517 66.2214V71.0881C46.517 71.1257 46.5096 71.1629 46.4952 71.1977C46.4808 71.2324 46.4597 71.264 46.4331 71.2905C46.4065 71.3171 46.3749 71.3382 46.3402 71.3526C46.3055 71.3669 46.2683 71.3743 46.2307 71.3743H41.3644C40.9871 71.3778 40.6263 71.5301 40.3607 71.7982C40.0951 72.0662 39.946 72.4284 39.946 72.8057C39.946 73.1831 40.0951 73.5452 40.3607 73.8133C40.6263 74.0814 40.9871 74.2337 41.3644 74.2372H46.2311C46.3071 74.2372 46.3799 74.2673 46.4336 74.321C46.4873 74.3747 46.5175 74.4475 46.5175 74.5235V79.3902C46.5175 79.7698 46.6682 80.1339 46.9367 80.4023C47.2051 80.6708 47.5692 80.8216 47.9488 80.8216C48.3284 80.8216 48.6925 80.6708 48.9609 80.4023C49.2294 80.1339 49.3802 79.7698 49.3802 79.3902V74.5235C49.3802 74.4475 49.4103 74.3747 49.464 74.321C49.5177 74.2673 49.5906 74.2372 49.6665 74.2372H54.5332C54.9106 74.2337 55.2713 74.0814 55.5369 73.8133C55.8026 73.5452 55.9516 73.1831 55.9516 72.8057C55.9516 72.4284 55.8026 72.0662 55.5369 71.7982C55.2713 71.5301 54.9106 71.3778 54.5332 71.3743Z" fill="white"/>
    <path d="M158.247 43.0887H153.38C153.343 43.0887 153.305 43.0813 153.271 43.0669C153.236 43.0525 153.204 43.0315 153.178 43.0049C153.151 42.9783 153.13 42.9468 153.116 42.912C153.101 42.8773 153.094 42.8401 153.094 42.8025V37.9358C153.094 37.5561 152.943 37.1921 152.675 36.9236C152.406 36.6552 152.042 36.5044 151.662 36.5044C151.283 36.5044 150.919 36.6552 150.65 36.9236C150.382 37.1921 150.231 37.5561 150.231 37.9358V42.8025C150.231 42.8401 150.224 42.8773 150.209 42.912C150.195 42.9468 150.174 42.9783 150.147 43.0049C150.121 43.0315 150.089 43.0525 150.054 43.0669C150.02 43.0813 149.982 43.0887 149.945 43.0887H145.079C144.701 43.0921 144.34 43.2445 144.075 43.5125C143.809 43.7806 143.66 44.1427 143.66 44.5201C143.66 44.8975 143.809 45.2596 144.075 45.5277C144.34 45.7957 144.701 45.9481 145.079 45.9515H149.945C150.021 45.9515 150.094 45.9817 150.148 46.0354C150.201 46.0891 150.232 46.1619 150.232 46.2378V51.1046C150.232 51.4842 150.382 51.8482 150.651 52.1167C150.919 52.3851 151.283 52.5359 151.663 52.5359C152.043 52.5359 152.407 52.3851 152.675 52.1167C152.943 51.8482 153.094 51.4842 153.094 51.1046V46.2378C153.094 46.1619 153.124 46.0891 153.178 46.0354C153.232 45.9817 153.305 45.9515 153.381 45.9515H158.247C158.625 45.9481 158.985 45.7957 159.251 45.5277C159.517 45.2596 159.666 44.8975 159.666 44.5201C159.666 44.1427 159.517 43.7806 159.251 43.5125C158.985 43.2445 158.625 43.0921 158.247 43.0887Z" fill="white"/>
    <path d="M153.104 180.231H148.237C148.2 180.232 148.162 180.224 148.128 180.21C148.093 180.195 148.061 180.174 148.035 180.148C148.008 180.121 147.987 180.09 147.973 180.055C147.958 180.02 147.951 179.983 147.951 179.945V175.079C147.951 174.699 147.8 174.335 147.532 174.066C147.263 173.798 146.899 173.647 146.52 173.647C146.14 173.647 145.776 173.798 145.508 174.066C145.239 174.335 145.088 174.699 145.088 175.079V179.945C145.088 179.983 145.081 180.02 145.066 180.055C145.052 180.09 145.031 180.121 145.004 180.148C144.978 180.174 144.946 180.195 144.912 180.21C144.877 180.224 144.84 180.232 144.802 180.231H139.936C139.558 180.235 139.198 180.387 138.932 180.655C138.666 180.923 138.517 181.286 138.517 181.663C138.517 182.04 138.666 182.402 138.932 182.67C139.198 182.939 139.558 183.091 139.936 183.094H144.802C144.878 183.094 144.951 183.125 145.005 183.178C145.059 183.232 145.089 183.305 145.089 183.381V188.247C145.089 188.627 145.24 188.991 145.508 189.26C145.776 189.528 146.14 189.679 146.52 189.679C146.9 189.679 147.264 189.528 147.532 189.26C147.801 188.991 147.951 188.627 147.951 188.247V183.381C147.951 183.305 147.982 183.232 148.035 183.178C148.089 183.125 148.162 183.094 148.238 183.094H153.104C153.482 183.091 153.843 182.939 154.108 182.67C154.374 182.402 154.523 182.04 154.523 181.663C154.523 181.286 154.374 180.923 154.108 180.655C153.843 180.387 153.482 180.235 153.104 180.231Z" fill="white"/>
    <path d="M72.2182 79.1431L69.6582 74.6951H68.2662V79.1431H66.4422V68.0231H70.2822C71.1355 68.0231 71.8555 68.1724 72.4422 68.4711C73.0395 68.7697 73.4822 69.1697 73.7702 69.6711C74.0689 70.1724 74.2182 70.7324 74.2182 71.3511C74.2182 72.0764 74.0049 72.7377 73.5782 73.3351C73.1622 73.9217 72.5169 74.3217 71.6422 74.5351L74.3942 79.1431H72.2182ZM68.2662 73.2391H70.2822C70.9649 73.2391 71.4769 73.0684 71.8182 72.7271C72.1702 72.3857 72.3462 71.9271 72.3462 71.3511C72.3462 70.7751 72.1755 70.3271 71.8342 70.0071C71.4929 69.6764 70.9755 69.5111 70.2822 69.5111H68.2662V73.2391ZM84.0556 75.9751C84.0556 76.5084 83.9222 77.0097 83.6556 77.4791C83.3996 77.9484 83.0156 78.3431 82.5036 78.6631C82.0022 78.9831 81.4049 79.1751 80.7116 79.2391V80.5351H79.6716V79.2391C78.6689 79.1431 77.8582 78.8284 77.2396 78.2951C76.6209 77.7617 76.3116 77.0577 76.3116 76.1831H78.2636C78.2956 76.5991 78.4289 76.9457 78.6636 77.2231C78.8982 77.4897 79.2342 77.6604 79.6716 77.7351V74.2151C78.9569 74.0337 78.3756 73.8524 77.9276 73.6711C77.4796 73.4791 77.0956 73.1804 76.7756 72.7751C76.4662 72.3697 76.3116 71.8151 76.3116 71.1111C76.3116 70.2257 76.6209 69.4951 77.2396 68.9191C77.8582 68.3324 78.6689 67.9911 79.6716 67.8951V66.5991H80.7116V67.8951C81.6502 67.9804 82.4022 68.2791 82.9676 68.7911C83.5436 69.2924 83.8689 69.9857 83.9436 70.8711H81.9916C81.9596 70.5404 81.8316 70.2471 81.6076 69.9911C81.3836 69.7244 81.0849 69.5431 80.7116 69.4471V72.9031C81.4262 73.0737 82.0076 73.2551 82.4556 73.4471C82.9036 73.6284 83.2822 73.9217 83.5916 74.3271C83.9009 74.7217 84.0556 75.2711 84.0556 75.9751ZM78.1676 71.0151C78.1676 71.4524 78.2956 71.7937 78.5516 72.0391C78.8182 72.2844 79.1916 72.4817 79.6716 72.6311V69.3991C79.2129 69.4524 78.8449 69.6177 78.5676 69.8951C78.3009 70.1724 78.1676 70.5457 78.1676 71.0151ZM80.7116 77.7351C81.1809 77.6604 81.5489 77.4737 81.8156 77.1751C82.0822 76.8657 82.2156 76.4977 82.2156 76.0711C82.2156 75.6444 82.0822 75.3137 81.8156 75.0791C81.5596 74.8337 81.1916 74.6364 80.7116 74.4871V77.7351Z" fill="#3E9DFF"/>
    <path d="M72.2182 79.1431L65.2846 83.1336C66.7122 85.6142 69.3562 87.1431 72.2182 87.1431V79.1431ZM69.6582 74.6951L76.5918 70.7045C75.1642 68.224 72.5202 66.6951 69.6582 66.6951V74.6951ZM68.2662 74.6951V66.6951C63.8479 66.6951 60.2662 70.2768 60.2662 74.6951H68.2662ZM68.2662 79.1431V87.1431C72.6845 87.1431 76.2662 83.5613 76.2662 79.1431H68.2662ZM66.4422 79.1431H58.4422C58.4422 83.5613 62.0239 87.1431 66.4422 87.1431V79.1431ZM66.4422 68.0231V60.0231C62.0239 60.0231 58.4422 63.6048 58.4422 68.0231H66.4422ZM72.4422 68.4711L68.8127 75.6004C68.8299 75.6091 68.8472 75.6178 68.8645 75.6265L72.4422 68.4711ZM73.7702 69.6711L66.8333 73.6561C66.8544 73.6927 66.8757 73.7292 66.8974 73.7655L73.7702 69.6711ZM73.5782 73.3351L67.0683 68.6852C67.063 68.6926 67.0576 68.7001 67.0523 68.7076L73.5782 73.3351ZM71.6422 74.5351L69.7465 66.7629C67.2792 67.3647 65.2442 69.1023 64.2631 71.4448C63.2821 73.7874 63.4716 76.4566 64.7738 78.637L71.6422 74.5351ZM74.3942 79.1431V87.1431C77.2734 87.1431 79.9306 85.5958 81.3518 83.0918C82.7729 80.5877 82.7388 77.5131 81.2625 75.0411L74.3942 79.1431ZM68.2662 73.2391H60.2662C60.2662 77.6573 63.8479 81.2391 68.2662 81.2391V73.2391ZM71.8182 72.7271L66.249 66.9839C66.2196 67.0124 66.1903 67.0412 66.1613 67.0702L71.8182 72.7271ZM71.8342 70.0071L66.2678 75.753C66.2992 75.7834 66.3308 75.8135 66.3627 75.8434L71.8342 70.0071ZM68.2662 69.5111V61.5111C63.8479 61.5111 60.2662 65.0928 60.2662 69.5111H68.2662ZM79.1518 75.1525L76.5918 70.7045L62.7246 78.6856L65.2846 83.1336L79.1518 75.1525ZM69.6582 66.6951H68.2662V82.6951H69.6582V66.6951ZM60.2662 74.6951V79.1431H76.2662V74.6951H60.2662ZM68.2662 71.1431H66.4422V87.1431H68.2662V71.1431ZM74.4422 79.1431V68.0231H58.4422V79.1431H74.4422ZM66.4422 76.0231H70.2822V60.0231H66.4422V76.0231ZM70.2822 76.0231C70.2352 76.0231 69.6332 76.0181 68.8127 75.6004L76.0717 61.3418C74.0778 60.3267 72.0359 60.0231 70.2822 60.0231V76.0231ZM68.8645 75.6265C68.2787 75.3336 67.445 74.7209 66.8333 73.6561L80.707 65.6861C79.5193 63.6186 77.8004 62.2059 76.0199 61.3156L68.8645 75.6265ZM66.8974 73.7655C66.4134 72.9532 66.2182 72.0836 66.2182 71.3511H82.2182C82.2182 69.3812 81.7243 67.3916 80.643 65.5766L66.8974 73.7655ZM66.2182 71.3511C66.2182 70.9167 66.2841 70.4322 66.4445 69.935C66.6046 69.4388 66.8301 69.0187 67.0683 68.6852L80.0881 77.985C81.4713 76.0484 82.2182 73.7652 82.2182 71.3511H66.2182ZM67.0523 68.7076C68.0102 67.3568 69.2368 66.8872 69.7465 66.7629L73.5378 82.3072C75.7969 81.7562 78.3142 80.4866 80.104 77.9625L67.0523 68.7076ZM64.7738 78.637L67.5258 83.245L81.2625 75.0411L78.5105 70.4331L64.7738 78.637ZM74.3942 71.1431H72.2182V87.1431H74.3942V71.1431ZM68.2662 81.2391H70.2822V65.2391H68.2662V81.2391ZM70.2822 81.2391C72.198 81.2391 75.1043 80.7547 77.475 78.3839L66.1613 67.0702C67.8494 65.3821 69.7317 65.2391 70.2822 65.2391V81.2391ZM77.3874 78.4703C79.5645 76.3591 80.3462 73.682 80.3462 71.3511H64.3462C64.3462 70.8251 64.4273 70.0895 64.7452 69.2611C65.073 68.4068 65.5885 67.6244 66.249 66.9839L77.3874 78.4703ZM80.3462 71.3511C80.3462 69.1119 79.6207 66.3411 77.3057 64.1708L66.3627 75.8434C65.6246 75.1515 65.0785 74.3135 64.7423 73.431C64.4191 72.5826 64.3462 71.8454 64.3462 71.3511H80.3462ZM77.4006 64.2611C75.002 61.9376 72.1052 61.5111 70.2822 61.5111V77.5111C69.8459 77.5111 67.9837 77.4152 66.2678 75.753L77.4006 64.2611ZM70.2822 61.5111H68.2662V77.5111H70.2822V61.5111ZM60.2662 69.5111V73.2391H76.2662V69.5111H60.2662ZM83.6556 77.4791L76.6999 73.527C76.6771 73.5672 76.6546 73.6076 76.6324 73.6482L83.6556 77.4791ZM82.5036 78.6631L78.2636 71.8791C78.2421 71.8925 78.2206 71.9061 78.1993 71.9197L82.5036 78.6631ZM80.7116 79.2391L79.9762 71.2729C75.8604 71.6529 72.7116 75.1057 72.7116 79.2391H80.7116ZM80.7116 80.5351V88.5351C85.1298 88.5351 88.7116 84.9533 88.7116 80.5351H80.7116ZM79.6716 80.5351H71.6716C71.6716 84.9533 75.2533 88.5351 79.6716 88.5351L79.6716 80.5351ZM79.6716 79.2391H87.6716C87.6716 75.1161 84.5382 71.6684 80.434 71.2755L79.6716 79.2391ZM77.2396 78.2951L72.016 84.3543L77.2396 78.2951ZM76.3116 76.1831V68.1831C71.8933 68.1831 68.3116 71.7648 68.3116 76.1831H76.3116ZM78.2636 76.1831L86.24 75.5695C85.9194 71.4015 82.4439 68.1831 78.2636 68.1831V76.1831ZM78.6636 77.2231L72.5565 82.3906C72.5899 82.4301 72.6237 82.4693 72.6579 82.5081L78.6636 77.2231ZM79.6716 77.7351L78.3252 85.621C80.6487 86.0177 83.0289 85.3695 84.8305 83.8494C86.632 82.3294 87.6716 80.0922 87.6716 77.7351H79.6716ZM79.6716 74.2151H87.6716C87.6716 70.5546 85.1871 67.361 81.6391 66.4608L79.6716 74.2151ZM77.9276 73.6711L74.7762 81.0242C74.8259 81.0455 74.8759 81.0663 74.926 81.0866L77.9276 73.6711ZM76.7756 72.7751L70.416 77.6285C70.4425 77.6633 70.4694 77.6979 70.4965 77.7322L76.7756 72.7751ZM77.2396 68.9191L82.6909 74.7742C82.7088 74.7576 82.7266 74.7409 82.7443 74.7241L77.2396 68.9191ZM79.6716 67.8951L80.434 75.8586C84.5382 75.4657 87.6716 72.018 87.6716 67.8951H79.6716ZM79.6716 66.5991V58.5991C75.2533 58.5991 71.6716 62.1808 71.6716 66.5991H79.6716ZM80.7116 66.5991H88.7116C88.7116 62.1808 85.1298 58.5991 80.7116 58.5991L80.7116 66.5991ZM80.7116 67.8951H72.7116C72.7116 72.0327 75.8666 75.4876 79.9873 75.8622L80.7116 67.8951ZM82.9676 68.7911L77.5973 74.7207C77.6363 74.756 77.6757 74.791 77.7154 74.8255L82.9676 68.7911ZM83.9436 70.8711V78.8711C86.1822 78.8711 88.3184 77.9331 89.8333 76.285C91.3483 74.6369 92.1034 72.4294 91.9153 70.1988L83.9436 70.8711ZM81.9916 70.8711L74.0288 71.6417C74.4256 75.7423 77.8718 78.8711 81.9916 78.8711V70.8711ZM81.6076 69.9911L75.4819 75.1366C75.5165 75.1778 75.5515 75.2186 75.587 75.2591L81.6076 69.9911ZM80.7116 69.4471L82.7039 61.6991C80.3089 61.0833 77.7637 61.6096 75.8095 63.1249C73.8552 64.6402 72.7116 66.9742 72.7116 69.4471H80.7116ZM80.7116 72.9031H72.7116C72.7116 76.6055 75.2522 79.8243 78.8534 80.6843L80.7116 72.9031ZM82.4556 73.4471L79.3042 80.8002C79.3539 80.8215 79.4039 80.8423 79.454 80.8626L82.4556 73.4471ZM83.5916 74.3271L77.232 79.1805C77.2528 79.2078 77.2739 79.235 77.2951 79.2621L83.5916 74.3271ZM78.5516 72.0391L73.0163 77.815C73.0555 77.8526 73.0951 77.8897 73.1351 77.9265L78.5516 72.0391ZM79.6716 72.6311L77.295 80.2699C79.7234 81.0254 82.3663 80.5813 84.4143 79.0736C86.4624 77.5659 87.6716 75.1742 87.6716 72.6311H79.6716ZM79.6716 69.3991H87.6716C87.6716 67.1164 86.6965 64.9425 84.9917 63.4245C83.287 61.9064 81.0149 61.189 78.7476 61.4526L79.6716 69.3991ZM78.5676 69.8951L72.9107 64.2382C72.8737 64.2752 72.8371 64.3125 72.8009 64.3502L78.5676 69.8951ZM80.7116 77.7351H72.7116C72.7116 80.0764 73.7372 82.3002 75.5181 83.8201C77.2989 85.34 79.6563 86.0036 81.9685 85.6357L80.7116 77.7351ZM81.8156 77.1751L87.7831 82.5032C87.814 82.4686 87.8446 82.4337 87.8748 82.3986L81.8156 77.1751ZM81.8156 75.0791L76.2803 80.855C76.3621 80.9333 76.4455 81.01 76.5305 81.0848L81.8156 75.0791ZM80.7116 74.4871L83.0881 66.8482C80.6597 66.0927 78.0168 66.5368 75.9688 68.0445C73.9207 69.5522 72.7116 71.9439 72.7116 74.4871H80.7116ZM76.0556 75.9751C76.0556 75.1053 76.2908 74.247 76.6999 73.527L90.6112 81.4311C91.5537 79.7724 92.0556 77.9115 92.0556 75.9751H76.0556ZM76.6324 73.6482C77.1164 72.7608 77.7629 72.192 78.2636 71.8791L86.7436 85.4471C88.2682 84.4941 89.6827 83.136 90.6787 81.3099L76.6324 73.6482ZM78.1993 71.9197C78.9427 71.4452 79.6161 71.3062 79.9762 71.2729L81.4469 87.2052C83.1937 87.044 85.0618 86.5209 86.8078 85.4064L78.1993 71.9197ZM72.7116 79.2391V80.5351H88.7116V79.2391H72.7116ZM80.7116 72.5351H79.6716V88.5351H80.7116V72.5351ZM87.6716 80.5351V79.2391H71.6716V80.5351H87.6716ZM80.434 71.2755C80.6905 71.3 81.5609 71.458 82.4631 72.2358L72.016 84.3543C74.1556 86.1988 76.6473 86.9861 78.9091 87.2026L80.434 71.2755ZM82.4631 72.2358C82.9995 72.6982 83.5131 73.3417 83.8677 74.1489C84.2161 74.9417 84.3116 75.6644 84.3116 76.1831H68.3116C68.3116 79.1982 69.4977 82.1833 72.016 84.3543L82.4631 72.2358ZM76.3116 84.1831H78.2636V68.1831H76.3116V84.1831ZM70.2871 76.7966C70.4282 78.6311 71.0794 80.6449 72.5565 82.3906L84.7707 72.0555C85.7784 73.2465 86.1629 74.5671 86.24 75.5695L70.2871 76.7966ZM72.6579 82.5081C74.3785 84.4634 76.5435 85.3168 78.3252 85.621L81.0179 69.8492C81.925 70.004 83.4179 70.5161 84.6693 71.938L72.6579 82.5081ZM87.6716 77.7351V74.2151H71.6716V77.7351H87.6716ZM81.6391 66.4608C81.3932 66.3984 81.2104 66.3461 81.0818 66.306C80.9495 66.2647 80.9056 66.246 80.9291 66.2555L74.926 81.0866C75.8366 81.4552 76.7997 81.7399 77.7041 81.9694L81.6391 66.4608ZM81.0789 66.3179C81.9301 66.6827 82.5989 67.2407 83.0546 67.8179L70.4965 77.7322C71.5922 79.1201 73.029 80.2754 74.7762 81.0242L81.0789 66.3179ZM83.1352 67.9217C84.2291 69.3551 84.3116 70.7174 84.3116 71.1111H68.3116C68.3116 72.9127 68.7034 75.3844 70.416 77.6285L83.1352 67.9217ZM84.3116 71.1111C84.3116 71.6157 84.2195 72.2882 83.9106 73.0179C83.5981 73.7561 83.1508 74.3461 82.6909 74.7742L71.7882 63.0639C69.4594 65.2322 68.3116 68.1234 68.3116 71.1111H84.3116ZM82.7443 74.7241C82.3323 75.1147 81.8701 75.405 81.416 75.5962C80.9758 75.7815 80.624 75.8405 80.434 75.8586L78.9091 59.9315C76.464 60.1656 73.8737 61.0858 71.7348 63.1141L82.7443 74.7241ZM87.6716 67.8951V66.5991H71.6716V67.8951H87.6716ZM79.6716 74.5991H80.7116V58.5991H79.6716V74.5991ZM72.7116 66.5991V67.8951H88.7116V66.5991H72.7116ZM79.9873 75.8622C79.6127 75.8282 78.5968 75.6259 77.5973 74.7207L88.3378 62.8614C86.2077 60.9322 83.6878 60.1326 81.4358 59.9279L79.9873 75.8622ZM77.7154 74.8255C77.1613 74.3433 76.7099 73.7432 76.4012 73.0854C76.1023 72.4483 76.0017 71.8967 75.9719 71.5434L91.9153 70.1988C91.6965 67.605 90.6209 64.8465 88.2198 62.7566L77.7154 74.8255ZM83.9436 62.8711H81.9916V78.8711H83.9436V62.8711ZM89.9544 70.1005C89.7571 68.0623 88.9257 66.2059 87.6282 64.723L75.587 75.2591C74.7374 74.2882 74.162 73.0185 74.0288 71.6417L89.9544 70.1005ZM87.7332 64.8455C86.3222 63.1658 84.5118 62.164 82.7039 61.6991L78.7192 77.195C77.658 76.9221 76.4449 76.283 75.4819 75.1366L87.7332 64.8455ZM72.7116 69.4471V72.9031H88.7116V69.4471H72.7116ZM78.8534 80.6843C79.069 80.7358 79.2146 80.7771 79.3014 80.8042C79.3922 80.8325 79.3843 80.8346 79.3042 80.8002L85.6069 66.0939C84.5879 65.6572 83.5286 65.3508 82.5698 65.1219L78.8534 80.6843ZM79.454 80.8626C78.4993 80.4762 77.7424 79.8494 77.232 79.1805L89.9512 69.4737C88.822 67.9941 87.3079 66.7806 85.4571 66.0315L79.454 80.8626ZM77.2951 79.2621C76.1314 77.7774 76.0556 76.352 76.0556 75.9751H92.0556C92.0556 74.1901 91.6703 71.666 89.888 69.392L77.2951 79.2621ZM70.1676 71.0151C70.1676 73.0895 70.8323 75.7219 73.0163 77.815L84.0868 66.2632C85.7588 67.8655 86.1676 69.8153 86.1676 71.0151H70.1676ZM73.1351 77.9265C74.5424 79.2212 76.0958 79.8968 77.295 80.2699L82.0481 64.9922C82.2873 65.0666 83.0941 65.3476 83.968 66.1516L73.1351 77.9265ZM87.6716 72.6311V69.3991H71.6716V72.6311H87.6716ZM78.7476 61.4526C76.8291 61.6757 74.6796 62.4693 72.9107 64.2382L84.2244 75.5519C83.0102 76.7662 81.5967 77.2291 80.5956 77.3455L78.7476 61.4526ZM72.8009 64.3502C70.7993 66.4319 70.1676 68.9594 70.1676 71.0151H86.1676C86.1676 72.1321 85.8025 73.9129 84.3342 75.4399L72.8009 64.3502ZM81.9685 85.6357C83.9027 85.328 86.0697 84.4222 87.7831 82.5032L75.8481 71.8469C77.0281 70.5253 78.4591 69.9928 79.4546 69.8344L81.9685 85.6357ZM87.8748 82.3986C89.4532 80.5677 90.2156 78.3218 90.2156 76.0711H74.2156C74.2156 75.4388 74.3168 74.707 74.594 73.9419C74.8731 73.1717 75.2823 72.5014 75.7563 71.9515L87.8748 82.3986ZM90.2156 76.0711C90.2156 73.8506 89.4393 71.1314 87.1006 69.0734L76.5305 81.0848C75.7234 80.3745 75.0942 79.4824 74.696 78.4948C74.3119 77.5421 74.2156 76.6858 74.2156 76.0711H90.2156ZM87.3508 69.3032C85.9065 67.919 84.289 67.2218 83.0881 66.8482L78.335 82.1259C78.0942 82.051 77.2126 81.7484 76.2803 80.855L87.3508 69.3032ZM72.7116 74.4871V77.7351H88.7116V74.4871H72.7116Z" fill="white"/>
    <path d="M175.933 50.8572L173.373 46.4092H171.981V50.8572H170.157V39.7372H173.997C174.85 39.7372 175.57 39.8865 176.157 40.1852C176.754 40.4838 177.197 40.8838 177.485 41.3852C177.783 41.8865 177.933 42.4465 177.933 43.0652C177.933 43.7905 177.719 44.4518 177.293 45.0492C176.877 45.6358 176.231 46.0358 175.357 46.2492L178.109 50.8572H175.933ZM171.981 44.9532H173.997C174.679 44.9532 175.191 44.7825 175.533 44.4412C175.885 44.0998 176.061 43.6412 176.061 43.0652C176.061 42.4892 175.89 42.0412 175.549 41.7212C175.207 41.3905 174.69 41.2252 173.997 41.2252H171.981V44.9532ZM187.77 47.6892C187.77 48.2225 187.637 48.7238 187.37 49.1932C187.114 49.6625 186.73 50.0572 186.218 50.3772C185.717 50.6972 185.119 50.8892 184.426 50.9532V52.2492H183.386V50.9532C182.383 50.8572 181.573 50.5425 180.954 50.0092C180.335 49.4758 180.026 48.7718 180.026 47.8972H181.978C182.01 48.3132 182.143 48.6598 182.378 48.9372C182.613 49.2038 182.949 49.3745 183.386 49.4492V45.9292C182.671 45.7478 182.09 45.5665 181.642 45.3852C181.194 45.1932 180.81 44.8945 180.49 44.4892C180.181 44.0838 180.026 43.5292 180.026 42.8252C180.026 41.9398 180.335 41.2092 180.954 40.6332C181.573 40.0465 182.383 39.7052 183.386 39.6092V38.3132H184.426V39.6092C185.365 39.6945 186.117 39.9932 186.682 40.5052C187.258 41.0065 187.583 41.6998 187.658 42.5852H185.706C185.674 42.2545 185.546 41.9612 185.322 41.7052C185.098 41.4385 184.799 41.2572 184.426 41.1612V44.6172C185.141 44.7878 185.722 44.9692 186.17 45.1612C186.618 45.3425 186.997 45.6358 187.306 46.0412C187.615 46.4358 187.77 46.9852 187.77 47.6892ZM181.882 42.7292C181.882 43.1665 182.01 43.5078 182.266 43.7532C182.533 43.9985 182.906 44.1958 183.386 44.3452V41.1132C182.927 41.1665 182.559 41.3318 182.282 41.6092C182.015 41.8865 181.882 42.2598 181.882 42.7292ZM184.426 49.4492C184.895 49.3745 185.263 49.1878 185.53 48.8892C185.797 48.5798 185.93 48.2118 185.93 47.7852C185.93 47.3585 185.797 47.0278 185.53 46.7932C185.274 46.5478 184.906 46.3505 184.426 46.2012V49.4492Z" fill="#3E9DFF"/>
    <path d="M175.933 50.8572L168.999 54.8478C170.427 57.3283 173.071 58.8572 175.933 58.8572V50.8572ZM173.373 46.4092L180.306 42.4186C178.879 39.9381 176.235 38.4092 173.373 38.4092V46.4092ZM171.981 46.4092V38.4092C167.562 38.4092 163.981 41.9909 163.981 46.4092H171.981ZM171.981 50.8572V58.8572C176.399 58.8572 179.981 55.2755 179.981 50.8572H171.981ZM170.157 50.8572H162.157C162.157 55.2755 165.738 58.8572 170.157 58.8572V50.8572ZM170.157 39.7372V31.7372C165.738 31.7372 162.157 35.3189 162.157 39.7372H170.157ZM176.157 40.1852L172.527 47.3145C172.544 47.3232 172.562 47.332 172.579 47.3406L176.157 40.1852ZM177.485 41.3852L170.548 45.3702C170.569 45.4068 170.59 45.4433 170.612 45.4796L177.485 41.3852ZM177.293 45.0492L170.783 40.3993C170.777 40.4068 170.772 40.4142 170.767 40.4217L177.293 45.0492ZM175.357 46.2492L173.461 38.477C170.994 39.0788 168.959 40.8164 167.977 43.1589C166.996 45.5015 167.186 48.1707 168.488 50.3511L175.357 46.2492ZM178.109 50.8572V58.8572C180.988 58.8572 183.645 57.31 185.066 54.8059C186.487 52.3018 186.453 49.2272 184.977 46.7552L178.109 50.8572ZM171.981 44.9532H163.981C163.981 49.3715 167.562 52.9532 171.981 52.9532V44.9532ZM175.533 44.4412L169.963 38.698C169.934 38.7265 169.905 38.7553 169.876 38.7843L175.533 44.4412ZM175.549 41.7212L169.982 47.4671C170.014 47.4975 170.045 47.5276 170.077 47.5575L175.549 41.7212ZM171.981 41.2252V33.2252C167.562 33.2252 163.981 36.8069 163.981 41.2252H171.981ZM182.866 46.8666L180.306 42.4186L166.439 50.3998L168.999 54.8478L182.866 46.8666ZM173.373 38.4092H171.981V54.4092H173.373V38.4092ZM163.981 46.4092V50.8572H179.981V46.4092H163.981ZM171.981 42.8572H170.157V58.8572H171.981V42.8572ZM178.157 50.8572V39.7372H162.157V50.8572H178.157ZM170.157 47.7372H173.997V31.7372H170.157V47.7372ZM173.997 47.7372C173.95 47.7372 173.348 47.7322 172.527 47.3145L179.786 33.0559C177.792 32.0408 175.75 31.7372 173.997 31.7372V47.7372ZM172.579 47.3406C171.993 47.0477 171.159 46.435 170.548 45.3702L184.421 37.4002C183.234 35.3327 181.515 33.92 179.734 33.0298L172.579 47.3406ZM170.612 45.4796C170.128 44.6673 169.933 43.7977 169.933 43.0652H185.933C185.933 41.0953 185.439 39.1057 184.357 37.2907L170.612 45.4796ZM169.933 43.0652C169.933 42.6308 169.999 42.1463 170.159 41.6492C170.319 41.1529 170.544 40.7328 170.783 40.3993L183.802 49.6991C185.186 47.7625 185.933 45.4793 185.933 43.0652H169.933ZM170.767 40.4217C171.725 39.071 172.951 38.6013 173.461 38.477L177.252 54.0213C179.511 53.4704 182.029 52.2007 183.818 49.6766L170.767 40.4217ZM168.488 50.3511L171.24 54.9591L184.977 46.7552L182.225 42.1472L168.488 50.3511ZM178.109 42.8572H175.933V58.8572H178.109V42.8572ZM171.981 52.9532H173.997V36.9532H171.981V52.9532ZM173.997 52.9532C175.912 52.9532 178.819 52.4688 181.189 50.098L169.876 38.7843C171.564 37.0962 173.446 36.9532 173.997 36.9532V52.9532ZM181.102 50.1844C183.279 48.0732 184.061 45.3961 184.061 43.0652H168.061C168.061 42.5393 168.142 41.8036 168.46 40.9752C168.787 40.1209 169.303 39.3385 169.963 38.698L181.102 50.1844ZM184.061 43.0652C184.061 40.826 183.335 38.0552 181.02 35.8849L170.077 47.5575C169.339 46.8656 168.793 46.0276 168.457 45.1451C168.133 44.2967 168.061 43.5595 168.061 43.0652H184.061ZM181.115 35.9753C178.716 33.6517 175.82 33.2252 173.997 33.2252V49.2252C173.56 49.2252 171.698 49.1293 169.982 47.4671L181.115 35.9753ZM173.997 33.2252H171.981V49.2252H173.997V33.2252ZM163.981 41.2252V44.9532H179.981V41.2252H163.981ZM187.37 49.1932L180.414 45.2411C180.391 45.2813 180.369 45.3217 180.347 45.3624L187.37 49.1932ZM186.218 50.3772L181.978 43.5932C181.956 43.6066 181.935 43.6202 181.914 43.6338L186.218 50.3772ZM184.426 50.9532L183.691 42.987C179.575 43.367 176.426 46.8198 176.426 50.9532H184.426ZM184.426 52.2492V60.2492C188.844 60.2492 192.426 56.6675 192.426 52.2492H184.426ZM183.386 52.2492H175.386C175.386 56.6675 178.968 60.2492 183.386 60.2492L183.386 52.2492ZM183.386 50.9532H191.386C191.386 46.8303 188.253 43.3825 184.148 42.9896L183.386 50.9532ZM180.954 50.0092L175.73 56.0685L180.954 50.0092ZM180.026 47.8972V39.8972C175.608 39.8972 172.026 43.4789 172.026 47.8972H180.026ZM181.978 47.8972L189.954 47.2836C189.634 43.1156 186.158 39.8972 181.978 39.8972V47.8972ZM182.378 48.9372L176.271 54.1047C176.304 54.1442 176.338 54.1834 176.372 54.2222L182.378 48.9372ZM183.386 49.4492L182.04 57.3351C184.363 57.7318 186.743 57.0836 188.545 55.5635C190.346 54.0435 191.386 51.8063 191.386 49.4492H183.386ZM183.386 45.9292H191.386C191.386 42.2687 188.901 39.0751 185.353 38.1749L183.386 45.9292ZM181.642 45.3852L178.491 52.7383C178.54 52.7596 178.59 52.7805 178.64 52.8008L181.642 45.3852ZM180.49 44.4892L174.13 49.3426C174.157 49.3774 174.184 49.412 174.211 49.4463L180.49 44.4892ZM180.954 40.6332L186.405 46.4883C186.423 46.4717 186.441 46.455 186.459 46.4382L180.954 40.6332ZM183.386 39.6092L184.148 47.5728C188.253 47.1798 191.386 43.7321 191.386 39.6092H183.386ZM183.386 38.3132V30.3132C178.968 30.3132 175.386 33.8949 175.386 38.3132H183.386ZM184.426 38.3132H192.426C192.426 33.8949 188.844 30.3132 184.426 30.3132L184.426 38.3132ZM184.426 39.6092H176.426C176.426 43.7468 179.581 47.2017 183.702 47.5763L184.426 39.6092ZM186.682 40.5052L181.312 46.4348C181.351 46.4701 181.39 46.5051 181.43 46.5396L186.682 40.5052ZM187.658 42.5852V50.5852C189.897 50.5852 192.033 49.6472 193.548 47.9991C195.063 46.351 195.818 44.1436 195.63 41.9129L187.658 42.5852ZM185.706 42.5852L177.743 43.3558C178.14 47.4564 181.586 50.5852 185.706 50.5852V42.5852ZM185.322 41.7052L179.196 46.8507C179.231 46.8919 179.266 46.9327 179.301 46.9732L185.322 41.7052ZM184.426 41.1612L186.418 33.4132C184.023 32.7974 181.478 33.3237 179.524 34.839C177.57 36.3544 176.426 38.6883 176.426 41.1612H184.426ZM184.426 44.6172H176.426C176.426 48.3197 178.967 51.5384 182.568 52.3984L184.426 44.6172ZM186.17 45.1612L183.019 52.5143C183.068 52.5356 183.118 52.5565 183.168 52.5768L186.17 45.1612ZM187.306 46.0412L180.946 50.8946C180.967 50.9219 180.988 50.9491 181.009 50.9762L187.306 46.0412ZM182.266 43.7532L176.731 49.5291C176.77 49.5667 176.809 49.6038 176.849 49.6406L182.266 43.7532ZM183.386 44.3452L181.009 51.984C183.438 52.7395 186.081 52.2954 188.129 50.7877C190.177 49.28 191.386 46.8883 191.386 44.3452H183.386ZM183.386 41.1132H191.386C191.386 38.8305 190.411 36.6566 188.706 35.1386C187.001 33.6206 184.729 32.9031 182.462 33.1667L183.386 41.1132ZM182.282 41.6092L176.625 35.9523C176.588 35.9893 176.551 36.0266 176.515 36.0643L182.282 41.6092ZM184.426 49.4492H176.426C176.426 51.7905 177.452 54.0143 179.232 55.5342C181.013 57.0542 183.371 57.7177 185.683 57.3498L184.426 49.4492ZM185.53 48.8892L191.497 54.2173C191.528 54.1827 191.559 54.1478 191.589 54.1127L185.53 48.8892ZM185.53 46.7932L179.995 52.5691C180.076 52.6474 180.16 52.7241 180.245 52.7989L185.53 46.7932ZM184.426 46.2012L186.802 38.5623C184.374 37.8068 181.731 38.2509 179.683 39.7587C177.635 41.2664 176.426 43.658 176.426 46.2012H184.426ZM179.77 47.6892C179.77 46.8194 180.005 45.9611 180.414 45.2411L194.326 53.1453C195.268 51.4865 195.77 49.6256 195.77 47.6892H179.77ZM180.347 45.3624C180.831 44.4749 181.477 43.9061 181.978 43.5932L190.458 57.1612C191.983 56.2083 193.397 54.8501 194.393 53.024L180.347 45.3624ZM181.914 43.6338C182.657 43.1593 183.33 43.0203 183.691 42.987L185.161 58.9193C186.908 58.7581 188.776 58.2351 190.522 57.1206L181.914 43.6338ZM176.426 50.9532V52.2492H192.426V50.9532H176.426ZM184.426 44.2492H183.386V60.2492H184.426V44.2492ZM191.386 52.2492V50.9532H175.386V52.2492H191.386ZM184.148 42.9896C184.405 43.0141 185.275 43.1722 186.177 43.9499L175.73 56.0685C177.87 57.9129 180.362 58.7002 182.623 58.9168L184.148 42.9896ZM186.177 43.9499C186.714 44.4123 187.227 45.0558 187.582 45.863C187.93 46.6558 188.026 47.3785 188.026 47.8972H172.026C172.026 50.9123 173.212 53.8974 175.73 56.0685L186.177 43.9499ZM180.026 55.8972H181.978V39.8972H180.026V55.8972ZM174.001 48.5107C174.143 50.3452 174.794 52.359 176.271 54.1047L188.485 43.7696C189.493 44.9607 189.877 46.2812 189.954 47.2836L174.001 48.5107ZM176.372 54.2222C178.093 56.1775 180.258 57.0309 182.04 57.3351L184.732 41.5633C185.639 41.7181 187.132 42.2302 188.384 43.6522L176.372 54.2222ZM191.386 49.4492V45.9292H175.386V49.4492H191.386ZM185.353 38.1749C185.108 38.1125 184.925 38.0602 184.796 38.0201C184.664 37.9788 184.62 37.9601 184.643 37.9696L178.64 52.8008C179.551 53.1693 180.514 53.454 181.418 53.6835L185.353 38.1749ZM184.793 38.032C185.644 38.3968 186.313 38.9548 186.769 39.532L174.211 49.4463C175.307 50.8342 176.743 51.9895 178.491 52.7383L184.793 38.032ZM186.85 39.6358C187.943 41.0692 188.026 42.4315 188.026 42.8252H172.026C172.026 44.6268 172.418 47.0985 174.13 49.3426L186.85 39.6358ZM188.026 42.8252C188.026 43.3298 187.934 44.0024 187.625 44.7321C187.312 45.4702 186.865 46.0602 186.405 46.4883L175.503 34.778C173.174 36.9463 172.026 39.8375 172.026 42.8252H188.026ZM186.459 46.4382C186.047 46.8288 185.584 47.1191 185.13 47.3103C184.69 47.4956 184.338 47.5546 184.148 47.5728L182.623 31.6456C180.178 31.8797 177.588 32.8 175.449 34.8282L186.459 46.4382ZM191.386 39.6092V38.3132H175.386V39.6092H191.386ZM183.386 46.3132H184.426V30.3132H183.386V46.3132ZM176.426 38.3132V39.6092H192.426V38.3132H176.426ZM183.702 47.5763C183.327 47.5423 182.311 47.34 181.312 46.4348L192.052 34.5755C189.922 32.6464 187.402 31.8468 185.15 31.642L183.702 47.5763ZM181.43 46.5396C180.876 46.0574 180.424 45.4573 180.116 44.7995C179.817 44.1625 179.716 43.6108 179.686 43.2575L195.63 41.9129C195.411 39.3191 194.335 36.5606 191.934 34.4707L181.43 46.5396ZM187.658 34.5852H185.706V50.5852H187.658V34.5852ZM193.669 41.8146C193.471 39.7764 192.64 37.92 191.343 36.4371L179.301 46.9732C178.452 46.0023 177.876 44.7326 177.743 43.3558L193.669 41.8146ZM191.448 36.5596C190.037 34.8799 188.226 33.8781 186.418 33.4132L182.434 48.9091C181.372 48.6362 180.159 47.9971 179.196 46.8507L191.448 36.5596ZM176.426 41.1612V44.6172H192.426V41.1612H176.426ZM182.568 52.3984C182.783 52.4499 182.929 52.4912 183.016 52.5183C183.107 52.5466 183.099 52.5487 183.019 52.5143L189.321 37.808C188.302 37.3713 187.243 37.065 186.284 36.836L182.568 52.3984ZM183.168 52.5768C182.214 52.1903 181.457 51.5635 180.946 50.8946L193.666 41.1878C192.536 39.7082 191.022 38.4947 189.171 37.7456L183.168 52.5768ZM181.009 50.9762C179.846 49.4916 179.77 48.0661 179.77 47.6892H195.77C195.77 45.9042 195.385 43.3801 193.602 41.1061L181.009 50.9762ZM173.882 42.7292C173.882 44.8036 174.547 47.4361 176.731 49.5291L187.801 37.9773C189.473 39.5796 189.882 41.5294 189.882 42.7292H173.882ZM176.849 49.6406C178.257 50.9353 179.81 51.6109 181.009 51.984L185.762 36.7063C186.002 36.7807 186.808 37.0617 187.682 37.8657L176.849 49.6406ZM191.386 44.3452V41.1132H175.386V44.3452H191.386ZM182.462 33.1667C180.543 33.3898 178.394 34.1834 176.625 35.9523L187.939 47.266C186.725 48.4803 185.311 48.9432 184.31 49.0596L182.462 33.1667ZM176.515 36.0643C174.514 38.146 173.882 40.6735 173.882 42.7292H189.882C189.882 43.8462 189.517 45.627 188.049 47.1541L176.515 36.0643ZM185.683 57.3498C187.617 57.0421 189.784 56.1363 191.497 54.2173L179.562 43.5611C180.742 42.2394 182.173 41.7069 183.169 41.5485L185.683 57.3498ZM191.589 54.1127C193.168 52.2818 193.93 50.0359 193.93 47.7852H177.93C177.93 47.1529 178.031 46.4211 178.308 45.656C178.587 44.8858 178.997 44.2155 179.471 43.6657L191.589 54.1127ZM193.93 47.7852C193.93 45.5647 193.154 42.8455 190.815 40.7875L180.245 52.7989C179.438 52.0886 178.809 51.1965 178.41 50.2089C178.026 49.2562 177.93 48.3999 177.93 47.7852H193.93ZM191.065 41.0173C189.621 39.6332 188.003 38.9359 186.802 38.5623L182.049 53.84C181.809 53.7651 180.927 53.4625 179.995 52.5691L191.065 41.0173ZM176.426 46.2012V49.4492H192.426V46.2012H176.426Z" fill="white"/>
    <path d="M170.79 188L168.23 183.552H166.838V188H165.014V176.88H168.854C169.707 176.88 170.427 177.03 171.014 177.328C171.611 177.627 172.054 178.027 172.342 178.528C172.64 179.03 172.79 179.59 172.79 180.208C172.79 180.934 172.576 181.595 172.15 182.192C171.734 182.779 171.088 183.179 170.214 183.392L172.966 188H170.79ZM166.838 182.096H168.854C169.536 182.096 170.048 181.926 170.39 181.584C170.742 181.243 170.918 180.784 170.918 180.208C170.918 179.632 170.747 179.184 170.406 178.864C170.064 178.534 169.547 178.368 168.854 178.368H166.838V182.096ZM182.627 184.832C182.627 185.366 182.494 185.867 182.227 186.336C181.971 186.806 181.587 187.2 181.075 187.52C180.574 187.84 179.976 188.032 179.283 188.096V189.392H178.243V188.096C177.24 188 176.43 187.686 175.811 187.152C175.192 186.619 174.883 185.915 174.883 185.04H176.835C176.867 185.456 177 185.803 177.235 186.08C177.47 186.347 177.806 186.518 178.243 186.592V183.072C177.528 182.891 176.947 182.71 176.499 182.528C176.051 182.336 175.667 182.038 175.347 181.632C175.038 181.227 174.883 180.672 174.883 179.968C174.883 179.083 175.192 178.352 175.811 177.776C176.43 177.19 177.24 176.848 178.243 176.752V175.456H179.283V176.752C180.222 176.838 180.974 177.136 181.539 177.648C182.115 178.15 182.44 178.843 182.515 179.728H180.563C180.531 179.398 180.403 179.104 180.179 178.848C179.955 178.582 179.656 178.4 179.283 178.304V181.76C179.998 181.931 180.579 182.112 181.027 182.304C181.475 182.486 181.854 182.779 182.163 183.184C182.472 183.579 182.627 184.128 182.627 184.832ZM176.739 179.872C176.739 180.31 176.867 180.651 177.123 180.896C177.39 181.142 177.763 181.339 178.243 181.488V178.256C177.784 178.31 177.416 178.475 177.139 178.752C176.872 179.03 176.739 179.403 176.739 179.872ZM179.283 186.592C179.752 186.518 180.12 186.331 180.387 186.032C180.654 185.723 180.787 185.355 180.787 184.928C180.787 184.502 180.654 184.171 180.387 183.936C180.131 183.691 179.763 183.494 179.283 183.344V186.592Z" fill="#3E9DFF"/>
    <path d="M170.79 188L163.856 191.991C165.284 194.471 167.928 196 170.79 196V188ZM168.23 183.552L175.163 179.562C173.736 177.081 171.092 175.552 168.23 175.552V183.552ZM166.838 183.552V175.552C162.419 175.552 158.838 179.134 158.838 183.552H166.838ZM166.838 188V196C171.256 196 174.838 192.419 174.838 188H166.838ZM165.014 188H157.014C157.014 192.419 160.595 196 165.014 196V188ZM165.014 176.88V168.88C160.595 168.88 157.014 172.462 157.014 176.88H165.014ZM171.014 177.328L167.384 184.458C167.401 184.466 167.419 184.475 167.436 184.484L171.014 177.328ZM172.342 178.528L165.405 182.513C165.426 182.55 165.447 182.586 165.469 182.623L172.342 178.528ZM172.15 182.192L165.64 177.542C165.635 177.55 165.629 177.557 165.624 177.565L172.15 182.192ZM170.214 183.392L168.318 175.62C165.851 176.222 163.816 177.959 162.835 180.302C161.854 182.645 162.043 185.314 163.345 187.494L170.214 183.392ZM172.966 188V196C175.845 196 178.502 194.453 179.923 191.949C181.344 189.445 181.31 186.37 179.834 183.898L172.966 188ZM166.838 182.096H158.838C158.838 186.515 162.419 190.096 166.838 190.096V182.096ZM170.39 181.584L164.821 175.841C164.791 175.87 164.762 175.898 164.733 175.927L170.39 181.584ZM170.406 178.864L164.839 184.61C164.871 184.641 164.902 184.671 164.934 184.701L170.406 178.864ZM166.838 178.368V170.368C162.419 170.368 158.838 173.95 158.838 178.368H166.838ZM177.723 184.01L175.163 179.562L161.296 187.543L163.856 191.991L177.723 184.01ZM168.23 175.552H166.838V191.552H168.23V175.552ZM158.838 183.552V188H174.838V183.552H158.838ZM166.838 180H165.014V196H166.838V180ZM173.014 188V176.88H157.014V188H173.014ZM165.014 184.88H168.854V168.88H165.014V184.88ZM168.854 184.88C168.807 184.88 168.205 184.875 167.384 184.458L174.643 170.199C172.649 169.184 170.607 168.88 168.854 168.88V184.88ZM167.436 184.484C166.85 184.191 166.017 183.578 165.405 182.513L179.279 174.543C178.091 172.476 176.372 171.063 174.591 170.173L167.436 184.484ZM165.469 182.623C164.985 181.81 164.79 180.941 164.79 180.208H180.79C180.79 178.238 180.296 176.249 179.215 174.434L165.469 182.623ZM164.79 180.208C164.79 179.774 164.856 179.289 165.016 178.792C165.176 178.296 165.402 177.876 165.64 177.542L178.66 186.842C180.043 184.906 180.79 182.622 180.79 180.208H164.79ZM165.624 177.565C166.582 176.214 167.808 175.744 168.318 175.62L172.109 191.164C174.368 190.613 176.886 189.344 178.676 186.82L165.624 177.565ZM163.345 187.494L166.097 192.102L179.834 183.898L177.082 179.29L163.345 187.494ZM172.966 180H170.79V196H172.966V180ZM166.838 190.096H168.854V174.096H166.838V190.096ZM168.854 190.096C170.77 190.096 173.676 189.612 176.047 187.241L164.733 175.927C166.421 174.239 168.303 174.096 168.854 174.096V190.096ZM175.959 187.327C178.136 185.216 178.918 182.539 178.918 180.208H162.918C162.918 179.682 162.999 178.947 163.317 178.118C163.645 177.264 164.16 176.482 164.821 175.841L175.959 187.327ZM178.918 180.208C178.918 177.969 178.192 175.198 175.877 173.028L164.934 184.701C164.196 184.009 163.65 183.171 163.314 182.288C162.991 181.44 162.918 180.703 162.918 180.208H178.918ZM175.972 173.118C173.574 170.795 170.677 170.368 168.854 170.368V186.368C168.417 186.368 166.555 186.272 164.839 184.61L175.972 173.118ZM168.854 170.368H166.838V186.368H168.854V170.368ZM158.838 178.368V182.096H174.838V178.368H158.838ZM182.227 186.336L175.271 182.384C175.249 182.424 175.226 182.465 175.204 182.505L182.227 186.336ZM181.075 187.52L176.835 180.736C176.814 180.75 176.792 180.763 176.771 180.777L181.075 187.52ZM179.283 188.096L178.548 180.13C174.432 180.51 171.283 183.963 171.283 188.096H179.283ZM179.283 189.392V197.392C183.701 197.392 187.283 193.811 187.283 189.392H179.283ZM178.243 189.392H170.243C170.243 193.811 173.825 197.392 178.243 197.392L178.243 189.392ZM178.243 188.096H186.243C186.243 183.973 183.11 180.526 179.006 180.133L178.243 188.096ZM175.811 187.152L170.588 193.212L175.811 187.152ZM174.883 185.04V177.04C170.465 177.04 166.883 180.622 166.883 185.04H174.883ZM176.835 185.04L184.812 184.427C184.491 180.259 181.015 177.04 176.835 177.04V185.04ZM177.235 186.08L171.128 191.248C171.161 191.287 171.195 191.326 171.229 191.365L177.235 186.08ZM178.243 186.592L176.897 194.478C179.22 194.875 181.6 194.227 183.402 192.707C185.204 191.187 186.243 188.949 186.243 186.592H178.243ZM178.243 183.072H186.243C186.243 179.412 183.759 176.218 180.211 175.318L178.243 183.072ZM176.499 182.528L173.348 189.881C173.397 189.903 173.447 189.924 173.498 189.944L176.499 182.528ZM175.347 181.632L168.987 186.486C169.014 186.52 169.041 186.555 169.068 186.589L175.347 181.632ZM175.811 177.776L181.262 183.631C181.28 183.615 181.298 183.598 181.316 183.581L175.811 177.776ZM178.243 176.752L179.006 184.716C183.11 184.323 186.243 180.875 186.243 176.752H178.243ZM178.243 175.456V167.456C173.825 167.456 170.243 171.038 170.243 175.456H178.243ZM179.283 175.456H187.283C187.283 171.038 183.701 167.456 179.283 167.456L179.283 175.456ZM179.283 176.752H171.283C171.283 180.89 174.438 184.345 178.559 184.719L179.283 176.752ZM181.539 177.648L176.169 183.578C176.208 183.613 176.247 183.648 176.287 183.683L181.539 177.648ZM182.515 179.728V187.728C184.754 187.728 186.89 186.79 188.405 185.142C189.92 183.494 190.675 181.287 190.487 179.056L182.515 179.728ZM180.563 179.728L172.6 180.499C172.997 184.599 176.443 187.728 180.563 187.728V179.728ZM180.179 178.848L174.053 183.994C174.088 184.035 174.123 184.076 174.158 184.116L180.179 178.848ZM179.283 178.304L181.275 170.556C178.88 169.94 176.335 170.467 174.381 171.982C172.427 173.497 171.283 175.831 171.283 178.304H179.283ZM179.283 181.76H171.283C171.283 185.463 173.824 188.681 177.425 189.541L179.283 181.76ZM181.027 182.304L177.876 189.657C177.925 189.679 177.975 189.7 178.026 189.72L181.027 182.304ZM182.163 183.184L175.803 188.038C175.824 188.065 175.845 188.092 175.867 188.119L182.163 183.184ZM177.123 180.896L171.588 186.672C171.627 186.71 171.667 186.747 171.707 186.784L177.123 180.896ZM178.243 181.488L175.867 189.127C178.295 189.883 180.938 189.438 182.986 187.931C185.034 186.423 186.243 184.031 186.243 181.488H178.243ZM178.243 178.256H186.243C186.243 175.974 185.268 173.8 183.563 172.282C181.858 170.764 179.586 170.046 177.319 170.31L178.243 178.256ZM177.139 178.752L171.482 173.095C171.445 173.132 171.409 173.17 171.372 173.207L177.139 178.752ZM179.283 186.592H171.283C171.283 188.934 172.309 191.157 174.09 192.677C175.87 194.197 178.228 194.861 180.54 194.493L179.283 186.592ZM180.387 186.032L186.355 191.36C186.385 191.326 186.416 191.291 186.446 191.256L180.387 186.032ZM180.387 183.936L174.852 189.712C174.934 189.791 175.017 189.867 175.102 189.942L180.387 183.936ZM179.283 183.344L181.66 175.705C179.231 174.95 176.588 175.394 174.54 176.902C172.492 178.409 171.283 180.801 171.283 183.344H179.283ZM174.627 184.832C174.627 183.962 174.862 183.104 175.271 182.384L189.183 190.288C190.125 188.63 190.627 186.769 190.627 184.832H174.627ZM175.204 182.505C175.688 181.618 176.334 181.049 176.835 180.736L185.315 194.304C186.84 193.351 188.254 191.993 189.25 190.167L175.204 182.505ZM176.771 180.777C177.514 180.302 178.188 180.163 178.548 180.13L180.018 196.062C181.765 195.901 183.633 195.378 185.379 194.264L176.771 180.777ZM171.283 188.096V189.392H187.283V188.096H171.283ZM179.283 181.392H178.243V197.392H179.283V181.392ZM186.243 189.392V188.096H170.243V189.392H186.243ZM179.006 180.133C179.262 180.157 180.132 180.315 181.035 181.093L170.588 193.212C172.727 195.056 175.219 195.843 177.481 196.06L179.006 180.133ZM181.035 181.093C181.571 181.555 182.085 182.199 182.439 183.006C182.788 183.799 182.883 184.522 182.883 185.04H166.883C166.883 188.055 168.069 191.04 170.588 193.212L181.035 181.093ZM174.883 193.04H176.835V177.04H174.883V193.04ZM168.859 185.654C169 187.488 169.651 189.502 171.128 191.248L183.342 180.913C184.35 182.104 184.734 183.424 184.812 184.427L168.859 185.654ZM171.229 191.365C172.95 193.321 175.115 194.174 176.897 194.478L179.589 178.706C180.497 178.861 181.989 179.373 183.241 180.795L171.229 191.365ZM186.243 186.592V183.072H170.243V186.592H186.243ZM180.211 175.318C179.965 175.256 179.782 175.203 179.653 175.163C179.521 175.122 179.477 175.103 179.501 175.113L173.498 189.944C174.408 190.312 175.371 190.597 176.276 190.827L180.211 175.318ZM179.65 175.175C180.502 175.54 181.17 176.098 181.626 176.675L169.068 186.589C170.164 187.977 171.601 189.133 173.348 189.881L179.65 175.175ZM181.707 176.779C182.801 178.212 182.883 179.575 182.883 179.968H166.883C166.883 181.77 167.275 184.242 168.987 186.486L181.707 176.779ZM182.883 179.968C182.883 180.473 182.791 181.145 182.482 181.875C182.17 182.613 181.722 183.203 181.262 183.631L170.36 171.921C168.031 174.089 166.883 176.981 166.883 179.968H182.883ZM181.316 183.581C180.904 183.972 180.442 184.262 179.988 184.453C179.547 184.639 179.196 184.698 179.006 184.716L177.481 168.789C175.035 169.023 172.445 169.943 170.306 171.971L181.316 183.581ZM186.243 176.752V175.456H170.243V176.752H186.243ZM178.243 183.456H179.283V167.456H178.243V183.456ZM171.283 175.456V176.752H187.283V175.456H171.283ZM178.559 184.719C178.184 184.685 177.168 184.483 176.169 183.578L186.909 171.719C184.779 169.789 182.259 168.99 180.007 168.785L178.559 184.719ZM176.287 183.683C175.733 183.2 175.281 182.6 174.973 181.943C174.674 181.306 174.573 180.754 174.543 180.401L190.487 179.056C190.268 176.462 189.192 173.704 186.791 171.614L176.287 183.683ZM182.515 171.728H180.563V187.728H182.515V171.728ZM188.526 178.958C188.329 176.919 187.497 175.063 186.2 173.58L174.158 184.116C173.309 183.145 172.734 181.876 172.6 180.499L188.526 178.958ZM186.305 173.703C184.894 172.023 183.083 171.021 181.275 170.556L177.291 186.052C176.23 185.779 175.016 185.14 174.053 183.994L186.305 173.703ZM171.283 178.304V181.76H187.283V178.304H171.283ZM177.425 189.541C177.641 189.593 177.786 189.634 177.873 189.661C177.964 189.69 177.956 189.692 177.876 189.657L184.178 174.951C183.159 174.514 182.1 174.208 181.141 173.979L177.425 189.541ZM178.026 189.72C177.071 189.333 176.314 188.707 175.803 188.038L188.523 178.331C187.394 176.851 185.879 175.638 184.029 174.889L178.026 189.72ZM175.867 188.119C174.703 186.635 174.627 185.209 174.627 184.832H190.627C190.627 183.047 190.242 180.523 188.46 178.249L175.867 188.119ZM168.739 179.872C168.739 181.947 169.404 184.579 171.588 186.672L182.658 175.12C184.33 176.723 184.739 178.672 184.739 179.872H168.739ZM171.707 186.784C173.114 188.078 174.667 188.754 175.867 189.127L180.62 173.849C180.859 173.924 181.666 174.205 182.54 175.009L171.707 186.784ZM186.243 181.488V178.256H170.243V181.488H186.243ZM177.319 170.31C175.401 170.533 173.251 171.326 171.482 173.095L182.796 184.409C181.582 185.623 180.168 186.086 179.167 186.203L177.319 170.31ZM171.372 173.207C169.371 175.289 168.739 177.817 168.739 179.872H184.739C184.739 180.989 184.374 182.77 182.906 184.297L171.372 173.207ZM180.54 194.493C182.474 194.185 184.641 193.279 186.355 191.36L174.42 180.704C175.6 179.382 177.031 178.85 178.026 178.692L180.54 194.493ZM186.446 191.256C188.025 189.425 188.787 187.179 188.787 184.928H172.787C172.787 184.296 172.888 183.564 173.166 182.799C173.445 182.029 173.854 181.359 174.328 180.809L186.446 191.256ZM188.787 184.928C188.787 182.708 188.011 179.989 185.672 177.931L175.102 189.942C174.295 189.232 173.666 188.34 173.268 187.352C172.883 186.399 172.787 185.543 172.787 184.928H188.787ZM185.922 178.16C184.478 176.776 182.861 176.079 181.66 175.705L176.907 190.983C176.666 190.908 175.784 190.606 174.852 189.712L185.922 178.16ZM171.283 183.344V186.592H187.283V183.344H171.283Z" fill="white"/>
    </svg>
    