<svg width="240" height="240" viewBox="0 0 240 240" fill="none" xmlns="http://www.w3.org/2000/svg">
    <path
        d="M155.149 62.0713C155.149 62.0713 143.163 92.6573 189.721 120.833C231.069 145.855 188.856 187.776 164.935 194.752C133.949 203.788 99.4111 176.568 83.7137 198.959C68.0162 221.35 20.3057 181.295 41.8997 146.325C68.7614 102.825 36.7493 102.153 31.3897 83.2054C27.5431 69.6065 53.4362 32.1281 83.9085 43.8721C109.551 53.7542 114.124 43.1155 120.272 36.8503C129.14 27.8142 161.91 34.0484 155.149 62.0713Z"
        fill="#E0E8F0" />
    <path
        d="M102.832 163.089C95.09 162.737 86.2922 153.47 90.1633 151.007C94.0344 148.544 93.565 143.382 92.1574 142.679C83.477 139.277 81.3655 131.652 79.4887 121.916C77.6119 112.18 78.6675 81.2123 78.6675 81.2123L89.5767 75.699L119.724 73.9395L128.287 88.1332C128.287 88.1332 125.148 96.6072 124.885 105.086C126.94 103.444 130.53 101.182 133.213 102.796C134.949 103.838 135.996 105.466 136.441 107.286C137.018 109.647 136.582 112.34 135.324 114.526C134.452 116.047 133.428 117.562 132.012 118.726C130.008 120.373 127.212 121.307 122.9 120.547C123.073 122.86 127.582 122.959 127.582 125.319C127.582 127.548 127.498 130.949 127.582 132.24C128.286 142.797 134.034 146.433 136.966 149.953C139.899 153.472 110.574 163.441 102.832 163.089Z"
        fill="#3E9DFF" />
    <path
        d="M80.4296 119.452C85.1582 119.452 88.9915 115.284 88.9915 110.142C88.9915 105 85.1582 100.832 80.4296 100.832C75.701 100.832 71.8677 105 71.8677 110.142C71.8677 115.284 75.701 119.452 80.4296 119.452Z"
        fill="#0B6AF2" />
    <path
        d="M80.4296 117.606C84.2511 117.606 87.3491 114.264 87.3491 110.142C87.3491 106.019 84.2511 102.677 80.4296 102.677C76.608 102.677 73.51 106.019 73.51 110.142C73.51 114.264 76.608 117.606 80.4296 117.606Z"
        fill="#71D0FF" />
    <path
        d="M103.009 120.156C107.577 120.156 111.279 116.269 111.279 111.475C111.279 106.681 107.577 102.795 103.009 102.795C98.442 102.795 94.7394 106.681 94.7394 111.475C94.7394 116.269 98.442 120.156 103.009 120.156Z"
        fill="#0B6AF2" />
    <path
        d="M103.008 118.807C106.644 118.807 109.592 115.525 109.592 111.476C109.592 107.426 106.644 104.144 103.008 104.144C99.3726 104.144 96.4252 107.426 96.4252 111.476C96.4252 115.525 99.3726 118.807 103.008 118.807Z"
        fill="#71D0FF" />
    <path
        d="M88.5791 107.285C88.5791 107.285 92.832 105.669 95.633 108.719C95.633 109.247 95.2081 110.142 95.2081 110.142C95.2081 110.142 91.4515 107.194 88.5791 109.422C88.1113 108.5 87.8294 107.5 88.5791 107.285Z"
        fill="#0B6AF2" />
    <path d="M110.585 109.21L124.757 104.144L124.622 105.398L111.038 111.074L110.585 109.21Z"
        fill="#0B6AF2" />
    <path
        d="M53.0122 171.664C52.6994 170.814 52.5765 169.906 52.6523 169.004C52.728 168.102 53.0005 167.228 53.4506 166.442L57.085 160.039C57.085 160.039 57.5542 157.537 68.1897 156.051C78.8252 154.565 89.0567 151.892 90.1646 151.007C90.1646 151.007 108.958 167.15 136.629 149.557C136.629 149.557 159.217 162.307 164.378 162.776C167.41 163.052 169.767 169.021 171.196 173.9C171.433 174.71 171.501 175.56 171.397 176.397C171.292 177.234 171.016 178.041 170.587 178.768C170.157 179.494 169.583 180.124 168.9 180.62C168.217 181.115 167.44 181.465 166.616 181.648C143.779 186.727 64.3689 202.003 53.0122 171.664Z"
        fill="#0B6AF2" />
    <path
        d="M132.013 118.725C129.334 125.101 127.504 127.785 125.355 127.546C123.112 127.297 122.404 123.67 122.554 120.479C127.063 121.357 129.958 120.414 132.013 118.725Z"
        fill="#0B6AF2" />
    <path
        d="M136.499 107.135C136.481 107.187 136.462 107.238 136.443 107.285C135.997 105.465 134.951 103.837 133.215 102.795C130.461 101.139 126.749 103.564 124.723 105.221C125.107 97.8354 124.46 89.4787 120.429 87.6628C113.391 84.4955 113.105 85.1995 108.732 85.4341C104.626 85.6545 94.5614 86.288 92.8535 85.298C93.9796 86.354 99.2958 90.8863 107.774 91.2992C108.732 92.003 108.112 92.5896 107.174 92.4722C106.237 92.3548 93.4499 92.1204 83.8311 80.038C83.8311 80.038 78.2522 90.4734 78.3741 99.862C78.3741 99.862 74.7981 92.8238 77.0274 82.7356C78.3741 75.2283 81.8369 75.9316 81.8369 75.9316C81.8369 75.9316 79.4898 59.158 95.5604 60.683C100.252 61.2695 108.229 68.1904 113.625 68.0731C119.021 67.9557 123.948 68.3078 123.948 68.3078C123.948 68.3078 131.572 67.1347 132.863 77.4574C132.919 79.5355 134.419 80.4719 138.493 80.9765C142.694 81.4965 142.012 92.355 136.499 107.135Z"
        fill="#0B6AF2" />
    <path
        d="M174.867 196.338C185.653 196.338 194.398 187.594 194.398 176.807C194.398 166.02 185.653 157.276 174.867 157.276C164.08 157.276 155.335 166.02 155.335 176.807C155.335 187.594 164.08 196.338 174.867 196.338Z"
        fill="#0B6AF2" stroke="white" stroke-width="15" stroke-miterlimit="10" />
    <path
        d="M182.391 175.171H176.829C176.787 175.171 176.744 175.163 176.704 175.146C176.665 175.13 176.629 175.106 176.598 175.075C176.568 175.045 176.544 175.009 176.527 174.969C176.511 174.93 176.502 174.887 176.502 174.844V169.282C176.499 168.851 176.325 168.439 176.018 168.135C175.712 167.831 175.298 167.661 174.867 167.661C174.435 167.661 174.021 167.831 173.715 168.135C173.408 168.439 173.234 168.851 173.231 169.282V174.844C173.231 174.931 173.196 175.014 173.135 175.075C173.074 175.137 172.99 175.171 172.904 175.171H167.342C166.908 175.171 166.492 175.343 166.186 175.65C165.879 175.957 165.706 176.373 165.706 176.807C165.706 177.241 165.879 177.657 166.186 177.963C166.492 178.27 166.908 178.443 167.342 178.443H172.904C172.947 178.443 172.989 178.451 173.029 178.467C173.069 178.484 173.105 178.508 173.135 178.538C173.165 178.569 173.189 178.605 173.206 178.645C173.222 178.684 173.231 178.727 173.231 178.77V184.332C173.234 184.763 173.408 185.176 173.715 185.479C174.021 185.783 174.435 185.954 174.867 185.954C175.298 185.954 175.712 185.783 176.018 185.479C176.325 185.176 176.499 184.763 176.502 184.332V178.77C176.502 178.727 176.511 178.684 176.527 178.645C176.544 178.605 176.568 178.569 176.598 178.538C176.629 178.508 176.665 178.484 176.704 178.467C176.744 178.451 176.786 178.443 176.829 178.443H182.391C182.825 178.443 183.241 178.27 183.548 177.963C183.854 177.657 184.027 177.241 184.027 176.807C184.027 176.373 183.854 175.957 183.548 175.65C183.241 175.343 182.825 175.171 182.391 175.171Z"
        fill="white" />
</svg>
    