<svg width="280" height="280" viewBox="0 0 280 280" fill="none" xmlns="http://www.w3.org/2000/svg">
    <path
        d="M97.4649 43.5698C97.4649 43.5698 124.259 74.2858 181.943 39.1902C233.172 8.0221 255.121 78.4985 249.093 108.821C241.284 148.1 191.537 170.514 207.186 200.619C222.834 230.723 151.415 260.28 125.302 216.48C92.8195 161.993 73.7388 196.84 49.8145 191.881C32.6441 188.323 6.23333 138.353 36.6174 111.545C62.1852 88.9872 53.0971 77.8584 49.7249 67.5019C44.8613 52.5656 70.4981 20.073 97.4649 43.5698Z"
        fill="#E0E8F0" />
    <path
        d="M63.1387 72.1937H182.71C184.567 72.1937 186.347 72.9312 187.66 74.244C188.973 75.5567 189.71 77.3372 189.71 79.1937V90.1088H65.1347C62.7488 90.1088 60.4606 89.161 58.7735 87.474C57.0865 85.7869 56.1387 83.4987 56.1387 81.1128V79.1937C56.1387 77.3372 56.8762 75.5567 58.1889 74.244C59.5017 72.9312 61.2822 72.1937 63.1387 72.1937Z"
        fill="#0B6AF2" />
    <path opacity="0.6"
        d="M95.042 200.737L216.425 159.144C217.496 158.777 218.485 158.205 219.336 157.46C220.186 156.716 220.882 155.814 221.382 154.805C221.883 153.796 222.179 152.701 222.253 151.582C222.327 150.462 222.179 149.341 221.816 148.281L196.395 74.1011C196.032 73.0416 195.461 72.0647 194.716 71.2262C193.971 70.3877 193.065 69.7041 192.051 69.2144C191.037 68.7246 189.935 68.4384 188.806 68.3719C187.678 68.3055 186.546 68.4602 185.475 68.8272L63.2179 110.518C60.0041 111.614 58.2249 112.22 56.0058 112.976L84.1219 195.462C84.4849 196.522 85.0554 197.499 85.8007 198.337C86.5459 199.176 87.4514 199.859 88.4655 200.349C89.4795 200.839 90.5822 201.125 91.7106 201.192C92.839 201.258 93.971 201.103 95.042 200.737Z"
        fill="#51CF66" />
    <path opacity="0.6"
        d="M91.1192 192.321L213.839 164.525C214.922 164.28 215.946 163.826 216.853 163.189C217.761 162.552 218.533 161.745 219.127 160.813C219.721 159.881 220.124 158.843 220.314 157.758C220.504 156.674 220.477 155.563 220.234 154.491L203.225 79.404C202.982 78.3315 202.528 77.3178 201.889 76.4208C201.251 75.5237 200.439 74.761 199.502 74.176C198.564 73.591 197.519 73.1953 196.426 73.0115C195.333 72.8276 194.213 72.8592 193.13 73.1045L69.548 100.904C61.1983 102.781 64.1437 102.119 62.3148 102.53L81.0243 186.021C81.2671 187.093 81.7209 188.107 82.3597 189.004C82.9985 189.901 83.8097 190.664 84.7471 191.249C85.6846 191.834 86.7298 192.23 87.8231 192.414C88.9164 192.598 90.0364 192.566 91.1192 192.321Z"
        fill="#51CF66" />
    <path opacity="0.6"
        d="M83.703 180.683L206.832 172.258C207.918 172.183 208.98 171.898 209.955 171.418C210.931 170.939 211.801 170.274 212.517 169.461C213.234 168.649 213.781 167.705 214.129 166.684C214.477 165.663 214.618 164.584 214.544 163.51L209.395 88.2854C209.321 87.211 209.034 86.1617 208.551 85.1974C208.067 84.2332 207.396 83.3729 206.576 82.6657C205.756 81.9585 204.803 81.4182 203.771 81.0757C202.739 80.7332 201.649 80.5952 200.562 80.6695L76.5973 88.9683C71.4893 89.3096 71.489 89.3096 69.2843 89.4569L74.8706 173.066C74.9441 174.141 75.2308 175.19 75.7145 176.154C76.1981 177.119 76.8692 177.979 77.6894 178.686C78.5095 179.393 79.4628 179.934 80.4946 180.276C81.5264 180.619 82.6166 180.757 83.703 180.683Z"
        fill="#51CF66" />
    <path
        d="M65.6066 194.418L204.03 194.194C205.252 194.192 206.461 193.949 207.588 193.48C208.716 193.011 209.74 192.324 210.602 191.459C211.464 190.594 212.148 189.568 212.613 188.439C213.079 187.31 213.317 186.1 213.315 184.879L213.177 99.3745C213.175 98.1532 212.933 96.9443 212.464 95.8167C211.995 94.6891 211.308 93.665 210.443 92.8028C209.578 91.9406 208.552 91.2573 207.423 90.7917C206.294 90.3262 205.084 90.0876 203.862 90.0896L64.5122 90.1078C59.7654 90.1078 56.1384 84.33 56.1387 81L56.1387 90.328L56.2917 185.132C56.2936 186.354 56.536 187.563 57.0052 188.69C57.4743 189.818 58.161 190.842 59.026 191.704C59.8909 192.566 60.9173 193.25 62.0464 193.715C63.1755 194.181 64.3853 194.42 65.6066 194.418Z"
        fill="#3E9DFF" />
    <path
        d="M160.082 124.21L213.427 124.124C215.284 124.121 217.066 124.855 218.381 126.166C219.695 127.476 220.436 129.256 220.439 131.112L220.475 153.115C220.478 154.971 219.743 156.753 218.432 158.068C217.122 159.383 215.342 160.123 213.486 160.126L160.14 160.213C159.785 160.213 159.444 160.073 159.192 159.822C158.941 159.571 158.799 159.231 158.798 158.876L158.744 125.552C158.744 125.197 158.884 124.856 159.135 124.604C159.386 124.352 159.726 124.211 160.082 124.21Z"
        fill="#0B6AF2" />
    <path
        d="M177.406 150.427C181.957 150.427 185.647 146.737 185.647 142.185C185.647 137.634 181.957 133.944 177.406 133.944C172.854 133.944 169.164 137.634 169.164 142.185C169.164 146.737 172.854 150.427 177.406 150.427Z"
        fill="white" />
    <path
        d="M167.5 157.94C176.061 157.94 183.001 151 183.001 142.44C183.001 133.879 176.061 126.939 167.5 126.939C158.94 126.939 152 133.879 152 142.44C152 151 158.94 157.94 167.5 157.94Z"
        fill="#51CF66" stroke="white" stroke-width="11.6603" stroke-miterlimit="10" />
    <path
        d="M173.471 141.142H169.057C169.023 141.142 168.989 141.135 168.958 141.122C168.926 141.109 168.898 141.09 168.874 141.066C168.85 141.042 168.83 141.013 168.817 140.982C168.804 140.95 168.798 140.916 168.798 140.882V136.469C168.798 136.124 168.661 135.794 168.417 135.551C168.174 135.307 167.844 135.17 167.5 135.17C167.155 135.17 166.825 135.307 166.582 135.551C166.338 135.794 166.201 136.124 166.201 136.469V140.882C166.201 140.916 166.195 140.95 166.182 140.982C166.169 141.013 166.149 141.042 166.125 141.066C166.101 141.09 166.073 141.109 166.041 141.122C166.01 141.135 165.976 141.142 165.942 141.142H161.529C161.186 141.145 160.859 141.283 160.618 141.526C160.377 141.769 160.242 142.098 160.242 142.44C160.242 142.782 160.377 143.111 160.618 143.354C160.859 143.597 161.186 143.735 161.529 143.738H165.942C166.011 143.738 166.077 143.765 166.126 143.814C166.175 143.863 166.202 143.929 166.202 143.998V148.411C166.202 148.756 166.339 149.086 166.582 149.329C166.826 149.573 167.156 149.71 167.5 149.71C167.844 149.71 168.174 149.573 168.418 149.329C168.661 149.086 168.798 148.756 168.798 148.411V143.998C168.798 143.929 168.825 143.863 168.874 143.814C168.923 143.765 168.989 143.738 169.058 143.738H173.471C173.814 143.735 174.141 143.597 174.382 143.354C174.623 143.111 174.758 142.782 174.758 142.44C174.758 142.098 174.623 141.769 174.382 141.526C174.141 141.283 173.814 141.145 173.471 141.142Z"
        fill="white" />
</svg>
    