<svg width="240" height="240" viewBox="0 0 240 240" fill="none" xmlns="http://www.w3.org/2000/svg">
    <path
        d="M158.678 37.8067C158.678 37.8067 129.869 74.2977 83.7753 52.5307C37.6815 30.7636 -8.4118 89.6623 31.2795 125.513C70.9708 161.364 32.1299 181.064 59.0955 203.035C89.7435 228.007 116.425 177.369 140.753 188.892C194.444 214.325 234.221 204.257 225.258 174.808C209.525 123.114 189.407 119.752 204.772 92.8633C220.137 65.9747 186.226 10.0682 158.678 37.8067Z"
        fill="#E0E8F0" />
    <path
        d="M155.767 104.519C155.767 104.519 185.086 102.615 187.371 73.6763C184.706 71.7723 180.898 60.3492 187.371 59.2069C193.844 58.0646 198.414 59.2069 198.414 59.2069C198.414 59.2069 210.218 68.3454 195.367 75.1993C194.987 79.0071 194.606 112.896 164.144 127.746C133.682 142.596 155.767 104.519 155.767 104.519Z"
        fill="#F03E3E" />
    <path
        d="M204.184 40.6207L192.429 38.4788C191.777 38.36 191.152 38.7922 191.033 39.4442L186.798 62.6882C186.679 63.3402 187.111 63.9651 187.763 64.0839L199.518 66.2258C200.17 66.3446 200.795 65.9123 200.914 65.2603L205.149 42.0164C205.268 41.3644 204.836 40.7395 204.184 40.6207Z"
        fill="#8A0000" />
    <path
        d="M170.51 125.523C170.51 141.652 163.367 156.122 152.065 165.946C142.338 174.389 129.885 179.03 117.004 179.014C97.9803 179.014 81.2872 169.098 71.7983 154.141C66.6791 146.049 63.8251 136.731 63.5338 127.16C63.2425 117.589 65.5247 108.114 70.1423 99.7256C74.7598 91.3368 81.5437 84.3406 89.7862 79.4668C98.0288 74.5929 107.428 72.0199 117.004 72.0161C141.815 72.0161 162.697 88.9073 168.728 111.83C169.92 116.296 170.519 120.9 170.51 125.523Z"
        fill="#F03E3E" />
    <path
        d="M152.066 165.946C142.338 174.389 129.886 179.03 117.005 179.014C97.981 179.014 81.288 169.098 71.7991 154.141C80.1457 147.303 84.852 148.033 87.9896 149.207C91.4166 150.501 93.3204 156.304 103.221 150.593C113.121 144.881 121.117 158.589 124.925 160.874C140.156 159.777 148.091 163.021 152.066 165.946Z"
        fill="#8A0000" />
    <path
        d="M168.728 111.83C146.11 117.191 147.709 104.321 145.485 96.5226C143.2 88.5264 141.677 91.1917 127.589 102.235C113.5 113.277 111.977 95.3807 111.718 92.3346C111.444 89.2884 110.835 88.1466 103.6 89.0447C96.3653 89.9427 94.4614 84.3383 88.369 88.1461C85.8407 89.7301 82.3985 89.0142 79.2456 87.6282C84.2015 82.6683 90.0881 78.736 96.5675 76.0569C103.047 73.3778 109.992 72.0046 117.003 72.0162C141.814 72.0159 162.696 88.9071 168.728 111.83Z"
        fill="#8A0000" />
    <path
        d="M71.5701 67.9951C71.3252 68.8221 71.331 69.7031 71.5869 70.5268C71.8427 71.3505 72.337 72.0798 73.0073 72.6225C73.6777 73.1653 74.4939 73.4971 75.3527 73.5759C76.2116 73.6548 77.0746 73.4772 77.8325 73.0657C78.5905 72.6541 79.2094 72.027 79.611 71.2637C80.0125 70.5004 80.1787 69.6351 80.0886 68.7774C79.9984 67.9196 79.6559 67.1078 79.1044 66.4447C78.5529 65.7816 77.8171 65.2969 76.9901 65.052C75.8811 64.7237 74.6871 64.8493 73.6707 65.4012C72.6543 65.9531 71.8987 66.8861 71.5701 67.9951Z"
        fill="#F03E3E" />
    <path
        d="M69.3313 57.4102C67.7758 58.2493 66.4023 59.3887 65.2904 60.7623C64.1784 62.136 63.3501 63.7167 62.8533 65.4127C62.7567 65.7345 62.7247 66.0722 62.7589 66.4064C62.7931 66.7406 62.893 67.0648 63.0528 67.3603C63.2126 67.6558 63.4291 67.9169 63.69 68.1285C63.951 68.3401 64.2511 68.4982 64.5732 68.5936C64.8953 68.689 65.2331 68.7198 65.5672 68.6844C65.9013 68.6489 66.2251 68.5479 66.52 68.387C66.8149 68.2261 67.0752 68.0086 67.2859 67.747C67.4966 67.4853 67.6535 67.1846 67.7477 66.8621C68.0588 65.811 68.574 64.8314 69.2637 63.9794C69.9534 63.1273 70.8043 62.4195 71.7676 61.8964C72.731 61.3733 73.7879 61.045 74.8781 60.9304C75.9683 60.8158 77.0704 60.9172 78.1215 61.2286C78.4433 61.3252 78.781 61.3572 79.1152 61.323C79.4494 61.2888 79.7735 61.1889 80.069 61.0291C80.3645 60.8693 80.6256 60.6528 80.8373 60.3919C81.0489 60.1309 81.2069 59.8308 81.3023 59.5087C81.3977 59.1866 81.4286 58.8488 81.3931 58.5147C81.3577 58.1806 81.2566 57.8568 81.0958 57.5619C80.9349 57.267 80.7174 57.0067 80.4557 56.796C80.194 56.5853 79.8933 56.4284 79.5709 56.3342C77.8778 55.8273 76.1009 55.6614 74.3432 55.8461C72.5856 56.0308 70.882 56.5624 69.3313 57.4102Z"
        fill="#F03E3E" />
    <path
        d="M65.3188 50.0239C62.7915 51.3874 60.5597 53.2387 58.7527 55.4706C56.9457 57.7025 55.5993 60.2707 54.7916 63.0265C54.5994 63.6755 54.6729 64.3743 54.9959 64.9692C55.3189 65.5641 55.865 66.0062 56.5141 66.1984C57.1631 66.3907 57.8619 66.3172 58.4568 65.9941C59.0516 65.6711 59.4938 65.125 59.686 64.476C60.3105 62.3664 61.3445 60.4005 62.7288 58.6906C64.1131 56.9806 65.8207 55.5601 67.7541 54.5102C69.6874 53.4603 71.8087 52.8015 73.9967 52.5714C76.1847 52.3414 78.3966 52.5446 80.506 53.1694C80.8278 53.266 81.1655 53.2981 81.4997 53.2639C81.8339 53.2296 82.158 53.1298 82.4536 52.97C82.7491 52.8102 83.0101 52.5936 83.2218 52.3327C83.4334 52.0718 83.5915 51.7717 83.6869 51.4496C83.7822 51.1274 83.8131 50.7896 83.7777 50.4556C83.7422 50.1215 83.6411 49.7977 83.4803 49.5028C83.3194 49.2078 83.1019 48.9475 82.8402 48.7369C82.5786 48.5262 82.2779 48.3692 81.9554 48.275C79.2045 47.4518 76.3176 47.1825 73.4619 47.4827C70.6062 47.7829 67.8384 48.6467 65.3188 50.0239Z"
        fill="#F03E3E" />
    <path
        d="M84.3497 40.1981C80.5367 39.0686 76.5387 38.7013 72.5837 39.1172C68.6288 39.533 64.7946 40.7238 61.3 42.6216C57.8053 44.5194 54.7187 47.087 52.2165 50.1778C49.7143 53.2686 47.8454 56.8221 46.7166 60.6352C46.62 60.957 46.5879 61.2946 46.6222 61.6288C46.6564 61.963 46.7563 62.2872 46.9161 62.5827C47.0759 62.8782 47.2924 63.1393 47.5533 63.3509C47.8142 63.5626 48.1144 63.7206 48.4365 63.816C48.7586 63.9114 49.0964 63.9423 49.4305 63.9068C49.7646 63.8714 50.0883 63.7703 50.3833 63.6094C50.6782 63.4486 50.9385 63.2311 51.1492 62.9694C51.3599 62.7077 51.5168 62.407 51.611 62.0845C52.5494 58.9143 54.1032 55.9599 56.1835 53.3902C58.2638 50.8205 60.83 48.6858 63.7354 47.1079C66.6409 45.5301 69.8287 44.5401 73.1168 44.1944C76.4049 43.8488 79.7289 44.1542 82.899 45.0934C83.5471 45.2822 84.2436 45.2067 84.8361 44.8833C85.4287 44.5599 85.869 44.015 86.0608 43.3678C86.2526 42.7205 86.1802 42.0237 85.8596 41.4297C85.5389 40.8357 84.996 40.3929 84.3497 40.1981Z"
        fill="#F03E3E" />
</svg>
    