<svg width="240" height="240" viewBox="0 0 240 240" fill="none" xmlns="http://www.w3.org/2000/svg">
    <path d="M45.1406 108.882C45.1406 108.882 78.3728 107.552 85.5544 52.9249C91.9318 4.41116 147.97 26.4928 164.169 45.8316C185.152 70.8832 173.967 113.977 201.112 119.421C228.257 124.865 210.531 185.394 169.326 179.6C118.068 172.393 130.47 202.345 115.083 215.022C104.04 224.121 58.7592 215.363 57.2501 182.334C55.9801 154.541 44.2564 154.629 35.9465 151.477C23.9617 146.932 16.41 114.015 45.1406 108.882Z" fill="#E0E8F0"/>
    <path d="M158.111 169.549L125.461 137.286L118.996 143.829L151.645 176.091L158.111 169.549Z" fill="#3E9DFF"/>
    <path d="M170.583 178.217L145.182 153.117C145.04 152.978 144.812 152.979 144.673 153.12L135.058 162.85C134.919 162.992 134.92 163.219 135.061 163.359L160.463 188.459C160.604 188.599 160.832 188.598 160.972 188.456L170.586 178.727C170.726 178.585 170.725 178.357 170.583 178.217Z" fill="#0B6AF2"/>
    <path d="M96.5243 153.512C118.986 153.512 137.195 135.303 137.195 112.841C137.195 90.3789 118.986 72.1699 96.5243 72.1699C74.0623 72.1699 55.8533 90.3789 55.8533 112.841C55.8533 135.303 74.0623 153.512 96.5243 153.512Z" fill="#0B6AF2"/>
    <path d="M96.5243 146.876C115.321 146.876 130.559 131.638 130.559 112.841C130.559 94.0443 115.321 78.8064 96.5243 78.8064C77.7274 78.8064 62.4895 94.0443 62.4895 112.841C62.4895 131.638 77.7274 146.876 96.5243 146.876Z" fill="#71D0FF"/>
    <path d="M165.284 76.0741C155.744 72.9819 145.434 78.2118 142.329 87.7911C139.237 97.3311 144.467 107.641 154.047 110.746C163.626 113.85 173.909 108.569 177.002 99.0287C180.095 89.4882 174.825 79.1663 165.284 76.0741ZM162.406 84.9553C163.473 85.3015 164.414 85.957 165.109 86.8386C165.804 87.7203 166.221 88.7885 166.308 89.9077C166.395 91.0268 166.147 92.1466 165.597 93.1249C165.047 94.1032 164.218 94.896 163.216 95.4027C162.215 95.9095 161.085 96.1073 159.971 95.9711C158.857 95.835 157.808 95.3709 156.958 94.6379C156.108 93.9049 155.494 92.9359 155.196 91.8538C154.897 90.7717 154.926 89.6253 155.28 88.56C156.235 85.6126 159.458 84 162.406 84.9553ZM155.203 107.178C152.033 106.156 149.318 104.063 147.521 101.259C150.883 99.3491 154.398 98.817 157.579 99.8478C160.759 100.879 163.345 103.345 164.896 106.891C161.796 108.108 158.369 108.209 155.203 107.178Z" fill="#0B6AF2"/>
    <path d="M85.8788 163.008C84.2217 163.854 82.8527 165.172 81.9448 166.796C81.037 168.42 80.631 170.277 80.7783 172.131C80.9256 173.986 81.6196 175.755 82.7724 177.215C83.9253 178.675 85.4852 179.761 87.2551 180.335C89.0249 180.908 90.925 180.944 92.7152 180.438C94.5055 179.932 96.1054 178.906 97.3126 177.49C98.5198 176.075 99.2802 174.333 99.4975 172.485C99.7148 170.637 99.3793 168.767 98.5335 167.11C97.3973 164.89 95.4268 163.211 93.0543 162.442C90.6819 161.673 88.1013 161.877 85.8788 163.008ZM88.0698 167.3C88.5858 167.037 89.1686 166.933 89.744 167.001C90.3194 167.069 90.8617 167.306 91.3019 167.683C91.7421 168.06 92.0605 168.559 92.2166 169.117C92.3728 169.675 92.3597 170.267 92.179 170.818C91.9984 171.368 91.6582 171.853 91.2018 172.21C90.7453 172.567 90.1931 172.78 89.6153 172.823C89.0374 172.865 88.4598 172.735 87.9559 172.449C87.4519 172.163 87.0443 171.734 86.7847 171.216C86.4406 170.526 86.3825 169.727 86.6231 168.994C86.8636 168.261 87.3834 167.652 88.0698 167.3V167.3ZM93.5517 178.04C92.0219 178.824 90.2671 179.052 88.5879 178.684C89.1177 176.759 90.2066 175.282 91.7439 174.498C93.2812 173.713 95.125 173.67 96.9851 174.398C96.2978 175.973 95.084 177.261 93.5517 178.04V178.04Z" fill="#0B6AF2"/>
    </svg>
    