<svg width="240" height="241" viewBox="0 0 240 241" fill="none" xmlns="http://www.w3.org/2000/svg">
    <path d="M158.678 38.3067C158.678 38.3067 129.869 74.7977 83.7753 53.0307C37.6815 31.2636 -8.4118 90.1623 31.2795 126.013C70.9708 161.864 32.1299 181.564 59.0955 203.535C89.7435 228.507 116.425 177.869 140.753 189.392C194.444 214.825 234.221 204.757 225.258 175.308C209.525 123.614 189.407 120.252 204.772 93.3633C220.137 66.4747 186.226 10.5682 158.678 38.3067Z" fill="#E0E8F0"/>
    <path d="M155.767 105.019C155.767 105.019 185.086 103.115 187.371 74.1763C184.706 72.2723 180.898 60.8492 187.371 59.7069C193.844 58.5646 198.414 59.7069 198.414 59.7069C198.414 59.7069 210.218 68.8454 195.367 75.6993C194.987 79.5071 194.606 113.396 164.144 128.246C133.682 143.096 155.767 105.019 155.767 105.019Z" fill="#3E9DFF"/>
    <path d="M204.184 41.1207L192.429 38.9788C191.777 38.86 191.152 39.2922 191.033 39.9442L186.798 63.1882C186.679 63.8402 187.111 64.4651 187.763 64.5839L199.518 66.7258C200.17 66.8446 200.795 66.4123 200.914 65.7603L205.149 42.5164C205.268 41.8644 204.836 41.2395 204.184 41.1207Z" fill="#0B6AF2"/>
    <path d="M170.51 126.023C170.51 142.152 163.367 156.622 152.065 166.446C142.338 174.889 129.885 179.53 117.004 179.514C97.9803 179.514 81.2872 169.598 71.7983 154.641C66.6791 146.549 63.8251 137.231 63.5338 127.66C63.2425 118.089 65.5247 108.614 70.1423 100.226C74.7598 91.8368 81.5437 84.8406 89.7862 79.9668C98.0288 75.0929 107.428 72.5199 117.004 72.5161C141.815 72.5161 162.697 89.4073 168.728 112.33C169.92 116.796 170.519 121.4 170.51 126.023Z" fill="#3E9DFF"/>
    <path d="M152.066 166.445C142.338 174.888 129.886 179.53 117.005 179.513C97.981 179.513 81.288 169.598 71.7991 154.641C80.1457 147.802 84.852 148.533 87.9896 149.706C91.4166 151.001 93.3204 156.804 103.221 151.092C113.121 145.381 121.117 159.088 124.925 161.373C140.156 160.277 148.091 163.521 152.066 166.445Z" fill="#0B6AF2"/>
    <path d="M168.728 112.33C146.11 117.691 147.709 104.821 145.485 97.0226C143.2 89.0264 141.677 91.6917 127.589 102.735C113.5 113.777 111.977 95.8807 111.718 92.8346C111.444 89.7884 110.835 88.6466 103.6 89.5447C96.3653 90.4427 94.4614 84.8383 88.369 88.6461C85.8407 90.2301 82.3985 89.5142 79.2456 88.1282C84.2015 83.1683 90.0881 79.236 96.5675 76.5569C103.047 73.8778 109.992 72.5046 117.003 72.5162C141.814 72.5159 162.696 89.4071 168.728 112.33Z" fill="#0B6AF2"/>
    <path d="M71.5701 68.4951C71.3252 69.3221 71.331 70.2031 71.5869 71.0268C71.8427 71.8505 72.337 72.5798 73.0073 73.1225C73.6777 73.6653 74.4939 73.9971 75.3527 74.0759C76.2116 74.1548 77.0746 73.9772 77.8325 73.5657C78.5905 73.1541 79.2094 72.527 79.611 71.7637C80.0125 71.0004 80.1787 70.1351 80.0886 69.2774C79.9984 68.4196 79.6559 67.6078 79.1044 66.9447C78.5529 66.2816 77.8171 65.7969 76.9901 65.552C75.8811 65.2237 74.6871 65.3493 73.6707 65.9012C72.6543 66.4531 71.8987 67.3861 71.5701 68.4951Z" fill="#3E9DFF"/>
    <path d="M69.3313 57.9102C67.7758 58.7493 66.4023 59.8887 65.2904 61.2623C64.1784 62.636 63.3501 64.2167 62.8533 65.9127C62.7567 66.2345 62.7247 66.5722 62.7589 66.9064C62.7931 67.2406 62.893 67.5648 63.0528 67.8603C63.2126 68.1558 63.4291 68.4169 63.69 68.6285C63.951 68.8401 64.2511 68.9982 64.5732 69.0936C64.8953 69.189 65.2331 69.2198 65.5672 69.1844C65.9013 69.1489 66.2251 69.0479 66.52 68.887C66.8149 68.7261 67.0752 68.5086 67.2859 68.247C67.4966 67.9853 67.6535 67.6846 67.7477 67.3621C68.0588 66.311 68.574 65.3314 69.2637 64.4794C69.9534 63.6273 70.8043 62.9195 71.7676 62.3964C72.731 61.8733 73.7879 61.545 74.8781 61.4304C75.9683 61.3158 77.0704 61.4172 78.1215 61.7286C78.4433 61.8252 78.781 61.8572 79.1152 61.823C79.4494 61.7888 79.7735 61.6889 80.069 61.5291C80.3645 61.3693 80.6256 61.1528 80.8373 60.8919C81.0489 60.6309 81.2069 60.3308 81.3023 60.0087C81.3977 59.6866 81.4286 59.3488 81.3931 59.0147C81.3577 58.6806 81.2566 58.3568 81.0958 58.0619C80.9349 57.767 80.7174 57.5067 80.4557 57.296C80.194 57.0853 79.8933 56.9284 79.5709 56.8342C77.8778 56.3273 76.1009 56.1614 74.3432 56.3461C72.5856 56.5308 70.882 57.0624 69.3313 57.9102Z" fill="#3E9DFF"/>
    <path d="M65.3188 50.5239C62.7915 51.8874 60.5597 53.7387 58.7527 55.9706C56.9457 58.2025 55.5993 60.7707 54.7916 63.5265C54.5994 64.1755 54.6729 64.8743 54.9959 65.4692C55.3189 66.0641 55.865 66.5062 56.5141 66.6984C57.1631 66.8907 57.8619 66.8172 58.4568 66.4941C59.0516 66.1711 59.4938 65.625 59.686 64.976C60.3105 62.8664 61.3445 60.9005 62.7288 59.1906C64.1131 57.4806 65.8207 56.0601 67.7541 55.0102C69.6874 53.9603 71.8087 53.3015 73.9967 53.0714C76.1847 52.8414 78.3966 53.0446 80.506 53.6694C80.8278 53.766 81.1655 53.7981 81.4997 53.7639C81.8339 53.7296 82.158 53.6298 82.4536 53.47C82.7491 53.3102 83.0101 53.0936 83.2218 52.8327C83.4334 52.5718 83.5915 52.2717 83.6869 51.9496C83.7822 51.6274 83.8131 51.2896 83.7777 50.9556C83.7422 50.6215 83.6411 50.2977 83.4803 50.0028C83.3194 49.7078 83.1019 49.4475 82.8402 49.2369C82.5786 49.0262 82.2779 48.8692 81.9554 48.775C79.2045 47.9518 76.3176 47.6825 73.4619 47.9827C70.6062 48.2829 67.8384 49.1467 65.3188 50.5239Z" fill="#3E9DFF"/>
    <path d="M84.3497 40.6981C80.5367 39.5686 76.5387 39.2013 72.5837 39.6172C68.6288 40.033 64.7946 41.2238 61.3 43.1216C57.8053 45.0194 54.7187 47.587 52.2165 50.6778C49.7143 53.7686 47.8454 57.3221 46.7166 61.1352C46.62 61.457 46.5879 61.7946 46.6222 62.1288C46.6564 62.463 46.7563 62.7872 46.9161 63.0827C47.0759 63.3782 47.2924 63.6393 47.5533 63.8509C47.8142 64.0626 48.1144 64.2206 48.4365 64.316C48.7586 64.4114 49.0964 64.4423 49.4305 64.4068C49.7646 64.3714 50.0883 64.2703 50.3833 64.1094C50.6782 63.9486 50.9385 63.7311 51.1492 63.4694C51.3599 63.2077 51.5168 62.907 51.611 62.5845C52.5494 59.4143 54.1032 56.4599 56.1835 53.8902C58.2638 51.3205 60.83 49.1858 63.7354 47.6079C66.6409 46.0301 69.8287 45.0401 73.1168 44.6944C76.4049 44.3488 79.7289 44.6542 82.899 45.5934C83.5471 45.7822 84.2436 45.7067 84.8361 45.3833C85.4287 45.0599 85.869 44.515 86.0608 43.8678C86.2526 43.2205 86.1802 42.5237 85.8596 41.9297C85.5389 41.3357 84.996 40.8929 84.3497 40.6981Z" fill="#3E9DFF"/>
    </svg>
    