<svg width="240" height="241" viewBox="0 0 240 241" fill="none" xmlns="http://www.w3.org/2000/svg">
    <path
        d="M130.854 46.2664C130.854 46.2664 114.783 82.3363 72.2838 74.0733C29.7845 65.8104 4.17879 123.944 44.3583 145.14C84.5378 166.337 56.6924 190.687 83.4893 203.125C113.946 217.261 125.303 169.991 147.741 174.382C197.262 184.071 227.894 167.454 214.349 145.091C190.573 105.836 173.309 107.281 180.325 81.931C187.341 56.5812 147.721 17.6648 130.854 46.2664Z"
        fill="#E0E8F0" />
    <path
        d="M123.096 128.591C119.362 135.747 118.42 139.551 107.092 146.652C107.004 146.709 106.938 146.795 106.905 146.894C105.096 152.505 102.032 157.629 97.9474 161.88C97.8924 161.936 97.8537 162.007 97.8354 162.084C97.8172 162.16 97.8199 162.241 97.8435 162.316C99.1113 166.535 100.484 174.142 96.6657 180.378C91.0541 189.558 86.8977 184.015 87.7633 181.936C88.5045 180.156 94.8368 176.332 93.375 166.778C93.3627 166.701 93.3309 166.629 93.2827 166.569C93.2346 166.508 93.1716 166.461 93.0999 166.432C93.0282 166.403 92.9502 166.392 92.8734 166.402C92.7966 166.412 92.7236 166.441 92.6613 166.487C88.0715 169.818 82.8035 172.096 77.2327 173.159C77.1708 173.169 77.1118 173.192 77.0596 173.227C77.0074 173.262 76.9631 173.307 76.9297 173.36C76.8963 173.413 76.8745 173.473 76.8658 173.535C76.8571 173.597 76.8617 173.66 76.8793 173.72C78.2996 178.805 78.9716 186.752 73.0412 194.061C69.8751 197.871 65.6767 192.301 69.8751 188.505C72.48 186.156 72.2791 179.401 71.0598 174.198C71.0365 174.097 70.9788 174.008 70.8967 173.945C70.8145 173.881 70.713 173.849 70.6094 173.852C70.367 173.859 70.1174 173.859 69.8751 173.859C61.3059 173.872 52.9747 171.04 46.1882 165.808C46.1261 165.759 46.0525 165.728 45.9745 165.716C45.8966 165.705 45.817 165.714 45.7436 165.743C45.6702 165.771 45.6055 165.819 45.5559 165.88C45.5064 165.941 45.4736 166.014 45.4608 166.092C43.8326 176.844 50.2968 180.565 51.2179 183.322C52.2433 186.405 49.8877 189.148 46.9849 188.373C46.922 188.354 46.8632 188.323 46.8117 188.282C37.3481 181.174 38.1725 166.279 39.2117 159.109C39.2212 159.05 39.218 158.99 39.2025 158.933C39.187 158.875 39.1593 158.822 39.1215 158.776C33.8293 151.966 30.9641 143.582 30.9811 134.957C30.9811 119.141 40.424 105.527 53.9822 99.4513C53.9831 99.4513 53.984 99.4511 53.9849 99.4508C53.9857 99.4505 53.9865 99.45 53.9872 99.4493C53.9878 99.4487 53.9883 99.4479 53.9887 99.4471C53.989 99.4462 53.9892 99.4453 53.9892 99.4444C56.0744 96.8044 58.6171 93.0706 59.0052 90.4519C59.018 90.3631 59.0569 90.2802 59.1171 90.2138C59.1772 90.1473 59.2558 90.1003 59.3428 90.0787C59.4298 90.0571 59.5213 90.062 59.6055 90.0926C59.6897 90.1233 59.7629 90.1784 59.8157 90.2509C60.8133 91.5949 62.3583 94.1583 62.0189 96.8602C62.0049 96.9502 61.9981 97.0402 61.9842 97.1303C61.9565 97.2829 61.9219 97.4283 61.8872 97.5807C61.8525 97.6985 61.8248 97.8163 61.7833 97.9341C62.2678 97.5298 62.7301 97.0996 63.1682 96.6454C64.1865 95.5994 65.4752 94.0267 66.0295 92.3432C66.0557 92.2534 66.1091 92.1739 66.1824 92.1157C66.2556 92.0575 66.3451 92.0234 66.4385 92.0181C66.5319 92.0128 66.6247 92.0367 66.704 92.0863C66.7834 92.1359 66.8453 92.2089 66.8815 92.2952C67.2415 93.182 67.6644 94.4221 67.8098 95.6899C67.8224 95.8036 67.8769 95.9085 67.9628 95.9841C68.0486 96.0597 68.1596 96.1005 68.274 96.0986C68.8075 96.0778 69.3409 96.064 69.8744 96.064C91.3581 96.064 108.775 113.481 108.775 134.958C108.775 135.45 108.768 135.935 108.747 136.42C108.744 136.494 108.759 136.567 108.791 136.634C108.823 136.701 108.871 136.759 108.93 136.804C108.989 136.848 109.059 136.877 109.132 136.889C109.205 136.9 109.28 136.894 109.35 136.87C111.664 136.059 114.581 134.106 116.341 129.457C119.631 120.797 119.978 118.372 118.939 111.617C117.899 104.862 122.923 105.209 123.961 107.461C125 109.712 127.253 120.623 123.096 128.591Z"
        fill="#0B6AF2" />
    <path
        d="M54.6812 138.369C54.5488 138.369 54.42 138.325 54.3152 138.244C54.2103 138.163 54.1352 138.05 54.1015 137.922C53.8403 136.781 53.7842 135.603 53.9358 134.442C54.277 131.919 55.6498 130.065 57.9059 129.08C59.3802 128.436 60.7739 128.398 62.0481 128.97C64.6596 130.14 65.7714 133.459 65.8175 133.599C65.8622 133.749 65.8466 133.911 65.774 134.049C65.7015 134.188 65.5778 134.292 65.4292 134.341C65.2806 134.39 65.1189 134.378 64.9785 134.31C64.8381 134.241 64.7301 134.12 64.6775 133.973C64.668 133.944 63.6791 131.012 61.5537 130.063C60.6021 129.638 59.5366 129.677 58.3866 130.179C56.5198 130.995 55.4242 132.471 55.1304 134.567C54.9962 135.584 55.0411 136.617 55.2631 137.619C55.3031 137.773 55.2803 137.936 55.1997 138.074C55.1192 138.211 54.9875 138.31 54.8335 138.351C54.7838 138.363 54.7326 138.37 54.6812 138.369Z"
        fill="white" />
    <path
        d="M72.7681 132.875C72.6424 132.875 72.5199 132.835 72.4178 132.762C72.3158 132.688 72.2395 132.585 72.1995 132.466C71.8647 131.349 71.7322 130.181 71.8083 129.018C71.9853 126.489 73.2353 124.557 75.423 123.431C76.8553 122.694 78.2456 122.567 79.5561 123.055C82.2321 124.051 83.5548 127.27 83.6097 127.406C83.6674 127.554 83.6647 127.718 83.602 127.863C83.5394 128.008 83.422 128.123 83.2753 128.182C83.1286 128.241 82.9646 128.24 82.8188 128.179C82.673 128.117 82.5572 128.001 82.4967 127.855C82.4847 127.827 81.3113 124.986 79.133 124.178C78.1533 123.815 77.0901 123.923 75.9722 124.498C74.1625 125.429 73.1653 126.966 73.0082 129.065C72.9404 130.084 73.0521 131.106 73.3381 132.086C73.3679 132.176 73.3758 132.272 73.3613 132.366C73.3468 132.46 73.3103 132.549 73.2547 132.626C73.1991 132.703 73.126 132.766 73.0415 132.809C72.9569 132.852 72.8633 132.875 72.7683 132.875H72.7681Z"
        fill="white" />
    <path
        d="M71.2413 145.427C67.1576 145.427 64.0438 142.709 63.888 142.571C63.829 142.519 63.781 142.456 63.7466 142.385C63.7122 142.314 63.692 142.237 63.6874 142.158C63.6827 142.08 63.6936 142.001 63.7194 141.926C63.7452 141.852 63.7854 141.783 63.8377 141.724C63.89 141.665 63.9534 141.617 64.0243 141.583C64.0952 141.549 64.1721 141.528 64.2508 141.524C64.3295 141.519 64.4083 141.53 64.4827 141.556C64.5572 141.582 64.6258 141.622 64.6848 141.674C64.7257 141.71 68.8376 145.284 73.4672 143.904C78.0752 142.531 79.3389 136.68 79.3513 136.621C79.3849 136.467 79.478 136.332 79.6104 136.246C79.7428 136.16 79.9038 136.129 80.0585 136.161C80.2132 136.193 80.3491 136.285 80.4367 136.416C80.5243 136.547 80.5566 136.708 80.5266 136.863C80.2413 138.075 79.7944 139.243 79.1981 140.336C77.8807 142.765 76.018 144.396 73.81 145.054C72.9765 145.303 72.1111 145.428 71.2413 145.427Z"
        fill="white" />
    <path
        d="M200.581 118.721C200.529 120.024 200.397 121.322 200.184 122.609C197.291 140.304 180.61 152.298 162.915 149.405C145.227 146.513 133.226 129.831 136.119 112.136C136.303 111.008 136.547 109.904 136.835 108.827C123.712 99.9146 124.478 82.7286 126.994 80.8232C129.535 78.8939 132.309 80.5196 132.019 85.8566C131.721 93.6071 136.492 100.017 139.139 102.808C145.335 90.4553 159.03 82.9922 173.388 85.3394C187.322 87.6171 197.717 98.4494 200.098 111.587C202.695 110.643 207.282 107.917 210.998 100.171C211.518 98.6274 211.661 97.4925 211.688 96.809C211.707 96.1705 211.956 95.5604 212.39 95.0916C213.203 94.2416 214.642 93.3396 216.501 94.7246C216.924 95.0406 217.264 95.4534 217.495 95.9283C217.725 96.4033 217.838 96.9265 217.824 97.454C217.707 101.64 214.357 111.826 200.581 118.721Z"
        fill="#3E9DFF" />
    <path
        d="M181.276 124.46C180.457 129.472 173.564 132.515 165.886 131.26C158.201 130.004 152.636 124.924 153.455 119.912C153.611 118.979 153.976 118.093 154.522 117.32C154.671 117.111 154.895 116.967 155.147 116.918C155.399 116.869 155.661 116.919 155.878 117.056C158.629 118.779 162.983 120.298 168.007 121.119C172.631 121.875 176.909 121.886 180.023 121.295C180.277 121.247 180.539 121.298 180.756 121.437C180.973 121.577 181.128 121.795 181.189 122.046C181.377 122.837 181.406 123.658 181.276 124.46Z"
        fill="white" />
    <path
        d="M166.707 114.516C166.62 114.516 166.534 114.498 166.455 114.461C166.376 114.425 166.306 114.371 166.25 114.305C166.193 114.239 166.152 114.161 166.128 114.077C166.105 113.993 166.1 113.905 166.114 113.819C166.316 112.587 166.019 111.326 165.291 110.312C164.562 109.299 163.46 108.616 162.228 108.415C160.996 108.213 159.735 108.51 158.721 109.238C157.708 109.967 157.025 111.069 156.824 112.301C156.798 112.458 156.711 112.598 156.582 112.691C156.453 112.784 156.292 112.822 156.135 112.796C155.978 112.77 155.837 112.683 155.745 112.554C155.652 112.425 155.614 112.264 155.64 112.107C155.892 110.561 156.749 109.179 158.021 108.264C159.293 107.35 160.876 106.978 162.422 107.23C163.968 107.483 165.35 108.34 166.265 109.612C167.18 110.884 167.551 112.467 167.299 114.013C167.276 114.153 167.204 114.281 167.095 114.373C166.987 114.465 166.849 114.516 166.707 114.516Z"
        fill="white" />
    <path
        d="M181.101 116.869C181.014 116.869 180.928 116.85 180.849 116.814C180.77 116.777 180.7 116.724 180.644 116.657C180.588 116.591 180.546 116.514 180.523 116.43C180.5 116.346 180.495 116.258 180.509 116.172C180.705 114.942 180.406 113.685 179.677 112.675C178.948 111.665 177.849 110.986 176.62 110.785C175.391 110.584 174.132 110.878 173.12 111.603C172.107 112.328 171.424 113.425 171.218 114.654C171.206 114.732 171.178 114.806 171.136 114.874C171.095 114.941 171.041 114.999 170.977 115.045C170.913 115.092 170.84 115.125 170.763 115.143C170.686 115.161 170.607 115.164 170.529 115.151C170.451 115.138 170.376 115.11 170.309 115.069C170.242 115.027 170.184 114.972 170.138 114.908C170.092 114.844 170.059 114.771 170.041 114.694C170.023 114.618 170.021 114.538 170.034 114.46C170.291 112.918 171.149 111.541 172.42 110.63C173.69 109.719 175.27 109.349 176.813 109.602C178.356 109.854 179.736 110.707 180.651 111.975C181.566 113.243 181.94 114.822 181.693 116.366C181.67 116.506 181.598 116.634 181.489 116.726C181.381 116.818 181.244 116.869 181.101 116.869Z"
        fill="white" />
</svg>
    