<svg width="240" height="240" viewBox="0 0 240 240" fill="none" xmlns="http://www.w3.org/2000/svg">
    <path d="M82.3924 42.1204C83.867 43.5808 85.4206 44.9553 87.1486 46.1044C95.963 51.9671 122.189 66.0736 163.783 60.3084C215.754 53.1051 208.129 105.359 200.651 119.285C193.173 133.212 165.67 158.741 163.36 171.532C161.05 184.324 170.935 219.26 147.774 208.777C124.613 198.293 111.233 173.739 80.8322 176.593C50.4316 179.446 28.9498 165.975 42.407 141.906C55.8641 117.838 71.9533 102.306 51.4174 75.497C31.4517 49.4333 65.0819 24.9767 82.3924 42.1204Z" fill="#E0E8F0"/>
    <path d="M135.127 69.1224C134.742 68.7343 134.521 68.2123 134.512 67.6655C134.502 67.1187 134.704 66.5893 135.076 66.1881L148.789 51.3873C148.983 51.1777 149.218 51.0095 149.479 50.8929C149.74 50.7762 150.021 50.7135 150.307 50.7086C150.593 50.7036 150.877 50.7565 151.141 50.864C151.406 50.9716 151.647 51.1315 151.848 51.3343L153.032 52.5264C153.233 52.7292 153.391 52.9706 153.497 53.2362C153.603 53.5017 153.654 53.7859 153.647 54.0716C153.64 54.3573 153.575 54.6387 153.457 54.8988C153.338 55.1589 153.168 55.3923 152.957 55.5851L138.061 69.1938C137.657 69.5627 137.126 69.7613 136.58 69.748C136.033 69.7347 135.512 69.5105 135.127 69.1224Z" fill="#0B6AF2"/>
    <path d="M126.447 64.0774C126.119 63.9321 125.86 63.6657 125.724 63.3339C125.588 63.0021 125.585 62.6306 125.717 62.297L130.57 49.9892C130.639 49.8148 130.742 49.6562 130.873 49.5228C131.005 49.3894 131.162 49.284 131.336 49.213C131.509 49.1419 131.695 49.1066 131.882 49.1093C132.07 49.1119 132.255 49.1524 132.426 49.2284L133.433 49.6748C133.604 49.7507 133.759 49.8605 133.886 49.9975C134.014 50.1346 134.113 50.2961 134.177 50.4723C134.241 50.6485 134.268 50.8358 134.258 51.0229C134.247 51.21 134.199 51.393 134.116 51.561L128.256 63.4224C128.098 63.744 127.821 63.9918 127.483 64.1138C127.146 64.2359 126.775 64.2228 126.447 64.0774Z" fill="#0B6AF2"/>
    <path d="M117.617 66.0891C116.498 66.2904 115.376 65.3308 115.073 63.9137L109.69 38.7516C109.369 37.2479 110.089 35.8177 111.276 35.6039L112.929 35.3063C114.115 35.0927 115.29 36.1823 115.513 37.7033L119.242 63.1629C119.452 64.5972 118.735 65.8877 117.617 66.0891Z" fill="#0B6AF2"/>
    <path d="M204.611 89.7691L180.873 86.7091C180.474 86.6664 180.071 86.7466 179.718 86.939C179.365 87.1314 179.079 87.4268 178.898 87.7859L172.586 100.249L146.164 153.092C145.883 153.65 145.413 154.09 144.837 154.333C144.261 154.576 143.618 154.605 143.022 154.416L71.3049 131.524C71.1071 131.461 70.8971 131.446 70.6922 131.48C70.4874 131.514 70.2934 131.596 70.1265 131.719C69.9595 131.843 69.8242 132.004 69.7317 132.19C69.6392 132.376 69.5922 132.581 69.5945 132.788L69.6274 135.767C69.6314 136.181 69.766 136.583 70.0119 136.916C70.2579 137.249 70.6027 137.496 70.9972 137.622L146.876 161.841C147.722 162.111 148.481 162.6 149.078 163.258C149.674 163.916 150.085 164.72 150.271 165.589L150.296 165.707C150.956 169.333 147.383 172.309 143.862 171.24L60.6586 144.648C60.2318 144.512 59.8641 144.235 59.6165 143.862C59.3688 143.489 59.256 143.042 59.2967 142.596L65.8084 71.4881C65.8411 71.1214 65.9506 70.7658 66.1297 70.4442C66.3088 70.1226 66.5535 69.8423 66.848 69.6215C67.1425 69.4006 67.4801 69.2442 67.839 69.1623C68.1978 69.0803 68.5699 69.0748 68.931 69.146L168.608 88.6452L175.028 75.8863C175.213 75.5257 175.505 75.2307 175.863 75.041C176.221 74.8514 176.629 74.7763 177.032 74.8258L206.1 78.5482C206.358 78.5806 206.606 78.6638 206.832 78.793C207.057 78.9222 207.255 79.0949 207.413 79.301C207.572 79.5071 207.687 79.7426 207.754 79.9937C207.821 80.2449 207.837 80.5068 207.802 80.7643L206.811 88.0757C206.742 88.5912 206.472 89.0586 206.06 89.3758C205.648 89.6931 205.127 89.8345 204.611 89.7691Z" fill="#3E9DFF"/>
    <path d="M69.827 119.35L77.9491 121.942L85.7401 82.4351L73.2711 80.5205L69.827 119.35Z" fill="#E0E8F0"/>
    <path d="M133.554 139.691L141.676 142.283L162.68 98.0438L153.734 95.8767L133.554 139.691Z" fill="#E0E8F0"/>
    <path d="M102.315 129.72L109.812 132.113L125.872 90.4256L113.602 87.8862L102.315 129.72Z" fill="#E0E8F0"/>
    <path d="M92.8135 84.0039L105.083 86.5432L94.1946 127.127L86.0726 124.535L92.8135 84.0039Z" fill="#E0E8F0"/>
    <path d="M146.039 94.1083L133.769 91.5688L118.56 134.904L126.058 137.297L146.039 94.1083Z" fill="#E0E8F0"/>
    <path d="M71.3947 170.321C76.6466 170.321 80.9042 166.063 80.9042 160.811C80.9042 155.559 76.6466 151.302 71.3947 151.302C66.1427 151.302 61.8851 155.559 61.8851 160.811C61.8851 166.063 66.1427 170.321 71.3947 170.321Z" fill="#3E9DFF"/>
    <path d="M130.748 189.266C136 189.266 140.258 185.008 140.258 179.756C140.258 174.504 136 170.247 130.748 170.247C125.496 170.247 121.239 174.504 121.239 179.756C121.239 185.008 125.496 189.266 130.748 189.266Z" fill="#3E9DFF"/>
    <path d="M208.881 78.1547L183.829 75.0183C183.69 75.0009 183.564 75.0994 183.546 75.2383L182.028 87.3673C182.01 87.5062 182.109 87.6329 182.248 87.6502L207.3 90.7866C207.439 90.804 207.565 90.7055 207.583 90.5666L209.101 78.4376C209.119 78.2988 209.02 78.1721 208.881 78.1547Z" fill="#3E9DFF"/>
    </svg>
    