<svg width="240" height="240" viewBox="0 0 240 240" fill="none" xmlns="http://www.w3.org/2000/svg">
    <path
        d="M35.5729 182.055C42.1009 197.985 52.7449 201.301 60.2285 197.985C74.7015 191.573 112.297 184.408 150.909 201.249C202.049 223.555 212.93 189.902 196.609 155.86C180.287 121.819 174.755 87.3946 193.57 68.4284C212.386 49.4623 187.764 19.7924 144.039 50.6767C115.782 70.6353 95.0446 66.1911 83.9087 60.5489C73.4135 55.2313 61.7416 49.6721 50.8061 54.0127C37.5371 59.2799 32.3087 70.6993 52.4969 96.2105C81.1053 132.362 20.9395 146.349 35.5729 182.055Z"
        fill="#E0E8F0" />
    <path
        d="M62.1528 104.455H163.748V182.588C163.748 182.747 163.685 182.9 163.573 183.012C163.46 183.125 163.308 183.188 163.148 183.188H62.7528C62.5937 183.188 62.4411 183.125 62.3286 183.012C62.216 182.9 62.1528 182.747 62.1528 182.588V104.455Z"
        fill="#3E9DFF" />
    <path d="M138.261 73.8367H91.0216L62.1528 104.455H163.748L138.261 73.8367Z" fill="#0B6AF2" />
    <path d="M71.7756 61.5894L91.0215 73.8368L62.1527 104.455L40.2823 87.8337L71.7756 61.5894Z"
        fill="#3E9DFF" />
    <path d="M157.507 61.5894L138.261 73.8368L163.748 104.455L189 87.8337L157.507 61.5894Z"
        fill="#3E9DFF" />
    <path
        d="M103.433 62.2154C103.976 61.9579 104.398 61.5005 104.612 60.9387C104.826 60.3769 104.814 59.7543 104.579 59.2009L95.9214 38.7856C95.7988 38.4964 95.6189 38.235 95.3927 38.0171C95.1665 37.7992 94.8985 37.6293 94.6049 37.5177C94.3113 37.406 93.9982 37.3549 93.6844 37.3673C93.3705 37.3798 93.0624 37.4556 92.7786 37.5901L91.1106 38.3811C90.8268 38.5156 90.5731 38.7062 90.3649 38.9413C90.1566 39.1764 89.998 39.4512 89.8987 39.7492C89.7993 40.0472 89.7612 40.3621 89.7867 40.6752C89.8122 40.9883 89.9008 41.2929 90.047 41.5709L100.373 61.1952C100.653 61.7271 101.127 62.1303 101.698 62.3205C102.268 62.5106 102.889 62.473 103.433 62.2154Z"
        fill="#0B6AF2" />
    <path
        d="M114.288 60.2363C114.681 60.2083 115.048 60.0295 115.312 59.7373C115.577 59.445 115.718 59.0619 115.706 58.668L115.279 44.1341C115.273 43.9282 115.225 43.7257 115.139 43.5387C115.052 43.3517 114.929 43.1841 114.776 43.046C114.624 42.9078 114.445 42.802 114.25 42.7349C114.055 42.6677 113.849 42.6406 113.643 42.6552L112.436 42.7413C112.23 42.7559 112.03 42.8119 111.847 42.9058C111.664 42.9998 111.502 43.1299 111.37 43.2882C111.238 43.4465 111.14 43.6298 111.081 43.827C111.022 44.0243 111.003 44.2314 111.026 44.436L112.662 58.884C112.706 59.2757 112.9 59.6351 113.203 59.8872C113.506 60.1392 113.895 60.2643 114.288 60.2363Z"
        fill="#0B6AF2" />
    <path
        d="M122.666 65.609C123.747 66.2341 125.265 65.6605 126.107 64.3085L141.055 40.3021C141.948 38.868 141.736 37.1201 140.589 36.4571L138.991 35.5331C137.844 34.87 136.224 35.5585 135.426 37.0478L122.077 61.9781C121.325 63.3822 121.585 64.9838 122.666 65.609Z"
        fill="#0B6AF2" />
</svg>
    