<svg width="24" height="24" viewBox="0 0 24 24" fill="none" xmlns="http://www.w3.org/2000/svg">
<path d="M23 9H22.586C21.549 5.32 18.681 2.451 15 1.414V1C15 0.448 14.553 0 14 0H10C9.447 0 9 0.448 9 1V1.414C5.319 2.451 2.451 5.32 1.414 9H1C0.447 9 0 9.448 0 10V14C0 14.552 0.447 15 1 15H1.414C2.451 18.68 5.319 21.549 9 22.586V23C9 23.552 9.447 24 10 24H14C14.553 24 15 23.552 15 23V22.586C18.681 21.549 21.549 18.68 22.586 15H23C23.553 15 24 14.552 24 14V10C24 9.448 23.553 9 23 9ZM12 16C9.794 16 8 14.206 8 12C8 9.794 9.794 8 12 8C14.206 8 16 9.794 16 12C16 14.206 14.206 16 12 16ZM20.482 9H17.188C16.662 8.093 15.907 7.338 15 6.812V3.518C17.567 4.42 19.58 6.433 20.482 9ZM9 3.518V6.812C8.093 7.338 7.338 8.093 6.812 9H3.518C4.42 6.433 6.433 4.42 9 3.518ZM3.518 15H6.812C7.338 15.907 8.093 16.662 9 17.188V20.482C6.433 19.58 4.42 17.567 3.518 15ZM15 20.482V17.188C15.907 16.662 16.662 15.906 17.188 15H20.482C19.58 17.567 17.567 19.58 15 20.482Z" fill="#93A0AC"/>
</svg>
