<svg width="120" height="120" viewBox="0 0 120 120" fill="none" xmlns="http://www.w3.org/2000/svg">
<circle cx="60" cy="60" r="60" />
<path d="M52 68L68 52" stroke="white" stroke-linecap="round" stroke-linejoin="round"/>
<path d="M53.3333 54.6667C54.0697 54.6667 54.6667 54.0697 54.6667 53.3333C54.6667 52.597 54.0697 52 53.3333 52C52.597 52 52 52.597 52 53.3333C52 54.0697 52.597 54.6667 53.3333 54.6667Z" fill="white" stroke="white" stroke-linecap="round" stroke-linejoin="round"/>
<path d="M66.6665 68C67.4029 68 67.9999 67.403 67.9999 66.6666C67.9999 65.9303 67.4029 65.3333 66.6665 65.3333C65.9301 65.3333 65.3332 65.9303 65.3332 66.6666C65.3332 67.403 65.9301 68 66.6665 68Z" fill="white" stroke="white" stroke-linecap="round" stroke-linejoin="round"/>
<path d="M43.3814 48.5969C43.3814 47.2137 43.9309 45.8871 44.909 44.909C45.8871 43.9309 47.2137 43.3814 48.5969 43.3814H50.9676C52.3448 43.3806 53.6657 42.8352 54.6422 41.8642L56.3017 40.2047C56.7864 39.7172 57.3627 39.3304 57.9973 39.0665C58.632 38.8026 59.3126 38.6667 60 38.6667C60.6874 38.6667 61.368 38.8026 62.0027 39.0665C62.6374 39.3304 63.2136 39.7172 63.6983 40.2047L65.3578 41.8642C66.3343 42.8352 67.6553 43.3806 69.0324 43.3814H71.4031C72.7863 43.3814 74.1129 43.9309 75.091 44.909C76.0691 45.8871 76.6186 47.2137 76.6186 48.5969V50.9676C76.6194 52.3448 77.1648 53.6657 78.1359 54.6422L79.7954 56.3017C80.2828 56.7864 80.6696 57.3627 80.9335 57.9973C81.1975 58.632 81.3334 59.3126 81.3334 60C81.3334 60.6874 81.1975 61.368 80.9335 62.0027C80.6696 62.6374 80.2828 63.2136 79.7954 63.6983L78.1359 65.3578C77.1648 66.3343 76.6194 67.6553 76.6186 69.0324V71.4031C76.6186 72.7863 76.0691 74.1129 75.091 75.091C74.1129 76.0691 72.7863 76.6186 71.4031 76.6186H69.0324C67.6553 76.6194 66.3343 77.1648 65.3578 78.1359L63.6983 79.7954C63.2136 80.2828 62.6374 80.6696 62.0027 80.9335C61.368 81.1975 60.6874 81.3334 60 81.3334C59.3126 81.3334 58.632 81.1975 57.9973 80.9335C57.3627 80.6696 56.7864 80.2828 56.3017 79.7954L54.6422 78.1359C53.6657 77.1648 52.3448 76.6194 50.9676 76.6186H48.5969C47.2137 76.6186 45.8871 76.0691 44.909 75.091C43.9309 74.1129 43.3814 72.7863 43.3814 71.4031V69.0324C43.3806 67.6553 42.8352 66.3343 41.8642 65.3578L40.2047 63.6983C39.7172 63.2136 39.3304 62.6374 39.0665 62.0027C38.8026 61.368 38.6667 60.6874 38.6667 60C38.6667 59.3126 38.8026 58.632 39.0665 57.9973C39.3304 57.3627 39.7172 56.7864 40.2047 56.3017L41.8642 54.6422C42.8352 53.6657 43.3806 52.3448 43.3814 50.9676V48.5969" stroke="white" stroke-linecap="round" stroke-linejoin="round"/>
</svg>
