<svg width="220" height="32" viewBox="0 0 220 32" fill="none" xmlns="http://www.w3.org/2000/svg">
<path d="M46.48 23V8.8H56.02V11.22H49.24V14.88H54.88V17.12H49.24V23H46.48ZM56.275 19.9C56.275 19.22 56.4617 18.6267 56.835 18.12C57.2217 17.6 57.755 17.2 58.435 16.92C59.115 16.64 59.895 16.5 60.775 16.5C61.215 16.5 61.6617 16.54 62.115 16.62C62.5683 16.6867 62.9617 16.7867 63.295 16.92V16.36C63.295 15.6933 63.095 15.18 62.695 14.82C62.3083 14.46 61.7283 14.28 60.955 14.28C60.3817 14.28 59.835 14.38 59.315 14.58C58.795 14.78 58.2483 15.0733 57.675 15.46L56.815 13.7C57.5083 13.2467 58.215 12.9067 58.935 12.68C59.6683 12.4533 60.435 12.34 61.235 12.34C62.7283 12.34 63.8883 12.7133 64.715 13.46C65.555 14.2067 65.975 15.2733 65.975 16.66V20C65.975 20.2933 66.0217 20.5 66.115 20.62C66.2083 20.7267 66.375 20.7933 66.615 20.82V23C66.375 23.0533 66.155 23.0867 65.955 23.1C65.7683 23.1267 65.6083 23.14 65.475 23.14C64.9417 23.14 64.535 23.02 64.255 22.78C63.975 22.54 63.8083 22.2467 63.755 21.9L63.695 21.36C63.2283 21.96 62.655 22.42 61.975 22.74C61.3083 23.0467 60.6217 23.2 59.915 23.2C59.2083 23.2 58.5817 23.06 58.035 22.78C57.4883 22.4867 57.055 22.0933 56.735 21.6C56.4283 21.0933 56.275 20.5267 56.275 19.9ZM62.795 20.44C63.1283 20.12 63.295 19.8133 63.295 19.52V18.46C62.6017 18.18 61.9017 18.04 61.195 18.04C60.4883 18.04 59.915 18.1933 59.475 18.5C59.035 18.7933 58.815 19.1867 58.815 19.68C58.815 20.08 58.975 20.44 59.295 20.76C59.615 21.08 60.075 21.24 60.675 21.24C61.075 21.24 61.4617 21.1667 61.835 21.02C62.2217 20.8733 62.5417 20.68 62.795 20.44ZM74.8694 14.84C74.056 14.84 73.3294 15 72.6894 15.32C72.0494 15.6267 71.5894 16.0733 71.3094 16.66V23H68.6294V12.52H71.0894V14.76C71.4494 14.04 71.916 13.4733 72.4894 13.06C73.076 12.6467 73.6894 12.42 74.3294 12.38C74.6094 12.38 74.7894 12.3867 74.8694 12.4V14.84ZM92.7938 23H90.1138V17.12C90.1138 16.2933 89.9671 15.6867 89.6738 15.3C89.3938 14.9 89.0004 14.7 88.4938 14.7C87.9604 14.7 87.4604 14.9067 86.9938 15.32C86.5271 15.72 86.1938 16.2467 85.9938 16.9V23H83.3138V17.12C83.3138 16.28 83.1671 15.6667 82.8738 15.28C82.5938 14.8933 82.2004 14.7 81.6938 14.7C81.1738 14.7 80.6738 14.9 80.1938 15.3C79.7271 15.7 79.3938 16.2267 79.1938 16.88V23H76.5138V12.52H78.9338V14.46C79.3204 13.78 79.8471 13.26 80.5138 12.9C81.1938 12.5267 81.9671 12.34 82.8338 12.34C83.7004 12.34 84.3738 12.5533 84.8538 12.98C85.3471 13.4067 85.6604 13.9333 85.7938 14.56C86.2071 13.84 86.7471 13.2933 87.4138 12.92C88.0804 12.5333 88.8271 12.34 89.6538 12.34C90.3071 12.34 90.8338 12.46 91.2338 12.7C91.6471 12.9267 91.9671 13.24 92.1938 13.64C92.4204 14.0267 92.5738 14.4667 92.6538 14.96C92.7471 15.4533 92.7938 15.9533 92.7938 16.46V23ZM94.557 19.9C94.557 19.22 94.7437 18.6267 95.117 18.12C95.5037 17.6 96.037 17.2 96.717 16.92C97.397 16.64 98.177 16.5 99.057 16.5C99.497 16.5 99.9437 16.54 100.397 16.62C100.85 16.6867 101.244 16.7867 101.577 16.92V16.36C101.577 15.6933 101.377 15.18 100.977 14.82C100.59 14.46 100.01 14.28 99.237 14.28C98.6637 14.28 98.117 14.38 97.597 14.58C97.077 14.78 96.5304 15.0733 95.957 15.46L95.097 13.7C95.7904 13.2467 96.497 12.9067 97.217 12.68C97.9504 12.4533 98.717 12.34 99.517 12.34C101.01 12.34 102.17 12.7133 102.997 13.46C103.837 14.2067 104.257 15.2733 104.257 16.66V20C104.257 20.2933 104.304 20.5 104.397 20.62C104.49 20.7267 104.657 20.7933 104.897 20.82V23C104.657 23.0533 104.437 23.0867 104.237 23.1C104.05 23.1267 103.89 23.14 103.757 23.14C103.224 23.14 102.817 23.02 102.537 22.78C102.257 22.54 102.09 22.2467 102.037 21.9L101.977 21.36C101.51 21.96 100.937 22.42 100.257 22.74C99.5904 23.0467 98.9037 23.2 98.197 23.2C97.4904 23.2 96.8637 23.06 96.317 22.78C95.7704 22.4867 95.337 22.0933 95.017 21.6C94.7104 21.0933 94.557 20.5267 94.557 19.9ZM101.077 20.44C101.41 20.12 101.577 19.8133 101.577 19.52V18.46C100.884 18.18 100.184 18.04 99.477 18.04C98.7704 18.04 98.197 18.1933 97.757 18.5C97.317 18.7933 97.097 19.1867 97.097 19.68C97.097 20.08 97.257 20.44 97.577 20.76C97.897 21.08 98.357 21.24 98.957 21.24C99.357 21.24 99.7437 21.1667 100.117 21.02C100.504 20.8733 100.824 20.68 101.077 20.44ZM100.397 11.3L98.677 10.78L99.757 8.4H102.257L100.397 11.3ZM111.791 23.2C110.658 23.2 109.678 22.9467 108.851 22.44C108.025 21.9333 107.385 21.2667 106.931 20.44C106.478 19.6133 106.251 18.72 106.251 17.76C106.251 16.7867 106.471 15.8867 106.911 15.06C107.365 14.2333 108.005 13.5733 108.831 13.08C109.658 12.5867 110.638 12.34 111.771 12.34C112.918 12.34 113.891 12.5867 114.691 13.08C115.505 13.5733 116.111 14.22 116.511 15.02L113.891 15.82C113.425 15.02 112.711 14.62 111.751 14.62C111.231 14.62 110.765 14.7533 110.351 15.02C109.938 15.2733 109.611 15.64 109.371 16.12C109.131 16.5867 109.011 17.1333 109.011 17.76C109.011 18.3733 109.131 18.92 109.371 19.4C109.625 19.8667 109.958 20.24 110.371 20.52C110.785 20.7867 111.245 20.92 111.751 20.92C112.231 20.92 112.671 20.8067 113.071 20.58C113.485 20.34 113.771 20.04 113.931 19.68L116.551 20.48C116.191 21.2667 115.591 21.92 114.751 22.44C113.925 22.9467 112.938 23.2 111.791 23.2ZM118.35 11.06V8.4H121.03V11.06H118.35ZM118.35 23V12.52H121.03V23H118.35ZM122.878 19.9C122.878 19.22 123.065 18.6267 123.438 18.12C123.825 17.6 124.358 17.2 125.038 16.92C125.718 16.64 126.498 16.5 127.378 16.5C127.818 16.5 128.265 16.54 128.718 16.62C129.171 16.6867 129.565 16.7867 129.898 16.92V16.36C129.898 15.6933 129.698 15.18 129.298 14.82C128.911 14.46 128.331 14.28 127.558 14.28C126.985 14.28 126.438 14.38 125.918 14.58C125.398 14.78 124.851 15.0733 124.278 15.46L123.418 13.7C124.111 13.2467 124.818 12.9067 125.538 12.68C126.271 12.4533 127.038 12.34 127.838 12.34C129.331 12.34 130.491 12.7133 131.318 13.46C132.158 14.2067 132.578 15.2733 132.578 16.66V20C132.578 20.2933 132.625 20.5 132.718 20.62C132.811 20.7267 132.978 20.7933 133.218 20.82V23C132.978 23.0533 132.758 23.0867 132.558 23.1C132.371 23.1267 132.211 23.14 132.078 23.14C131.545 23.14 131.138 23.02 130.858 22.78C130.578 22.54 130.411 22.2467 130.358 21.9L130.298 21.36C129.831 21.96 129.258 22.42 128.578 22.74C127.911 23.0467 127.225 23.2 126.518 23.2C125.811 23.2 125.185 23.06 124.638 22.78C124.091 22.4867 123.658 22.0933 123.338 21.6C123.031 21.0933 122.878 20.5267 122.878 19.9ZM129.398 20.44C129.731 20.12 129.898 19.8133 129.898 19.52V18.46C129.205 18.18 128.505 18.04 127.798 18.04C127.091 18.04 126.518 18.1933 126.078 18.5C125.638 18.7933 125.418 19.1867 125.418 19.68C125.418 20.08 125.578 20.44 125.898 20.76C126.218 21.08 126.678 21.24 127.278 21.24C127.678 21.24 128.065 21.1667 128.438 21.02C128.825 20.8733 129.145 20.68 129.398 20.44ZM148.907 12.52C148.787 12.3867 148.534 12.2133 148.147 12C147.761 11.7733 147.294 11.5733 146.747 11.4C146.214 11.2133 145.661 11.12 145.087 11.12C143.581 11.12 142.827 11.6533 142.827 12.72C142.827 13.1067 142.947 13.4133 143.187 13.64C143.427 13.8667 143.787 14.06 144.267 14.22C144.747 14.38 145.347 14.5533 146.067 14.74C147.001 14.98 147.807 15.26 148.487 15.58C149.181 15.9 149.707 16.3267 150.067 16.86C150.441 17.38 150.627 18.0733 150.627 18.94C150.627 19.9533 150.381 20.7733 149.887 21.4C149.407 22.0133 148.767 22.46 147.967 22.74C147.167 23.02 146.301 23.16 145.367 23.16C144.301 23.16 143.241 23 142.187 22.68C141.147 22.3467 140.221 21.8933 139.407 21.32L140.627 18.94C140.747 19.06 140.961 19.22 141.267 19.42C141.574 19.6067 141.947 19.8 142.387 20C142.827 20.1867 143.307 20.3467 143.827 20.48C144.347 20.6133 144.874 20.68 145.407 20.68C146.927 20.68 147.687 20.1933 147.687 19.22C147.687 18.8067 147.534 18.4733 147.227 18.22C146.921 17.9667 146.487 17.7533 145.927 17.58C145.381 17.4067 144.741 17.2133 144.007 17C143.101 16.7467 142.347 16.4667 141.747 16.16C141.161 15.84 140.721 15.4467 140.427 14.98C140.134 14.5 139.987 13.8933 139.987 13.16C139.987 12.1867 140.214 11.3733 140.667 10.72C141.134 10.0533 141.761 9.55333 142.547 9.22C143.334 8.87333 144.207 8.7 145.167 8.7C146.154 8.7 147.074 8.86 147.927 9.18C148.781 9.5 149.514 9.86667 150.127 10.28L148.907 12.52ZM152.444 19.08V12.52H155.124V18.5C155.124 20.1133 155.704 20.92 156.864 20.92C157.384 20.92 157.884 20.7667 158.364 20.46C158.858 20.14 159.258 19.66 159.564 19.02V12.52H162.244V20C162.244 20.2933 162.291 20.5 162.384 20.62C162.478 20.7267 162.644 20.7933 162.884 20.82V23C162.618 23.0533 162.391 23.0867 162.204 23.1C162.031 23.1133 161.871 23.12 161.724 23.12C161.244 23.12 160.851 23.0133 160.544 22.8C160.251 22.5733 160.078 22.2667 160.024 21.88L159.964 21.04C159.498 21.76 158.898 22.3 158.164 22.66C157.431 23.02 156.624 23.2 155.744 23.2C154.664 23.2 153.844 22.8533 153.284 22.16C152.724 21.4533 152.444 20.4267 152.444 19.08ZM169.938 23.2C168.804 23.2 167.824 22.9467 166.998 22.44C166.171 21.9333 165.531 21.2667 165.078 20.44C164.624 19.6133 164.398 18.72 164.398 17.76C164.398 16.7867 164.618 15.8867 165.058 15.06C165.511 14.2333 166.151 13.5733 166.978 13.08C167.804 12.5867 168.784 12.34 169.918 12.34C171.064 12.34 172.038 12.5867 172.838 13.08C173.651 13.5733 174.258 14.22 174.658 15.02L172.038 15.82C171.571 15.02 170.858 14.62 169.898 14.62C169.378 14.62 168.911 14.7533 168.498 15.02C168.084 15.2733 167.758 15.64 167.518 16.12C167.278 16.5867 167.158 17.1333 167.158 17.76C167.158 18.3733 167.278 18.92 167.518 19.4C167.771 19.8667 168.104 20.24 168.518 20.52C168.931 20.7867 169.391 20.92 169.898 20.92C170.378 20.92 170.818 20.8067 171.218 20.58C171.631 20.34 171.918 20.04 172.078 19.68L174.698 20.48C174.338 21.2667 173.738 21.92 172.898 22.44C172.071 22.9467 171.084 23.2 169.938 23.2ZM181.259 23.2C180.126 23.2 179.146 22.9533 178.319 22.46C177.506 21.9667 176.872 21.3133 176.419 20.5C175.966 19.6733 175.739 18.78 175.739 17.82C175.739 16.8333 175.959 15.9267 176.399 15.1C176.852 14.26 177.492 13.5933 178.319 13.1C179.146 12.5933 180.132 12.34 181.279 12.34C182.426 12.34 183.406 12.5933 184.219 13.1C185.032 13.5933 185.652 14.2533 186.079 15.08C186.519 15.8933 186.739 16.7733 186.739 17.72C186.739 18.0667 186.719 18.3667 186.679 18.62H178.579C178.646 19.4333 178.946 20.0733 179.479 20.54C180.026 21.0067 180.652 21.24 181.359 21.24C181.892 21.24 182.392 21.1133 182.859 20.86C183.339 20.5933 183.666 20.2467 183.839 19.82L186.139 20.46C185.752 21.26 185.132 21.92 184.279 22.44C183.426 22.9467 182.419 23.2 181.259 23.2ZM178.519 16.92H183.999C183.919 16.1333 183.619 15.5 183.099 15.02C182.592 14.5267 181.972 14.28 181.239 14.28C180.519 14.28 179.899 14.5267 179.379 15.02C178.872 15.5 178.586 16.1333 178.519 16.92ZM192.382 23.2C191.488 23.2 190.635 23.0533 189.822 22.76C189.008 22.4667 188.308 22.0333 187.722 21.46L188.682 19.72C189.308 20.2267 189.922 20.6 190.522 20.84C191.122 21.08 191.708 21.2 192.282 21.2C192.802 21.2 193.215 21.1067 193.522 20.92C193.842 20.7333 194.002 20.4533 194.002 20.08C194.002 19.6933 193.808 19.4333 193.422 19.3C193.035 19.1533 192.495 18.9733 191.802 18.76C191.028 18.52 190.382 18.2733 189.862 18.02C189.342 17.7667 188.948 17.46 188.682 17.1C188.428 16.74 188.302 16.2733 188.302 15.7C188.302 14.6733 188.688 13.8533 189.462 13.24C190.235 12.6267 191.262 12.32 192.542 12.32C193.288 12.32 193.995 12.44 194.662 12.68C195.328 12.9067 195.935 13.28 196.482 13.8L195.402 15.5C194.375 14.7 193.382 14.3 192.422 14.3C191.995 14.3 191.615 14.38 191.282 14.54C190.962 14.7 190.802 14.98 190.802 15.38C190.802 15.7533 190.955 16.02 191.262 16.18C191.582 16.34 192.062 16.5133 192.702 16.7C193.528 16.9533 194.228 17.2 194.802 17.44C195.388 17.68 195.828 17.9867 196.122 18.36C196.428 18.7333 196.582 19.24 196.582 19.88C196.582 20.92 196.202 21.7333 195.442 22.32C194.682 22.9067 193.662 23.2 192.382 23.2ZM202.414 23.2C201.521 23.2 200.668 23.0533 199.854 22.76C199.041 22.4667 198.341 22.0333 197.754 21.46L198.714 19.72C199.341 20.2267 199.954 20.6 200.554 20.84C201.154 21.08 201.741 21.2 202.314 21.2C202.834 21.2 203.248 21.1067 203.554 20.92C203.874 20.7333 204.034 20.4533 204.034 20.08C204.034 19.6933 203.841 19.4333 203.454 19.3C203.068 19.1533 202.528 18.9733 201.834 18.76C201.061 18.52 200.414 18.2733 199.894 18.02C199.374 17.7667 198.981 17.46 198.714 17.1C198.461 16.74 198.334 16.2733 198.334 15.7C198.334 14.6733 198.721 13.8533 199.494 13.24C200.268 12.6267 201.294 12.32 202.574 12.32C203.321 12.32 204.028 12.44 204.694 12.68C205.361 12.9067 205.968 13.28 206.514 13.8L205.434 15.5C204.408 14.7 203.414 14.3 202.454 14.3C202.028 14.3 201.648 14.38 201.314 14.54C200.994 14.7 200.834 14.98 200.834 15.38C200.834 15.7533 200.988 16.02 201.294 16.18C201.614 16.34 202.094 16.5133 202.734 16.7C203.561 16.9533 204.261 17.2 204.834 17.44C205.421 17.68 205.861 17.9867 206.154 18.36C206.461 18.7333 206.614 19.24 206.614 19.88C206.614 20.92 206.234 21.7333 205.474 22.32C204.714 22.9067 203.694 23.2 202.414 23.2ZM213.427 23.2C212.281 23.2 211.294 22.9533 210.467 22.46C209.654 21.9533 209.027 21.2867 208.587 20.46C208.147 19.6333 207.927 18.74 207.927 17.78C207.927 16.8067 208.147 15.9067 208.587 15.08C209.041 14.2533 209.674 13.5933 210.487 13.1C211.314 12.5933 212.294 12.34 213.427 12.34C214.561 12.34 215.534 12.5933 216.347 13.1C217.174 13.5933 217.807 14.2533 218.247 15.08C218.687 15.9067 218.907 16.8067 218.907 17.78C218.907 18.74 218.687 19.6333 218.247 20.46C217.807 21.2867 217.174 21.9533 216.347 22.46C215.534 22.9533 214.561 23.2 213.427 23.2ZM210.687 17.78C210.687 18.3933 210.807 18.94 211.047 19.42C211.287 19.8867 211.614 20.2533 212.027 20.52C212.441 20.7867 212.907 20.92 213.427 20.92C213.934 20.92 214.394 20.7867 214.807 20.52C215.221 20.24 215.547 19.8667 215.787 19.4C216.041 18.92 216.167 18.3733 216.167 17.76C216.167 17.16 216.041 16.6267 215.787 16.16C215.547 15.68 215.221 15.3067 214.807 15.04C214.394 14.76 213.934 14.62 213.427 14.62C212.907 14.62 212.441 14.76 212.027 15.04C211.614 15.3067 211.287 15.68 211.047 16.16C210.807 16.6267 210.687 17.1667 210.687 17.78Z" fill="white"/>
<path d="M6.00038 16.6666L16.667 5.99989C17.9047 4.76221 19.5834 4.06689 21.3337 4.06689C23.084 4.06689 24.7627 4.76221 26.0004 5.99989C27.2381 7.23757 27.9334 8.91622 27.9334 10.6666C27.9334 12.4169 27.2381 14.0955 26.0004 15.3332L15.3337 25.9999C14.096 27.2376 12.4174 27.9329 10.667 27.9329C8.91671 27.9329 7.23806 27.2376 6.00038 25.9999C4.7627 24.7622 4.06738 23.0836 4.06738 21.3332C4.06738 19.5829 4.7627 17.9042 6.00038 16.6666" stroke="white" stroke-width="2.75" stroke-linecap="round" stroke-linejoin="round"/>
<path d="M11.3335 11.3335L20.6668 20.6668" stroke="white" stroke-width="2.75" stroke-linecap="round" stroke-linejoin="round"/>
</svg>
